<?xml version="1.0" encoding="UTF-8" standalone="no"?>
<!DOCTYPE svg PUBLIC "-//W3C//DTD SVG 1.1//EN"
 "http://www.w3.org/Graphics/SVG/1.1/DTD/svg11.dtd">
<!-- Generated by graphviz version 2.43.0 (0)
 -->
<!-- Title: G Pages: 1 -->
<svg width="1604pt" height="1060pt"
 viewBox="0.00 0.00 1604.00 1060.41" xmlns="http://www.w3.org/2000/svg" xmlns:xlink="http://www.w3.org/1999/xlink">
<g id="graph0" class="graph" transform="scale(1 1) rotate(0) translate(4 1056.41)">
<title>G</title>
<polygon fill="white" stroke="transparent" points="-4,4 -4,-1056.41 1600,-1056.41 1600,4 -4,4"/>
<!-- data.aws_ami.ubuntu -->
<g id="node1" class="node">
<title>data.aws_ami.ubuntu</title>
<polygon fill="none" stroke="black" points="540,-798.41 374,-798.41 374,-762.41 540,-762.41 540,-798.41"/>
<text text-anchor="middle" x="457" y="-776.71" font-family="sans-serif" font-size="14.00">data.aws_ami.ubuntu</text>
</g>
<!-- aws_cloudwatch_log_group.intranet_alb -->
<g id="node2" class="node">
<title>aws_cloudwatch_log_group.intranet_alb</title>
<polygon fill="none" stroke="black" points="1589,-588.41 1298,-588.41 1298,-552.41 1589,-552.41 1589,-588.41"/>
<text text-anchor="middle" x="1443.5" y="-566.71" font-family="sans-serif" font-size="14.00">aws_cloudwatch_log_group.intranet_alb</text>
</g>
<!-- aws_cloudwatch_log_group.vpc_flow_log -->
<g id="node3" class="node">
<title>aws_cloudwatch_log_group.vpc_flow_log</title>
<polygon fill="none" stroke="black" points="296,-998.41 0,-998.41 0,-962.41 296,-962.41 296,-998.41"/>
<text text-anchor="middle" x="148" y="-976.71" font-family="sans-serif" font-size="14.00">aws_cloudwatch_log_group.vpc_flow_log</text>
</g>
<!-- aws_customer_gateway.corporate -->
<g id="node4" class="node">
<title>aws_customer_gateway.corporate</title>
<polygon fill="none" stroke="black" points="582,-160.41 332,-160.41 332,-124.41 582,-124.41 582,-160.41"/>
<text text-anchor="middle" x="457" y="-138.71" font-family="sans-serif" font-size="14.00">aws_customer_gateway.corporate</text>
</g>
<!-- aws_eip.dev_server -->
<g id="node5" class="node">
<title>aws_eip.dev_server</title>
<polygon fill="none" stroke="black" points="1194.5,-755.41 1042.5,-755.41 1042.5,-719.41 1194.5,-719.41 1194.5,-755.41"/>
<text text-anchor="middle" x="1118.5" y="-733.71" font-family="sans-serif" font-size="14.00">aws_eip.dev_server</text>
</g>
<!-- aws_instance.dev_server -->
<g id="node9" class="node">
<title>aws_instance.dev_server</title>
<polygon fill="none" stroke="black" points="877,-728.41 687,-728.41 687,-692.41 877,-692.41 877,-728.41"/>
<text text-anchor="middle" x="782" y="-706.71" font-family="sans-serif" font-size="14.00">aws_instance.dev_server</text>
</g>
<!-- aws_eip.dev_server&#45;&gt;aws_instance.dev_server -->
<g id="edge1" class="edge">
<title>aws_eip.dev_server&#45;&gt;aws_instance.dev_server</title>
<path fill="none" stroke="black" d="M1042.43,-731.35C996.75,-727.67 937.72,-722.9 887.52,-718.85"/>
<polygon fill="black" stroke="black" points="887.52,-715.34 877.28,-718.02 886.96,-722.32 887.52,-715.34"/>
</g>
<!-- aws_internet_gateway.main -->
<g id="node10" class="node">
<title>aws_internet_gateway.main</title>
<polygon fill="none" stroke="black" points="885,-828.41 679,-828.41 679,-792.41 885,-792.41 885,-828.41"/>
<text text-anchor="middle" x="782" y="-806.71" font-family="sans-serif" font-size="14.00">aws_internet_gateway.main</text>
</g>
<!-- aws_eip.dev_server&#45;&gt;aws_internet_gateway.main -->
<g id="edge2" class="edge">
<title>aws_eip.dev_server&#45;&gt;aws_internet_gateway.main</title>
<path fill="none" stroke="black" d="M1042.43,-753.8C993.12,-764.56 928.26,-778.71 875.73,-790.18"/>
<polygon fill="black" stroke="black" points="874.76,-786.81 865.74,-792.36 876.25,-793.64 874.76,-786.81"/>
</g>
<!-- aws_flow_log.vpc -->
<g id="node6" class="node">
<title>aws_flow_log.vpc</title>
<polygon fill="none" stroke="black" points="525,-998.41 389,-998.41 389,-962.41 525,-962.41 525,-998.41"/>
<text text-anchor="middle" x="457" y="-976.71" font-family="sans-serif" font-size="14.00">aws_flow_log.vpc</text>
</g>
<!-- aws_flow_log.vpc&#45;&gt;aws_cloudwatch_log_group.vpc_flow_log -->
<g id="edge3" class="edge">
<title>aws_flow_log.vpc&#45;&gt;aws_cloudwatch_log_group.vpc_flow_log</title>
<path fill="none" stroke="black" d="M388.63,-980.41C364.15,-980.41 335.36,-980.41 306.39,-980.41"/>
<polygon fill="black" stroke="black" points="306.14,-976.91 296.14,-980.41 306.14,-983.91 306.14,-976.91"/>
</g>
<!-- aws_iam_role.flow_log -->
<g id="node7" class="node">
<title>aws_iam_role.flow_log</title>
<polygon fill="none" stroke="black" points="232.5,-1052.41 63.5,-1052.41 63.5,-1016.41 232.5,-1016.41 232.5,-1052.41"/>
<text text-anchor="middle" x="148" y="-1030.71" font-family="sans-serif" font-size="14.00">aws_iam_role.flow_log</text>
</g>
<!-- aws_flow_log.vpc&#45;&gt;aws_iam_role.flow_log -->
<g id="edge4" class="edge">
<title>aws_flow_log.vpc&#45;&gt;aws_iam_role.flow_log</title>
<path fill="none" stroke="black" d="M388.63,-992.26C345.78,-999.8 289.7,-1009.66 242.57,-1017.96"/>
<polygon fill="black" stroke="black" points="241.9,-1014.52 232.65,-1019.7 243.11,-1021.41 241.9,-1014.52"/>
</g>
<!-- aws_vpc.main -->
<g id="node40" class="node">
<title>aws_vpc.main</title>
<polygon fill="none" stroke="black" points="205,-517.41 91,-517.41 91,-481.41 205,-481.41 205,-517.41"/>
<text text-anchor="middle" x="148" y="-495.71" font-family="sans-serif" font-size="14.00">aws_vpc.main</text>
</g>
<!-- aws_flow_log.vpc&#45;&gt;aws_vpc.main -->
<g id="edge5" class="edge">
<title>aws_flow_log.vpc&#45;&gt;aws_vpc.main</title>
<path fill="none" stroke="black" d="M388.89,-977.71C368.75,-973.96 347.83,-966.77 332,-953.41 196.17,-838.77 160.13,-608.39 151.5,-527.93"/>
<polygon fill="black" stroke="black" points="154.94,-527.2 150.45,-517.6 147.97,-527.9 154.94,-527.2"/>
</g>
<!-- aws_iam_role_policy.flow_log -->
<g id="node8" class="node">
<title>aws_iam_role_policy.flow_log</title>
<polygon fill="none" stroke="black" points="564,-1052.41 350,-1052.41 350,-1016.41 564,-1016.41 564,-1052.41"/>
<text text-anchor="middle" x="457" y="-1030.71" font-family="sans-serif" font-size="14.00">aws_iam_role_policy.flow_log</text>
</g>
<!-- aws_iam_role_policy.flow_log&#45;&gt;aws_iam_role.flow_log -->
<g id="edge6" class="edge">
<title>aws_iam_role_policy.flow_log&#45;&gt;aws_iam_role.flow_log</title>
<path fill="none" stroke="black" d="M349.92,-1034.41C315.21,-1034.41 276.91,-1034.41 243.14,-1034.41"/>
<polygon fill="black" stroke="black" points="242.81,-1030.91 232.81,-1034.41 242.81,-1037.91 242.81,-1030.91"/>
</g>
<!-- aws_instance.dev_server&#45;&gt;data.aws_ami.ubuntu -->
<g id="edge7" class="edge">
<title>aws_instance.dev_server&#45;&gt;data.aws_ami.ubuntu</title>
<path fill="none" stroke="black" d="M697.82,-728.44C652.54,-738.25 596.41,-750.42 549.84,-760.51"/>
<polygon fill="black" stroke="black" points="549.09,-757.09 540.06,-762.63 550.57,-763.93 549.09,-757.09"/>
</g>
<!-- aws_security_group.dev_server -->
<g id="node35" class="node">
<title>aws_security_group.dev_server</title>
<polygon fill="none" stroke="black" points="574,-690.41 340,-690.41 340,-654.41 574,-654.41 574,-690.41"/>
<text text-anchor="middle" x="457" y="-668.71" font-family="sans-serif" font-size="14.00">aws_security_group.dev_server</text>
</g>
<!-- aws_instance.dev_server&#45;&gt;aws_security_group.dev_server -->
<g id="edge8" class="edge">
<title>aws_instance.dev_server&#45;&gt;aws_security_group.dev_server</title>
<path fill="none" stroke="black" d="M686.71,-699.32C654.68,-695.55 618.35,-691.28 584.23,-687.26"/>
<polygon fill="black" stroke="black" points="584.54,-683.78 574.2,-686.08 583.72,-690.73 584.54,-683.78"/>
</g>
<!-- aws_subnet.management -->
<g id="node38" class="node">
<title>aws_subnet.management</title>
<polygon fill="none" stroke="black" points="554.5,-636.41 359.5,-636.41 359.5,-600.41 554.5,-600.41 554.5,-636.41"/>
<text text-anchor="middle" x="457" y="-614.71" font-family="sans-serif" font-size="14.00">aws_subnet.management</text>
</g>
<!-- aws_instance.dev_server&#45;&gt;aws_subnet.management -->
<g id="edge9" class="edge">
<title>aws_instance.dev_server&#45;&gt;aws_subnet.management</title>
<path fill="none" stroke="black" d="M730.3,-692.28C690.34,-678.37 633.04,-659.27 582,-645.41 573.58,-643.13 564.8,-640.9 555.97,-638.78"/>
<polygon fill="black" stroke="black" points="556.53,-635.31 545.99,-636.42 554.92,-642.13 556.53,-635.31"/>
</g>
<!-- aws_internet_gateway.main&#45;&gt;aws_vpc.main -->
<g id="edge10" class="edge">
<title>aws_internet_gateway.main&#45;&gt;aws_vpc.main</title>
<path fill="none" stroke="black" d="M678.95,-821.1C564.94,-831.07 388.89,-840.04 332,-807.41 223.65,-745.28 172.68,-591.09 155.74,-527.51"/>
<polygon fill="black" stroke="black" points="159.11,-526.58 153.22,-517.77 152.33,-528.33 159.11,-526.58"/>
</g>
<!-- aws_lb.airflow_nlb -->
<g id="node11" class="node">
<title>aws_lb.airflow_nlb</title>
<polygon fill="none" stroke="black" points="853.5,-476.41 710.5,-476.41 710.5,-440.41 853.5,-440.41 853.5,-476.41"/>
<text text-anchor="middle" x="782" y="-454.71" font-family="sans-serif" font-size="14.00">aws_lb.airflow_nlb</text>
</g>
<!-- aws_subnet.private -->
<g id="node39" class="node">
<title>aws_subnet.private</title>
<polygon fill="none" stroke="black" points="533,-376.41 381,-376.41 381,-340.41 533,-340.41 533,-376.41"/>
<text text-anchor="middle" x="457" y="-354.71" font-family="sans-serif" font-size="14.00">aws_subnet.private</text>
</g>
<!-- aws_lb.airflow_nlb&#45;&gt;aws_subnet.private -->
<g id="edge11" class="edge">
<title>aws_lb.airflow_nlb&#45;&gt;aws_subnet.private</title>
<path fill="none" stroke="black" d="M710.26,-450.84C681.27,-446.67 647.63,-440.45 618,-431.41 576.27,-418.68 531.27,-397.42 499.66,-381.12"/>
<polygon fill="black" stroke="black" points="501.19,-377.97 490.71,-376.45 497.96,-384.17 501.19,-377.97"/>
</g>
<!-- aws_lb.intranet_alb -->
<g id="node12" class="node">
<title>aws_lb.intranet_alb</title>
<polygon fill="none" stroke="black" points="857,-330.41 707,-330.41 707,-294.41 857,-294.41 857,-330.41"/>
<text text-anchor="middle" x="782" y="-308.71" font-family="sans-serif" font-size="14.00">aws_lb.intranet_alb</text>
</g>
<!-- aws_security_group.intranet_alb -->
<g id="node36" class="node">
<title>aws_security_group.intranet_alb</title>
<polygon fill="none" stroke="black" points="577,-322.41 337,-322.41 337,-286.41 577,-286.41 577,-322.41"/>
<text text-anchor="middle" x="457" y="-300.71" font-family="sans-serif" font-size="14.00">aws_security_group.intranet_alb</text>
</g>
<!-- aws_lb.intranet_alb&#45;&gt;aws_security_group.intranet_alb -->
<g id="edge12" class="edge">
<title>aws_lb.intranet_alb&#45;&gt;aws_security_group.intranet_alb</title>
<path fill="none" stroke="black" d="M706.9,-310.58C671.37,-309.7 627.76,-308.62 587.03,-307.61"/>
<polygon fill="black" stroke="black" points="587.1,-304.11 577.01,-307.36 586.92,-311.11 587.1,-304.11"/>
</g>
<!-- aws_lb.intranet_alb&#45;&gt;aws_subnet.private -->
<g id="edge13" class="edge">
<title>aws_lb.intranet_alb&#45;&gt;aws_subnet.private</title>
<path fill="none" stroke="black" d="M706.9,-322.97C658.09,-329.92 594.05,-339.04 543.15,-346.29"/>
<polygon fill="black" stroke="black" points="542.56,-342.84 533.16,-347.71 543.55,-349.77 542.56,-342.84"/>
</g>
<!-- aws_lb_listener.airflow_webserver -->
<g id="node13" class="node">
<title>aws_lb_listener.airflow_webserver</title>
<polygon fill="none" stroke="black" points="1244,-480.41 993,-480.41 993,-444.41 1244,-444.41 1244,-480.41"/>
<text text-anchor="middle" x="1118.5" y="-458.71" font-family="sans-serif" font-size="14.00">aws_lb_listener.airflow_webserver</text>
</g>
<!-- aws_lb_listener.airflow_webserver&#45;&gt;aws_lb.airflow_nlb -->
<g id="edge14" class="edge">
<title>aws_lb_listener.airflow_webserver&#45;&gt;aws_lb.airflow_nlb</title>
<path fill="none" stroke="black" d="M992.94,-460.92C949.81,-460.41 902.6,-459.84 863.9,-459.38"/>
<polygon fill="black" stroke="black" points="863.78,-455.88 853.74,-459.26 863.7,-462.88 863.78,-455.88"/>
</g>
<!-- aws_lb_target_group.airflow_webserver -->
<g id="node23" class="node">
<title>aws_lb_target_group.airflow_webserver</title>
<polygon fill="none" stroke="black" points="926.5,-530.41 637.5,-530.41 637.5,-494.41 926.5,-494.41 926.5,-530.41"/>
<text text-anchor="middle" x="782" y="-508.71" font-family="sans-serif" font-size="14.00">aws_lb_target_group.airflow_webserver</text>
</g>
<!-- aws_lb_listener.airflow_webserver&#45;&gt;aws_lb_target_group.airflow_webserver -->
<g id="edge15" class="edge">
<title>aws_lb_listener.airflow_webserver&#45;&gt;aws_lb_target_group.airflow_webserver</title>
<path fill="none" stroke="black" d="M996.74,-480.46C969.74,-484.5 940.98,-488.8 913.6,-492.89"/>
<polygon fill="black" stroke="black" points="912.96,-489.45 903.58,-494.39 913.99,-496.37 912.96,-489.45"/>
</g>
<!-- aws_lb_listener.intranet_http -->
<g id="node14" class="node">
<title>aws_lb_listener.intranet_http</title>
<polygon fill="none" stroke="black" points="1226,-318.41 1011,-318.41 1011,-282.41 1226,-282.41 1226,-318.41"/>
<text text-anchor="middle" x="1118.5" y="-296.71" font-family="sans-serif" font-size="14.00">aws_lb_listener.intranet_http</text>
</g>
<!-- aws_lb_listener.intranet_http&#45;&gt;aws_lb.intranet_alb -->
<g id="edge16" class="edge">
<title>aws_lb_listener.intranet_http&#45;&gt;aws_lb.intranet_alb</title>
<path fill="none" stroke="black" d="M1010.74,-304.24C964.37,-305.91 910.82,-307.83 867.3,-309.39"/>
<polygon fill="black" stroke="black" points="866.91,-305.9 857.04,-309.76 867.16,-312.9 866.91,-305.9"/>
</g>
<!-- aws_lb_target_group.webapp -->
<g id="node26" class="node">
<title>aws_lb_target_group.webapp</title>
<polygon fill="none" stroke="black" points="891,-422.41 673,-422.41 673,-386.41 891,-386.41 891,-422.41"/>
<text text-anchor="middle" x="782" y="-400.71" font-family="sans-serif" font-size="14.00">aws_lb_target_group.webapp</text>
</g>
<!-- aws_lb_listener.intranet_http&#45;&gt;aws_lb_target_group.webapp -->
<g id="edge17" class="edge">
<title>aws_lb_listener.intranet_http&#45;&gt;aws_lb_target_group.webapp</title>
<path fill="none" stroke="black" d="M1016.77,-318.47C1004.97,-321.18 993.17,-324.17 982,-327.41 954.07,-335.53 885.53,-362.66 836.71,-382.43"/>
<polygon fill="black" stroke="black" points="835.17,-379.27 827.22,-386.27 837.81,-385.76 835.17,-379.27"/>
</g>
<!-- aws_lb_listener.intranet_https -->
<g id="node15" class="node">
<title>aws_lb_listener.intranet_https</title>
<polygon fill="none" stroke="black" points="1229.5,-426.41 1007.5,-426.41 1007.5,-390.41 1229.5,-390.41 1229.5,-426.41"/>
<text text-anchor="middle" x="1118.5" y="-404.71" font-family="sans-serif" font-size="14.00">aws_lb_listener.intranet_https</text>
</g>
<!-- aws_lb_listener.intranet_https&#45;&gt;aws_lb.intranet_alb -->
<g id="edge18" class="edge">
<title>aws_lb_listener.intranet_https&#45;&gt;aws_lb.intranet_alb</title>
<path fill="none" stroke="black" d="M1018.7,-390.37C1006.28,-387.62 993.81,-384.62 982,-381.41 933.04,-368.12 878.7,-348.96 839.19,-334.21"/>
<polygon fill="black" stroke="black" points="840.07,-330.8 829.48,-330.56 837.61,-337.35 840.07,-330.8"/>
</g>
<!-- aws_lb_listener.intranet_https&#45;&gt;aws_lb_target_group.webapp -->
<g id="edge19" class="edge">
<title>aws_lb_listener.intranet_https&#45;&gt;aws_lb_target_group.webapp</title>
<path fill="none" stroke="black" d="M1007.05,-407.09C973.1,-406.69 935.61,-406.24 901.17,-405.83"/>
<polygon fill="black" stroke="black" points="901.1,-402.33 891.06,-405.71 901.02,-409.33 901.1,-402.33"/>
</g>
<!-- aws_lb_listener_rule.airflow_routing -->
<g id="node16" class="node">
<title>aws_lb_listener_rule.airflow_routing</title>
<polygon fill="none" stroke="black" points="1575,-480.41 1312,-480.41 1312,-444.41 1575,-444.41 1575,-480.41"/>
<text text-anchor="middle" x="1443.5" y="-458.71" font-family="sans-serif" font-size="14.00">aws_lb_listener_rule.airflow_routing</text>
</g>
<!-- aws_lb_listener_rule.airflow_routing&#45;&gt;aws_lb_listener.intranet_http -->
<g id="edge20" class="edge">
<title>aws_lb_listener_rule.airflow_routing&#45;&gt;aws_lb_listener.intranet_http</title>
<path fill="none" stroke="black" d="M1311.65,-449.06C1304.24,-445.33 1297.27,-440.83 1291,-435.41 1252.72,-402.33 1292.94,-360.89 1255,-327.41 1249.06,-322.17 1242.39,-317.83 1235.28,-314.25"/>
<polygon fill="black" stroke="black" points="1236.63,-311.01 1226.07,-310.1 1233.75,-317.4 1236.63,-311.01"/>
</g>
<!-- aws_lb_target_group.airflow_web -->
<g id="node22" class="node">
<title>aws_lb_target_group.airflow_web</title>
<polygon fill="none" stroke="black" points="1241,-534.41 996,-534.41 996,-498.41 1241,-498.41 1241,-534.41"/>
<text text-anchor="middle" x="1118.5" y="-512.71" font-family="sans-serif" font-size="14.00">aws_lb_target_group.airflow_web</text>
</g>
<!-- aws_lb_listener_rule.airflow_routing&#45;&gt;aws_lb_target_group.airflow_web -->
<g id="edge21" class="edge">
<title>aws_lb_listener_rule.airflow_routing&#45;&gt;aws_lb_target_group.airflow_web</title>
<path fill="none" stroke="black" d="M1334.5,-480.47C1303.39,-485.67 1269.29,-491.37 1237.6,-496.67"/>
<polygon fill="black" stroke="black" points="1236.69,-493.27 1227.4,-498.37 1237.84,-500.18 1236.69,-493.27"/>
</g>
<!-- aws_lb_listener_rule.airflow_routing_https -->
<g id="node17" class="node">
<title>aws_lb_listener_rule.airflow_routing_https</title>
<polygon fill="none" stroke="black" points="1596,-534.41 1291,-534.41 1291,-498.41 1596,-498.41 1596,-534.41"/>
<text text-anchor="middle" x="1443.5" y="-512.71" font-family="sans-serif" font-size="14.00">aws_lb_listener_rule.airflow_routing_https</text>
</g>
<!-- aws_lb_listener_rule.airflow_routing_https&#45;&gt;aws_lb_listener.intranet_https -->
<g id="edge22" class="edge">
<title>aws_lb_listener_rule.airflow_routing_https&#45;&gt;aws_lb_listener.intranet_https</title>
<path fill="none" stroke="black" d="M1307.23,-498.39C1301.58,-495.76 1296.14,-492.78 1291,-489.41 1266.87,-473.62 1278.97,-451.46 1255,-435.41 1250.02,-432.08 1244.72,-429.14 1239.21,-426.55"/>
<polygon fill="black" stroke="black" points="1240.34,-423.22 1229.77,-422.51 1237.58,-429.66 1240.34,-423.22"/>
</g>
<!-- aws_lb_listener_rule.airflow_routing_https&#45;&gt;aws_lb_target_group.airflow_web -->
<g id="edge23" class="edge">
<title>aws_lb_listener_rule.airflow_routing_https&#45;&gt;aws_lb_target_group.airflow_web</title>
<path fill="none" stroke="black" d="M1290.93,-516.41C1277.74,-516.41 1264.46,-516.41 1251.44,-516.41"/>
<polygon fill="black" stroke="black" points="1251.07,-512.91 1241.07,-516.41 1251.07,-519.91 1251.07,-512.91"/>
</g>
<!-- aws_lb_listener_rule.api_routing -->
<g id="node18" class="node">
<title>aws_lb_listener_rule.api_routing</title>
<polygon fill="none" stroke="black" points="1562,-318.41 1325,-318.41 1325,-282.41 1562,-282.41 1562,-318.41"/>
<text text-anchor="middle" x="1443.5" y="-296.71" font-family="sans-serif" font-size="14.00">aws_lb_listener_rule.api_routing</text>
</g>
<!-- aws_lb_listener_rule.api_routing&#45;&gt;aws_lb_listener.intranet_http -->
<g id="edge24" class="edge">
<title>aws_lb_listener_rule.api_routing&#45;&gt;aws_lb_listener.intranet_http</title>
<path fill="none" stroke="black" d="M1324.98,-300.41C1296.09,-300.41 1265.18,-300.41 1236.33,-300.41"/>
<polygon fill="black" stroke="black" points="1236.22,-296.91 1226.22,-300.41 1236.22,-303.91 1236.22,-296.91"/>
</g>
<!-- aws_lb_target_group.fastapi -->
<g id="node25" class="node">
<title>aws_lb_target_group.fastapi</title>
<polygon fill="none" stroke="black" points="1223.5,-372.41 1013.5,-372.41 1013.5,-336.41 1223.5,-336.41 1223.5,-372.41"/>
<text text-anchor="middle" x="1118.5" y="-350.71" font-family="sans-serif" font-size="14.00">aws_lb_target_group.fastapi</text>
</g>
<!-- aws_lb_listener_rule.api_routing&#45;&gt;aws_lb_target_group.fastapi -->
<g id="edge25" class="edge">
<title>aws_lb_listener_rule.api_routing&#45;&gt;aws_lb_target_group.fastapi</title>
<path fill="none" stroke="black" d="M1334.5,-318.47C1302.09,-323.89 1266.44,-329.85 1233.65,-335.33"/>
<polygon fill="black" stroke="black" points="1232.85,-331.91 1223.57,-337.02 1234.01,-338.82 1232.85,-331.91"/>
</g>
<!-- aws_lb_listener_rule.api_routing_https -->
<g id="node19" class="node">
<title>aws_lb_listener_rule.api_routing_https</title>
<polygon fill="none" stroke="black" points="1583.5,-426.41 1303.5,-426.41 1303.5,-390.41 1583.5,-390.41 1583.5,-426.41"/>
<text text-anchor="middle" x="1443.5" y="-404.71" font-family="sans-serif" font-size="14.00">aws_lb_listener_rule.api_routing_https</text>
</g>
<!-- aws_lb_listener_rule.api_routing_https&#45;&gt;aws_lb_listener.intranet_https -->
<g id="edge26" class="edge">
<title>aws_lb_listener_rule.api_routing_https&#45;&gt;aws_lb_listener.intranet_https</title>
<path fill="none" stroke="black" d="M1303.18,-408.41C1282.05,-408.41 1260.4,-408.41 1239.72,-408.41"/>
<polygon fill="black" stroke="black" points="1239.66,-404.91 1229.66,-408.41 1239.66,-411.91 1239.66,-404.91"/>
</g>
<!-- aws_lb_listener_rule.api_routing_https&#45;&gt;aws_lb_target_group.fastapi -->
<g id="edge27" class="edge">
<title>aws_lb_listener_rule.api_routing_https&#45;&gt;aws_lb_target_group.fastapi</title>
<path fill="none" stroke="black" d="M1334.5,-390.36C1302.09,-384.94 1266.44,-378.98 1233.65,-373.5"/>
<polygon fill="black" stroke="black" points="1234.01,-370.01 1223.57,-371.81 1232.85,-376.91 1234.01,-370.01"/>
</g>
<!-- aws_lb_listener_rule.dash_routing -->
<g id="node20" class="node">
<title>aws_lb_listener_rule.dash_routing</title>
<polygon fill="none" stroke="black" points="1568.5,-187.41 1318.5,-187.41 1318.5,-151.41 1568.5,-151.41 1568.5,-187.41"/>
<text text-anchor="middle" x="1443.5" y="-165.71" font-family="sans-serif" font-size="14.00">aws_lb_listener_rule.dash_routing</text>
</g>
<!-- aws_lb_listener_rule.dash_routing&#45;&gt;aws_lb_listener.intranet_http -->
<g id="edge28" class="edge">
<title>aws_lb_listener_rule.dash_routing&#45;&gt;aws_lb_listener.intranet_http</title>
<path fill="none" stroke="black" d="M1412.27,-187.54C1375.98,-208.66 1312.78,-243.47 1255,-265.41 1241.03,-270.72 1225.94,-275.5 1211.09,-279.7"/>
<polygon fill="black" stroke="black" points="1210.09,-276.34 1201.38,-282.37 1211.95,-283.09 1210.09,-276.34"/>
</g>
<!-- aws_lb_target_group.dash -->
<g id="node24" class="node">
<title>aws_lb_target_group.dash</title>
<polygon fill="none" stroke="black" points="1217,-125.41 1020,-125.41 1020,-89.41 1217,-89.41 1217,-125.41"/>
<text text-anchor="middle" x="1118.5" y="-103.71" font-family="sans-serif" font-size="14.00">aws_lb_target_group.dash</text>
</g>
<!-- aws_lb_listener_rule.dash_routing&#45;&gt;aws_lb_target_group.dash -->
<g id="edge29" class="edge">
<title>aws_lb_listener_rule.dash_routing&#45;&gt;aws_lb_target_group.dash</title>
<path fill="none" stroke="black" d="M1348.64,-151.4C1309.32,-143.85 1263.47,-135.05 1223.16,-127.31"/>
<polygon fill="black" stroke="black" points="1223.79,-123.87 1213.31,-125.42 1222.47,-130.74 1223.79,-123.87"/>
</g>
<!-- aws_lb_listener_rule.dash_routing_https -->
<g id="node21" class="node">
<title>aws_lb_listener_rule.dash_routing_https</title>
<polygon fill="none" stroke="black" points="1590,-372.41 1297,-372.41 1297,-336.41 1590,-336.41 1590,-372.41"/>
<text text-anchor="middle" x="1443.5" y="-350.71" font-family="sans-serif" font-size="14.00">aws_lb_listener_rule.dash_routing_https</text>
</g>
<!-- aws_lb_listener_rule.dash_routing_https&#45;&gt;aws_lb_listener.intranet_https -->
<g id="edge30" class="edge">
<title>aws_lb_listener_rule.dash_routing_https&#45;&gt;aws_lb_listener.intranet_https</title>
<path fill="none" stroke="black" d="M1334.5,-372.47C1303.39,-377.67 1269.29,-383.37 1237.6,-388.67"/>
<polygon fill="black" stroke="black" points="1236.69,-385.27 1227.4,-390.37 1237.84,-392.18 1236.69,-385.27"/>
</g>
<!-- aws_lb_listener_rule.dash_routing_https&#45;&gt;aws_lb_target_group.dash -->
<g id="edge31" class="edge">
<title>aws_lb_listener_rule.dash_routing_https&#45;&gt;aws_lb_target_group.dash</title>
<path fill="none" stroke="black" d="M1301.67,-336.35C1297.89,-333.67 1294.32,-330.71 1291,-327.41 1229.05,-265.96 1316.32,-196.49 1255,-134.41 1246.92,-126.23 1237.11,-120.17 1226.5,-115.71"/>
<polygon fill="black" stroke="black" points="1227.59,-112.38 1217,-112.2 1225.17,-118.95 1227.59,-112.38"/>
</g>
<!-- aws_lb_target_group.airflow_web&#45;&gt;aws_vpc.main -->
<g id="edge32" class="edge">
<title>aws_lb_target_group.airflow_web&#45;&gt;aws_vpc.main</title>
<path fill="none" stroke="black" d="M998.69,-534.43C981.06,-536.5 963.09,-538.27 946,-539.41 800.55,-549.12 763.65,-545.61 618,-539.41 541.4,-536.15 325.12,-516.18 215.08,-505.75"/>
<polygon fill="black" stroke="black" points="215.38,-502.26 205.09,-504.8 214.71,-509.23 215.38,-502.26"/>
</g>
<!-- aws_lb_target_group.airflow_webserver&#45;&gt;aws_vpc.main -->
<g id="edge33" class="edge">
<title>aws_lb_target_group.airflow_webserver&#45;&gt;aws_vpc.main</title>
<path fill="none" stroke="black" d="M637.27,-506.15C618.67,-505.48 599.89,-504.88 582,-504.41 452.01,-501.05 300.01,-499.95 215.08,-499.59"/>
<polygon fill="black" stroke="black" points="215.07,-496.09 205.06,-499.55 215.05,-503.09 215.07,-496.09"/>
</g>
<!-- aws_lb_target_group.dash&#45;&gt;aws_vpc.main -->
<g id="edge34" class="edge">
<title>aws_lb_target_group.dash&#45;&gt;aws_vpc.main</title>
<path fill="none" stroke="black" d="M1072.98,-89.35C944.66,-40.47 568.2,80.19 332,-81.41 195.87,-174.55 160.12,-392.68 151.52,-470.89"/>
<polygon fill="black" stroke="black" points="148.02,-470.66 150.48,-480.96 154.99,-471.38 148.02,-470.66"/>
</g>
<!-- aws_lb_target_group.fastapi&#45;&gt;aws_vpc.main -->
<g id="edge35" class="edge">
<title>aws_lb_target_group.fastapi&#45;&gt;aws_vpc.main</title>
<path fill="none" stroke="black" d="M1013.24,-353.99C911.86,-354.81 753.75,-359.34 618,-377.41 601.75,-379.58 598.06,-382.15 582,-385.41 471.28,-407.89 440.92,-401.4 332,-431.41 286.71,-443.89 236.81,-462.79 200.58,-477.5"/>
<polygon fill="black" stroke="black" points="199.13,-474.31 191.2,-481.34 201.78,-480.79 199.13,-474.31"/>
</g>
<!-- aws_lb_target_group.webapp&#45;&gt;aws_vpc.main -->
<g id="edge36" class="edge">
<title>aws_lb_target_group.webapp&#45;&gt;aws_vpc.main</title>
<path fill="none" stroke="black" d="M672.71,-420.69C541.32,-440.44 323.92,-473.12 215.2,-489.46"/>
<polygon fill="black" stroke="black" points="214.39,-486.04 205.02,-490.99 215.43,-492.97 214.39,-486.04"/>
</g>
<!-- aws_route53_record.intranet_alb -->
<g id="node27" class="node">
<title>aws_route53_record.intranet_alb</title>
<polygon fill="none" stroke="black" points="1239.5,-256.41 997.5,-256.41 997.5,-220.41 1239.5,-220.41 1239.5,-256.41"/>
<text text-anchor="middle" x="1118.5" y="-234.71" font-family="sans-serif" font-size="14.00">aws_route53_record.intranet_alb</text>
</g>
<!-- aws_route53_record.intranet_alb&#45;&gt;aws_lb.intranet_alb -->
<g id="edge37" class="edge">
<title>aws_route53_record.intranet_alb&#45;&gt;aws_lb.intranet_alb</title>
<path fill="none" stroke="black" d="M1043.76,-256.48C1023.65,-261.67 1001.92,-267.53 982,-273.41 965.83,-278.19 962.37,-281.36 946,-285.41 920.68,-291.69 892.79,-296.91 867.34,-301.04"/>
<polygon fill="black" stroke="black" points="866.67,-297.6 857.34,-302.63 867.77,-304.51 866.67,-297.6"/>
</g>
<!-- aws_route53_zone.internal -->
<g id="node28" class="node">
<title>aws_route53_zone.internal</title>
<polygon fill="none" stroke="black" points="882.5,-114.41 681.5,-114.41 681.5,-78.41 882.5,-78.41 882.5,-114.41"/>
<text text-anchor="middle" x="782" y="-92.71" font-family="sans-serif" font-size="14.00">aws_route53_zone.internal</text>
</g>
<!-- aws_route53_record.intranet_alb&#45;&gt;aws_route53_zone.internal -->
<g id="edge38" class="edge">
<title>aws_route53_record.intranet_alb&#45;&gt;aws_route53_zone.internal</title>
<path fill="none" stroke="black" d="M1039.95,-220.39C1019.51,-212.95 998.55,-202.62 982,-188.41 956.94,-166.91 972.98,-142.46 946,-123.41 930.33,-112.36 911.74,-105.23 892.8,-100.74"/>
<polygon fill="black" stroke="black" points="893.4,-97.29 882.89,-98.63 891.94,-104.14 893.4,-97.29"/>
</g>
<!-- aws_route53_zone.internal&#45;&gt;aws_vpc.main -->
<g id="edge39" class="edge">
<title>aws_route53_zone.internal&#45;&gt;aws_vpc.main</title>
<path fill="none" stroke="black" d="M681.25,-88.99C566.64,-82.45 387.24,-78.89 332,-115.41 204.88,-199.46 163.79,-397.51 152.64,-471.17"/>
<polygon fill="black" stroke="black" points="149.17,-470.71 151.2,-481.11 156.09,-471.71 149.17,-470.71"/>
</g>
<!-- aws_route_table.database -->
<g id="node29" class="node">
<title>aws_route_table.database</title>
<polygon fill="none" stroke="black" points="555,-890.41 359,-890.41 359,-854.41 555,-854.41 555,-890.41"/>
<text text-anchor="middle" x="457" y="-868.71" font-family="sans-serif" font-size="14.00">aws_route_table.database</text>
</g>
<!-- aws_route_table.database&#45;&gt;aws_vpc.main -->
<g id="edge40" class="edge">
<title>aws_route_table.database&#45;&gt;aws_vpc.main</title>
<path fill="none" stroke="black" d="M358.81,-855.89C349.2,-851.81 340.05,-846.73 332,-840.41 225.36,-756.72 173.14,-593.13 155.8,-527.57"/>
<polygon fill="black" stroke="black" points="159.11,-526.38 153.23,-517.57 152.33,-528.12 159.11,-526.38"/>
</g>
<!-- aws_route_table.management -->
<g id="node30" class="node">
<title>aws_route_table.management</title>
<polygon fill="none" stroke="black" points="569,-582.41 345,-582.41 345,-546.41 569,-546.41 569,-582.41"/>
<text text-anchor="middle" x="457" y="-560.71" font-family="sans-serif" font-size="14.00">aws_route_table.management</text>
</g>
<!-- aws_route_table.management&#45;&gt;aws_vpc.main -->
<g id="edge41" class="edge">
<title>aws_route_table.management&#45;&gt;aws_vpc.main</title>
<path fill="none" stroke="black" d="M370.89,-546.39C321.73,-535.98 260.8,-523.08 215.24,-513.44"/>
<polygon fill="black" stroke="black" points="215.68,-509.95 205.17,-511.31 214.23,-516.8 215.68,-509.95"/>
</g>
<!-- aws_route_table.private -->
<g id="node31" class="node">
<title>aws_route_table.private</title>
<polygon fill="none" stroke="black" points="547.5,-268.41 366.5,-268.41 366.5,-232.41 547.5,-232.41 547.5,-268.41"/>
<text text-anchor="middle" x="457" y="-246.71" font-family="sans-serif" font-size="14.00">aws_route_table.private</text>
</g>
<!-- aws_route_table.private&#45;&gt;aws_vpc.main -->
<g id="edge42" class="edge">
<title>aws_route_table.private&#45;&gt;aws_vpc.main</title>
<path fill="none" stroke="black" d="M366.49,-262.34C354.39,-266.08 342.53,-270.99 332,-277.41 251.06,-326.81 189.53,-425.03 163.13,-472.49"/>
<polygon fill="black" stroke="black" points="160.05,-470.83 158.32,-481.28 166.19,-474.19 160.05,-470.83"/>
</g>
<!-- aws_route_table_association.database -->
<g id="node32" class="node">
<title>aws_route_table_association.database</title>
<polygon fill="none" stroke="black" points="922,-905.41 642,-905.41 642,-869.41 922,-869.41 922,-905.41"/>
<text text-anchor="middle" x="782" y="-883.71" font-family="sans-serif" font-size="14.00">aws_route_table_association.database</text>
</g>
<!-- aws_route_table_association.database&#45;&gt;aws_route_table.database -->
<g id="edge43" class="edge">
<title>aws_route_table_association.database&#45;&gt;aws_route_table.database</title>
<path fill="none" stroke="black" d="M641.68,-880.94C616.01,-879.75 589.59,-878.52 565.07,-877.39"/>
<polygon fill="black" stroke="black" points="565.19,-873.89 555.04,-876.92 564.87,-880.88 565.19,-873.89"/>
</g>
<!-- aws_subnet.database -->
<g id="node37" class="node">
<title>aws_subnet.database</title>
<polygon fill="none" stroke="black" points="540.5,-944.41 373.5,-944.41 373.5,-908.41 540.5,-908.41 540.5,-944.41"/>
<text text-anchor="middle" x="457" y="-922.71" font-family="sans-serif" font-size="14.00">aws_subnet.database</text>
</g>
<!-- aws_route_table_association.database&#45;&gt;aws_subnet.database -->
<g id="edge44" class="edge">
<title>aws_route_table_association.database&#45;&gt;aws_subnet.database</title>
<path fill="none" stroke="black" d="M641.68,-904.24C610.96,-907.95 579.15,-911.79 550.81,-915.21"/>
<polygon fill="black" stroke="black" points="550.04,-911.77 540.53,-916.45 550.88,-918.72 550.04,-911.77"/>
</g>
<!-- aws_route_table_association.management -->
<g id="node33" class="node">
<title>aws_route_table_association.management</title>
<polygon fill="none" stroke="black" points="936,-629.41 628,-629.41 628,-593.41 936,-593.41 936,-629.41"/>
<text text-anchor="middle" x="782" y="-607.71" font-family="sans-serif" font-size="14.00">aws_route_table_association.management</text>
</g>
<!-- aws_route_table_association.management&#45;&gt;aws_route_table.management -->
<g id="edge45" class="edge">
<title>aws_route_table_association.management&#45;&gt;aws_route_table.management</title>
<path fill="none" stroke="black" d="M657.04,-593.38C631.52,-589.66 604.68,-585.76 579.25,-582.06"/>
<polygon fill="black" stroke="black" points="579.61,-578.57 569.21,-580.6 578.6,-585.5 579.61,-578.57"/>
</g>
<!-- aws_route_table_association.management&#45;&gt;aws_subnet.management -->
<g id="edge46" class="edge">
<title>aws_route_table_association.management&#45;&gt;aws_subnet.management</title>
<path fill="none" stroke="black" d="M627.54,-614.74C606.38,-615.2 585.03,-615.66 564.95,-616.1"/>
<polygon fill="black" stroke="black" points="564.81,-612.6 554.89,-616.31 564.96,-619.6 564.81,-612.6"/>
</g>
<!-- aws_route_table_association.private -->
<g id="node34" class="node">
<title>aws_route_table_association.private</title>
<polygon fill="none" stroke="black" points="914.5,-276.41 649.5,-276.41 649.5,-240.41 914.5,-240.41 914.5,-276.41"/>
<text text-anchor="middle" x="782" y="-254.71" font-family="sans-serif" font-size="14.00">aws_route_table_association.private</text>
</g>
<!-- aws_route_table_association.private&#45;&gt;aws_route_table.private -->
<g id="edge47" class="edge">
<title>aws_route_table_association.private&#45;&gt;aws_route_table.private</title>
<path fill="none" stroke="black" d="M649.16,-255.15C618.73,-254.39 586.85,-253.6 558.03,-252.89"/>
<polygon fill="black" stroke="black" points="558.06,-249.39 547.98,-252.64 557.89,-256.39 558.06,-249.39"/>
</g>
<!-- aws_route_table_association.private&#45;&gt;aws_subnet.private -->
<g id="edge48" class="edge">
<title>aws_route_table_association.private&#45;&gt;aws_subnet.private</title>
<path fill="none" stroke="black" d="M649.35,-271.28C638.36,-274.99 627.74,-279.63 618,-285.41 595.67,-298.66 603.99,-317.61 582,-331.41 570.21,-338.81 556.69,-344.2 543.01,-348.13"/>
<polygon fill="black" stroke="black" points="541.84,-344.82 533.05,-350.73 543.61,-351.59 541.84,-344.82"/>
</g>
<!-- aws_security_group.dev_server&#45;&gt;aws_vpc.main -->
<g id="edge49" class="edge">
<title>aws_security_group.dev_server&#45;&gt;aws_vpc.main</title>
<path fill="none" stroke="black" d="M354.54,-654.41C346.76,-651.8 339.16,-648.82 332,-645.41 268.12,-615.03 206.51,-558.48 173.61,-525.38"/>
<polygon fill="black" stroke="black" points="175.77,-522.58 166.27,-517.9 170.78,-527.49 175.77,-522.58"/>
</g>
<!-- aws_security_group.intranet_alb&#45;&gt;aws_vpc.main -->
<g id="edge50" class="edge">
<title>aws_security_group.intranet_alb&#45;&gt;aws_vpc.main</title>
<path fill="none" stroke="black" d="M352.66,-322.45C345.51,-325.04 338.55,-328.01 332,-331.41 262.95,-367.23 200.36,-435.97 169.4,-473.46"/>
<polygon fill="black" stroke="black" points="166.54,-471.44 162.93,-481.4 171.96,-475.86 166.54,-471.44"/>
</g>
<!-- aws_subnet.database&#45;&gt;aws_vpc.main -->
<g id="edge51" class="edge">
<title>aws_subnet.database&#45;&gt;aws_vpc.main</title>
<path fill="none" stroke="black" d="M373.44,-919.6C358.51,-915.4 343.93,-909.02 332,-899.41 209.27,-800.56 165.5,-601.18 153.13,-527.56"/>
<polygon fill="black" stroke="black" points="156.58,-526.95 151.53,-517.64 149.67,-528.07 156.58,-526.95"/>
</g>
<!-- aws_subnet.management&#45;&gt;aws_vpc.main -->
<g id="edge52" class="edge">
<title>aws_subnet.management&#45;&gt;aws_vpc.main</title>
<path fill="none" stroke="black" d="M361.2,-600.36C351.24,-597.7 341.35,-594.72 332,-591.41 280.08,-573.04 224,-543.23 187.8,-522.54"/>
<polygon fill="black" stroke="black" points="189.45,-519.45 179.04,-517.49 185.96,-525.51 189.45,-519.45"/>
</g>
<!-- aws_subnet.private&#45;&gt;aws_vpc.main -->
<g id="edge53" class="edge">
<title>aws_subnet.private&#45;&gt;aws_vpc.main</title>
<path fill="none" stroke="black" d="M380.78,-374.16C364.41,-378.6 347.39,-384 332,-390.41 276.78,-413.43 218.26,-450.89 182.67,-475.34"/>
<polygon fill="black" stroke="black" points="180.36,-472.69 174.14,-481.26 184.35,-478.44 180.36,-472.69"/>
</g>
<!-- aws_vpc_endpoint.s3 -->
<g id="node41" class="node">
<title>aws_vpc_endpoint.s3</title>
<polygon fill="none" stroke="black" points="539,-744.41 375,-744.41 375,-708.41 539,-708.41 539,-744.41"/>
<text text-anchor="middle" x="457" y="-722.71" font-family="sans-serif" font-size="14.00">aws_vpc_endpoint.s3</text>
</g>
<!-- aws_vpc_endpoint.s3&#45;&gt;aws_vpc.main -->
<g id="edge54" class="edge">
<title>aws_vpc_endpoint.s3&#45;&gt;aws_vpc.main</title>
<path fill="none" stroke="black" d="M374.94,-716.29C360.04,-712.37 345.08,-706.94 332,-699.41 256.02,-655.7 193.73,-569.73 165.43,-526.13"/>
<polygon fill="black" stroke="black" points="168.25,-524.04 159.91,-517.5 162.35,-527.81 168.25,-524.04"/>
</g>
<!-- aws_vpn_connection.corporate -->
<g id="node42" class="node">
<title>aws_vpn_connection.corporate</title>
<polygon fill="none" stroke="black" points="897,-168.41 667,-168.41 667,-132.41 897,-132.41 897,-168.41"/>
<text text-anchor="middle" x="782" y="-146.71" font-family="sans-serif" font-size="14.00">aws_vpn_connection.corporate</text>
</g>
<!-- aws_vpn_connection.corporate&#45;&gt;aws_customer_gateway.corporate -->
<g id="edge55" class="edge">
<title>aws_vpn_connection.corporate&#45;&gt;aws_customer_gateway.corporate</title>
<path fill="none" stroke="black" d="M666.67,-147.58C642.58,-146.99 616.96,-146.35 592.22,-145.74"/>
<polygon fill="black" stroke="black" points="592.14,-142.23 582.05,-145.49 591.96,-149.23 592.14,-142.23"/>
</g>
<!-- aws_vpn_gateway.corporate -->
<g id="node44" class="node">
<title>aws_vpn_gateway.corporate</title>
<polygon fill="none" stroke="black" points="562.5,-214.41 351.5,-214.41 351.5,-178.41 562.5,-178.41 562.5,-214.41"/>
<text text-anchor="middle" x="457" y="-192.71" font-family="sans-serif" font-size="14.00">aws_vpn_gateway.corporate</text>
</g>
<!-- aws_vpn_connection.corporate&#45;&gt;aws_vpn_gateway.corporate -->
<g id="edge56" class="edge">
<title>aws_vpn_connection.corporate&#45;&gt;aws_vpn_gateway.corporate</title>
<path fill="none" stroke="black" d="M666.67,-166.7C636.26,-171.03 603.41,-175.71 572.96,-180.04"/>
<polygon fill="black" stroke="black" points="572.15,-176.62 562.74,-181.5 573.13,-183.55 572.15,-176.62"/>
</g>
<!-- aws_vpn_connection_route.corporate -->
<g id="node43" class="node">
<title>aws_vpn_connection_route.corporate</title>
<polygon fill="none" stroke="black" points="1255,-179.41 982,-179.41 982,-143.41 1255,-143.41 1255,-179.41"/>
<text text-anchor="middle" x="1118.5" y="-157.71" font-family="sans-serif" font-size="14.00">aws_vpn_connection_route.corporate</text>
</g>
<!-- aws_vpn_connection_route.corporate&#45;&gt;aws_vpn_connection.corporate -->
<g id="edge57" class="edge">
<title>aws_vpn_connection_route.corporate&#45;&gt;aws_vpn_connection.corporate</title>
<path fill="none" stroke="black" d="M981.93,-156.96C957.18,-156.14 931.47,-155.3 907.07,-154.49"/>
<polygon fill="black" stroke="black" points="907.18,-151 897.07,-154.16 906.95,-157.99 907.18,-151"/>
</g>
<!-- aws_vpn_gateway.corporate&#45;&gt;aws_vpc.main -->
<g id="edge58" class="edge">
<title>aws_vpn_gateway.corporate&#45;&gt;aws_vpc.main</title>
<path fill="none" stroke="black" d="M351.31,-212.84C344.52,-215.81 338,-219.31 332,-223.41 238.88,-287.1 181,-415.3 159.04,-471.71"/>
<polygon fill="black" stroke="black" points="155.77,-470.47 155.48,-481.06 162.31,-472.97 155.77,-470.47"/>
</g>
<!-- aws_vpn_gateway_route_propagation.private -->
<g id="node45" class="node">
<title>aws_vpn_gateway_route_propagation.private</title>
<polygon fill="none" stroke="black" points="946,-222.41 618,-222.41 618,-186.41 946,-186.41 946,-222.41"/>
<text text-anchor="middle" x="782" y="-200.71" font-family="sans-serif" font-size="14.00">aws_vpn_gateway_route_propagation.private</text>
</g>
<!-- aws_vpn_gateway_route_propagation.private&#45;&gt;aws_route_table.private -->
<g id="edge59" class="edge">
<title>aws_vpn_gateway_route_propagation.private&#45;&gt;aws_route_table.private</title>
<path fill="none" stroke="black" d="M654.27,-222.46C622.35,-227.01 588.53,-231.82 558.13,-236.15"/>
<polygon fill="black" stroke="black" points="557.36,-232.73 547.95,-237.6 558.35,-239.66 557.36,-232.73"/>
</g>
<!-- aws_vpn_gateway_route_propagation.private&#45;&gt;aws_vpn_gateway.corporate -->
<g id="edge60" class="edge">
<title>aws_vpn_gateway_route_propagation.private&#45;&gt;aws_vpn_gateway.corporate</title>
<path fill="none" stroke="black" d="M617.61,-200.37C602.62,-200 587.66,-199.63 573.24,-199.27"/>
<polygon fill="black" stroke="black" points="572.92,-195.76 562.84,-199.01 572.75,-202.76 572.92,-195.76"/>
</g>
</g>
</svg>
