<?xml version="1.0" encoding="utf-8" standalone="no"?>
<!DOCTYPE svg PUBLIC "-//W3C//DTD SVG 1.1//EN"
  "http://www.w3.org/Graphics/SVG/1.1/DTD/svg11.dtd">
<svg xmlns:xlink="http://www.w3.org/1999/xlink" width="1131.84pt" height="712.8pt" viewBox="0 0 1131.84 712.8" xmlns="http://www.w3.org/2000/svg" version="1.1">
 <metadata>
  <rdf:RDF xmlns:dc="http://purl.org/dc/elements/1.1/" xmlns:cc="http://creativecommons.org/ns#" xmlns:rdf="http://www.w3.org/1999/02/22-rdf-syntax-ns#">
   <cc:Work>
    <dc:type rdf:resource="http://purl.org/dc/dcmitype/StillImage"/>
    <dc:date>2025-09-29T18:38:11.919904</dc:date>
    <dc:format>image/svg+xml</dc:format>
    <dc:creator>
     <cc:Agent>
      <dc:title>Matplotlib v3.10.6, https://matplotlib.org/</dc:title>
     </cc:Agent>
    </dc:creator>
   </cc:Work>
  </rdf:RDF>
 </metadata>
 <defs>
  <style type="text/css">*{stroke-linejoin: round; stroke-linecap: butt}</style>
 </defs>
 <g id="figure_1">
  <g id="patch_1">
   <path d="M 0 712.8 
L 1131.84 712.8 
L 1131.84 0 
L 0 0 
z
" style="fill: #ffffff"/>
  </g>
  <g id="axes_1">
   <g id="patch_2">
    <path d="M 77.7384 182.4984 
L 355.7016 182.4984 
Q 357.0984 182.4984 357.0984 181.1016 
L 357.0984 77.7384 
Q 357.0984 76.3416 355.7016 76.3416 
L 77.7384 76.3416 
Q 76.3416 76.3416 76.3416 77.7384 
L 76.3416 181.1016 
Q 76.3416 182.4984 77.7384 182.4984 
z
" clip-path="url(#pf3858ac939)" style="fill: #ff6b6b; opacity: 0.8; stroke: #8b0000; stroke-width: 2; stroke-linejoin: miter"/>
   </g>
   <g id="patch_3">
    <path d="M 461.8584 147.5784 
L 600.1416 147.5784 
Q 601.5384 147.5784 601.5384 146.1816 
L 601.5384 91.7064 
Q 601.5384 90.3096 600.1416 90.3096 
L 461.8584 90.3096 
Q 460.4616 90.3096 460.4616 91.7064 
L 460.4616 146.1816 
Q 460.4616 147.5784 461.8584 147.5784 
z
" clip-path="url(#pf3858ac939)" style="fill: #4ecdc4; opacity: 0.8; stroke: #008080; stroke-width: 2; stroke-linejoin: miter"/>
   </g>
   <g id="patch_4">
    <path d="M 461.8584 217.4184 
L 600.1416 217.4184 
Q 601.5384 217.4184 601.5384 216.0216 
L 601.5384 161.5464 
Q 601.5384 160.1496 600.1416 160.1496 
L 461.8584 160.1496 
Q 460.4616 160.1496 460.4616 161.5464 
L 460.4616 216.0216 
Q 460.4616 217.4184 461.8584 217.4184 
z
" clip-path="url(#pf3858ac939)" style="fill: #4ecdc4; opacity: 0.8; stroke: #008080; stroke-width: 2; stroke-linejoin: miter"/>
   </g>
   <g id="patch_5">
    <path d="M 461.8584 287.2584 
L 600.1416 287.2584 
Q 601.5384 287.2584 601.5384 285.8616 
L 601.5384 231.3864 
Q 601.5384 229.9896 600.1416 229.9896 
L 461.8584 229.9896 
Q 460.4616 229.9896 460.4616 231.3864 
L 460.4616 285.8616 
Q 460.4616 287.2584 461.8584 287.2584 
z
" clip-path="url(#pf3858ac939)" style="fill: #4ecdc4; opacity: 0.8; stroke: #008080; stroke-width: 2; stroke-linejoin: miter"/>
   </g>
   <g id="patch_6">
    <path d="M 705.6 321.48 
L 1054.8 321.48 
L 1054.8 77.04 
L 705.6 77.04 
z
" clip-path="url(#pf3858ac939)" style="fill: #45b7d1; opacity: 0.3; stroke: #00008b; stroke-width: 2; stroke-linejoin: miter"/>
   </g>
   <g id="patch_7">
    <path d="M 741.2184 161.5464 
L 865.5336 161.5464 
Q 866.9304 161.5464 866.9304 160.1496 
L 866.9304 112.6584 
Q 866.9304 111.2616 865.5336 111.2616 
L 741.2184 111.2616 
Q 739.8216 111.2616 739.8216 112.6584 
L 739.8216 160.1496 
Q 739.8216 161.5464 741.2184 161.5464 
z
" clip-path="url(#pf3858ac939)" style="fill: #45b7d1; opacity: 0.8; stroke: #00008b; stroke-width: 2; stroke-linejoin: miter"/>
   </g>
   <g id="patch_8">
    <path d="M 894.8664 161.5464 
L 1019.1816 161.5464 
Q 1020.5784 161.5464 1020.5784 160.1496 
L 1020.5784 112.6584 
Q 1020.5784 111.2616 1019.1816 111.2616 
L 894.8664 111.2616 
Q 893.4696 111.2616 893.4696 112.6584 
L 893.4696 160.1496 
Q 893.4696 161.5464 894.8664 161.5464 
z
" clip-path="url(#pf3858ac939)" style="fill: #45b7d1; opacity: 0.8; stroke: #00008b; stroke-width: 2; stroke-linejoin: miter"/>
   </g>
   <g id="patch_9">
    <path d="M 741.2184 231.3864 
L 865.5336 231.3864 
Q 866.9304 231.3864 866.9304 229.9896 
L 866.9304 182.4984 
Q 866.9304 181.1016 865.5336 181.1016 
L 741.2184 181.1016 
Q 739.8216 181.1016 739.8216 182.4984 
L 739.8216 229.9896 
Q 739.8216 231.3864 741.2184 231.3864 
z
" clip-path="url(#pf3858ac939)" style="fill: #45b7d1; opacity: 0.8; stroke: #00008b; stroke-width: 2; stroke-linejoin: miter"/>
   </g>
   <g id="patch_10">
    <path d="M 894.8664 231.3864 
L 1019.1816 231.3864 
Q 1020.5784 231.3864 1020.5784 229.9896 
L 1020.5784 182.4984 
Q 1020.5784 181.1016 1019.1816 181.1016 
L 894.8664 181.1016 
Q 893.4696 181.1016 893.4696 182.4984 
L 893.4696 229.9896 
Q 893.4696 231.3864 894.8664 231.3864 
z
" clip-path="url(#pf3858ac939)" style="fill: #45b7d1; opacity: 0.8; stroke: #00008b; stroke-width: 2; stroke-linejoin: miter"/>
   </g>
   <g id="patch_11">
    <path d="M 818.0424 301.2264 
L 942.3576 301.2264 
Q 943.7544 301.2264 943.7544 299.8296 
L 943.7544 252.3384 
Q 943.7544 250.9416 942.3576 250.9416 
L 818.0424 250.9416 
Q 816.6456 250.9416 816.6456 252.3384 
L 816.6456 299.8296 
Q 816.6456 301.2264 818.0424 301.2264 
z
" clip-path="url(#pf3858ac939)" style="fill: #45b7d1; opacity: 0.8; stroke: #00008b; stroke-width: 2; stroke-linejoin: miter"/>
   </g>
   <g id="patch_12">
    <path d="M 77.7384 357.0984 
L 250.9416 357.0984 
Q 252.3384 357.0984 252.3384 355.7016 
L 252.3384 287.2584 
Q 252.3384 285.8616 250.9416 285.8616 
L 77.7384 285.8616 
Q 76.3416 285.8616 76.3416 287.2584 
L 76.3416 355.7016 
Q 76.3416 357.0984 77.7384 357.0984 
z
" clip-path="url(#pf3858ac939)" style="fill: #ffe66d; opacity: 0.8; stroke: #daa520; stroke-width: 2; stroke-linejoin: miter"/>
   </g>
   <g id="patch_13">
    <path d="M 287.2584 357.0984 
L 460.4616 357.0984 
Q 461.8584 357.0984 461.8584 355.7016 
L 461.8584 287.2584 
Q 461.8584 285.8616 460.4616 285.8616 
L 287.2584 285.8616 
Q 285.8616 285.8616 285.8616 287.2584 
L 285.8616 355.7016 
Q 285.8616 357.0984 287.2584 357.0984 
z
" clip-path="url(#pf3858ac939)" style="fill: #ffe66d; opacity: 0.8; stroke: #daa520; stroke-width: 2; stroke-linejoin: miter"/>
   </g>
   <g id="patch_14">
    <path d="M 77.7384 461.8584 
L 250.9416 461.8584 
Q 252.3384 461.8584 252.3384 460.4616 
L 252.3384 392.0184 
Q 252.3384 390.6216 250.9416 390.6216 
L 77.7384 390.6216 
Q 76.3416 390.6216 76.3416 392.0184 
L 76.3416 460.4616 
Q 76.3416 461.8584 77.7384 461.8584 
z
" clip-path="url(#pf3858ac939)" style="fill: #ffe66d; opacity: 0.8; stroke: #daa520; stroke-width: 2; stroke-linejoin: miter"/>
   </g>
   <g id="patch_15">
    <path d="M 287.2584 461.8584 
L 460.4616 461.8584 
Q 461.8584 461.8584 461.8584 460.4616 
L 461.8584 392.0184 
Q 461.8584 390.6216 460.4616 390.6216 
L 287.2584 390.6216 
Q 285.8616 390.6216 285.8616 392.0184 
L 285.8616 460.4616 
Q 285.8616 461.8584 287.2584 461.8584 
z
" clip-path="url(#pf3858ac939)" style="fill: #ffe66d; opacity: 0.8; stroke: #daa520; stroke-width: 2; stroke-linejoin: miter"/>
   </g>
   <g id="patch_16">
    <path d="M 741.2184 496.7784 
L 1019.1816 496.7784 
Q 1020.5784 496.7784 1020.5784 495.3816 
L 1020.5784 392.0184 
Q 1020.5784 390.6216 1019.1816 390.6216 
L 741.2184 390.6216 
Q 739.8216 390.6216 739.8216 392.0184 
L 739.8216 495.3816 
Q 739.8216 496.7784 741.2184 496.7784 
z
" clip-path="url(#pf3858ac939)" style="fill: #ff8c94; opacity: 0.8; stroke: #8b008b; stroke-width: 2; stroke-linejoin: miter"/>
   </g>
   <g id="patch_17">
    <path d="M 77.7384 601.5384 
L 495.3816 601.5384 
Q 496.7784 601.5384 496.7784 600.1416 
L 496.7784 496.7784 
Q 496.7784 495.3816 495.3816 495.3816 
L 77.7384 495.3816 
Q 76.3416 495.3816 76.3416 496.7784 
L 76.3416 600.1416 
Q 76.3416 601.5384 77.7384 601.5384 
z
" clip-path="url(#pf3858ac939)" style="fill: #ffe66d; opacity: 0.8; stroke: #daa520; stroke-width: 2; stroke-linejoin: miter"/>
   </g>
   <g id="patch_18">
    <path d="M 601.5384 601.5384 
L 1019.1816 601.5384 
Q 1020.5784 601.5384 1020.5784 600.1416 
L 1020.5784 496.7784 
Q 1020.5784 495.3816 1019.1816 495.3816 
L 601.5384 495.3816 
Q 600.1416 495.3816 600.1416 496.7784 
L 600.1416 600.1416 
Q 600.1416 601.5384 601.5384 601.5384 
z
" clip-path="url(#pf3858ac939)" style="fill: #ffe66d; opacity: 0.8; stroke: #daa520; stroke-width: 2; stroke-linejoin: miter"/>
   </g>
   <g id="text_1">
    <!-- Async Processing &amp; Task Management Architecture -->
    <g transform="translate(305.3025 42.12) scale(0.18 -0.18)">
     <defs>
      <path id="DejaVuSans-Bold-41" d="M 3419 850 
L 1538 850 
L 1241 0 
L 31 0 
L 1759 4666 
L 3194 4666 
L 4922 0 
L 3713 0 
L 3419 850 
z
M 1838 1716 
L 3116 1716 
L 2478 3572 
L 1838 1716 
z
" transform="scale(0.015625)"/>
      <path id="DejaVuSans-Bold-73" d="M 3272 3391 
L 3272 2541 
Q 2913 2691 2578 2766 
Q 2244 2841 1947 2841 
Q 1628 2841 1473 2761 
Q 1319 2681 1319 2516 
Q 1319 2381 1436 2309 
Q 1553 2238 1856 2203 
L 2053 2175 
Q 2913 2066 3209 1816 
Q 3506 1566 3506 1031 
Q 3506 472 3093 190 
Q 2681 -91 1863 -91 
Q 1516 -91 1145 -36 
Q 775 19 384 128 
L 384 978 
Q 719 816 1070 734 
Q 1422 653 1784 653 
Q 2113 653 2278 743 
Q 2444 834 2444 1013 
Q 2444 1163 2330 1236 
Q 2216 1309 1875 1350 
L 1678 1375 
Q 931 1469 631 1722 
Q 331 1975 331 2491 
Q 331 3047 712 3315 
Q 1094 3584 1881 3584 
Q 2191 3584 2531 3537 
Q 2872 3491 3272 3391 
z
" transform="scale(0.015625)"/>
      <path id="DejaVuSans-Bold-79" d="M 78 3500 
L 1197 3500 
L 2138 1125 
L 2938 3500 
L 4056 3500 
L 2584 -331 
Q 2363 -916 2067 -1148 
Q 1772 -1381 1288 -1381 
L 641 -1381 
L 641 -647 
L 991 -647 
Q 1275 -647 1404 -556 
Q 1534 -466 1606 -231 
L 1638 -134 
L 78 3500 
z
" transform="scale(0.015625)"/>
      <path id="DejaVuSans-Bold-6e" d="M 4056 2131 
L 4056 0 
L 2931 0 
L 2931 347 
L 2931 1631 
Q 2931 2084 2911 2256 
Q 2891 2428 2841 2509 
Q 2775 2619 2662 2680 
Q 2550 2741 2406 2741 
Q 2056 2741 1856 2470 
Q 1656 2200 1656 1722 
L 1656 0 
L 538 0 
L 538 3500 
L 1656 3500 
L 1656 2988 
Q 1909 3294 2193 3439 
Q 2478 3584 2822 3584 
Q 3428 3584 3742 3212 
Q 4056 2841 4056 2131 
z
" transform="scale(0.015625)"/>
      <path id="DejaVuSans-Bold-63" d="M 3366 3391 
L 3366 2478 
Q 3138 2634 2908 2709 
Q 2678 2784 2431 2784 
Q 1963 2784 1702 2511 
Q 1441 2238 1441 1747 
Q 1441 1256 1702 982 
Q 1963 709 2431 709 
Q 2694 709 2930 787 
Q 3166 866 3366 1019 
L 3366 103 
Q 3103 6 2833 -42 
Q 2563 -91 2291 -91 
Q 1344 -91 809 395 
Q 275 881 275 1747 
Q 275 2613 809 3098 
Q 1344 3584 2291 3584 
Q 2566 3584 2833 3536 
Q 3100 3488 3366 3391 
z
" transform="scale(0.015625)"/>
      <path id="DejaVuSans-Bold-20" transform="scale(0.015625)"/>
      <path id="DejaVuSans-Bold-50" d="M 588 4666 
L 2584 4666 
Q 3475 4666 3951 4270 
Q 4428 3875 4428 3144 
Q 4428 2409 3951 2014 
Q 3475 1619 2584 1619 
L 1791 1619 
L 1791 0 
L 588 0 
L 588 4666 
z
M 1791 3794 
L 1791 2491 
L 2456 2491 
Q 2806 2491 2997 2661 
Q 3188 2831 3188 3144 
Q 3188 3456 2997 3625 
Q 2806 3794 2456 3794 
L 1791 3794 
z
" transform="scale(0.015625)"/>
      <path id="DejaVuSans-Bold-72" d="M 3138 2547 
Q 2991 2616 2845 2648 
Q 2700 2681 2553 2681 
Q 2122 2681 1889 2404 
Q 1656 2128 1656 1613 
L 1656 0 
L 538 0 
L 538 3500 
L 1656 3500 
L 1656 2925 
Q 1872 3269 2151 3426 
Q 2431 3584 2822 3584 
Q 2878 3584 2943 3579 
Q 3009 3575 3134 3559 
L 3138 2547 
z
" transform="scale(0.015625)"/>
      <path id="DejaVuSans-Bold-6f" d="M 2203 2784 
Q 1831 2784 1636 2517 
Q 1441 2250 1441 1747 
Q 1441 1244 1636 976 
Q 1831 709 2203 709 
Q 2569 709 2762 976 
Q 2956 1244 2956 1747 
Q 2956 2250 2762 2517 
Q 2569 2784 2203 2784 
z
M 2203 3584 
Q 3106 3584 3614 3096 
Q 4122 2609 4122 1747 
Q 4122 884 3614 396 
Q 3106 -91 2203 -91 
Q 1297 -91 786 396 
Q 275 884 275 1747 
Q 275 2609 786 3096 
Q 1297 3584 2203 3584 
z
" transform="scale(0.015625)"/>
      <path id="DejaVuSans-Bold-65" d="M 4031 1759 
L 4031 1441 
L 1416 1441 
Q 1456 1047 1700 850 
Q 1944 653 2381 653 
Q 2734 653 3104 758 
Q 3475 863 3866 1075 
L 3866 213 
Q 3469 63 3072 -14 
Q 2675 -91 2278 -91 
Q 1328 -91 801 392 
Q 275 875 275 1747 
Q 275 2603 792 3093 
Q 1309 3584 2216 3584 
Q 3041 3584 3536 3087 
Q 4031 2591 4031 1759 
z
M 2881 2131 
Q 2881 2450 2695 2645 
Q 2509 2841 2209 2841 
Q 1884 2841 1681 2658 
Q 1478 2475 1428 2131 
L 2881 2131 
z
" transform="scale(0.015625)"/>
      <path id="DejaVuSans-Bold-69" d="M 538 3500 
L 1656 3500 
L 1656 0 
L 538 0 
L 538 3500 
z
M 538 4863 
L 1656 4863 
L 1656 3950 
L 538 3950 
L 538 4863 
z
" transform="scale(0.015625)"/>
      <path id="DejaVuSans-Bold-67" d="M 2919 594 
Q 2688 288 2409 144 
Q 2131 0 1766 0 
Q 1125 0 706 504 
Q 288 1009 288 1791 
Q 288 2575 706 3076 
Q 1125 3578 1766 3578 
Q 2131 3578 2409 3434 
Q 2688 3291 2919 2981 
L 2919 3500 
L 4044 3500 
L 4044 353 
Q 4044 -491 3511 -936 
Q 2978 -1381 1966 -1381 
Q 1638 -1381 1331 -1331 
Q 1025 -1281 716 -1178 
L 716 -306 
Q 1009 -475 1290 -558 
Q 1572 -641 1856 -641 
Q 2406 -641 2662 -400 
Q 2919 -159 2919 353 
L 2919 594 
z
M 2181 2772 
Q 1834 2772 1640 2515 
Q 1447 2259 1447 1791 
Q 1447 1309 1634 1061 
Q 1822 813 2181 813 
Q 2531 813 2725 1069 
Q 2919 1325 2919 1791 
Q 2919 2259 2725 2515 
Q 2531 2772 2181 2772 
z
" transform="scale(0.015625)"/>
      <path id="DejaVuSans-Bold-26" d="M 2497 3097 
L 3775 1691 
Q 3941 1909 4027 2181 
Q 4113 2453 4128 2797 
L 5100 2797 
Q 5053 2228 4879 1784 
Q 4706 1341 4397 1006 
L 5313 0 
L 3988 0 
L 3681 341 
Q 3353 122 2990 15 
Q 2628 -91 2222 -91 
Q 1400 -91 892 342 
Q 384 775 384 1459 
Q 384 1916 607 2267 
Q 831 2619 1338 2950 
Q 1206 3116 1143 3281 
Q 1081 3447 1081 3628 
Q 1081 4138 1478 4444 
Q 1875 4750 2534 4750 
Q 2819 4750 3126 4704 
Q 3434 4659 3769 4569 
L 3769 3700 
Q 3475 3850 3212 3922 
Q 2950 3994 2700 3994 
Q 2459 3994 2326 3901 
Q 2194 3809 2194 3641 
Q 2194 3534 2270 3398 
Q 2347 3263 2497 3097 
z
M 1875 2322 
Q 1672 2175 1569 1989 
Q 1466 1803 1466 1581 
Q 1466 1222 1731 969 
Q 1997 716 2369 716 
Q 2578 716 2759 780 
Q 2941 844 3097 972 
L 1875 2322 
z
" transform="scale(0.015625)"/>
      <path id="DejaVuSans-Bold-54" d="M 31 4666 
L 4331 4666 
L 4331 3756 
L 2784 3756 
L 2784 0 
L 1581 0 
L 1581 3756 
L 31 3756 
L 31 4666 
z
" transform="scale(0.015625)"/>
      <path id="DejaVuSans-Bold-61" d="M 2106 1575 
Q 1756 1575 1579 1456 
Q 1403 1338 1403 1106 
Q 1403 894 1545 773 
Q 1688 653 1941 653 
Q 2256 653 2472 879 
Q 2688 1106 2688 1447 
L 2688 1575 
L 2106 1575 
z
M 3816 1997 
L 3816 0 
L 2688 0 
L 2688 519 
Q 2463 200 2181 54 
Q 1900 -91 1497 -91 
Q 953 -91 614 226 
Q 275 544 275 1050 
Q 275 1666 698 1953 
Q 1122 2241 2028 2241 
L 2688 2241 
L 2688 2328 
Q 2688 2594 2478 2717 
Q 2269 2841 1825 2841 
Q 1466 2841 1156 2769 
Q 847 2697 581 2553 
L 581 3406 
Q 941 3494 1303 3539 
Q 1666 3584 2028 3584 
Q 2975 3584 3395 3211 
Q 3816 2838 3816 1997 
z
" transform="scale(0.015625)"/>
      <path id="DejaVuSans-Bold-6b" d="M 538 4863 
L 1656 4863 
L 1656 2216 
L 2944 3500 
L 4244 3500 
L 2534 1894 
L 4378 0 
L 3022 0 
L 1656 1459 
L 1656 0 
L 538 0 
L 538 4863 
z
" transform="scale(0.015625)"/>
      <path id="DejaVuSans-Bold-4d" d="M 588 4666 
L 2119 4666 
L 3181 2169 
L 4250 4666 
L 5778 4666 
L 5778 0 
L 4641 0 
L 4641 3413 
L 3566 897 
L 2803 897 
L 1728 3413 
L 1728 0 
L 588 0 
L 588 4666 
z
" transform="scale(0.015625)"/>
      <path id="DejaVuSans-Bold-6d" d="M 3781 2919 
Q 3994 3244 4286 3414 
Q 4578 3584 4928 3584 
Q 5531 3584 5847 3212 
Q 6163 2841 6163 2131 
L 6163 0 
L 5038 0 
L 5038 1825 
Q 5041 1866 5042 1909 
Q 5044 1953 5044 2034 
Q 5044 2406 4934 2573 
Q 4825 2741 4581 2741 
Q 4263 2741 4089 2478 
Q 3916 2216 3909 1719 
L 3909 0 
L 2784 0 
L 2784 1825 
Q 2784 2406 2684 2573 
Q 2584 2741 2328 2741 
Q 2006 2741 1831 2477 
Q 1656 2213 1656 1722 
L 1656 0 
L 531 0 
L 531 3500 
L 1656 3500 
L 1656 2988 
Q 1863 3284 2130 3434 
Q 2397 3584 2719 3584 
Q 3081 3584 3359 3409 
Q 3638 3234 3781 2919 
z
" transform="scale(0.015625)"/>
      <path id="DejaVuSans-Bold-74" d="M 1759 4494 
L 1759 3500 
L 2913 3500 
L 2913 2700 
L 1759 2700 
L 1759 1216 
Q 1759 972 1856 886 
Q 1953 800 2241 800 
L 2816 800 
L 2816 0 
L 1856 0 
Q 1194 0 917 276 
Q 641 553 641 1216 
L 641 2700 
L 84 2700 
L 84 3500 
L 641 3500 
L 641 4494 
L 1759 4494 
z
" transform="scale(0.015625)"/>
      <path id="DejaVuSans-Bold-68" d="M 4056 2131 
L 4056 0 
L 2931 0 
L 2931 347 
L 2931 1625 
Q 2931 2084 2911 2256 
Q 2891 2428 2841 2509 
Q 2775 2619 2662 2680 
Q 2550 2741 2406 2741 
Q 2056 2741 1856 2470 
Q 1656 2200 1656 1722 
L 1656 0 
L 538 0 
L 538 4863 
L 1656 4863 
L 1656 2988 
Q 1909 3294 2193 3439 
Q 2478 3584 2822 3584 
Q 3428 3584 3742 3212 
Q 4056 2841 4056 2131 
z
" transform="scale(0.015625)"/>
      <path id="DejaVuSans-Bold-75" d="M 500 1363 
L 500 3500 
L 1625 3500 
L 1625 3150 
Q 1625 2866 1622 2436 
Q 1619 2006 1619 1863 
Q 1619 1441 1641 1255 
Q 1663 1069 1716 984 
Q 1784 875 1895 815 
Q 2006 756 2150 756 
Q 2500 756 2700 1025 
Q 2900 1294 2900 1772 
L 2900 3500 
L 4019 3500 
L 4019 0 
L 2900 0 
L 2900 506 
Q 2647 200 2364 54 
Q 2081 -91 1741 -91 
Q 1134 -91 817 281 
Q 500 653 500 1363 
z
" transform="scale(0.015625)"/>
     </defs>
     <use xlink:href="#DejaVuSans-Bold-41"/>
     <use xlink:href="#DejaVuSans-Bold-73" transform="translate(77.392578 0)"/>
     <use xlink:href="#DejaVuSans-Bold-79" transform="translate(136.914062 0)"/>
     <use xlink:href="#DejaVuSans-Bold-6e" transform="translate(202.099609 0)"/>
     <use xlink:href="#DejaVuSans-Bold-63" transform="translate(273.291016 0)"/>
     <use xlink:href="#DejaVuSans-Bold-20" transform="translate(332.568359 0)"/>
     <use xlink:href="#DejaVuSans-Bold-50" transform="translate(367.382812 0)"/>
     <use xlink:href="#DejaVuSans-Bold-72" transform="translate(440.673828 0)"/>
     <use xlink:href="#DejaVuSans-Bold-6f" transform="translate(489.990234 0)"/>
     <use xlink:href="#DejaVuSans-Bold-63" transform="translate(558.691406 0)"/>
     <use xlink:href="#DejaVuSans-Bold-65" transform="translate(617.96875 0)"/>
     <use xlink:href="#DejaVuSans-Bold-73" transform="translate(685.791016 0)"/>
     <use xlink:href="#DejaVuSans-Bold-73" transform="translate(745.3125 0)"/>
     <use xlink:href="#DejaVuSans-Bold-69" transform="translate(804.833984 0)"/>
     <use xlink:href="#DejaVuSans-Bold-6e" transform="translate(839.111328 0)"/>
     <use xlink:href="#DejaVuSans-Bold-67" transform="translate(910.302734 0)"/>
     <use xlink:href="#DejaVuSans-Bold-20" transform="translate(981.884766 0)"/>
     <use xlink:href="#DejaVuSans-Bold-26" transform="translate(1016.699219 0)"/>
     <use xlink:href="#DejaVuSans-Bold-20" transform="translate(1103.90625 0)"/>
     <use xlink:href="#DejaVuSans-Bold-54" transform="translate(1138.720703 0)"/>
     <use xlink:href="#DejaVuSans-Bold-61" transform="translate(1194.058594 0)"/>
     <use xlink:href="#DejaVuSans-Bold-73" transform="translate(1261.539062 0)"/>
     <use xlink:href="#DejaVuSans-Bold-6b" transform="translate(1321.060547 0)"/>
     <use xlink:href="#DejaVuSans-Bold-20" transform="translate(1387.564453 0)"/>
     <use xlink:href="#DejaVuSans-Bold-4d" transform="translate(1422.378906 0)"/>
     <use xlink:href="#DejaVuSans-Bold-61" transform="translate(1521.890625 0)"/>
     <use xlink:href="#DejaVuSans-Bold-6e" transform="translate(1589.371094 0)"/>
     <use xlink:href="#DejaVuSans-Bold-61" transform="translate(1660.5625 0)"/>
     <use xlink:href="#DejaVuSans-Bold-67" transform="translate(1728.042969 0)"/>
     <use xlink:href="#DejaVuSans-Bold-65" transform="translate(1799.625 0)"/>
     <use xlink:href="#DejaVuSans-Bold-6d" transform="translate(1867.447266 0)"/>
     <use xlink:href="#DejaVuSans-Bold-65" transform="translate(1971.646484 0)"/>
     <use xlink:href="#DejaVuSans-Bold-6e" transform="translate(2039.46875 0)"/>
     <use xlink:href="#DejaVuSans-Bold-74" transform="translate(2110.660156 0)"/>
     <use xlink:href="#DejaVuSans-Bold-20" transform="translate(2158.462891 0)"/>
     <use xlink:href="#DejaVuSans-Bold-41" transform="translate(2193.277344 0)"/>
     <use xlink:href="#DejaVuSans-Bold-72" transform="translate(2270.669922 0)"/>
     <use xlink:href="#DejaVuSans-Bold-63" transform="translate(2319.986328 0)"/>
     <use xlink:href="#DejaVuSans-Bold-68" transform="translate(2379.263672 0)"/>
     <use xlink:href="#DejaVuSans-Bold-69" transform="translate(2450.455078 0)"/>
     <use xlink:href="#DejaVuSans-Bold-74" transform="translate(2484.732422 0)"/>
     <use xlink:href="#DejaVuSans-Bold-65" transform="translate(2532.535156 0)"/>
     <use xlink:href="#DejaVuSans-Bold-63" transform="translate(2600.357422 0)"/>
     <use xlink:href="#DejaVuSans-Bold-74" transform="translate(2659.634766 0)"/>
     <use xlink:href="#DejaVuSans-Bold-75" transform="translate(2707.4375 0)"/>
     <use xlink:href="#DejaVuSans-Bold-72" transform="translate(2778.628906 0)"/>
     <use xlink:href="#DejaVuSans-Bold-65" transform="translate(2827.945312 0)"/>
    </g>
   </g>
   <g id="text_2">
    <!-- Async Task Manager -->
    <g style="fill: #ffffff" transform="translate(165.176016 126.794109) scale(0.09 -0.09)">
     <use xlink:href="#DejaVuSans-Bold-41"/>
     <use xlink:href="#DejaVuSans-Bold-73" transform="translate(77.392578 0)"/>
     <use xlink:href="#DejaVuSans-Bold-79" transform="translate(136.914062 0)"/>
     <use xlink:href="#DejaVuSans-Bold-6e" transform="translate(202.099609 0)"/>
     <use xlink:href="#DejaVuSans-Bold-63" transform="translate(273.291016 0)"/>
     <use xlink:href="#DejaVuSans-Bold-20" transform="translate(332.568359 0)"/>
     <use xlink:href="#DejaVuSans-Bold-54" transform="translate(367.382812 0)"/>
     <use xlink:href="#DejaVuSans-Bold-61" transform="translate(422.720703 0)"/>
     <use xlink:href="#DejaVuSans-Bold-73" transform="translate(490.201172 0)"/>
     <use xlink:href="#DejaVuSans-Bold-6b" transform="translate(549.722656 0)"/>
     <use xlink:href="#DejaVuSans-Bold-20" transform="translate(616.226562 0)"/>
     <use xlink:href="#DejaVuSans-Bold-4d" transform="translate(651.041016 0)"/>
     <use xlink:href="#DejaVuSans-Bold-61" transform="translate(750.552734 0)"/>
     <use xlink:href="#DejaVuSans-Bold-6e" transform="translate(818.033203 0)"/>
     <use xlink:href="#DejaVuSans-Bold-61" transform="translate(889.224609 0)"/>
     <use xlink:href="#DejaVuSans-Bold-67" transform="translate(956.705078 0)"/>
     <use xlink:href="#DejaVuSans-Bold-65" transform="translate(1028.287109 0)"/>
     <use xlink:href="#DejaVuSans-Bold-72" transform="translate(1096.109375 0)"/>
    </g>
    <!-- (Background Processing) -->
    <g style="fill: #ffffff" transform="translate(153.10125 136.942453) scale(0.09 -0.09)">
     <defs>
      <path id="DejaVuSans-Bold-28" d="M 2413 -844 
L 1484 -844 
Q 1006 -72 778 623 
Q 550 1319 550 2003 
Q 550 2688 779 3389 
Q 1009 4091 1484 4856 
L 2413 4856 
Q 2013 4116 1813 3408 
Q 1613 2700 1613 2009 
Q 1613 1319 1811 609 
Q 2009 -100 2413 -844 
z
" transform="scale(0.015625)"/>
      <path id="DejaVuSans-Bold-42" d="M 2456 2859 
Q 2741 2859 2887 2984 
Q 3034 3109 3034 3353 
Q 3034 3594 2887 3720 
Q 2741 3847 2456 3847 
L 1791 3847 
L 1791 2859 
L 2456 2859 
z
M 2497 819 
Q 2859 819 3042 972 
Q 3225 1125 3225 1434 
Q 3225 1738 3044 1889 
Q 2863 2041 2497 2041 
L 1791 2041 
L 1791 819 
L 2497 819 
z
M 3616 2497 
Q 4003 2384 4215 2081 
Q 4428 1778 4428 1338 
Q 4428 663 3972 331 
Q 3516 0 2584 0 
L 588 0 
L 588 4666 
L 2394 4666 
Q 3366 4666 3802 4372 
Q 4238 4078 4238 3431 
Q 4238 3091 4078 2852 
Q 3919 2613 3616 2497 
z
" transform="scale(0.015625)"/>
      <path id="DejaVuSans-Bold-64" d="M 2919 2988 
L 2919 4863 
L 4044 4863 
L 4044 0 
L 2919 0 
L 2919 506 
Q 2688 197 2409 53 
Q 2131 -91 1766 -91 
Q 1119 -91 703 423 
Q 288 938 288 1747 
Q 288 2556 703 3070 
Q 1119 3584 1766 3584 
Q 2128 3584 2408 3439 
Q 2688 3294 2919 2988 
z
M 2181 722 
Q 2541 722 2730 984 
Q 2919 1247 2919 1747 
Q 2919 2247 2730 2509 
Q 2541 2772 2181 2772 
Q 1825 2772 1636 2509 
Q 1447 2247 1447 1747 
Q 1447 1247 1636 984 
Q 1825 722 2181 722 
z
" transform="scale(0.015625)"/>
      <path id="DejaVuSans-Bold-29" d="M 513 -844 
Q 913 -100 1113 609 
Q 1313 1319 1313 2009 
Q 1313 2700 1113 3408 
Q 913 4116 513 4856 
L 1441 4856 
Q 1916 4091 2145 3389 
Q 2375 2688 2375 2003 
Q 2375 1319 2147 623 
Q 1919 -72 1441 -844 
L 513 -844 
z
" transform="scale(0.015625)"/>
     </defs>
     <use xlink:href="#DejaVuSans-Bold-28"/>
     <use xlink:href="#DejaVuSans-Bold-42" transform="translate(45.703125 0)"/>
     <use xlink:href="#DejaVuSans-Bold-61" transform="translate(121.923828 0)"/>
     <use xlink:href="#DejaVuSans-Bold-63" transform="translate(189.404297 0)"/>
     <use xlink:href="#DejaVuSans-Bold-6b" transform="translate(248.681641 0)"/>
     <use xlink:href="#DejaVuSans-Bold-67" transform="translate(315.185547 0)"/>
     <use xlink:href="#DejaVuSans-Bold-72" transform="translate(386.767578 0)"/>
     <use xlink:href="#DejaVuSans-Bold-6f" transform="translate(436.083984 0)"/>
     <use xlink:href="#DejaVuSans-Bold-75" transform="translate(504.785156 0)"/>
     <use xlink:href="#DejaVuSans-Bold-6e" transform="translate(575.976562 0)"/>
     <use xlink:href="#DejaVuSans-Bold-64" transform="translate(647.167969 0)"/>
     <use xlink:href="#DejaVuSans-Bold-20" transform="translate(718.75 0)"/>
     <use xlink:href="#DejaVuSans-Bold-50" transform="translate(753.564453 0)"/>
     <use xlink:href="#DejaVuSans-Bold-72" transform="translate(826.855469 0)"/>
     <use xlink:href="#DejaVuSans-Bold-6f" transform="translate(876.171875 0)"/>
     <use xlink:href="#DejaVuSans-Bold-63" transform="translate(944.873047 0)"/>
     <use xlink:href="#DejaVuSans-Bold-65" transform="translate(1004.150391 0)"/>
     <use xlink:href="#DejaVuSans-Bold-73" transform="translate(1071.972656 0)"/>
     <use xlink:href="#DejaVuSans-Bold-73" transform="translate(1131.494141 0)"/>
     <use xlink:href="#DejaVuSans-Bold-69" transform="translate(1191.015625 0)"/>
     <use xlink:href="#DejaVuSans-Bold-6e" transform="translate(1225.292969 0)"/>
     <use xlink:href="#DejaVuSans-Bold-67" transform="translate(1296.484375 0)"/>
     <use xlink:href="#DejaVuSans-Bold-29" transform="translate(1368.066406 0)"/>
    </g>
   </g>
   <g id="text_3">
    <!-- High Priority -->
    <g style="fill: #ffffff" transform="translate(498.702656 116.353266) scale(0.09 -0.09)">
     <defs>
      <path id="DejaVuSans-Bold-48" d="M 588 4666 
L 1791 4666 
L 1791 2888 
L 3566 2888 
L 3566 4666 
L 4769 4666 
L 4769 0 
L 3566 0 
L 3566 1978 
L 1791 1978 
L 1791 0 
L 588 0 
L 588 4666 
z
" transform="scale(0.015625)"/>
     </defs>
     <use xlink:href="#DejaVuSans-Bold-48"/>
     <use xlink:href="#DejaVuSans-Bold-69" transform="translate(83.691406 0)"/>
     <use xlink:href="#DejaVuSans-Bold-67" transform="translate(117.96875 0)"/>
     <use xlink:href="#DejaVuSans-Bold-68" transform="translate(189.550781 0)"/>
     <use xlink:href="#DejaVuSans-Bold-20" transform="translate(260.742188 0)"/>
     <use xlink:href="#DejaVuSans-Bold-50" transform="translate(295.556641 0)"/>
     <use xlink:href="#DejaVuSans-Bold-72" transform="translate(368.847656 0)"/>
     <use xlink:href="#DejaVuSans-Bold-69" transform="translate(418.164062 0)"/>
     <use xlink:href="#DejaVuSans-Bold-6f" transform="translate(452.441406 0)"/>
     <use xlink:href="#DejaVuSans-Bold-72" transform="translate(521.142578 0)"/>
     <use xlink:href="#DejaVuSans-Bold-69" transform="translate(570.458984 0)"/>
     <use xlink:href="#DejaVuSans-Bold-74" transform="translate(604.736328 0)"/>
     <use xlink:href="#DejaVuSans-Bold-79" transform="translate(652.539062 0)"/>
    </g>
    <!-- Queue -->
    <g style="fill: #ffffff" transform="translate(514.662891 126.501609) scale(0.09 -0.09)">
     <defs>
      <path id="DejaVuSans-Bold-51" d="M 2847 -84 
L 2753 -84 
Q 1600 -84 959 553 
Q 319 1191 319 2328 
Q 319 3463 958 4106 
Q 1597 4750 2719 4750 
Q 3853 4750 4486 4112 
Q 5119 3475 5119 2328 
Q 5119 1541 4783 972 
Q 4447 403 3816 116 
L 4756 -934 
L 3609 -934 
L 2847 -84 
z
M 2719 3878 
Q 2169 3878 1866 3472 
Q 1563 3066 1563 2328 
Q 1563 1578 1859 1179 
Q 2156 781 2719 781 
Q 3272 781 3575 1187 
Q 3878 1594 3878 2328 
Q 3878 3066 3575 3472 
Q 3272 3878 2719 3878 
z
" transform="scale(0.015625)"/>
     </defs>
     <use xlink:href="#DejaVuSans-Bold-51"/>
     <use xlink:href="#DejaVuSans-Bold-75" transform="translate(85.009766 0)"/>
     <use xlink:href="#DejaVuSans-Bold-65" transform="translate(156.201172 0)"/>
     <use xlink:href="#DejaVuSans-Bold-75" transform="translate(224.023438 0)"/>
     <use xlink:href="#DejaVuSans-Bold-65" transform="translate(295.214844 0)"/>
    </g>
   </g>
   <g id="text_4">
    <!-- Normal Priority -->
    <g style="fill: #ffffff" transform="translate(492.090469 186.193266) scale(0.09 -0.09)">
     <defs>
      <path id="DejaVuSans-Bold-4e" d="M 588 4666 
L 1931 4666 
L 3628 1466 
L 3628 4666 
L 4769 4666 
L 4769 0 
L 3425 0 
L 1728 3200 
L 1728 0 
L 588 0 
L 588 4666 
z
" transform="scale(0.015625)"/>
      <path id="DejaVuSans-Bold-6c" d="M 538 4863 
L 1656 4863 
L 1656 0 
L 538 0 
L 538 4863 
z
" transform="scale(0.015625)"/>
     </defs>
     <use xlink:href="#DejaVuSans-Bold-4e"/>
     <use xlink:href="#DejaVuSans-Bold-6f" transform="translate(83.691406 0)"/>
     <use xlink:href="#DejaVuSans-Bold-72" transform="translate(152.392578 0)"/>
     <use xlink:href="#DejaVuSans-Bold-6d" transform="translate(201.708984 0)"/>
     <use xlink:href="#DejaVuSans-Bold-61" transform="translate(305.908203 0)"/>
     <use xlink:href="#DejaVuSans-Bold-6c" transform="translate(373.388672 0)"/>
     <use xlink:href="#DejaVuSans-Bold-20" transform="translate(407.666016 0)"/>
     <use xlink:href="#DejaVuSans-Bold-50" transform="translate(442.480469 0)"/>
     <use xlink:href="#DejaVuSans-Bold-72" transform="translate(515.771484 0)"/>
     <use xlink:href="#DejaVuSans-Bold-69" transform="translate(565.087891 0)"/>
     <use xlink:href="#DejaVuSans-Bold-6f" transform="translate(599.365234 0)"/>
     <use xlink:href="#DejaVuSans-Bold-72" transform="translate(668.066406 0)"/>
     <use xlink:href="#DejaVuSans-Bold-69" transform="translate(717.382812 0)"/>
     <use xlink:href="#DejaVuSans-Bold-74" transform="translate(751.660156 0)"/>
     <use xlink:href="#DejaVuSans-Bold-79" transform="translate(799.462891 0)"/>
    </g>
    <!-- Queue -->
    <g style="fill: #ffffff" transform="translate(514.662891 196.341609) scale(0.09 -0.09)">
     <use xlink:href="#DejaVuSans-Bold-51"/>
     <use xlink:href="#DejaVuSans-Bold-75" transform="translate(85.009766 0)"/>
     <use xlink:href="#DejaVuSans-Bold-65" transform="translate(156.201172 0)"/>
     <use xlink:href="#DejaVuSans-Bold-75" transform="translate(224.023438 0)"/>
     <use xlink:href="#DejaVuSans-Bold-65" transform="translate(295.214844 0)"/>
    </g>
   </g>
   <g id="text_5">
    <!-- Low Priority -->
    <g style="fill: #ffffff" transform="translate(500.319141 256.033266) scale(0.09 -0.09)">
     <defs>
      <path id="DejaVuSans-Bold-4c" d="M 588 4666 
L 1791 4666 
L 1791 909 
L 3903 909 
L 3903 0 
L 588 0 
L 588 4666 
z
" transform="scale(0.015625)"/>
      <path id="DejaVuSans-Bold-77" d="M 225 3500 
L 1313 3500 
L 1900 1088 
L 2491 3500 
L 3425 3500 
L 4013 1113 
L 4603 3500 
L 5691 3500 
L 4769 0 
L 3547 0 
L 2956 2406 
L 2369 0 
L 1147 0 
L 225 3500 
z
" transform="scale(0.015625)"/>
     </defs>
     <use xlink:href="#DejaVuSans-Bold-4c"/>
     <use xlink:href="#DejaVuSans-Bold-6f" transform="translate(63.720703 0)"/>
     <use xlink:href="#DejaVuSans-Bold-77" transform="translate(132.421875 0)"/>
     <use xlink:href="#DejaVuSans-Bold-20" transform="translate(224.804688 0)"/>
     <use xlink:href="#DejaVuSans-Bold-50" transform="translate(259.619141 0)"/>
     <use xlink:href="#DejaVuSans-Bold-72" transform="translate(332.910156 0)"/>
     <use xlink:href="#DejaVuSans-Bold-69" transform="translate(382.226562 0)"/>
     <use xlink:href="#DejaVuSans-Bold-6f" transform="translate(416.503906 0)"/>
     <use xlink:href="#DejaVuSans-Bold-72" transform="translate(485.205078 0)"/>
     <use xlink:href="#DejaVuSans-Bold-69" transform="translate(534.521484 0)"/>
     <use xlink:href="#DejaVuSans-Bold-74" transform="translate(568.798828 0)"/>
     <use xlink:href="#DejaVuSans-Bold-79" transform="translate(616.601562 0)"/>
    </g>
    <!-- Queue -->
    <g style="fill: #ffffff" transform="translate(514.662891 266.181609) scale(0.09 -0.09)">
     <use xlink:href="#DejaVuSans-Bold-51"/>
     <use xlink:href="#DejaVuSans-Bold-75" transform="translate(85.009766 0)"/>
     <use xlink:href="#DejaVuSans-Bold-65" transform="translate(156.201172 0)"/>
     <use xlink:href="#DejaVuSans-Bold-75" transform="translate(224.023438 0)"/>
     <use xlink:href="#DejaVuSans-Bold-65" transform="translate(295.214844 0)"/>
    </g>
   </g>
   <g id="text_6">
    <!-- Worker Pool -->
    <g style="fill: #00008b" transform="translate(719.568 97.992) scale(0.11 -0.11)">
     <defs>
      <path id="DejaVuSans-Bold-57" d="M 191 4666 
L 1344 4666 
L 2150 1275 
L 2950 4666 
L 4109 4666 
L 4909 1275 
L 5716 4666 
L 6859 4666 
L 5759 0 
L 4372 0 
L 3525 3547 
L 2688 0 
L 1300 0 
L 191 4666 
z
" transform="scale(0.015625)"/>
     </defs>
     <use xlink:href="#DejaVuSans-Bold-57"/>
     <use xlink:href="#DejaVuSans-Bold-6f" transform="translate(106.677734 0)"/>
     <use xlink:href="#DejaVuSans-Bold-72" transform="translate(175.378906 0)"/>
     <use xlink:href="#DejaVuSans-Bold-6b" transform="translate(224.695312 0)"/>
     <use xlink:href="#DejaVuSans-Bold-65" transform="translate(288.574219 0)"/>
     <use xlink:href="#DejaVuSans-Bold-72" transform="translate(356.396484 0)"/>
     <use xlink:href="#DejaVuSans-Bold-20" transform="translate(405.712891 0)"/>
     <use xlink:href="#DejaVuSans-Bold-50" transform="translate(440.527344 0)"/>
     <use xlink:href="#DejaVuSans-Bold-6f" transform="translate(513.818359 0)"/>
     <use xlink:href="#DejaVuSans-Bold-6f" transform="translate(582.519531 0)"/>
     <use xlink:href="#DejaVuSans-Bold-6c" transform="translate(651.220703 0)"/>
    </g>
   </g>
   <g id="text_7">
    <!-- Risk Calc -->
    <g style="fill: #ffffff" transform="translate(780.581391 133.848422) scale(0.09 -0.09)">
     <defs>
      <path id="DejaVuSans-Bold-52" d="M 2297 2597 
Q 2675 2597 2839 2737 
Q 3003 2878 3003 3200 
Q 3003 3519 2839 3656 
Q 2675 3794 2297 3794 
L 1791 3794 
L 1791 2597 
L 2297 2597 
z
M 1791 1766 
L 1791 0 
L 588 0 
L 588 4666 
L 2425 4666 
Q 3347 4666 3776 4356 
Q 4206 4047 4206 3378 
Q 4206 2916 3982 2619 
Q 3759 2322 3309 2181 
Q 3556 2125 3751 1926 
Q 3947 1728 4147 1325 
L 4800 0 
L 3519 0 
L 2950 1159 
Q 2778 1509 2601 1637 
Q 2425 1766 2131 1766 
L 1791 1766 
z
" transform="scale(0.015625)"/>
      <path id="DejaVuSans-Bold-43" d="M 4288 256 
Q 3956 84 3597 -3 
Q 3238 -91 2847 -91 
Q 1681 -91 1000 561 
Q 319 1213 319 2328 
Q 319 3447 1000 4098 
Q 1681 4750 2847 4750 
Q 3238 4750 3597 4662 
Q 3956 4575 4288 4403 
L 4288 3438 
Q 3953 3666 3628 3772 
Q 3303 3878 2944 3878 
Q 2300 3878 1931 3465 
Q 1563 3053 1563 2328 
Q 1563 1606 1931 1193 
Q 2300 781 2944 781 
Q 3303 781 3628 887 
Q 3953 994 4288 1222 
L 4288 256 
z
" transform="scale(0.015625)"/>
     </defs>
     <use xlink:href="#DejaVuSans-Bold-52"/>
     <use xlink:href="#DejaVuSans-Bold-69" transform="translate(77.001953 0)"/>
     <use xlink:href="#DejaVuSans-Bold-73" transform="translate(111.279297 0)"/>
     <use xlink:href="#DejaVuSans-Bold-6b" transform="translate(170.800781 0)"/>
     <use xlink:href="#DejaVuSans-Bold-20" transform="translate(237.304688 0)"/>
     <use xlink:href="#DejaVuSans-Bold-43" transform="translate(272.119141 0)"/>
     <use xlink:href="#DejaVuSans-Bold-61" transform="translate(345.507812 0)"/>
     <use xlink:href="#DejaVuSans-Bold-6c" transform="translate(412.988281 0)"/>
     <use xlink:href="#DejaVuSans-Bold-63" transform="translate(447.265625 0)"/>
    </g>
    <!-- Worker -->
    <g style="fill: #ffffff" transform="translate(785.119359 143.926453) scale(0.09 -0.09)">
     <use xlink:href="#DejaVuSans-Bold-57"/>
     <use xlink:href="#DejaVuSans-Bold-6f" transform="translate(106.677734 0)"/>
     <use xlink:href="#DejaVuSans-Bold-72" transform="translate(175.378906 0)"/>
     <use xlink:href="#DejaVuSans-Bold-6b" transform="translate(224.695312 0)"/>
     <use xlink:href="#DejaVuSans-Bold-65" transform="translate(288.574219 0)"/>
     <use xlink:href="#DejaVuSans-Bold-72" transform="translate(356.396484 0)"/>
    </g>
   </g>
   <g id="text_8">
    <!-- Data Proc -->
    <g style="fill: #ffffff" transform="translate(932.220563 133.848422) scale(0.09 -0.09)">
     <defs>
      <path id="DejaVuSans-Bold-44" d="M 1791 3756 
L 1791 909 
L 2222 909 
Q 2959 909 3348 1275 
Q 3738 1641 3738 2338 
Q 3738 3031 3350 3393 
Q 2963 3756 2222 3756 
L 1791 3756 
z
M 588 4666 
L 1856 4666 
Q 2919 4666 3439 4514 
Q 3959 4363 4331 4000 
Q 4659 3684 4818 3271 
Q 4978 2859 4978 2338 
Q 4978 1809 4818 1395 
Q 4659 981 4331 666 
Q 3956 303 3431 151 
Q 2906 0 1856 0 
L 588 0 
L 588 4666 
z
" transform="scale(0.015625)"/>
     </defs>
     <use xlink:href="#DejaVuSans-Bold-44"/>
     <use xlink:href="#DejaVuSans-Bold-61" transform="translate(83.007812 0)"/>
     <use xlink:href="#DejaVuSans-Bold-74" transform="translate(150.488281 0)"/>
     <use xlink:href="#DejaVuSans-Bold-61" transform="translate(198.291016 0)"/>
     <use xlink:href="#DejaVuSans-Bold-20" transform="translate(265.771484 0)"/>
     <use xlink:href="#DejaVuSans-Bold-50" transform="translate(300.585938 0)"/>
     <use xlink:href="#DejaVuSans-Bold-72" transform="translate(373.876953 0)"/>
     <use xlink:href="#DejaVuSans-Bold-6f" transform="translate(423.193359 0)"/>
     <use xlink:href="#DejaVuSans-Bold-63" transform="translate(491.894531 0)"/>
    </g>
    <!-- Worker -->
    <g style="fill: #ffffff" transform="translate(938.767359 143.926453) scale(0.09 -0.09)">
     <use xlink:href="#DejaVuSans-Bold-57"/>
     <use xlink:href="#DejaVuSans-Bold-6f" transform="translate(106.677734 0)"/>
     <use xlink:href="#DejaVuSans-Bold-72" transform="translate(175.378906 0)"/>
     <use xlink:href="#DejaVuSans-Bold-6b" transform="translate(224.695312 0)"/>
     <use xlink:href="#DejaVuSans-Bold-65" transform="translate(288.574219 0)"/>
     <use xlink:href="#DejaVuSans-Bold-72" transform="translate(356.396484 0)"/>
    </g>
   </g>
   <g id="text_9">
    <!-- Report Gen -->
    <g style="fill: #ffffff" transform="translate(774.660375 203.688422) scale(0.09 -0.09)">
     <defs>
      <path id="DejaVuSans-Bold-70" d="M 1656 506 
L 1656 -1331 
L 538 -1331 
L 538 3500 
L 1656 3500 
L 1656 2988 
Q 1888 3294 2169 3439 
Q 2450 3584 2816 3584 
Q 3463 3584 3878 3070 
Q 4294 2556 4294 1747 
Q 4294 938 3878 423 
Q 3463 -91 2816 -91 
Q 2450 -91 2169 54 
Q 1888 200 1656 506 
z
M 2400 2772 
Q 2041 2772 1848 2508 
Q 1656 2244 1656 1747 
Q 1656 1250 1848 986 
Q 2041 722 2400 722 
Q 2759 722 2948 984 
Q 3138 1247 3138 1747 
Q 3138 2247 2948 2509 
Q 2759 2772 2400 2772 
z
" transform="scale(0.015625)"/>
      <path id="DejaVuSans-Bold-47" d="M 4781 347 
Q 4331 128 3847 18 
Q 3363 -91 2847 -91 
Q 1681 -91 1000 561 
Q 319 1213 319 2328 
Q 319 3456 1012 4103 
Q 1706 4750 2913 4750 
Q 3378 4750 3804 4662 
Q 4231 4575 4609 4403 
L 4609 3438 
Q 4219 3659 3833 3768 
Q 3447 3878 3059 3878 
Q 2341 3878 1952 3476 
Q 1563 3075 1563 2328 
Q 1563 1588 1938 1184 
Q 2313 781 3003 781 
Q 3191 781 3352 804 
Q 3513 828 3641 878 
L 3641 1784 
L 2906 1784 
L 2906 2591 
L 4781 2591 
L 4781 347 
z
" transform="scale(0.015625)"/>
     </defs>
     <use xlink:href="#DejaVuSans-Bold-52"/>
     <use xlink:href="#DejaVuSans-Bold-65" transform="translate(77.001953 0)"/>
     <use xlink:href="#DejaVuSans-Bold-70" transform="translate(144.824219 0)"/>
     <use xlink:href="#DejaVuSans-Bold-6f" transform="translate(216.40625 0)"/>
     <use xlink:href="#DejaVuSans-Bold-72" transform="translate(285.107422 0)"/>
     <use xlink:href="#DejaVuSans-Bold-74" transform="translate(334.423828 0)"/>
     <use xlink:href="#DejaVuSans-Bold-20" transform="translate(382.226562 0)"/>
     <use xlink:href="#DejaVuSans-Bold-47" transform="translate(417.041016 0)"/>
     <use xlink:href="#DejaVuSans-Bold-65" transform="translate(499.121094 0)"/>
     <use xlink:href="#DejaVuSans-Bold-6e" transform="translate(566.943359 0)"/>
    </g>
    <!-- Worker -->
    <g style="fill: #ffffff" transform="translate(785.119359 213.766453) scale(0.09 -0.09)">
     <use xlink:href="#DejaVuSans-Bold-57"/>
     <use xlink:href="#DejaVuSans-Bold-6f" transform="translate(106.677734 0)"/>
     <use xlink:href="#DejaVuSans-Bold-72" transform="translate(175.378906 0)"/>
     <use xlink:href="#DejaVuSans-Bold-6b" transform="translate(224.695312 0)"/>
     <use xlink:href="#DejaVuSans-Bold-65" transform="translate(288.574219 0)"/>
     <use xlink:href="#DejaVuSans-Bold-72" transform="translate(356.396484 0)"/>
    </g>
   </g>
   <g id="text_10">
    <!-- Cache Warm -->
    <g style="fill: #ffffff" transform="translate(925.449469 203.688422) scale(0.09 -0.09)">
     <use xlink:href="#DejaVuSans-Bold-43"/>
     <use xlink:href="#DejaVuSans-Bold-61" transform="translate(73.388672 0)"/>
     <use xlink:href="#DejaVuSans-Bold-63" transform="translate(140.869141 0)"/>
     <use xlink:href="#DejaVuSans-Bold-68" transform="translate(200.146484 0)"/>
     <use xlink:href="#DejaVuSans-Bold-65" transform="translate(271.337891 0)"/>
     <use xlink:href="#DejaVuSans-Bold-20" transform="translate(339.160156 0)"/>
     <use xlink:href="#DejaVuSans-Bold-57" transform="translate(373.974609 0)"/>
     <use xlink:href="#DejaVuSans-Bold-61" transform="translate(480.652344 0)"/>
     <use xlink:href="#DejaVuSans-Bold-72" transform="translate(548.132812 0)"/>
     <use xlink:href="#DejaVuSans-Bold-6d" transform="translate(597.449219 0)"/>
    </g>
    <!-- Worker -->
    <g style="fill: #ffffff" transform="translate(938.767359 213.766453) scale(0.09 -0.09)">
     <use xlink:href="#DejaVuSans-Bold-57"/>
     <use xlink:href="#DejaVuSans-Bold-6f" transform="translate(106.677734 0)"/>
     <use xlink:href="#DejaVuSans-Bold-72" transform="translate(175.378906 0)"/>
     <use xlink:href="#DejaVuSans-Bold-6b" transform="translate(224.695312 0)"/>
     <use xlink:href="#DejaVuSans-Bold-65" transform="translate(288.574219 0)"/>
     <use xlink:href="#DejaVuSans-Bold-72" transform="translate(356.396484 0)"/>
    </g>
   </g>
   <g id="text_11">
    <!-- Monitor -->
    <g style="fill: #ffffff" transform="translate(860.4225 273.528422) scale(0.09 -0.09)">
     <use xlink:href="#DejaVuSans-Bold-4d"/>
     <use xlink:href="#DejaVuSans-Bold-6f" transform="translate(99.511719 0)"/>
     <use xlink:href="#DejaVuSans-Bold-6e" transform="translate(168.212891 0)"/>
     <use xlink:href="#DejaVuSans-Bold-69" transform="translate(239.404297 0)"/>
     <use xlink:href="#DejaVuSans-Bold-74" transform="translate(273.681641 0)"/>
     <use xlink:href="#DejaVuSans-Bold-6f" transform="translate(321.484375 0)"/>
     <use xlink:href="#DejaVuSans-Bold-72" transform="translate(390.185547 0)"/>
    </g>
    <!-- Worker -->
    <g style="fill: #ffffff" transform="translate(861.943359 283.606453) scale(0.09 -0.09)">
     <use xlink:href="#DejaVuSans-Bold-57"/>
     <use xlink:href="#DejaVuSans-Bold-6f" transform="translate(106.677734 0)"/>
     <use xlink:href="#DejaVuSans-Bold-72" transform="translate(175.378906 0)"/>
     <use xlink:href="#DejaVuSans-Bold-6b" transform="translate(224.695312 0)"/>
     <use xlink:href="#DejaVuSans-Bold-65" transform="translate(288.574219 0)"/>
     <use xlink:href="#DejaVuSans-Bold-72" transform="translate(356.396484 0)"/>
    </g>
   </g>
   <g id="text_12">
    <!-- Portfolio Risk -->
    <g transform="translate(130.109062 318.924422) scale(0.09 -0.09)">
     <defs>
      <path id="DejaVuSans-Bold-66" d="M 2841 4863 
L 2841 4128 
L 2222 4128 
Q 1984 4128 1890 4042 
Q 1797 3956 1797 3744 
L 1797 3500 
L 2753 3500 
L 2753 2700 
L 1797 2700 
L 1797 0 
L 678 0 
L 678 2700 
L 122 2700 
L 122 3500 
L 678 3500 
L 678 3744 
Q 678 4316 997 4589 
Q 1316 4863 1984 4863 
L 2841 4863 
z
" transform="scale(0.015625)"/>
     </defs>
     <use xlink:href="#DejaVuSans-Bold-50"/>
     <use xlink:href="#DejaVuSans-Bold-6f" transform="translate(73.291016 0)"/>
     <use xlink:href="#DejaVuSans-Bold-72" transform="translate(141.992188 0)"/>
     <use xlink:href="#DejaVuSans-Bold-74" transform="translate(191.308594 0)"/>
     <use xlink:href="#DejaVuSans-Bold-66" transform="translate(239.111328 0)"/>
     <use xlink:href="#DejaVuSans-Bold-6f" transform="translate(282.617188 0)"/>
     <use xlink:href="#DejaVuSans-Bold-6c" transform="translate(351.318359 0)"/>
     <use xlink:href="#DejaVuSans-Bold-69" transform="translate(385.595703 0)"/>
     <use xlink:href="#DejaVuSans-Bold-6f" transform="translate(419.873047 0)"/>
     <use xlink:href="#DejaVuSans-Bold-20" transform="translate(488.574219 0)"/>
     <use xlink:href="#DejaVuSans-Bold-52" transform="translate(523.388672 0)"/>
     <use xlink:href="#DejaVuSans-Bold-69" transform="translate(600.390625 0)"/>
     <use xlink:href="#DejaVuSans-Bold-73" transform="translate(634.667969 0)"/>
     <use xlink:href="#DejaVuSans-Bold-6b" transform="translate(694.189453 0)"/>
    </g>
    <!-- Calculation -->
    <g transform="translate(136.018828 329.002453) scale(0.09 -0.09)">
     <use xlink:href="#DejaVuSans-Bold-43"/>
     <use xlink:href="#DejaVuSans-Bold-61" transform="translate(73.388672 0)"/>
     <use xlink:href="#DejaVuSans-Bold-6c" transform="translate(140.869141 0)"/>
     <use xlink:href="#DejaVuSans-Bold-63" transform="translate(175.146484 0)"/>
     <use xlink:href="#DejaVuSans-Bold-75" transform="translate(234.423828 0)"/>
     <use xlink:href="#DejaVuSans-Bold-6c" transform="translate(305.615234 0)"/>
     <use xlink:href="#DejaVuSans-Bold-61" transform="translate(339.892578 0)"/>
     <use xlink:href="#DejaVuSans-Bold-74" transform="translate(407.373047 0)"/>
     <use xlink:href="#DejaVuSans-Bold-69" transform="translate(455.175781 0)"/>
     <use xlink:href="#DejaVuSans-Bold-6f" transform="translate(489.453125 0)"/>
     <use xlink:href="#DejaVuSans-Bold-6e" transform="translate(558.154297 0)"/>
    </g>
   </g>
   <g id="text_13">
    <!-- Market Data -->
    <g transform="translate(342.521719 318.924422) scale(0.09 -0.09)">
     <use xlink:href="#DejaVuSans-Bold-4d"/>
     <use xlink:href="#DejaVuSans-Bold-61" transform="translate(99.511719 0)"/>
     <use xlink:href="#DejaVuSans-Bold-72" transform="translate(166.992188 0)"/>
     <use xlink:href="#DejaVuSans-Bold-6b" transform="translate(216.308594 0)"/>
     <use xlink:href="#DejaVuSans-Bold-65" transform="translate(280.1875 0)"/>
     <use xlink:href="#DejaVuSans-Bold-74" transform="translate(348.009766 0)"/>
     <use xlink:href="#DejaVuSans-Bold-20" transform="translate(395.8125 0)"/>
     <use xlink:href="#DejaVuSans-Bold-44" transform="translate(430.626953 0)"/>
     <use xlink:href="#DejaVuSans-Bold-61" transform="translate(513.634766 0)"/>
     <use xlink:href="#DejaVuSans-Bold-74" transform="translate(581.115234 0)"/>
     <use xlink:href="#DejaVuSans-Bold-61" transform="translate(628.917969 0)"/>
    </g>
    <!-- Refresh -->
    <g transform="translate(354.232266 329.002453) scale(0.09 -0.09)">
     <use xlink:href="#DejaVuSans-Bold-52"/>
     <use xlink:href="#DejaVuSans-Bold-65" transform="translate(77.001953 0)"/>
     <use xlink:href="#DejaVuSans-Bold-66" transform="translate(144.824219 0)"/>
     <use xlink:href="#DejaVuSans-Bold-72" transform="translate(188.330078 0)"/>
     <use xlink:href="#DejaVuSans-Bold-65" transform="translate(237.646484 0)"/>
     <use xlink:href="#DejaVuSans-Bold-73" transform="translate(305.46875 0)"/>
     <use xlink:href="#DejaVuSans-Bold-68" transform="translate(364.990234 0)"/>
    </g>
   </g>
   <g id="text_14">
    <!-- Performance -->
    <g transform="translate(131.852812 423.649266) scale(0.09 -0.09)">
     <use xlink:href="#DejaVuSans-Bold-50"/>
     <use xlink:href="#DejaVuSans-Bold-65" transform="translate(73.291016 0)"/>
     <use xlink:href="#DejaVuSans-Bold-72" transform="translate(141.113281 0)"/>
     <use xlink:href="#DejaVuSans-Bold-66" transform="translate(190.429688 0)"/>
     <use xlink:href="#DejaVuSans-Bold-6f" transform="translate(233.935547 0)"/>
     <use xlink:href="#DejaVuSans-Bold-72" transform="translate(302.636719 0)"/>
     <use xlink:href="#DejaVuSans-Bold-6d" transform="translate(351.953125 0)"/>
     <use xlink:href="#DejaVuSans-Bold-61" transform="translate(456.152344 0)"/>
     <use xlink:href="#DejaVuSans-Bold-6e" transform="translate(523.632812 0)"/>
     <use xlink:href="#DejaVuSans-Bold-63" transform="translate(594.824219 0)"/>
     <use xlink:href="#DejaVuSans-Bold-65" transform="translate(654.101562 0)"/>
    </g>
    <!-- Monitoring -->
    <g transform="translate(136.595391 433.727297) scale(0.09 -0.09)">
     <use xlink:href="#DejaVuSans-Bold-4d"/>
     <use xlink:href="#DejaVuSans-Bold-6f" transform="translate(99.511719 0)"/>
     <use xlink:href="#DejaVuSans-Bold-6e" transform="translate(168.212891 0)"/>
     <use xlink:href="#DejaVuSans-Bold-69" transform="translate(239.404297 0)"/>
     <use xlink:href="#DejaVuSans-Bold-74" transform="translate(273.681641 0)"/>
     <use xlink:href="#DejaVuSans-Bold-6f" transform="translate(321.484375 0)"/>
     <use xlink:href="#DejaVuSans-Bold-72" transform="translate(390.185547 0)"/>
     <use xlink:href="#DejaVuSans-Bold-69" transform="translate(439.501953 0)"/>
     <use xlink:href="#DejaVuSans-Bold-6e" transform="translate(473.779297 0)"/>
     <use xlink:href="#DejaVuSans-Bold-67" transform="translate(544.970703 0)"/>
    </g>
   </g>
   <g id="text_15">
    <!-- Cache -->
    <g transform="translate(358.597266 423.684422) scale(0.09 -0.09)">
     <use xlink:href="#DejaVuSans-Bold-43"/>
     <use xlink:href="#DejaVuSans-Bold-61" transform="translate(73.388672 0)"/>
     <use xlink:href="#DejaVuSans-Bold-63" transform="translate(140.869141 0)"/>
     <use xlink:href="#DejaVuSans-Bold-68" transform="translate(200.146484 0)"/>
     <use xlink:href="#DejaVuSans-Bold-65" transform="translate(271.337891 0)"/>
    </g>
    <!-- Warmup -->
    <g transform="translate(352.690313 433.762453) scale(0.09 -0.09)">
     <use xlink:href="#DejaVuSans-Bold-57"/>
     <use xlink:href="#DejaVuSans-Bold-61" transform="translate(106.677734 0)"/>
     <use xlink:href="#DejaVuSans-Bold-72" transform="translate(174.158203 0)"/>
     <use xlink:href="#DejaVuSans-Bold-6d" transform="translate(223.474609 0)"/>
     <use xlink:href="#DejaVuSans-Bold-75" transform="translate(327.673828 0)"/>
     <use xlink:href="#DejaVuSans-Bold-70" transform="translate(398.865234 0)"/>
    </g>
   </g>
   <g id="text_16">
    <!-- Result Storage -->
    <g style="fill: #ffffff" transform="translate(842.528672 441.109266) scale(0.09 -0.09)">
     <defs>
      <path id="DejaVuSans-Bold-53" d="M 3834 4519 
L 3834 3531 
Q 3450 3703 3084 3790 
Q 2719 3878 2394 3878 
Q 1963 3878 1756 3759 
Q 1550 3641 1550 3391 
Q 1550 3203 1689 3098 
Q 1828 2994 2194 2919 
L 2706 2816 
Q 3484 2659 3812 2340 
Q 4141 2022 4141 1434 
Q 4141 663 3683 286 
Q 3225 -91 2284 -91 
Q 1841 -91 1394 -6 
Q 947 78 500 244 
L 500 1259 
Q 947 1022 1364 901 
Q 1781 781 2169 781 
Q 2563 781 2772 912 
Q 2981 1044 2981 1288 
Q 2981 1506 2839 1625 
Q 2697 1744 2272 1838 
L 1806 1941 
Q 1106 2091 782 2419 
Q 459 2747 459 3303 
Q 459 4000 909 4375 
Q 1359 4750 2203 4750 
Q 2588 4750 2994 4692 
Q 3400 4634 3834 4519 
z
" transform="scale(0.015625)"/>
     </defs>
     <use xlink:href="#DejaVuSans-Bold-52"/>
     <use xlink:href="#DejaVuSans-Bold-65" transform="translate(77.001953 0)"/>
     <use xlink:href="#DejaVuSans-Bold-73" transform="translate(144.824219 0)"/>
     <use xlink:href="#DejaVuSans-Bold-75" transform="translate(204.345703 0)"/>
     <use xlink:href="#DejaVuSans-Bold-6c" transform="translate(275.537109 0)"/>
     <use xlink:href="#DejaVuSans-Bold-74" transform="translate(309.814453 0)"/>
     <use xlink:href="#DejaVuSans-Bold-20" transform="translate(357.617188 0)"/>
     <use xlink:href="#DejaVuSans-Bold-53" transform="translate(392.431641 0)"/>
     <use xlink:href="#DejaVuSans-Bold-74" transform="translate(464.453125 0)"/>
     <use xlink:href="#DejaVuSans-Bold-6f" transform="translate(512.255859 0)"/>
     <use xlink:href="#DejaVuSans-Bold-72" transform="translate(580.957031 0)"/>
     <use xlink:href="#DejaVuSans-Bold-61" transform="translate(630.273438 0)"/>
     <use xlink:href="#DejaVuSans-Bold-67" transform="translate(697.753906 0)"/>
     <use xlink:href="#DejaVuSans-Bold-65" transform="translate(769.335938 0)"/>
    </g>
    <!-- (Redis + Database) -->
    <g style="fill: #ffffff" transform="translate(831.275156 451.257609) scale(0.09 -0.09)">
     <defs>
      <path id="DejaVuSans-Bold-2b" d="M 3053 4013 
L 3053 2375 
L 4684 2375 
L 4684 1638 
L 3053 1638 
L 3053 0 
L 2309 0 
L 2309 1638 
L 678 1638 
L 678 2375 
L 2309 2375 
L 2309 4013 
L 3053 4013 
z
" transform="scale(0.015625)"/>
      <path id="DejaVuSans-Bold-62" d="M 2400 722 
Q 2759 722 2948 984 
Q 3138 1247 3138 1747 
Q 3138 2247 2948 2509 
Q 2759 2772 2400 2772 
Q 2041 2772 1848 2508 
Q 1656 2244 1656 1747 
Q 1656 1250 1848 986 
Q 2041 722 2400 722 
z
M 1656 2988 
Q 1888 3294 2169 3439 
Q 2450 3584 2816 3584 
Q 3463 3584 3878 3070 
Q 4294 2556 4294 1747 
Q 4294 938 3878 423 
Q 3463 -91 2816 -91 
Q 2450 -91 2169 54 
Q 1888 200 1656 506 
L 1656 0 
L 538 0 
L 538 4863 
L 1656 4863 
L 1656 2988 
z
" transform="scale(0.015625)"/>
     </defs>
     <use xlink:href="#DejaVuSans-Bold-28"/>
     <use xlink:href="#DejaVuSans-Bold-52" transform="translate(45.703125 0)"/>
     <use xlink:href="#DejaVuSans-Bold-65" transform="translate(122.705078 0)"/>
     <use xlink:href="#DejaVuSans-Bold-64" transform="translate(190.527344 0)"/>
     <use xlink:href="#DejaVuSans-Bold-69" transform="translate(262.109375 0)"/>
     <use xlink:href="#DejaVuSans-Bold-73" transform="translate(296.386719 0)"/>
     <use xlink:href="#DejaVuSans-Bold-20" transform="translate(355.908203 0)"/>
     <use xlink:href="#DejaVuSans-Bold-2b" transform="translate(390.722656 0)"/>
     <use xlink:href="#DejaVuSans-Bold-20" transform="translate(474.511719 0)"/>
     <use xlink:href="#DejaVuSans-Bold-44" transform="translate(509.326172 0)"/>
     <use xlink:href="#DejaVuSans-Bold-61" transform="translate(592.333984 0)"/>
     <use xlink:href="#DejaVuSans-Bold-74" transform="translate(659.814453 0)"/>
     <use xlink:href="#DejaVuSans-Bold-61" transform="translate(707.617188 0)"/>
     <use xlink:href="#DejaVuSans-Bold-62" transform="translate(775.097656 0)"/>
     <use xlink:href="#DejaVuSans-Bold-61" transform="translate(846.679688 0)"/>
     <use xlink:href="#DejaVuSans-Bold-73" transform="translate(914.160156 0)"/>
     <use xlink:href="#DejaVuSans-Bold-65" transform="translate(973.681641 0)"/>
     <use xlink:href="#DejaVuSans-Bold-29" transform="translate(1041.503906 0)"/>
    </g>
   </g>
   <g id="text_17">
    <!-- Task Monitoring: Queue Length, Processing Time, Success Rate, Error Tracking -->
    <g transform="translate(86.375391 550.908281) scale(0.09 -0.09)">
     <defs>
      <path id="DejaVuSans-Bold-3a" d="M 716 3500 
L 1844 3500 
L 1844 2291 
L 716 2291 
L 716 3500 
z
M 716 1209 
L 1844 1209 
L 1844 0 
L 716 0 
L 716 1209 
z
" transform="scale(0.015625)"/>
      <path id="DejaVuSans-Bold-2c" d="M 653 1209 
L 1778 1209 
L 1778 256 
L 1006 -909 
L 341 -909 
L 653 256 
L 653 1209 
z
" transform="scale(0.015625)"/>
      <path id="DejaVuSans-Bold-45" d="M 588 4666 
L 3834 4666 
L 3834 3756 
L 1791 3756 
L 1791 2888 
L 3713 2888 
L 3713 1978 
L 1791 1978 
L 1791 909 
L 3903 909 
L 3903 0 
L 588 0 
L 588 4666 
z
" transform="scale(0.015625)"/>
     </defs>
     <use xlink:href="#DejaVuSans-Bold-54"/>
     <use xlink:href="#DejaVuSans-Bold-61" transform="translate(55.337891 0)"/>
     <use xlink:href="#DejaVuSans-Bold-73" transform="translate(122.818359 0)"/>
     <use xlink:href="#DejaVuSans-Bold-6b" transform="translate(182.339844 0)"/>
     <use xlink:href="#DejaVuSans-Bold-20" transform="translate(248.84375 0)"/>
     <use xlink:href="#DejaVuSans-Bold-4d" transform="translate(283.658203 0)"/>
     <use xlink:href="#DejaVuSans-Bold-6f" transform="translate(383.169922 0)"/>
     <use xlink:href="#DejaVuSans-Bold-6e" transform="translate(451.871094 0)"/>
     <use xlink:href="#DejaVuSans-Bold-69" transform="translate(523.0625 0)"/>
     <use xlink:href="#DejaVuSans-Bold-74" transform="translate(557.339844 0)"/>
     <use xlink:href="#DejaVuSans-Bold-6f" transform="translate(605.142578 0)"/>
     <use xlink:href="#DejaVuSans-Bold-72" transform="translate(673.84375 0)"/>
     <use xlink:href="#DejaVuSans-Bold-69" transform="translate(723.160156 0)"/>
     <use xlink:href="#DejaVuSans-Bold-6e" transform="translate(757.4375 0)"/>
     <use xlink:href="#DejaVuSans-Bold-67" transform="translate(828.628906 0)"/>
     <use xlink:href="#DejaVuSans-Bold-3a" transform="translate(900.210938 0)"/>
     <use xlink:href="#DejaVuSans-Bold-20" transform="translate(940.201172 0)"/>
     <use xlink:href="#DejaVuSans-Bold-51" transform="translate(975.015625 0)"/>
     <use xlink:href="#DejaVuSans-Bold-75" transform="translate(1060.025391 0)"/>
     <use xlink:href="#DejaVuSans-Bold-65" transform="translate(1131.216797 0)"/>
     <use xlink:href="#DejaVuSans-Bold-75" transform="translate(1199.039062 0)"/>
     <use xlink:href="#DejaVuSans-Bold-65" transform="translate(1270.230469 0)"/>
     <use xlink:href="#DejaVuSans-Bold-20" transform="translate(1338.052734 0)"/>
     <use xlink:href="#DejaVuSans-Bold-4c" transform="translate(1372.867188 0)"/>
     <use xlink:href="#DejaVuSans-Bold-65" transform="translate(1436.587891 0)"/>
     <use xlink:href="#DejaVuSans-Bold-6e" transform="translate(1504.410156 0)"/>
     <use xlink:href="#DejaVuSans-Bold-67" transform="translate(1575.601562 0)"/>
     <use xlink:href="#DejaVuSans-Bold-74" transform="translate(1647.183594 0)"/>
     <use xlink:href="#DejaVuSans-Bold-68" transform="translate(1694.986328 0)"/>
     <use xlink:href="#DejaVuSans-Bold-2c" transform="translate(1766.177734 0)"/>
     <use xlink:href="#DejaVuSans-Bold-20" transform="translate(1804.166016 0)"/>
     <use xlink:href="#DejaVuSans-Bold-50" transform="translate(1838.980469 0)"/>
     <use xlink:href="#DejaVuSans-Bold-72" transform="translate(1912.271484 0)"/>
     <use xlink:href="#DejaVuSans-Bold-6f" transform="translate(1961.587891 0)"/>
     <use xlink:href="#DejaVuSans-Bold-63" transform="translate(2030.289062 0)"/>
     <use xlink:href="#DejaVuSans-Bold-65" transform="translate(2089.566406 0)"/>
     <use xlink:href="#DejaVuSans-Bold-73" transform="translate(2157.388672 0)"/>
     <use xlink:href="#DejaVuSans-Bold-73" transform="translate(2216.910156 0)"/>
     <use xlink:href="#DejaVuSans-Bold-69" transform="translate(2276.431641 0)"/>
     <use xlink:href="#DejaVuSans-Bold-6e" transform="translate(2310.708984 0)"/>
     <use xlink:href="#DejaVuSans-Bold-67" transform="translate(2381.900391 0)"/>
     <use xlink:href="#DejaVuSans-Bold-20" transform="translate(2453.482422 0)"/>
     <use xlink:href="#DejaVuSans-Bold-54" transform="translate(2488.296875 0)"/>
     <use xlink:href="#DejaVuSans-Bold-69" transform="translate(2556.509766 0)"/>
     <use xlink:href="#DejaVuSans-Bold-6d" transform="translate(2590.787109 0)"/>
     <use xlink:href="#DejaVuSans-Bold-65" transform="translate(2694.986328 0)"/>
     <use xlink:href="#DejaVuSans-Bold-2c" transform="translate(2762.808594 0)"/>
     <use xlink:href="#DejaVuSans-Bold-20" transform="translate(2800.796875 0)"/>
     <use xlink:href="#DejaVuSans-Bold-53" transform="translate(2835.611328 0)"/>
     <use xlink:href="#DejaVuSans-Bold-75" transform="translate(2907.632812 0)"/>
     <use xlink:href="#DejaVuSans-Bold-63" transform="translate(2978.824219 0)"/>
     <use xlink:href="#DejaVuSans-Bold-63" transform="translate(3038.101562 0)"/>
     <use xlink:href="#DejaVuSans-Bold-65" transform="translate(3097.378906 0)"/>
     <use xlink:href="#DejaVuSans-Bold-73" transform="translate(3165.201172 0)"/>
     <use xlink:href="#DejaVuSans-Bold-73" transform="translate(3224.722656 0)"/>
     <use xlink:href="#DejaVuSans-Bold-20" transform="translate(3284.244141 0)"/>
     <use xlink:href="#DejaVuSans-Bold-52" transform="translate(3319.058594 0)"/>
     <use xlink:href="#DejaVuSans-Bold-61" transform="translate(3396.060547 0)"/>
     <use xlink:href="#DejaVuSans-Bold-74" transform="translate(3463.541016 0)"/>
     <use xlink:href="#DejaVuSans-Bold-65" transform="translate(3511.34375 0)"/>
     <use xlink:href="#DejaVuSans-Bold-2c" transform="translate(3579.166016 0)"/>
     <use xlink:href="#DejaVuSans-Bold-20" transform="translate(3617.154297 0)"/>
     <use xlink:href="#DejaVuSans-Bold-45" transform="translate(3651.96875 0)"/>
     <use xlink:href="#DejaVuSans-Bold-72" transform="translate(3720.279297 0)"/>
     <use xlink:href="#DejaVuSans-Bold-72" transform="translate(3769.595703 0)"/>
     <use xlink:href="#DejaVuSans-Bold-6f" transform="translate(3818.912109 0)"/>
     <use xlink:href="#DejaVuSans-Bold-72" transform="translate(3887.613281 0)"/>
     <use xlink:href="#DejaVuSans-Bold-20" transform="translate(3936.929688 0)"/>
     <use xlink:href="#DejaVuSans-Bold-54" transform="translate(3971.744141 0)"/>
     <use xlink:href="#DejaVuSans-Bold-72" transform="translate(4028.957031 0)"/>
     <use xlink:href="#DejaVuSans-Bold-61" transform="translate(4078.273438 0)"/>
     <use xlink:href="#DejaVuSans-Bold-63" transform="translate(4145.753906 0)"/>
     <use xlink:href="#DejaVuSans-Bold-6b" transform="translate(4205.03125 0)"/>
     <use xlink:href="#DejaVuSans-Bold-69" transform="translate(4271.535156 0)"/>
     <use xlink:href="#DejaVuSans-Bold-6e" transform="translate(4305.8125 0)"/>
     <use xlink:href="#DejaVuSans-Bold-67" transform="translate(4377.003906 0)"/>
    </g>
   </g>
   <g id="text_18">
    <!-- Performance Metrics: Throughput, Latency, Resource Usage, Scaling Events -->
    <g transform="translate(617.221406 550.908281) scale(0.09 -0.09)">
     <defs>
      <path id="DejaVuSans-Bold-55" d="M 588 4666 
L 1791 4666 
L 1791 1869 
Q 1791 1291 1980 1042 
Q 2169 794 2597 794 
Q 3028 794 3217 1042 
Q 3406 1291 3406 1869 
L 3406 4666 
L 4609 4666 
L 4609 1869 
Q 4609 878 4112 393 
Q 3616 -91 2597 -91 
Q 1581 -91 1084 393 
Q 588 878 588 1869 
L 588 4666 
z
" transform="scale(0.015625)"/>
      <path id="DejaVuSans-Bold-76" d="M 97 3500 
L 1216 3500 
L 2088 1081 
L 2956 3500 
L 4078 3500 
L 2700 0 
L 1472 0 
L 97 3500 
z
" transform="scale(0.015625)"/>
     </defs>
     <use xlink:href="#DejaVuSans-Bold-50"/>
     <use xlink:href="#DejaVuSans-Bold-65" transform="translate(73.291016 0)"/>
     <use xlink:href="#DejaVuSans-Bold-72" transform="translate(141.113281 0)"/>
     <use xlink:href="#DejaVuSans-Bold-66" transform="translate(190.429688 0)"/>
     <use xlink:href="#DejaVuSans-Bold-6f" transform="translate(233.935547 0)"/>
     <use xlink:href="#DejaVuSans-Bold-72" transform="translate(302.636719 0)"/>
     <use xlink:href="#DejaVuSans-Bold-6d" transform="translate(351.953125 0)"/>
     <use xlink:href="#DejaVuSans-Bold-61" transform="translate(456.152344 0)"/>
     <use xlink:href="#DejaVuSans-Bold-6e" transform="translate(523.632812 0)"/>
     <use xlink:href="#DejaVuSans-Bold-63" transform="translate(594.824219 0)"/>
     <use xlink:href="#DejaVuSans-Bold-65" transform="translate(654.101562 0)"/>
     <use xlink:href="#DejaVuSans-Bold-20" transform="translate(721.923828 0)"/>
     <use xlink:href="#DejaVuSans-Bold-4d" transform="translate(756.738281 0)"/>
     <use xlink:href="#DejaVuSans-Bold-65" transform="translate(856.25 0)"/>
     <use xlink:href="#DejaVuSans-Bold-74" transform="translate(924.072266 0)"/>
     <use xlink:href="#DejaVuSans-Bold-72" transform="translate(971.875 0)"/>
     <use xlink:href="#DejaVuSans-Bold-69" transform="translate(1021.191406 0)"/>
     <use xlink:href="#DejaVuSans-Bold-63" transform="translate(1055.46875 0)"/>
     <use xlink:href="#DejaVuSans-Bold-73" transform="translate(1114.746094 0)"/>
     <use xlink:href="#DejaVuSans-Bold-3a" transform="translate(1174.267578 0)"/>
     <use xlink:href="#DejaVuSans-Bold-20" transform="translate(1214.257812 0)"/>
     <use xlink:href="#DejaVuSans-Bold-54" transform="translate(1249.072266 0)"/>
     <use xlink:href="#DejaVuSans-Bold-68" transform="translate(1317.285156 0)"/>
     <use xlink:href="#DejaVuSans-Bold-72" transform="translate(1388.476562 0)"/>
     <use xlink:href="#DejaVuSans-Bold-6f" transform="translate(1437.792969 0)"/>
     <use xlink:href="#DejaVuSans-Bold-75" transform="translate(1506.494141 0)"/>
     <use xlink:href="#DejaVuSans-Bold-67" transform="translate(1577.685547 0)"/>
     <use xlink:href="#DejaVuSans-Bold-68" transform="translate(1649.267578 0)"/>
     <use xlink:href="#DejaVuSans-Bold-70" transform="translate(1720.458984 0)"/>
     <use xlink:href="#DejaVuSans-Bold-75" transform="translate(1792.041016 0)"/>
     <use xlink:href="#DejaVuSans-Bold-74" transform="translate(1863.232422 0)"/>
     <use xlink:href="#DejaVuSans-Bold-2c" transform="translate(1911.035156 0)"/>
     <use xlink:href="#DejaVuSans-Bold-20" transform="translate(1949.023438 0)"/>
     <use xlink:href="#DejaVuSans-Bold-4c" transform="translate(1983.837891 0)"/>
     <use xlink:href="#DejaVuSans-Bold-61" transform="translate(2047.558594 0)"/>
     <use xlink:href="#DejaVuSans-Bold-74" transform="translate(2115.039062 0)"/>
     <use xlink:href="#DejaVuSans-Bold-65" transform="translate(2162.841797 0)"/>
     <use xlink:href="#DejaVuSans-Bold-6e" transform="translate(2230.664062 0)"/>
     <use xlink:href="#DejaVuSans-Bold-63" transform="translate(2301.855469 0)"/>
     <use xlink:href="#DejaVuSans-Bold-79" transform="translate(2361.132812 0)"/>
     <use xlink:href="#DejaVuSans-Bold-2c" transform="translate(2418.568359 0)"/>
     <use xlink:href="#DejaVuSans-Bold-20" transform="translate(2456.556641 0)"/>
     <use xlink:href="#DejaVuSans-Bold-52" transform="translate(2491.371094 0)"/>
     <use xlink:href="#DejaVuSans-Bold-65" transform="translate(2568.373047 0)"/>
     <use xlink:href="#DejaVuSans-Bold-73" transform="translate(2636.195312 0)"/>
     <use xlink:href="#DejaVuSans-Bold-6f" transform="translate(2695.716797 0)"/>
     <use xlink:href="#DejaVuSans-Bold-75" transform="translate(2764.417969 0)"/>
     <use xlink:href="#DejaVuSans-Bold-72" transform="translate(2835.609375 0)"/>
     <use xlink:href="#DejaVuSans-Bold-63" transform="translate(2884.925781 0)"/>
     <use xlink:href="#DejaVuSans-Bold-65" transform="translate(2944.203125 0)"/>
     <use xlink:href="#DejaVuSans-Bold-20" transform="translate(3012.025391 0)"/>
     <use xlink:href="#DejaVuSans-Bold-55" transform="translate(3046.839844 0)"/>
     <use xlink:href="#DejaVuSans-Bold-73" transform="translate(3128.041016 0)"/>
     <use xlink:href="#DejaVuSans-Bold-61" transform="translate(3187.5625 0)"/>
     <use xlink:href="#DejaVuSans-Bold-67" transform="translate(3255.042969 0)"/>
     <use xlink:href="#DejaVuSans-Bold-65" transform="translate(3326.625 0)"/>
     <use xlink:href="#DejaVuSans-Bold-2c" transform="translate(3394.447266 0)"/>
     <use xlink:href="#DejaVuSans-Bold-20" transform="translate(3432.435547 0)"/>
     <use xlink:href="#DejaVuSans-Bold-53" transform="translate(3467.25 0)"/>
     <use xlink:href="#DejaVuSans-Bold-63" transform="translate(3539.271484 0)"/>
     <use xlink:href="#DejaVuSans-Bold-61" transform="translate(3598.548828 0)"/>
     <use xlink:href="#DejaVuSans-Bold-6c" transform="translate(3666.029297 0)"/>
     <use xlink:href="#DejaVuSans-Bold-69" transform="translate(3700.306641 0)"/>
     <use xlink:href="#DejaVuSans-Bold-6e" transform="translate(3734.583984 0)"/>
     <use xlink:href="#DejaVuSans-Bold-67" transform="translate(3805.775391 0)"/>
     <use xlink:href="#DejaVuSans-Bold-20" transform="translate(3877.357422 0)"/>
     <use xlink:href="#DejaVuSans-Bold-45" transform="translate(3912.171875 0)"/>
     <use xlink:href="#DejaVuSans-Bold-76" transform="translate(3980.482422 0)"/>
     <use xlink:href="#DejaVuSans-Bold-65" transform="translate(4045.667969 0)"/>
     <use xlink:href="#DejaVuSans-Bold-6e" transform="translate(4113.490234 0)"/>
     <use xlink:href="#DejaVuSans-Bold-74" transform="translate(4184.681641 0)"/>
     <use xlink:href="#DejaVuSans-Bold-73" transform="translate(4232.484375 0)"/>
    </g>
   </g>
   <g id="patch_19">
    <path d="M 358.38535 132.647287 
Q 408.779994 125.928001 456.958185 119.504242 
" style="fill: none; stroke: #0000ff; stroke-width: 2; stroke-linecap: round"/>
    <path d="M 452.728946 118.050441 
L 456.958185 119.504242 
L 453.257601 122.015353 
" style="fill: none; stroke: #0000ff; stroke-width: 2; stroke-linecap: round"/>
   </g>
   <g id="patch_20">
    <path d="M 358.257469 147.622988 
Q 408.780765 167.832306 457.227924 187.21117 
" style="fill: none; stroke: #0000ff; stroke-width: 2; stroke-linecap: round"/>
    <path d="M 454.256799 183.868654 
L 457.227924 187.21117 
L 452.771236 187.58256 
" style="fill: none; stroke: #0000ff; stroke-width: 2; stroke-linecap: round"/>
   </g>
   <g id="patch_21">
    <path d="M 357.861039 162.211636 
Q 408.780731 209.736682 458.065734 255.736018 
" style="fill: none; stroke: #0000ff; stroke-width: 2; stroke-linecap: round"/>
    <path d="M 456.506149 251.544635 
L 458.065734 255.736018 
L 453.776876 254.468856 
" style="fill: none; stroke: #0000ff; stroke-width: 2; stroke-linecap: round"/>
   </g>
   <g id="patch_22">
    <path d="M 602.813628 119.240044 
Q 670.677133 129.41957 736.32931 139.267397 
" style="fill: none; stroke: #008000; stroke-width: 2; stroke-linecap: round"/>
    <path d="M 732.670246 136.696162 
L 736.32931 139.267397 
L 732.076884 140.651907 
" style="fill: none; stroke: #008000; stroke-width: 2; stroke-linecap: round"/>
   </g>
   <g id="patch_23">
    <path d="M 602.839524 188.715051 
Q 702.10869 185.291976 799.143117 181.945961 
" style="fill: none; stroke: #008000; stroke-width: 2; stroke-linecap: round"/>
    <path d="M 795.076568 180.084999 
L 799.143117 181.945961 
L 795.214418 184.082623 
" style="fill: none; stroke: #008000; stroke-width: 2; stroke-linecap: round"/>
   </g>
   <g id="patch_24">
    <path d="M 602.839098 258.56997 
Q 730.043908 255.132002 855.013466 251.754447 
" style="fill: none; stroke: #008000; stroke-width: 2; stroke-linecap: round"/>
    <path d="M 850.960892 249.863246 
L 855.013466 251.754447 
L 851.068961 253.861785 
" style="fill: none; stroke: #008000; stroke-width: 2; stroke-linecap: round"/>
   </g>
   <g id="patch_25">
    <path d="M 161.314126 354.457809 
Q 181.799431 269.102371 201.762899 185.921256 
" style="fill: none; stroke: #800080; stroke-width: 2; stroke-linecap: round"/>
    <path d="M 198.884632 189.344059 
L 201.762899 185.921256 
L 202.774181 190.277551 
" style="fill: none; stroke: #800080; stroke-width: 2; stroke-linecap: round"/>
   </g>
   <g id="patch_26">
    <path d="M 369.116899 354.836124 
Q 300.526622 269.098277 233.333205 185.106506 
" style="fill: none; stroke: #800080; stroke-width: 2; stroke-linecap: round"/>
    <path d="M 234.270247 189.479371 
L 233.333205 185.106506 
L 237.393723 186.980591 
" style="fill: none; stroke: #800080; stroke-width: 2; stroke-linecap: round"/>
   </g>
   <g id="patch_27">
    <path d="M 160.94796 459.160796 
Q 167.832146 321.477079 174.604668 186.02664 
" style="fill: none; stroke: #800080; stroke-width: 2; stroke-linecap: round"/>
    <path d="M 172.407413 189.921774 
L 174.604668 186.02664 
L 176.402422 190.121524 
" style="fill: none; stroke: #800080; stroke-width: 2; stroke-linecap: round"/>
   </g>
   <g id="patch_28">
    <path d="M 369.626291 459.305728 
Q 314.496926 321.482315 260.198016 185.735039 
" style="fill: none; stroke: #800080; stroke-width: 2; stroke-linecap: round"/>
    <path d="M 259.826625 190.191727 
L 260.198016 185.735039 
L 263.540532 188.706165 
" style="fill: none; stroke: #800080; stroke-width: 2; stroke-linecap: round"/>
   </g>
   <g id="patch_29">
    <path d="M 803.717868 232.653742 
Q 817.343565 311.001502 830.586132 387.146261 
" style="fill: none; stroke: #ffa500; stroke-width: 2; stroke-linecap: round"/>
    <path d="M 831.871191 382.862731 
L 830.586132 387.146261 
L 827.930344 383.548096 
" style="fill: none; stroke: #ffa500; stroke-width: 2; stroke-linecap: round"/>
   </g>
   <g id="patch_30">
    <path d="M 921.845041 232.67335 
Q 911.627663 311.006586 901.699495 387.122536 
" style="fill: none; stroke: #ffa500; stroke-width: 2; stroke-linecap: round"/>
    <path d="M 904.200053 383.414813 
L 901.699495 387.122536 
L 900.233651 382.897456 
" style="fill: none; stroke: #ffa500; stroke-width: 2; stroke-linecap: round"/>
   </g>
  </g>
 </g>
 <defs>
  <clipPath id="pf3858ac939">
   <rect x="7.2" y="7.2" width="1117.44" height="698.4"/>
  </clipPath>
 </defs>
</svg>
