<?xml version="1.0" encoding="utf-8" standalone="no"?>
<!DOCTYPE svg PUBLIC "-//W3C//DTD SVG 1.1//EN"
  "http://www.w3.org/Graphics/SVG/1.1/DTD/svg11.dtd">
<svg xmlns:xlink="http://www.w3.org/1999/xlink" width="1278pt" height="856.8pt" viewBox="0 0 1278 856.8" xmlns="http://www.w3.org/2000/svg" version="1.1">
 <metadata>
  <rdf:RDF xmlns:dc="http://purl.org/dc/elements/1.1/" xmlns:cc="http://creativecommons.org/ns#" xmlns:rdf="http://www.w3.org/1999/02/22-rdf-syntax-ns#">
   <cc:Work>
    <dc:type rdf:resource="http://purl.org/dc/dcmitype/StillImage"/>
    <dc:date>2025-09-21T20:57:50.110793</dc:date>
    <dc:format>image/svg+xml</dc:format>
    <dc:creator>
     <cc:Agent>
      <dc:title>Matplotlib v3.10.6, https://matplotlib.org/</dc:title>
     </cc:Agent>
    </dc:creator>
   </cc:Work>
  </rdf:RDF>
 </metadata>
 <defs>
  <style type="text/css">*{stroke-linejoin: round; stroke-linecap: butt}</style>
 </defs>
 <g id="figure_1">
  <g id="patch_1">
   <path d="M 0 856.8 
L 1278 856.8 
L 1278 0 
L 0 0 
z
" style="fill: #ffffff"/>
  </g>
  <g id="axes_1">
   <g id="patch_2">
    <path d="M 91.44 266.94 
L 203.76 266.94 
Q 210.78 266.94 210.78 259.92 
L 210.78 175.68 
Q 210.78 168.66 203.76 168.66 
L 91.44 168.66 
Q 84.42 168.66 84.42 175.68 
L 84.42 259.92 
Q 84.42 266.94 91.44 266.94 
z
" clip-path="url(#p1d20186da7)" style="fill: #4ecdc4; stroke: #000000; stroke-width: 2; stroke-linejoin: miter"/>
   </g>
   <g id="patch_3">
    <path d="M 91.44 407.34 
L 203.76 407.34 
Q 210.78 407.34 210.78 400.32 
L 210.78 316.08 
Q 210.78 309.06 203.76 309.06 
L 91.44 309.06 
Q 84.42 309.06 84.42 316.08 
L 84.42 400.32 
Q 84.42 407.34 91.44 407.34 
z
" clip-path="url(#p1d20186da7)" style="fill: #9b59b6; stroke: #000000; stroke-width: 2; stroke-linejoin: miter"/>
   </g>
   <g id="patch_4">
    <path d="M 91.44 547.74 
L 203.76 547.74 
Q 210.78 547.74 210.78 540.72 
L 210.78 456.48 
Q 210.78 449.46 203.76 449.46 
L 91.44 449.46 
Q 84.42 449.46 84.42 456.48 
L 84.42 540.72 
Q 84.42 547.74 91.44 547.74 
z
" clip-path="url(#p1d20186da7)" style="fill: #f39c12; stroke: #000000; stroke-width: 2; stroke-linejoin: miter"/>
   </g>
   <g id="patch_5">
    <path d="M 372.24 266.94 
L 484.56 266.94 
Q 491.58 266.94 491.58 259.92 
L 491.58 175.68 
Q 491.58 168.66 484.56 168.66 
L 372.24 168.66 
Q 365.22 168.66 365.22 175.68 
L 365.22 259.92 
Q 365.22 266.94 372.24 266.94 
z
" clip-path="url(#p1d20186da7)" style="fill: #e74c3c; stroke: #000000; stroke-width: 2; stroke-linejoin: miter"/>
   </g>
   <g id="patch_6">
    <path d="M 372.24 407.34 
L 484.56 407.34 
Q 491.58 407.34 491.58 400.32 
L 491.58 316.08 
Q 491.58 309.06 484.56 309.06 
L 372.24 309.06 
Q 365.22 309.06 365.22 316.08 
L 365.22 400.32 
Q 365.22 407.34 372.24 407.34 
z
" clip-path="url(#p1d20186da7)" style="fill: #e74c3c; stroke: #000000; stroke-width: 2; stroke-linejoin: miter"/>
   </g>
   <g id="patch_7">
    <path d="M 372.24 547.74 
L 484.56 547.74 
Q 491.58 547.74 491.58 540.72 
L 491.58 456.48 
Q 491.58 449.46 484.56 449.46 
L 372.24 449.46 
Q 365.22 449.46 365.22 456.48 
L 365.22 540.72 
Q 365.22 547.74 372.24 547.74 
z
" clip-path="url(#p1d20186da7)" style="fill: #e74c3c; stroke: #000000; stroke-width: 2; stroke-linejoin: miter"/>
   </g>
   <g id="patch_8">
    <path d="M 639 224.82 
L 779.4 224.82 
Q 786.42 224.82 786.42 217.8 
L 786.42 147.6 
Q 786.42 140.58 779.4 140.58 
L 639 140.58 
Q 631.98 140.58 631.98 147.6 
L 631.98 217.8 
Q 631.98 224.82 639 224.82 
z
" clip-path="url(#p1d20186da7)" style="fill: #1f77b4; stroke: #000000; stroke-width: 2; stroke-linejoin: miter"/>
   </g>
   <g id="patch_9">
    <path d="M 639 330.12 
L 779.4 330.12 
Q 786.42 330.12 786.42 323.1 
L 786.42 252.9 
Q 786.42 245.88 779.4 245.88 
L 639 245.88 
Q 631.98 245.88 631.98 252.9 
L 631.98 323.1 
Q 631.98 330.12 639 330.12 
z
" clip-path="url(#p1d20186da7)" style="fill: #1f77b4; stroke: #000000; stroke-width: 2; stroke-linejoin: miter"/>
   </g>
   <g id="patch_10">
    <path d="M 919.8 224.82 
L 1060.2 224.82 
Q 1067.22 224.82 1067.22 217.8 
L 1067.22 147.6 
Q 1067.22 140.58 1060.2 140.58 
L 919.8 140.58 
Q 912.78 140.58 912.78 147.6 
L 912.78 217.8 
Q 912.78 224.82 919.8 224.82 
z
" clip-path="url(#p1d20186da7)" style="fill: #1f77b4; stroke: #000000; stroke-width: 2; stroke-linejoin: miter"/>
   </g>
   <g id="patch_11">
    <path d="M 919.8 330.12 
L 1060.2 330.12 
Q 1067.22 330.12 1067.22 323.1 
L 1067.22 252.9 
Q 1067.22 245.88 1060.2 245.88 
L 919.8 245.88 
Q 912.78 245.88 912.78 252.9 
L 912.78 323.1 
Q 912.78 330.12 919.8 330.12 
z
" clip-path="url(#p1d20186da7)" style="fill: #1f77b4; stroke: #000000; stroke-width: 2; stroke-linejoin: miter"/>
   </g>
   <g id="patch_12">
    <path d="M 639 568.8 
L 1200.6 568.8 
L 1200.6 358.2 
L 639 358.2 
z
" clip-path="url(#p1d20186da7)" style="fill: #e6e6fa; opacity: 0.3; stroke: #800080; stroke-width: 2; stroke-linejoin: miter"/>
   </g>
   <g id="patch_13">
    <path d="M 674.1 488.07 
L 744.3 488.07 
Q 747.81 488.07 747.81 484.56 
L 747.81 442.44 
Q 747.81 438.93 744.3 438.93 
L 674.1 438.93 
Q 670.59 438.93 670.59 442.44 
L 670.59 484.56 
Q 670.59 488.07 674.1 488.07 
z
" clip-path="url(#p1d20186da7)" style="fill: #ff9f43; stroke: #000000; stroke-linejoin: miter"/>
   </g>
   <g id="patch_14">
    <path d="M 814.5 488.07 
L 884.7 488.07 
Q 888.21 488.07 888.21 484.56 
L 888.21 442.44 
Q 888.21 438.93 884.7 438.93 
L 814.5 438.93 
Q 810.99 438.93 810.99 442.44 
L 810.99 484.56 
Q 810.99 488.07 814.5 488.07 
z
" clip-path="url(#p1d20186da7)" style="fill: #ff9f43; stroke: #000000; stroke-linejoin: miter"/>
   </g>
   <g id="patch_15">
    <path d="M 954.9 488.07 
L 1025.1 488.07 
Q 1028.61 488.07 1028.61 484.56 
L 1028.61 442.44 
Q 1028.61 438.93 1025.1 438.93 
L 954.9 438.93 
Q 951.39 438.93 951.39 442.44 
L 951.39 484.56 
Q 951.39 488.07 954.9 488.07 
z
" clip-path="url(#p1d20186da7)" style="fill: #ff9f43; stroke: #000000; stroke-linejoin: miter"/>
   </g>
   <g id="patch_16">
    <path d="M 1095.3 488.07 
L 1165.5 488.07 
Q 1169.01 488.07 1169.01 484.56 
L 1169.01 442.44 
Q 1169.01 438.93 1165.5 438.93 
L 1095.3 438.93 
Q 1091.79 438.93 1091.79 442.44 
L 1091.79 484.56 
Q 1091.79 488.07 1095.3 488.07 
z
" clip-path="url(#p1d20186da7)" style="fill: #ff9f43; stroke: #000000; stroke-linejoin: miter"/>
   </g>
   <g id="patch_17">
    <path d="M 596.88 775.89 
L 681.12 775.89 
Q 684.63 775.89 684.63 772.38 
L 684.63 716.22 
Q 684.63 712.71 681.12 712.71 
L 596.88 712.71 
Q 593.37 712.71 593.37 716.22 
L 593.37 772.38 
Q 593.37 775.89 596.88 775.89 
z
" clip-path="url(#p1d20186da7)" style="fill: #90ee90; stroke: #000000; stroke-linejoin: miter"/>
   </g>
   <g id="patch_18">
    <path d="M 737.28 775.89 
L 821.52 775.89 
Q 825.03 775.89 825.03 772.38 
L 825.03 716.22 
Q 825.03 712.71 821.52 712.71 
L 737.28 712.71 
Q 733.77 712.71 733.77 716.22 
L 733.77 772.38 
Q 733.77 775.89 737.28 775.89 
z
" clip-path="url(#p1d20186da7)" style="fill: #90ee90; stroke: #000000; stroke-linejoin: miter"/>
   </g>
   <g id="patch_19">
    <path d="M 877.68 775.89 
L 961.92 775.89 
Q 965.43 775.89 965.43 772.38 
L 965.43 716.22 
Q 965.43 712.71 961.92 712.71 
L 877.68 712.71 
Q 874.17 712.71 874.17 716.22 
L 874.17 772.38 
Q 874.17 775.89 877.68 775.89 
z
" clip-path="url(#p1d20186da7)" style="fill: #90ee90; stroke: #000000; stroke-linejoin: miter"/>
   </g>
   <g id="patch_20">
    <path d="M 1018.08 775.89 
L 1102.32 775.89 
Q 1105.83 775.89 1105.83 772.38 
L 1105.83 716.22 
Q 1105.83 712.71 1102.32 712.71 
L 1018.08 712.71 
Q 1014.57 712.71 1014.57 716.22 
L 1014.57 772.38 
Q 1014.57 775.89 1018.08 775.89 
z
" clip-path="url(#p1d20186da7)" style="fill: #90ee90; stroke: #000000; stroke-linejoin: miter"/>
   </g>
   <g id="patch_21">
    <path d="M 1158.48 775.89 
L 1242.72 775.89 
Q 1246.23 775.89 1246.23 772.38 
L 1246.23 716.22 
Q 1246.23 712.71 1242.72 712.71 
L 1158.48 712.71 
Q 1154.97 712.71 1154.97 716.22 
L 1154.97 772.38 
Q 1154.97 775.89 1158.48 775.89 
z
" clip-path="url(#p1d20186da7)" style="fill: #90ee90; stroke: #000000; stroke-linejoin: miter"/>
   </g>
   <g id="text_1">
    <!-- Dash Analytics Data Processing Flow -->
    <g transform="translate(451.725469 42.3) scale(0.18 -0.18)">
     <defs>
      <path id="DejaVuSans-Bold-44" d="M 1791 3756 
L 1791 909 
L 2222 909 
Q 2959 909 3348 1275 
Q 3738 1641 3738 2338 
Q 3738 3031 3350 3393 
Q 2963 3756 2222 3756 
L 1791 3756 
z
M 588 4666 
L 1856 4666 
Q 2919 4666 3439 4514 
Q 3959 4363 4331 4000 
Q 4659 3684 4818 3271 
Q 4978 2859 4978 2338 
Q 4978 1809 4818 1395 
Q 4659 981 4331 666 
Q 3956 303 3431 151 
Q 2906 0 1856 0 
L 588 0 
L 588 4666 
z
" transform="scale(0.015625)"/>
      <path id="DejaVuSans-Bold-61" d="M 2106 1575 
Q 1756 1575 1579 1456 
Q 1403 1338 1403 1106 
Q 1403 894 1545 773 
Q 1688 653 1941 653 
Q 2256 653 2472 879 
Q 2688 1106 2688 1447 
L 2688 1575 
L 2106 1575 
z
M 3816 1997 
L 3816 0 
L 2688 0 
L 2688 519 
Q 2463 200 2181 54 
Q 1900 -91 1497 -91 
Q 953 -91 614 226 
Q 275 544 275 1050 
Q 275 1666 698 1953 
Q 1122 2241 2028 2241 
L 2688 2241 
L 2688 2328 
Q 2688 2594 2478 2717 
Q 2269 2841 1825 2841 
Q 1466 2841 1156 2769 
Q 847 2697 581 2553 
L 581 3406 
Q 941 3494 1303 3539 
Q 1666 3584 2028 3584 
Q 2975 3584 3395 3211 
Q 3816 2838 3816 1997 
z
" transform="scale(0.015625)"/>
      <path id="DejaVuSans-Bold-73" d="M 3272 3391 
L 3272 2541 
Q 2913 2691 2578 2766 
Q 2244 2841 1947 2841 
Q 1628 2841 1473 2761 
Q 1319 2681 1319 2516 
Q 1319 2381 1436 2309 
Q 1553 2238 1856 2203 
L 2053 2175 
Q 2913 2066 3209 1816 
Q 3506 1566 3506 1031 
Q 3506 472 3093 190 
Q 2681 -91 1863 -91 
Q 1516 -91 1145 -36 
Q 775 19 384 128 
L 384 978 
Q 719 816 1070 734 
Q 1422 653 1784 653 
Q 2113 653 2278 743 
Q 2444 834 2444 1013 
Q 2444 1163 2330 1236 
Q 2216 1309 1875 1350 
L 1678 1375 
Q 931 1469 631 1722 
Q 331 1975 331 2491 
Q 331 3047 712 3315 
Q 1094 3584 1881 3584 
Q 2191 3584 2531 3537 
Q 2872 3491 3272 3391 
z
" transform="scale(0.015625)"/>
      <path id="DejaVuSans-Bold-68" d="M 4056 2131 
L 4056 0 
L 2931 0 
L 2931 347 
L 2931 1625 
Q 2931 2084 2911 2256 
Q 2891 2428 2841 2509 
Q 2775 2619 2662 2680 
Q 2550 2741 2406 2741 
Q 2056 2741 1856 2470 
Q 1656 2200 1656 1722 
L 1656 0 
L 538 0 
L 538 4863 
L 1656 4863 
L 1656 2988 
Q 1909 3294 2193 3439 
Q 2478 3584 2822 3584 
Q 3428 3584 3742 3212 
Q 4056 2841 4056 2131 
z
" transform="scale(0.015625)"/>
      <path id="DejaVuSans-Bold-20" transform="scale(0.015625)"/>
      <path id="DejaVuSans-Bold-41" d="M 3419 850 
L 1538 850 
L 1241 0 
L 31 0 
L 1759 4666 
L 3194 4666 
L 4922 0 
L 3713 0 
L 3419 850 
z
M 1838 1716 
L 3116 1716 
L 2478 3572 
L 1838 1716 
z
" transform="scale(0.015625)"/>
      <path id="DejaVuSans-Bold-6e" d="M 4056 2131 
L 4056 0 
L 2931 0 
L 2931 347 
L 2931 1631 
Q 2931 2084 2911 2256 
Q 2891 2428 2841 2509 
Q 2775 2619 2662 2680 
Q 2550 2741 2406 2741 
Q 2056 2741 1856 2470 
Q 1656 2200 1656 1722 
L 1656 0 
L 538 0 
L 538 3500 
L 1656 3500 
L 1656 2988 
Q 1909 3294 2193 3439 
Q 2478 3584 2822 3584 
Q 3428 3584 3742 3212 
Q 4056 2841 4056 2131 
z
" transform="scale(0.015625)"/>
      <path id="DejaVuSans-Bold-6c" d="M 538 4863 
L 1656 4863 
L 1656 0 
L 538 0 
L 538 4863 
z
" transform="scale(0.015625)"/>
      <path id="DejaVuSans-Bold-79" d="M 78 3500 
L 1197 3500 
L 2138 1125 
L 2938 3500 
L 4056 3500 
L 2584 -331 
Q 2363 -916 2067 -1148 
Q 1772 -1381 1288 -1381 
L 641 -1381 
L 641 -647 
L 991 -647 
Q 1275 -647 1404 -556 
Q 1534 -466 1606 -231 
L 1638 -134 
L 78 3500 
z
" transform="scale(0.015625)"/>
      <path id="DejaVuSans-Bold-74" d="M 1759 4494 
L 1759 3500 
L 2913 3500 
L 2913 2700 
L 1759 2700 
L 1759 1216 
Q 1759 972 1856 886 
Q 1953 800 2241 800 
L 2816 800 
L 2816 0 
L 1856 0 
Q 1194 0 917 276 
Q 641 553 641 1216 
L 641 2700 
L 84 2700 
L 84 3500 
L 641 3500 
L 641 4494 
L 1759 4494 
z
" transform="scale(0.015625)"/>
      <path id="DejaVuSans-Bold-69" d="M 538 3500 
L 1656 3500 
L 1656 0 
L 538 0 
L 538 3500 
z
M 538 4863 
L 1656 4863 
L 1656 3950 
L 538 3950 
L 538 4863 
z
" transform="scale(0.015625)"/>
      <path id="DejaVuSans-Bold-63" d="M 3366 3391 
L 3366 2478 
Q 3138 2634 2908 2709 
Q 2678 2784 2431 2784 
Q 1963 2784 1702 2511 
Q 1441 2238 1441 1747 
Q 1441 1256 1702 982 
Q 1963 709 2431 709 
Q 2694 709 2930 787 
Q 3166 866 3366 1019 
L 3366 103 
Q 3103 6 2833 -42 
Q 2563 -91 2291 -91 
Q 1344 -91 809 395 
Q 275 881 275 1747 
Q 275 2613 809 3098 
Q 1344 3584 2291 3584 
Q 2566 3584 2833 3536 
Q 3100 3488 3366 3391 
z
" transform="scale(0.015625)"/>
      <path id="DejaVuSans-Bold-50" d="M 588 4666 
L 2584 4666 
Q 3475 4666 3951 4270 
Q 4428 3875 4428 3144 
Q 4428 2409 3951 2014 
Q 3475 1619 2584 1619 
L 1791 1619 
L 1791 0 
L 588 0 
L 588 4666 
z
M 1791 3794 
L 1791 2491 
L 2456 2491 
Q 2806 2491 2997 2661 
Q 3188 2831 3188 3144 
Q 3188 3456 2997 3625 
Q 2806 3794 2456 3794 
L 1791 3794 
z
" transform="scale(0.015625)"/>
      <path id="DejaVuSans-Bold-72" d="M 3138 2547 
Q 2991 2616 2845 2648 
Q 2700 2681 2553 2681 
Q 2122 2681 1889 2404 
Q 1656 2128 1656 1613 
L 1656 0 
L 538 0 
L 538 3500 
L 1656 3500 
L 1656 2925 
Q 1872 3269 2151 3426 
Q 2431 3584 2822 3584 
Q 2878 3584 2943 3579 
Q 3009 3575 3134 3559 
L 3138 2547 
z
" transform="scale(0.015625)"/>
      <path id="DejaVuSans-Bold-6f" d="M 2203 2784 
Q 1831 2784 1636 2517 
Q 1441 2250 1441 1747 
Q 1441 1244 1636 976 
Q 1831 709 2203 709 
Q 2569 709 2762 976 
Q 2956 1244 2956 1747 
Q 2956 2250 2762 2517 
Q 2569 2784 2203 2784 
z
M 2203 3584 
Q 3106 3584 3614 3096 
Q 4122 2609 4122 1747 
Q 4122 884 3614 396 
Q 3106 -91 2203 -91 
Q 1297 -91 786 396 
Q 275 884 275 1747 
Q 275 2609 786 3096 
Q 1297 3584 2203 3584 
z
" transform="scale(0.015625)"/>
      <path id="DejaVuSans-Bold-65" d="M 4031 1759 
L 4031 1441 
L 1416 1441 
Q 1456 1047 1700 850 
Q 1944 653 2381 653 
Q 2734 653 3104 758 
Q 3475 863 3866 1075 
L 3866 213 
Q 3469 63 3072 -14 
Q 2675 -91 2278 -91 
Q 1328 -91 801 392 
Q 275 875 275 1747 
Q 275 2603 792 3093 
Q 1309 3584 2216 3584 
Q 3041 3584 3536 3087 
Q 4031 2591 4031 1759 
z
M 2881 2131 
Q 2881 2450 2695 2645 
Q 2509 2841 2209 2841 
Q 1884 2841 1681 2658 
Q 1478 2475 1428 2131 
L 2881 2131 
z
" transform="scale(0.015625)"/>
      <path id="DejaVuSans-Bold-67" d="M 2919 594 
Q 2688 288 2409 144 
Q 2131 0 1766 0 
Q 1125 0 706 504 
Q 288 1009 288 1791 
Q 288 2575 706 3076 
Q 1125 3578 1766 3578 
Q 2131 3578 2409 3434 
Q 2688 3291 2919 2981 
L 2919 3500 
L 4044 3500 
L 4044 353 
Q 4044 -491 3511 -936 
Q 2978 -1381 1966 -1381 
Q 1638 -1381 1331 -1331 
Q 1025 -1281 716 -1178 
L 716 -306 
Q 1009 -475 1290 -558 
Q 1572 -641 1856 -641 
Q 2406 -641 2662 -400 
Q 2919 -159 2919 353 
L 2919 594 
z
M 2181 2772 
Q 1834 2772 1640 2515 
Q 1447 2259 1447 1791 
Q 1447 1309 1634 1061 
Q 1822 813 2181 813 
Q 2531 813 2725 1069 
Q 2919 1325 2919 1791 
Q 2919 2259 2725 2515 
Q 2531 2772 2181 2772 
z
" transform="scale(0.015625)"/>
      <path id="DejaVuSans-Bold-46" d="M 588 4666 
L 3834 4666 
L 3834 3756 
L 1791 3756 
L 1791 2888 
L 3713 2888 
L 3713 1978 
L 1791 1978 
L 1791 0 
L 588 0 
L 588 4666 
z
" transform="scale(0.015625)"/>
      <path id="DejaVuSans-Bold-77" d="M 225 3500 
L 1313 3500 
L 1900 1088 
L 2491 3500 
L 3425 3500 
L 4013 1113 
L 4603 3500 
L 5691 3500 
L 4769 0 
L 3547 0 
L 2956 2406 
L 2369 0 
L 1147 0 
L 225 3500 
z
" transform="scale(0.015625)"/>
     </defs>
     <use xlink:href="#DejaVuSans-Bold-44"/>
     <use xlink:href="#DejaVuSans-Bold-61" transform="translate(83.007812 0)"/>
     <use xlink:href="#DejaVuSans-Bold-73" transform="translate(150.488281 0)"/>
     <use xlink:href="#DejaVuSans-Bold-68" transform="translate(210.009766 0)"/>
     <use xlink:href="#DejaVuSans-Bold-20" transform="translate(281.201172 0)"/>
     <use xlink:href="#DejaVuSans-Bold-41" transform="translate(316.015625 0)"/>
     <use xlink:href="#DejaVuSans-Bold-6e" transform="translate(393.408203 0)"/>
     <use xlink:href="#DejaVuSans-Bold-61" transform="translate(464.599609 0)"/>
     <use xlink:href="#DejaVuSans-Bold-6c" transform="translate(532.080078 0)"/>
     <use xlink:href="#DejaVuSans-Bold-79" transform="translate(566.357422 0)"/>
     <use xlink:href="#DejaVuSans-Bold-74" transform="translate(631.542969 0)"/>
     <use xlink:href="#DejaVuSans-Bold-69" transform="translate(679.345703 0)"/>
     <use xlink:href="#DejaVuSans-Bold-63" transform="translate(713.623047 0)"/>
     <use xlink:href="#DejaVuSans-Bold-73" transform="translate(772.900391 0)"/>
     <use xlink:href="#DejaVuSans-Bold-20" transform="translate(832.421875 0)"/>
     <use xlink:href="#DejaVuSans-Bold-44" transform="translate(867.236328 0)"/>
     <use xlink:href="#DejaVuSans-Bold-61" transform="translate(950.244141 0)"/>
     <use xlink:href="#DejaVuSans-Bold-74" transform="translate(1017.724609 0)"/>
     <use xlink:href="#DejaVuSans-Bold-61" transform="translate(1065.527344 0)"/>
     <use xlink:href="#DejaVuSans-Bold-20" transform="translate(1133.007812 0)"/>
     <use xlink:href="#DejaVuSans-Bold-50" transform="translate(1167.822266 0)"/>
     <use xlink:href="#DejaVuSans-Bold-72" transform="translate(1241.113281 0)"/>
     <use xlink:href="#DejaVuSans-Bold-6f" transform="translate(1290.429688 0)"/>
     <use xlink:href="#DejaVuSans-Bold-63" transform="translate(1359.130859 0)"/>
     <use xlink:href="#DejaVuSans-Bold-65" transform="translate(1418.408203 0)"/>
     <use xlink:href="#DejaVuSans-Bold-73" transform="translate(1486.230469 0)"/>
     <use xlink:href="#DejaVuSans-Bold-73" transform="translate(1545.751953 0)"/>
     <use xlink:href="#DejaVuSans-Bold-69" transform="translate(1605.273438 0)"/>
     <use xlink:href="#DejaVuSans-Bold-6e" transform="translate(1639.550781 0)"/>
     <use xlink:href="#DejaVuSans-Bold-67" transform="translate(1710.742188 0)"/>
     <use xlink:href="#DejaVuSans-Bold-20" transform="translate(1782.324219 0)"/>
     <use xlink:href="#DejaVuSans-Bold-46" transform="translate(1817.138672 0)"/>
     <use xlink:href="#DejaVuSans-Bold-6c" transform="translate(1885.449219 0)"/>
     <use xlink:href="#DejaVuSans-Bold-6f" transform="translate(1919.726562 0)"/>
     <use xlink:href="#DejaVuSans-Bold-77" transform="translate(1988.427734 0)"/>
    </g>
   </g>
   <g id="text_2">
    <!-- PostgreSQL -->
    <g transform="translate(114.660937 214.882344) scale(0.1 -0.1)">
     <defs>
      <path id="DejaVuSans-Bold-53" d="M 3834 4519 
L 3834 3531 
Q 3450 3703 3084 3790 
Q 2719 3878 2394 3878 
Q 1963 3878 1756 3759 
Q 1550 3641 1550 3391 
Q 1550 3203 1689 3098 
Q 1828 2994 2194 2919 
L 2706 2816 
Q 3484 2659 3812 2340 
Q 4141 2022 4141 1434 
Q 4141 663 3683 286 
Q 3225 -91 2284 -91 
Q 1841 -91 1394 -6 
Q 947 78 500 244 
L 500 1259 
Q 947 1022 1364 901 
Q 1781 781 2169 781 
Q 2563 781 2772 912 
Q 2981 1044 2981 1288 
Q 2981 1506 2839 1625 
Q 2697 1744 2272 1838 
L 1806 1941 
Q 1106 2091 782 2419 
Q 459 2747 459 3303 
Q 459 4000 909 4375 
Q 1359 4750 2203 4750 
Q 2588 4750 2994 4692 
Q 3400 4634 3834 4519 
z
" transform="scale(0.015625)"/>
      <path id="DejaVuSans-Bold-51" d="M 2847 -84 
L 2753 -84 
Q 1600 -84 959 553 
Q 319 1191 319 2328 
Q 319 3463 958 4106 
Q 1597 4750 2719 4750 
Q 3853 4750 4486 4112 
Q 5119 3475 5119 2328 
Q 5119 1541 4783 972 
Q 4447 403 3816 116 
L 4756 -934 
L 3609 -934 
L 2847 -84 
z
M 2719 3878 
Q 2169 3878 1866 3472 
Q 1563 3066 1563 2328 
Q 1563 1578 1859 1179 
Q 2156 781 2719 781 
Q 3272 781 3575 1187 
Q 3878 1594 3878 2328 
Q 3878 3066 3575 3472 
Q 3272 3878 2719 3878 
z
" transform="scale(0.015625)"/>
      <path id="DejaVuSans-Bold-4c" d="M 588 4666 
L 1791 4666 
L 1791 909 
L 3903 909 
L 3903 0 
L 588 0 
L 588 4666 
z
" transform="scale(0.015625)"/>
     </defs>
     <use xlink:href="#DejaVuSans-Bold-50"/>
     <use xlink:href="#DejaVuSans-Bold-6f" transform="translate(73.291016 0)"/>
     <use xlink:href="#DejaVuSans-Bold-73" transform="translate(141.992188 0)"/>
     <use xlink:href="#DejaVuSans-Bold-74" transform="translate(201.513672 0)"/>
     <use xlink:href="#DejaVuSans-Bold-67" transform="translate(249.316406 0)"/>
     <use xlink:href="#DejaVuSans-Bold-72" transform="translate(320.898438 0)"/>
     <use xlink:href="#DejaVuSans-Bold-65" transform="translate(370.214844 0)"/>
     <use xlink:href="#DejaVuSans-Bold-53" transform="translate(438.037109 0)"/>
     <use xlink:href="#DejaVuSans-Bold-51" transform="translate(510.058594 0)"/>
     <use xlink:href="#DejaVuSans-Bold-4c" transform="translate(595.068359 0)"/>
    </g>
    <!-- Risk Data -->
    <g transform="translate(120.705469 226.158281) scale(0.1 -0.1)">
     <defs>
      <path id="DejaVuSans-Bold-52" d="M 2297 2597 
Q 2675 2597 2839 2737 
Q 3003 2878 3003 3200 
Q 3003 3519 2839 3656 
Q 2675 3794 2297 3794 
L 1791 3794 
L 1791 2597 
L 2297 2597 
z
M 1791 1766 
L 1791 0 
L 588 0 
L 588 4666 
L 2425 4666 
Q 3347 4666 3776 4356 
Q 4206 4047 4206 3378 
Q 4206 2916 3982 2619 
Q 3759 2322 3309 2181 
Q 3556 2125 3751 1926 
Q 3947 1728 4147 1325 
L 4800 0 
L 3519 0 
L 2950 1159 
Q 2778 1509 2601 1637 
Q 2425 1766 2131 1766 
L 1791 1766 
z
" transform="scale(0.015625)"/>
      <path id="DejaVuSans-Bold-6b" d="M 538 4863 
L 1656 4863 
L 1656 2216 
L 2944 3500 
L 4244 3500 
L 2534 1894 
L 4378 0 
L 3022 0 
L 1656 1459 
L 1656 0 
L 538 0 
L 538 4863 
z
" transform="scale(0.015625)"/>
     </defs>
     <use xlink:href="#DejaVuSans-Bold-52"/>
     <use xlink:href="#DejaVuSans-Bold-69" transform="translate(77.001953 0)"/>
     <use xlink:href="#DejaVuSans-Bold-73" transform="translate(111.279297 0)"/>
     <use xlink:href="#DejaVuSans-Bold-6b" transform="translate(170.800781 0)"/>
     <use xlink:href="#DejaVuSans-Bold-20" transform="translate(237.304688 0)"/>
     <use xlink:href="#DejaVuSans-Bold-44" transform="translate(272.119141 0)"/>
     <use xlink:href="#DejaVuSans-Bold-61" transform="translate(355.126953 0)"/>
     <use xlink:href="#DejaVuSans-Bold-74" transform="translate(422.607422 0)"/>
     <use xlink:href="#DejaVuSans-Bold-61" transform="translate(470.410156 0)"/>
    </g>
   </g>
   <g id="text_3">
    <!-- Snowflake -->
    <g transform="translate(118.536719 355.321406) scale(0.1 -0.1)">
     <defs>
      <path id="DejaVuSans-Bold-66" d="M 2841 4863 
L 2841 4128 
L 2222 4128 
Q 1984 4128 1890 4042 
Q 1797 3956 1797 3744 
L 1797 3500 
L 2753 3500 
L 2753 2700 
L 1797 2700 
L 1797 0 
L 678 0 
L 678 2700 
L 122 2700 
L 122 3500 
L 678 3500 
L 678 3744 
Q 678 4316 997 4589 
Q 1316 4863 1984 4863 
L 2841 4863 
z
" transform="scale(0.015625)"/>
     </defs>
     <use xlink:href="#DejaVuSans-Bold-53"/>
     <use xlink:href="#DejaVuSans-Bold-6e" transform="translate(72.021484 0)"/>
     <use xlink:href="#DejaVuSans-Bold-6f" transform="translate(143.212891 0)"/>
     <use xlink:href="#DejaVuSans-Bold-77" transform="translate(211.914062 0)"/>
     <use xlink:href="#DejaVuSans-Bold-66" transform="translate(304.296875 0)"/>
     <use xlink:href="#DejaVuSans-Bold-6c" transform="translate(347.802734 0)"/>
     <use xlink:href="#DejaVuSans-Bold-61" transform="translate(382.080078 0)"/>
     <use xlink:href="#DejaVuSans-Bold-6b" transform="translate(449.560547 0)"/>
     <use xlink:href="#DejaVuSans-Bold-65" transform="translate(513.439453 0)"/>
    </g>
    <!-- Analytics -->
    <g transform="translate(121.779687 366.519219) scale(0.1 -0.1)">
     <use xlink:href="#DejaVuSans-Bold-41"/>
     <use xlink:href="#DejaVuSans-Bold-6e" transform="translate(77.392578 0)"/>
     <use xlink:href="#DejaVuSans-Bold-61" transform="translate(148.583984 0)"/>
     <use xlink:href="#DejaVuSans-Bold-6c" transform="translate(216.064453 0)"/>
     <use xlink:href="#DejaVuSans-Bold-79" transform="translate(250.341797 0)"/>
     <use xlink:href="#DejaVuSans-Bold-74" transform="translate(315.527344 0)"/>
     <use xlink:href="#DejaVuSans-Bold-69" transform="translate(363.330078 0)"/>
     <use xlink:href="#DejaVuSans-Bold-63" transform="translate(397.607422 0)"/>
     <use xlink:href="#DejaVuSans-Bold-73" transform="translate(456.884766 0)"/>
    </g>
   </g>
   <g id="text_4">
    <!-- Business Logic -->
    <g transform="translate(106.01875 495.721406) scale(0.1 -0.1)">
     <defs>
      <path id="DejaVuSans-Bold-42" d="M 2456 2859 
Q 2741 2859 2887 2984 
Q 3034 3109 3034 3353 
Q 3034 3594 2887 3720 
Q 2741 3847 2456 3847 
L 1791 3847 
L 1791 2859 
L 2456 2859 
z
M 2497 819 
Q 2859 819 3042 972 
Q 3225 1125 3225 1434 
Q 3225 1738 3044 1889 
Q 2863 2041 2497 2041 
L 1791 2041 
L 1791 819 
L 2497 819 
z
M 3616 2497 
Q 4003 2384 4215 2081 
Q 4428 1778 4428 1338 
Q 4428 663 3972 331 
Q 3516 0 2584 0 
L 588 0 
L 588 4666 
L 2394 4666 
Q 3366 4666 3802 4372 
Q 4238 4078 4238 3431 
Q 4238 3091 4078 2852 
Q 3919 2613 3616 2497 
z
" transform="scale(0.015625)"/>
      <path id="DejaVuSans-Bold-75" d="M 500 1363 
L 500 3500 
L 1625 3500 
L 1625 3150 
Q 1625 2866 1622 2436 
Q 1619 2006 1619 1863 
Q 1619 1441 1641 1255 
Q 1663 1069 1716 984 
Q 1784 875 1895 815 
Q 2006 756 2150 756 
Q 2500 756 2700 1025 
Q 2900 1294 2900 1772 
L 2900 3500 
L 4019 3500 
L 4019 0 
L 2900 0 
L 2900 506 
Q 2647 200 2364 54 
Q 2081 -91 1741 -91 
Q 1134 -91 817 281 
Q 500 653 500 1363 
z
" transform="scale(0.015625)"/>
     </defs>
     <use xlink:href="#DejaVuSans-Bold-42"/>
     <use xlink:href="#DejaVuSans-Bold-75" transform="translate(76.220703 0)"/>
     <use xlink:href="#DejaVuSans-Bold-73" transform="translate(147.412109 0)"/>
     <use xlink:href="#DejaVuSans-Bold-69" transform="translate(206.933594 0)"/>
     <use xlink:href="#DejaVuSans-Bold-6e" transform="translate(241.210938 0)"/>
     <use xlink:href="#DejaVuSans-Bold-65" transform="translate(312.402344 0)"/>
     <use xlink:href="#DejaVuSans-Bold-73" transform="translate(380.224609 0)"/>
     <use xlink:href="#DejaVuSans-Bold-73" transform="translate(439.746094 0)"/>
     <use xlink:href="#DejaVuSans-Bold-20" transform="translate(499.267578 0)"/>
     <use xlink:href="#DejaVuSans-Bold-4c" transform="translate(534.082031 0)"/>
     <use xlink:href="#DejaVuSans-Bold-6f" transform="translate(597.802734 0)"/>
     <use xlink:href="#DejaVuSans-Bold-67" transform="translate(666.503906 0)"/>
     <use xlink:href="#DejaVuSans-Bold-69" transform="translate(738.085938 0)"/>
     <use xlink:href="#DejaVuSans-Bold-63" transform="translate(772.363281 0)"/>
    </g>
    <!-- Libraries -->
    <g transform="translate(122.734375 506.997344) scale(0.1 -0.1)">
     <defs>
      <path id="DejaVuSans-Bold-62" d="M 2400 722 
Q 2759 722 2948 984 
Q 3138 1247 3138 1747 
Q 3138 2247 2948 2509 
Q 2759 2772 2400 2772 
Q 2041 2772 1848 2508 
Q 1656 2244 1656 1747 
Q 1656 1250 1848 986 
Q 2041 722 2400 722 
z
M 1656 2988 
Q 1888 3294 2169 3439 
Q 2450 3584 2816 3584 
Q 3463 3584 3878 3070 
Q 4294 2556 4294 1747 
Q 4294 938 3878 423 
Q 3463 -91 2816 -91 
Q 2450 -91 2169 54 
Q 1888 200 1656 506 
L 1656 0 
L 538 0 
L 538 4863 
L 1656 4863 
L 1656 2988 
z
" transform="scale(0.015625)"/>
     </defs>
     <use xlink:href="#DejaVuSans-Bold-4c"/>
     <use xlink:href="#DejaVuSans-Bold-69" transform="translate(63.720703 0)"/>
     <use xlink:href="#DejaVuSans-Bold-62" transform="translate(97.998047 0)"/>
     <use xlink:href="#DejaVuSans-Bold-72" transform="translate(169.580078 0)"/>
     <use xlink:href="#DejaVuSans-Bold-61" transform="translate(218.896484 0)"/>
     <use xlink:href="#DejaVuSans-Bold-72" transform="translate(286.376953 0)"/>
     <use xlink:href="#DejaVuSans-Bold-69" transform="translate(335.693359 0)"/>
     <use xlink:href="#DejaVuSans-Bold-65" transform="translate(369.970703 0)"/>
     <use xlink:href="#DejaVuSans-Bold-73" transform="translate(437.792969 0)"/>
    </g>
   </g>
   <g id="text_5">
    <!-- Risk -->
    <g style="fill: #ffffff" transform="translate(416.535156 214.960469) scale(0.1 -0.1)">
     <use xlink:href="#DejaVuSans-Bold-52"/>
     <use xlink:href="#DejaVuSans-Bold-69" transform="translate(77.001953 0)"/>
     <use xlink:href="#DejaVuSans-Bold-73" transform="translate(111.279297 0)"/>
     <use xlink:href="#DejaVuSans-Bold-6b" transform="translate(170.800781 0)"/>
    </g>
    <!-- Calculator -->
    <g style="fill: #ffffff" transform="translate(399.739844 226.158281) scale(0.1 -0.1)">
     <defs>
      <path id="DejaVuSans-Bold-43" d="M 4288 256 
Q 3956 84 3597 -3 
Q 3238 -91 2847 -91 
Q 1681 -91 1000 561 
Q 319 1213 319 2328 
Q 319 3447 1000 4098 
Q 1681 4750 2847 4750 
Q 3238 4750 3597 4662 
Q 3956 4575 4288 4403 
L 4288 3438 
Q 3953 3666 3628 3772 
Q 3303 3878 2944 3878 
Q 2300 3878 1931 3465 
Q 1563 3053 1563 2328 
Q 1563 1606 1931 1193 
Q 2300 781 2944 781 
Q 3303 781 3628 887 
Q 3953 994 4288 1222 
L 4288 256 
z
" transform="scale(0.015625)"/>
     </defs>
     <use xlink:href="#DejaVuSans-Bold-43"/>
     <use xlink:href="#DejaVuSans-Bold-61" transform="translate(73.388672 0)"/>
     <use xlink:href="#DejaVuSans-Bold-6c" transform="translate(140.869141 0)"/>
     <use xlink:href="#DejaVuSans-Bold-63" transform="translate(175.146484 0)"/>
     <use xlink:href="#DejaVuSans-Bold-75" transform="translate(234.423828 0)"/>
     <use xlink:href="#DejaVuSans-Bold-6c" transform="translate(305.615234 0)"/>
     <use xlink:href="#DejaVuSans-Bold-61" transform="translate(339.892578 0)"/>
     <use xlink:href="#DejaVuSans-Bold-74" transform="translate(407.373047 0)"/>
     <use xlink:href="#DejaVuSans-Bold-6f" transform="translate(455.175781 0)"/>
     <use xlink:href="#DejaVuSans-Bold-72" transform="translate(523.876953 0)"/>
    </g>
   </g>
   <g id="text_6">
    <!-- Market Data -->
    <g style="fill: #ffffff" transform="translate(393.579687 355.360469) scale(0.1 -0.1)">
     <defs>
      <path id="DejaVuSans-Bold-4d" d="M 588 4666 
L 2119 4666 
L 3181 2169 
L 4250 4666 
L 5778 4666 
L 5778 0 
L 4641 0 
L 4641 3413 
L 3566 897 
L 2803 897 
L 1728 3413 
L 1728 0 
L 588 0 
L 588 4666 
z
" transform="scale(0.015625)"/>
     </defs>
     <use xlink:href="#DejaVuSans-Bold-4d"/>
     <use xlink:href="#DejaVuSans-Bold-61" transform="translate(99.511719 0)"/>
     <use xlink:href="#DejaVuSans-Bold-72" transform="translate(166.992188 0)"/>
     <use xlink:href="#DejaVuSans-Bold-6b" transform="translate(216.308594 0)"/>
     <use xlink:href="#DejaVuSans-Bold-65" transform="translate(280.1875 0)"/>
     <use xlink:href="#DejaVuSans-Bold-74" transform="translate(348.009766 0)"/>
     <use xlink:href="#DejaVuSans-Bold-20" transform="translate(395.8125 0)"/>
     <use xlink:href="#DejaVuSans-Bold-44" transform="translate(430.626953 0)"/>
     <use xlink:href="#DejaVuSans-Bold-61" transform="translate(513.634766 0)"/>
     <use xlink:href="#DejaVuSans-Bold-74" transform="translate(581.115234 0)"/>
     <use xlink:href="#DejaVuSans-Bold-61" transform="translate(628.917969 0)"/>
    </g>
    <!-- Processor -->
    <g style="fill: #ffffff" transform="translate(400.626562 366.558281) scale(0.1 -0.1)">
     <use xlink:href="#DejaVuSans-Bold-50"/>
     <use xlink:href="#DejaVuSans-Bold-72" transform="translate(73.291016 0)"/>
     <use xlink:href="#DejaVuSans-Bold-6f" transform="translate(122.607422 0)"/>
     <use xlink:href="#DejaVuSans-Bold-63" transform="translate(191.308594 0)"/>
     <use xlink:href="#DejaVuSans-Bold-65" transform="translate(250.585938 0)"/>
     <use xlink:href="#DejaVuSans-Bold-73" transform="translate(318.408203 0)"/>
     <use xlink:href="#DejaVuSans-Bold-73" transform="translate(377.929688 0)"/>
     <use xlink:href="#DejaVuSans-Bold-6f" transform="translate(437.451172 0)"/>
     <use xlink:href="#DejaVuSans-Bold-72" transform="translate(506.152344 0)"/>
    </g>
   </g>
   <g id="text_7">
    <!-- Report -->
    <g style="fill: #ffffff" transform="translate(409.289062 495.760469) scale(0.1 -0.1)">
     <defs>
      <path id="DejaVuSans-Bold-70" d="M 1656 506 
L 1656 -1331 
L 538 -1331 
L 538 3500 
L 1656 3500 
L 1656 2988 
Q 1888 3294 2169 3439 
Q 2450 3584 2816 3584 
Q 3463 3584 3878 3070 
Q 4294 2556 4294 1747 
Q 4294 938 3878 423 
Q 3463 -91 2816 -91 
Q 2450 -91 2169 54 
Q 1888 200 1656 506 
z
M 2400 2772 
Q 2041 2772 1848 2508 
Q 1656 2244 1656 1747 
Q 1656 1250 1848 986 
Q 2041 722 2400 722 
Q 2759 722 2948 984 
Q 3138 1247 3138 1747 
Q 3138 2247 2948 2509 
Q 2759 2772 2400 2772 
z
" transform="scale(0.015625)"/>
     </defs>
     <use xlink:href="#DejaVuSans-Bold-52"/>
     <use xlink:href="#DejaVuSans-Bold-65" transform="translate(77.001953 0)"/>
     <use xlink:href="#DejaVuSans-Bold-70" transform="translate(144.824219 0)"/>
     <use xlink:href="#DejaVuSans-Bold-6f" transform="translate(216.40625 0)"/>
     <use xlink:href="#DejaVuSans-Bold-72" transform="translate(285.107422 0)"/>
     <use xlink:href="#DejaVuSans-Bold-74" transform="translate(334.423828 0)"/>
    </g>
    <!-- Generator -->
    <g style="fill: #ffffff" transform="translate(399.823437 506.958281) scale(0.1 -0.1)">
     <defs>
      <path id="DejaVuSans-Bold-47" d="M 4781 347 
Q 4331 128 3847 18 
Q 3363 -91 2847 -91 
Q 1681 -91 1000 561 
Q 319 1213 319 2328 
Q 319 3456 1012 4103 
Q 1706 4750 2913 4750 
Q 3378 4750 3804 4662 
Q 4231 4575 4609 4403 
L 4609 3438 
Q 4219 3659 3833 3768 
Q 3447 3878 3059 3878 
Q 2341 3878 1952 3476 
Q 1563 3075 1563 2328 
Q 1563 1588 1938 1184 
Q 2313 781 3003 781 
Q 3191 781 3352 804 
Q 3513 828 3641 878 
L 3641 1784 
L 2906 1784 
L 2906 2591 
L 4781 2591 
L 4781 347 
z
" transform="scale(0.015625)"/>
     </defs>
     <use xlink:href="#DejaVuSans-Bold-47"/>
     <use xlink:href="#DejaVuSans-Bold-65" transform="translate(82.080078 0)"/>
     <use xlink:href="#DejaVuSans-Bold-6e" transform="translate(149.902344 0)"/>
     <use xlink:href="#DejaVuSans-Bold-65" transform="translate(221.09375 0)"/>
     <use xlink:href="#DejaVuSans-Bold-72" transform="translate(288.916016 0)"/>
     <use xlink:href="#DejaVuSans-Bold-61" transform="translate(338.232422 0)"/>
     <use xlink:href="#DejaVuSans-Bold-74" transform="translate(405.712891 0)"/>
     <use xlink:href="#DejaVuSans-Bold-6f" transform="translate(453.515625 0)"/>
     <use xlink:href="#DejaVuSans-Bold-72" transform="translate(522.216797 0)"/>
    </g>
   </g>
   <g id="text_8">
    <!-- VaR Chart -->
    <g style="fill: #ffffff" transform="translate(683.983828 180.144422) scale(0.09 -0.09)">
     <defs>
      <path id="DejaVuSans-Bold-56" d="M 31 4666 
L 1241 4666 
L 2478 1222 
L 3713 4666 
L 4922 4666 
L 3194 0 
L 1759 0 
L 31 4666 
z
" transform="scale(0.015625)"/>
     </defs>
     <use xlink:href="#DejaVuSans-Bold-56"/>
     <use xlink:href="#DejaVuSans-Bold-61" transform="translate(71.892578 0)"/>
     <use xlink:href="#DejaVuSans-Bold-52" transform="translate(139.373047 0)"/>
     <use xlink:href="#DejaVuSans-Bold-20" transform="translate(216.375 0)"/>
     <use xlink:href="#DejaVuSans-Bold-43" transform="translate(251.189453 0)"/>
     <use xlink:href="#DejaVuSans-Bold-68" transform="translate(324.578125 0)"/>
     <use xlink:href="#DejaVuSans-Bold-61" transform="translate(395.769531 0)"/>
     <use xlink:href="#DejaVuSans-Bold-72" transform="translate(463.25 0)"/>
     <use xlink:href="#DejaVuSans-Bold-74" transform="translate(512.566406 0)"/>
    </g>
    <!-- (Time Series) -->
    <g style="fill: #ffffff" transform="translate(675.381094 190.222453) scale(0.09 -0.09)">
     <defs>
      <path id="DejaVuSans-Bold-28" d="M 2413 -844 
L 1484 -844 
Q 1006 -72 778 623 
Q 550 1319 550 2003 
Q 550 2688 779 3389 
Q 1009 4091 1484 4856 
L 2413 4856 
Q 2013 4116 1813 3408 
Q 1613 2700 1613 2009 
Q 1613 1319 1811 609 
Q 2009 -100 2413 -844 
z
" transform="scale(0.015625)"/>
      <path id="DejaVuSans-Bold-54" d="M 31 4666 
L 4331 4666 
L 4331 3756 
L 2784 3756 
L 2784 0 
L 1581 0 
L 1581 3756 
L 31 3756 
L 31 4666 
z
" transform="scale(0.015625)"/>
      <path id="DejaVuSans-Bold-6d" d="M 3781 2919 
Q 3994 3244 4286 3414 
Q 4578 3584 4928 3584 
Q 5531 3584 5847 3212 
Q 6163 2841 6163 2131 
L 6163 0 
L 5038 0 
L 5038 1825 
Q 5041 1866 5042 1909 
Q 5044 1953 5044 2034 
Q 5044 2406 4934 2573 
Q 4825 2741 4581 2741 
Q 4263 2741 4089 2478 
Q 3916 2216 3909 1719 
L 3909 0 
L 2784 0 
L 2784 1825 
Q 2784 2406 2684 2573 
Q 2584 2741 2328 2741 
Q 2006 2741 1831 2477 
Q 1656 2213 1656 1722 
L 1656 0 
L 531 0 
L 531 3500 
L 1656 3500 
L 1656 2988 
Q 1863 3284 2130 3434 
Q 2397 3584 2719 3584 
Q 3081 3584 3359 3409 
Q 3638 3234 3781 2919 
z
" transform="scale(0.015625)"/>
      <path id="DejaVuSans-Bold-29" d="M 513 -844 
Q 913 -100 1113 609 
Q 1313 1319 1313 2009 
Q 1313 2700 1113 3408 
Q 913 4116 513 4856 
L 1441 4856 
Q 1916 4091 2145 3389 
Q 2375 2688 2375 2003 
Q 2375 1319 2147 623 
Q 1919 -72 1441 -844 
L 513 -844 
z
" transform="scale(0.015625)"/>
     </defs>
     <use xlink:href="#DejaVuSans-Bold-28"/>
     <use xlink:href="#DejaVuSans-Bold-54" transform="translate(45.703125 0)"/>
     <use xlink:href="#DejaVuSans-Bold-69" transform="translate(113.916016 0)"/>
     <use xlink:href="#DejaVuSans-Bold-6d" transform="translate(148.193359 0)"/>
     <use xlink:href="#DejaVuSans-Bold-65" transform="translate(252.392578 0)"/>
     <use xlink:href="#DejaVuSans-Bold-20" transform="translate(320.214844 0)"/>
     <use xlink:href="#DejaVuSans-Bold-53" transform="translate(355.029297 0)"/>
     <use xlink:href="#DejaVuSans-Bold-65" transform="translate(427.050781 0)"/>
     <use xlink:href="#DejaVuSans-Bold-72" transform="translate(494.873047 0)"/>
     <use xlink:href="#DejaVuSans-Bold-69" transform="translate(544.189453 0)"/>
     <use xlink:href="#DejaVuSans-Bold-65" transform="translate(578.466797 0)"/>
     <use xlink:href="#DejaVuSans-Bold-73" transform="translate(646.289062 0)"/>
     <use xlink:href="#DejaVuSans-Bold-29" transform="translate(705.810547 0)"/>
    </g>
   </g>
   <g id="text_9">
    <!-- Volatility Chart -->
    <g style="fill: #ffffff" transform="translate(670.951406 285.409266) scale(0.09 -0.09)">
     <use xlink:href="#DejaVuSans-Bold-56"/>
     <use xlink:href="#DejaVuSans-Bold-6f" transform="translate(71.892578 0)"/>
     <use xlink:href="#DejaVuSans-Bold-6c" transform="translate(140.59375 0)"/>
     <use xlink:href="#DejaVuSans-Bold-61" transform="translate(174.871094 0)"/>
     <use xlink:href="#DejaVuSans-Bold-74" transform="translate(242.351562 0)"/>
     <use xlink:href="#DejaVuSans-Bold-69" transform="translate(290.154297 0)"/>
     <use xlink:href="#DejaVuSans-Bold-6c" transform="translate(324.431641 0)"/>
     <use xlink:href="#DejaVuSans-Bold-69" transform="translate(358.708984 0)"/>
     <use xlink:href="#DejaVuSans-Bold-74" transform="translate(392.986328 0)"/>
     <use xlink:href="#DejaVuSans-Bold-79" transform="translate(440.789062 0)"/>
     <use xlink:href="#DejaVuSans-Bold-20" transform="translate(505.974609 0)"/>
     <use xlink:href="#DejaVuSans-Bold-43" transform="translate(540.789062 0)"/>
     <use xlink:href="#DejaVuSans-Bold-68" transform="translate(614.177734 0)"/>
     <use xlink:href="#DejaVuSans-Bold-61" transform="translate(685.369141 0)"/>
     <use xlink:href="#DejaVuSans-Bold-72" transform="translate(752.849609 0)"/>
     <use xlink:href="#DejaVuSans-Bold-74" transform="translate(802.166016 0)"/>
    </g>
    <!-- (Line Graph) -->
    <g style="fill: #ffffff" transform="translate(677.480625 295.557609) scale(0.09 -0.09)">
     <use xlink:href="#DejaVuSans-Bold-28"/>
     <use xlink:href="#DejaVuSans-Bold-4c" transform="translate(45.703125 0)"/>
     <use xlink:href="#DejaVuSans-Bold-69" transform="translate(109.423828 0)"/>
     <use xlink:href="#DejaVuSans-Bold-6e" transform="translate(143.701172 0)"/>
     <use xlink:href="#DejaVuSans-Bold-65" transform="translate(214.892578 0)"/>
     <use xlink:href="#DejaVuSans-Bold-20" transform="translate(282.714844 0)"/>
     <use xlink:href="#DejaVuSans-Bold-47" transform="translate(317.529297 0)"/>
     <use xlink:href="#DejaVuSans-Bold-72" transform="translate(399.609375 0)"/>
     <use xlink:href="#DejaVuSans-Bold-61" transform="translate(448.925781 0)"/>
     <use xlink:href="#DejaVuSans-Bold-70" transform="translate(516.40625 0)"/>
     <use xlink:href="#DejaVuSans-Bold-68" transform="translate(587.988281 0)"/>
     <use xlink:href="#DejaVuSans-Bold-29" transform="translate(659.179688 0)"/>
    </g>
   </g>
   <g id="text_10">
    <!-- Sharpe Ratio -->
    <g style="fill: #ffffff" transform="translate(957.173203 180.144422) scale(0.09 -0.09)">
     <use xlink:href="#DejaVuSans-Bold-53"/>
     <use xlink:href="#DejaVuSans-Bold-68" transform="translate(72.021484 0)"/>
     <use xlink:href="#DejaVuSans-Bold-61" transform="translate(143.212891 0)"/>
     <use xlink:href="#DejaVuSans-Bold-72" transform="translate(210.693359 0)"/>
     <use xlink:href="#DejaVuSans-Bold-70" transform="translate(260.009766 0)"/>
     <use xlink:href="#DejaVuSans-Bold-65" transform="translate(331.591797 0)"/>
     <use xlink:href="#DejaVuSans-Bold-20" transform="translate(399.414062 0)"/>
     <use xlink:href="#DejaVuSans-Bold-52" transform="translate(434.228516 0)"/>
     <use xlink:href="#DejaVuSans-Bold-61" transform="translate(511.230469 0)"/>
     <use xlink:href="#DejaVuSans-Bold-74" transform="translate(578.710938 0)"/>
     <use xlink:href="#DejaVuSans-Bold-69" transform="translate(626.513672 0)"/>
     <use xlink:href="#DejaVuSans-Bold-6f" transform="translate(660.791016 0)"/>
    </g>
    <!-- (Performance) -->
    <g style="fill: #ffffff" transform="translate(953.399531 190.222453) scale(0.09 -0.09)">
     <use xlink:href="#DejaVuSans-Bold-28"/>
     <use xlink:href="#DejaVuSans-Bold-50" transform="translate(45.703125 0)"/>
     <use xlink:href="#DejaVuSans-Bold-65" transform="translate(118.994141 0)"/>
     <use xlink:href="#DejaVuSans-Bold-72" transform="translate(186.816406 0)"/>
     <use xlink:href="#DejaVuSans-Bold-66" transform="translate(236.132812 0)"/>
     <use xlink:href="#DejaVuSans-Bold-6f" transform="translate(279.638672 0)"/>
     <use xlink:href="#DejaVuSans-Bold-72" transform="translate(348.339844 0)"/>
     <use xlink:href="#DejaVuSans-Bold-6d" transform="translate(397.65625 0)"/>
     <use xlink:href="#DejaVuSans-Bold-61" transform="translate(501.855469 0)"/>
     <use xlink:href="#DejaVuSans-Bold-6e" transform="translate(569.335938 0)"/>
     <use xlink:href="#DejaVuSans-Bold-63" transform="translate(640.527344 0)"/>
     <use xlink:href="#DejaVuSans-Bold-65" transform="translate(699.804688 0)"/>
     <use xlink:href="#DejaVuSans-Bold-29" transform="translate(767.626953 0)"/>
    </g>
   </g>
   <g id="text_11">
    <!-- Portfolio Comparison -->
    <g style="fill: #ffffff" transform="translate(936.37125 285.444422) scale(0.09 -0.09)">
     <use xlink:href="#DejaVuSans-Bold-50"/>
     <use xlink:href="#DejaVuSans-Bold-6f" transform="translate(73.291016 0)"/>
     <use xlink:href="#DejaVuSans-Bold-72" transform="translate(141.992188 0)"/>
     <use xlink:href="#DejaVuSans-Bold-74" transform="translate(191.308594 0)"/>
     <use xlink:href="#DejaVuSans-Bold-66" transform="translate(239.111328 0)"/>
     <use xlink:href="#DejaVuSans-Bold-6f" transform="translate(282.617188 0)"/>
     <use xlink:href="#DejaVuSans-Bold-6c" transform="translate(351.318359 0)"/>
     <use xlink:href="#DejaVuSans-Bold-69" transform="translate(385.595703 0)"/>
     <use xlink:href="#DejaVuSans-Bold-6f" transform="translate(419.873047 0)"/>
     <use xlink:href="#DejaVuSans-Bold-20" transform="translate(488.574219 0)"/>
     <use xlink:href="#DejaVuSans-Bold-43" transform="translate(523.388672 0)"/>
     <use xlink:href="#DejaVuSans-Bold-6f" transform="translate(596.777344 0)"/>
     <use xlink:href="#DejaVuSans-Bold-6d" transform="translate(665.478516 0)"/>
     <use xlink:href="#DejaVuSans-Bold-70" transform="translate(769.677734 0)"/>
     <use xlink:href="#DejaVuSans-Bold-61" transform="translate(841.259766 0)"/>
     <use xlink:href="#DejaVuSans-Bold-72" transform="translate(908.740234 0)"/>
     <use xlink:href="#DejaVuSans-Bold-69" transform="translate(958.056641 0)"/>
     <use xlink:href="#DejaVuSans-Bold-73" transform="translate(992.333984 0)"/>
     <use xlink:href="#DejaVuSans-Bold-6f" transform="translate(1051.855469 0)"/>
     <use xlink:href="#DejaVuSans-Bold-6e" transform="translate(1120.556641 0)"/>
    </g>
    <!-- (Bar Chart) -->
    <g style="fill: #ffffff" transform="translate(961.721719 295.522453) scale(0.09 -0.09)">
     <use xlink:href="#DejaVuSans-Bold-28"/>
     <use xlink:href="#DejaVuSans-Bold-42" transform="translate(45.703125 0)"/>
     <use xlink:href="#DejaVuSans-Bold-61" transform="translate(121.923828 0)"/>
     <use xlink:href="#DejaVuSans-Bold-72" transform="translate(189.404297 0)"/>
     <use xlink:href="#DejaVuSans-Bold-20" transform="translate(238.720703 0)"/>
     <use xlink:href="#DejaVuSans-Bold-43" transform="translate(273.535156 0)"/>
     <use xlink:href="#DejaVuSans-Bold-68" transform="translate(346.923828 0)"/>
     <use xlink:href="#DejaVuSans-Bold-61" transform="translate(418.115234 0)"/>
     <use xlink:href="#DejaVuSans-Bold-72" transform="translate(485.595703 0)"/>
     <use xlink:href="#DejaVuSans-Bold-74" transform="translate(534.912109 0)"/>
     <use xlink:href="#DejaVuSans-Bold-29" transform="translate(582.714844 0)"/>
    </g>
   </g>
   <g id="text_12">
    <!-- Interactive Dashboard Layout -->
    <g transform="translate(819.2625 393.3) scale(0.12 -0.12)">
     <defs>
      <path id="DejaVuSans-Bold-49" d="M 588 4666 
L 1791 4666 
L 1791 0 
L 588 0 
L 588 4666 
z
" transform="scale(0.015625)"/>
      <path id="DejaVuSans-Bold-76" d="M 97 3500 
L 1216 3500 
L 2088 1081 
L 2956 3500 
L 4078 3500 
L 2700 0 
L 1472 0 
L 97 3500 
z
" transform="scale(0.015625)"/>
      <path id="DejaVuSans-Bold-64" d="M 2919 2988 
L 2919 4863 
L 4044 4863 
L 4044 0 
L 2919 0 
L 2919 506 
Q 2688 197 2409 53 
Q 2131 -91 1766 -91 
Q 1119 -91 703 423 
Q 288 938 288 1747 
Q 288 2556 703 3070 
Q 1119 3584 1766 3584 
Q 2128 3584 2408 3439 
Q 2688 3294 2919 2988 
z
M 2181 722 
Q 2541 722 2730 984 
Q 2919 1247 2919 1747 
Q 2919 2247 2730 2509 
Q 2541 2772 2181 2772 
Q 1825 2772 1636 2509 
Q 1447 2247 1447 1747 
Q 1447 1247 1636 984 
Q 1825 722 2181 722 
z
" transform="scale(0.015625)"/>
     </defs>
     <use xlink:href="#DejaVuSans-Bold-49"/>
     <use xlink:href="#DejaVuSans-Bold-6e" transform="translate(37.207031 0)"/>
     <use xlink:href="#DejaVuSans-Bold-74" transform="translate(108.398438 0)"/>
     <use xlink:href="#DejaVuSans-Bold-65" transform="translate(156.201172 0)"/>
     <use xlink:href="#DejaVuSans-Bold-72" transform="translate(224.023438 0)"/>
     <use xlink:href="#DejaVuSans-Bold-61" transform="translate(273.339844 0)"/>
     <use xlink:href="#DejaVuSans-Bold-63" transform="translate(340.820312 0)"/>
     <use xlink:href="#DejaVuSans-Bold-74" transform="translate(400.097656 0)"/>
     <use xlink:href="#DejaVuSans-Bold-69" transform="translate(447.900391 0)"/>
     <use xlink:href="#DejaVuSans-Bold-76" transform="translate(482.177734 0)"/>
     <use xlink:href="#DejaVuSans-Bold-65" transform="translate(547.363281 0)"/>
     <use xlink:href="#DejaVuSans-Bold-20" transform="translate(615.185547 0)"/>
     <use xlink:href="#DejaVuSans-Bold-44" transform="translate(650 0)"/>
     <use xlink:href="#DejaVuSans-Bold-61" transform="translate(733.007812 0)"/>
     <use xlink:href="#DejaVuSans-Bold-73" transform="translate(800.488281 0)"/>
     <use xlink:href="#DejaVuSans-Bold-68" transform="translate(860.009766 0)"/>
     <use xlink:href="#DejaVuSans-Bold-62" transform="translate(931.201172 0)"/>
     <use xlink:href="#DejaVuSans-Bold-6f" transform="translate(1002.783203 0)"/>
     <use xlink:href="#DejaVuSans-Bold-61" transform="translate(1071.484375 0)"/>
     <use xlink:href="#DejaVuSans-Bold-72" transform="translate(1138.964844 0)"/>
     <use xlink:href="#DejaVuSans-Bold-64" transform="translate(1188.28125 0)"/>
     <use xlink:href="#DejaVuSans-Bold-20" transform="translate(1259.863281 0)"/>
     <use xlink:href="#DejaVuSans-Bold-4c" transform="translate(1294.677734 0)"/>
     <use xlink:href="#DejaVuSans-Bold-61" transform="translate(1358.398438 0)"/>
     <use xlink:href="#DejaVuSans-Bold-79" transform="translate(1422.753906 0)"/>
     <use xlink:href="#DejaVuSans-Bold-6f" transform="translate(1487.939453 0)"/>
     <use xlink:href="#DejaVuSans-Bold-75" transform="translate(1556.640625 0)"/>
     <use xlink:href="#DejaVuSans-Bold-74" transform="translate(1627.832031 0)"/>
    </g>
   </g>
   <g id="text_13">
    <!-- Controls -->
    <g transform="translate(690.284375 461.228375) scale(0.08 -0.08)">
     <use xlink:href="#DejaVuSans-Bold-43"/>
     <use xlink:href="#DejaVuSans-Bold-6f" transform="translate(73.388672 0)"/>
     <use xlink:href="#DejaVuSans-Bold-6e" transform="translate(142.089844 0)"/>
     <use xlink:href="#DejaVuSans-Bold-74" transform="translate(213.28125 0)"/>
     <use xlink:href="#DejaVuSans-Bold-72" transform="translate(261.083984 0)"/>
     <use xlink:href="#DejaVuSans-Bold-6f" transform="translate(310.400391 0)"/>
     <use xlink:href="#DejaVuSans-Bold-6c" transform="translate(379.101562 0)"/>
     <use xlink:href="#DejaVuSans-Bold-73" transform="translate(413.378906 0)"/>
    </g>
    <!-- Panel -->
    <g transform="translate(696.741875 470.186625) scale(0.08 -0.08)">
     <use xlink:href="#DejaVuSans-Bold-50"/>
     <use xlink:href="#DejaVuSans-Bold-61" transform="translate(70.666016 0)"/>
     <use xlink:href="#DejaVuSans-Bold-6e" transform="translate(138.146484 0)"/>
     <use xlink:href="#DejaVuSans-Bold-65" transform="translate(209.337891 0)"/>
     <use xlink:href="#DejaVuSans-Bold-6c" transform="translate(277.160156 0)"/>
    </g>
   </g>
   <g id="text_14">
    <!-- Chart -->
    <g transform="translate(837.233125 461.228375) scale(0.08 -0.08)">
     <use xlink:href="#DejaVuSans-Bold-43"/>
     <use xlink:href="#DejaVuSans-Bold-68" transform="translate(73.388672 0)"/>
     <use xlink:href="#DejaVuSans-Bold-61" transform="translate(144.580078 0)"/>
     <use xlink:href="#DejaVuSans-Bold-72" transform="translate(212.060547 0)"/>
     <use xlink:href="#DejaVuSans-Bold-74" transform="translate(261.376953 0)"/>
    </g>
    <!-- Grid -->
    <g transform="translate(840.11 470.186625) scale(0.08 -0.08)">
     <use xlink:href="#DejaVuSans-Bold-47"/>
     <use xlink:href="#DejaVuSans-Bold-72" transform="translate(82.080078 0)"/>
     <use xlink:href="#DejaVuSans-Bold-69" transform="translate(131.396484 0)"/>
     <use xlink:href="#DejaVuSans-Bold-64" transform="translate(165.673828 0)"/>
    </g>
   </g>
   <g id="text_15">
    <!-- Summary -->
    <g transform="translate(968.65625 461.165875) scale(0.08 -0.08)">
     <use xlink:href="#DejaVuSans-Bold-53"/>
     <use xlink:href="#DejaVuSans-Bold-75" transform="translate(72.021484 0)"/>
     <use xlink:href="#DejaVuSans-Bold-6d" transform="translate(143.212891 0)"/>
     <use xlink:href="#DejaVuSans-Bold-6d" transform="translate(247.412109 0)"/>
     <use xlink:href="#DejaVuSans-Bold-61" transform="translate(351.611328 0)"/>
     <use xlink:href="#DejaVuSans-Bold-72" transform="translate(419.091797 0)"/>
     <use xlink:href="#DejaVuSans-Bold-79" transform="translate(468.408203 0)"/>
    </g>
    <!-- Table -->
    <g transform="translate(978.139375 470.186625) scale(0.08 -0.08)">
     <use xlink:href="#DejaVuSans-Bold-54"/>
     <use xlink:href="#DejaVuSans-Bold-61" transform="translate(55.337891 0)"/>
     <use xlink:href="#DejaVuSans-Bold-62" transform="translate(122.818359 0)"/>
     <use xlink:href="#DejaVuSans-Bold-6c" transform="translate(194.400391 0)"/>
     <use xlink:href="#DejaVuSans-Bold-65" transform="translate(228.677734 0)"/>
    </g>
   </g>
   <g id="text_16">
    <!-- Export -->
    <g transform="translate(1115.591875 461.228375) scale(0.08 -0.08)">
     <defs>
      <path id="DejaVuSans-Bold-45" d="M 588 4666 
L 3834 4666 
L 3834 3756 
L 1791 3756 
L 1791 2888 
L 3713 2888 
L 3713 1978 
L 1791 1978 
L 1791 909 
L 3903 909 
L 3903 0 
L 588 0 
L 588 4666 
z
" transform="scale(0.015625)"/>
      <path id="DejaVuSans-Bold-78" d="M 1422 1791 
L 159 3500 
L 1344 3500 
L 2059 2463 
L 2784 3500 
L 3969 3500 
L 2706 1797 
L 4031 0 
L 2847 0 
L 2059 1106 
L 1281 0 
L 97 0 
L 1422 1791 
z
" transform="scale(0.015625)"/>
     </defs>
     <use xlink:href="#DejaVuSans-Bold-45"/>
     <use xlink:href="#DejaVuSans-Bold-78" transform="translate(68.310547 0)"/>
     <use xlink:href="#DejaVuSans-Bold-70" transform="translate(132.8125 0)"/>
     <use xlink:href="#DejaVuSans-Bold-6f" transform="translate(204.394531 0)"/>
     <use xlink:href="#DejaVuSans-Bold-72" transform="translate(273.095703 0)"/>
     <use xlink:href="#DejaVuSans-Bold-74" transform="translate(322.412109 0)"/>
    </g>
    <!-- Options -->
    <g transform="translate(1112.876875 470.186625) scale(0.08 -0.08)">
     <defs>
      <path id="DejaVuSans-Bold-4f" d="M 2719 3878 
Q 2169 3878 1866 3472 
Q 1563 3066 1563 2328 
Q 1563 1594 1866 1187 
Q 2169 781 2719 781 
Q 3272 781 3575 1187 
Q 3878 1594 3878 2328 
Q 3878 3066 3575 3472 
Q 3272 3878 2719 3878 
z
M 2719 4750 
Q 3844 4750 4481 4106 
Q 5119 3463 5119 2328 
Q 5119 1197 4481 553 
Q 3844 -91 2719 -91 
Q 1597 -91 958 553 
Q 319 1197 319 2328 
Q 319 3463 958 4106 
Q 1597 4750 2719 4750 
z
" transform="scale(0.015625)"/>
     </defs>
     <use xlink:href="#DejaVuSans-Bold-4f"/>
     <use xlink:href="#DejaVuSans-Bold-70" transform="translate(85.009766 0)"/>
     <use xlink:href="#DejaVuSans-Bold-74" transform="translate(156.591797 0)"/>
     <use xlink:href="#DejaVuSans-Bold-69" transform="translate(204.394531 0)"/>
     <use xlink:href="#DejaVuSans-Bold-6f" transform="translate(238.671875 0)"/>
     <use xlink:href="#DejaVuSans-Bold-6e" transform="translate(307.373047 0)"/>
     <use xlink:href="#DejaVuSans-Bold-73" transform="translate(378.564453 0)"/>
    </g>
   </g>
   <g id="text_17">
    <!-- User Interaction Layer -->
    <g transform="translate(844.202812 674.1) scale(0.12 -0.12)">
     <defs>
      <path id="DejaVuSans-Bold-55" d="M 588 4666 
L 1791 4666 
L 1791 1869 
Q 1791 1291 1980 1042 
Q 2169 794 2597 794 
Q 3028 794 3217 1042 
Q 3406 1291 3406 1869 
L 3406 4666 
L 4609 4666 
L 4609 1869 
Q 4609 878 4112 393 
Q 3616 -91 2597 -91 
Q 1581 -91 1084 393 
Q 588 878 588 1869 
L 588 4666 
z
" transform="scale(0.015625)"/>
     </defs>
     <use xlink:href="#DejaVuSans-Bold-55"/>
     <use xlink:href="#DejaVuSans-Bold-73" transform="translate(81.201172 0)"/>
     <use xlink:href="#DejaVuSans-Bold-65" transform="translate(140.722656 0)"/>
     <use xlink:href="#DejaVuSans-Bold-72" transform="translate(208.544922 0)"/>
     <use xlink:href="#DejaVuSans-Bold-20" transform="translate(257.861328 0)"/>
     <use xlink:href="#DejaVuSans-Bold-49" transform="translate(292.675781 0)"/>
     <use xlink:href="#DejaVuSans-Bold-6e" transform="translate(329.882812 0)"/>
     <use xlink:href="#DejaVuSans-Bold-74" transform="translate(401.074219 0)"/>
     <use xlink:href="#DejaVuSans-Bold-65" transform="translate(448.876953 0)"/>
     <use xlink:href="#DejaVuSans-Bold-72" transform="translate(516.699219 0)"/>
     <use xlink:href="#DejaVuSans-Bold-61" transform="translate(566.015625 0)"/>
     <use xlink:href="#DejaVuSans-Bold-63" transform="translate(633.496094 0)"/>
     <use xlink:href="#DejaVuSans-Bold-74" transform="translate(692.773438 0)"/>
     <use xlink:href="#DejaVuSans-Bold-69" transform="translate(740.576172 0)"/>
     <use xlink:href="#DejaVuSans-Bold-6f" transform="translate(774.853516 0)"/>
     <use xlink:href="#DejaVuSans-Bold-6e" transform="translate(843.554688 0)"/>
     <use xlink:href="#DejaVuSans-Bold-20" transform="translate(914.746094 0)"/>
     <use xlink:href="#DejaVuSans-Bold-4c" transform="translate(949.560547 0)"/>
     <use xlink:href="#DejaVuSans-Bold-61" transform="translate(1013.28125 0)"/>
     <use xlink:href="#DejaVuSans-Bold-79" transform="translate(1077.636719 0)"/>
     <use xlink:href="#DejaVuSans-Bold-65" transform="translate(1142.822266 0)"/>
     <use xlink:href="#DejaVuSans-Bold-72" transform="translate(1210.644531 0)"/>
    </g>
   </g>
   <g id="text_18">
    <!-- Portfolio -->
    <g transform="translate(619.456875 742.028375) scale(0.08 -0.08)">
     <use xlink:href="#DejaVuSans-Bold-50"/>
     <use xlink:href="#DejaVuSans-Bold-6f" transform="translate(73.291016 0)"/>
     <use xlink:href="#DejaVuSans-Bold-72" transform="translate(141.992188 0)"/>
     <use xlink:href="#DejaVuSans-Bold-74" transform="translate(191.308594 0)"/>
     <use xlink:href="#DejaVuSans-Bold-66" transform="translate(239.111328 0)"/>
     <use xlink:href="#DejaVuSans-Bold-6f" transform="translate(282.617188 0)"/>
     <use xlink:href="#DejaVuSans-Bold-6c" transform="translate(351.318359 0)"/>
     <use xlink:href="#DejaVuSans-Bold-69" transform="translate(385.595703 0)"/>
     <use xlink:href="#DejaVuSans-Bold-6f" transform="translate(419.873047 0)"/>
    </g>
    <!-- Selection -->
    <g transform="translate(618.071875 750.986625) scale(0.08 -0.08)">
     <use xlink:href="#DejaVuSans-Bold-53"/>
     <use xlink:href="#DejaVuSans-Bold-65" transform="translate(72.021484 0)"/>
     <use xlink:href="#DejaVuSans-Bold-6c" transform="translate(139.84375 0)"/>
     <use xlink:href="#DejaVuSans-Bold-65" transform="translate(174.121094 0)"/>
     <use xlink:href="#DejaVuSans-Bold-63" transform="translate(241.943359 0)"/>
     <use xlink:href="#DejaVuSans-Bold-74" transform="translate(301.220703 0)"/>
     <use xlink:href="#DejaVuSans-Bold-69" transform="translate(349.023438 0)"/>
     <use xlink:href="#DejaVuSans-Bold-6f" transform="translate(383.300781 0)"/>
     <use xlink:href="#DejaVuSans-Bold-6e" transform="translate(452.001953 0)"/>
    </g>
   </g>
   <g id="text_19">
    <!-- Date Range -->
    <g transform="translate(753.159375 741.934625) scale(0.08 -0.08)">
     <use xlink:href="#DejaVuSans-Bold-44"/>
     <use xlink:href="#DejaVuSans-Bold-61" transform="translate(83.007812 0)"/>
     <use xlink:href="#DejaVuSans-Bold-74" transform="translate(150.488281 0)"/>
     <use xlink:href="#DejaVuSans-Bold-65" transform="translate(198.291016 0)"/>
     <use xlink:href="#DejaVuSans-Bold-20" transform="translate(266.113281 0)"/>
     <use xlink:href="#DejaVuSans-Bold-52" transform="translate(300.927734 0)"/>
     <use xlink:href="#DejaVuSans-Bold-61" transform="translate(377.929688 0)"/>
     <use xlink:href="#DejaVuSans-Bold-6e" transform="translate(445.410156 0)"/>
     <use xlink:href="#DejaVuSans-Bold-67" transform="translate(516.601562 0)"/>
     <use xlink:href="#DejaVuSans-Bold-65" transform="translate(588.183594 0)"/>
    </g>
    <!-- Filtering -->
    <g transform="translate(760.245625 750.955375) scale(0.08 -0.08)">
     <use xlink:href="#DejaVuSans-Bold-46"/>
     <use xlink:href="#DejaVuSans-Bold-69" transform="translate(68.310547 0)"/>
     <use xlink:href="#DejaVuSans-Bold-6c" transform="translate(102.587891 0)"/>
     <use xlink:href="#DejaVuSans-Bold-74" transform="translate(136.865234 0)"/>
     <use xlink:href="#DejaVuSans-Bold-65" transform="translate(184.667969 0)"/>
     <use xlink:href="#DejaVuSans-Bold-72" transform="translate(252.490234 0)"/>
     <use xlink:href="#DejaVuSans-Bold-69" transform="translate(301.806641 0)"/>
     <use xlink:href="#DejaVuSans-Bold-6e" transform="translate(336.083984 0)"/>
     <use xlink:href="#DejaVuSans-Bold-67" transform="translate(407.275391 0)"/>
    </g>
   </g>
   <g id="text_20">
    <!-- Chart -->
    <g transform="translate(907.433125 742.028375) scale(0.08 -0.08)">
     <use xlink:href="#DejaVuSans-Bold-43"/>
     <use xlink:href="#DejaVuSans-Bold-68" transform="translate(73.388672 0)"/>
     <use xlink:href="#DejaVuSans-Bold-61" transform="translate(144.580078 0)"/>
     <use xlink:href="#DejaVuSans-Bold-72" transform="translate(212.060547 0)"/>
     <use xlink:href="#DejaVuSans-Bold-74" transform="translate(261.376953 0)"/>
    </g>
    <!-- Interactions -->
    <g transform="translate(892.536875 750.986625) scale(0.08 -0.08)">
     <use xlink:href="#DejaVuSans-Bold-49"/>
     <use xlink:href="#DejaVuSans-Bold-6e" transform="translate(37.207031 0)"/>
     <use xlink:href="#DejaVuSans-Bold-74" transform="translate(108.398438 0)"/>
     <use xlink:href="#DejaVuSans-Bold-65" transform="translate(156.201172 0)"/>
     <use xlink:href="#DejaVuSans-Bold-72" transform="translate(224.023438 0)"/>
     <use xlink:href="#DejaVuSans-Bold-61" transform="translate(273.339844 0)"/>
     <use xlink:href="#DejaVuSans-Bold-63" transform="translate(340.820312 0)"/>
     <use xlink:href="#DejaVuSans-Bold-74" transform="translate(400.097656 0)"/>
     <use xlink:href="#DejaVuSans-Bold-69" transform="translate(447.900391 0)"/>
     <use xlink:href="#DejaVuSans-Bold-6f" transform="translate(482.177734 0)"/>
     <use xlink:href="#DejaVuSans-Bold-6e" transform="translate(550.878906 0)"/>
     <use xlink:href="#DejaVuSans-Bold-73" transform="translate(622.070312 0)"/>
    </g>
   </g>
   <g id="text_21">
    <!-- Data -->
    <g transform="translate(1049.56875 742.028375) scale(0.08 -0.08)">
     <use xlink:href="#DejaVuSans-Bold-44"/>
     <use xlink:href="#DejaVuSans-Bold-61" transform="translate(83.007812 0)"/>
     <use xlink:href="#DejaVuSans-Bold-74" transform="translate(150.488281 0)"/>
     <use xlink:href="#DejaVuSans-Bold-61" transform="translate(198.291016 0)"/>
    </g>
    <!-- Export -->
    <g transform="translate(1045.391875 750.986625) scale(0.08 -0.08)">
     <use xlink:href="#DejaVuSans-Bold-45"/>
     <use xlink:href="#DejaVuSans-Bold-78" transform="translate(68.310547 0)"/>
     <use xlink:href="#DejaVuSans-Bold-70" transform="translate(132.8125 0)"/>
     <use xlink:href="#DejaVuSans-Bold-6f" transform="translate(204.394531 0)"/>
     <use xlink:href="#DejaVuSans-Bold-72" transform="translate(273.095703 0)"/>
     <use xlink:href="#DejaVuSans-Bold-74" transform="translate(322.412109 0)"/>
    </g>
   </g>
   <g id="text_22">
    <!-- Real-time -->
    <g transform="translate(1178.911875 742.028375) scale(0.08 -0.08)">
     <defs>
      <path id="DejaVuSans-Bold-2d" d="M 347 2297 
L 2309 2297 
L 2309 1388 
L 347 1388 
L 347 2297 
z
" transform="scale(0.015625)"/>
     </defs>
     <use xlink:href="#DejaVuSans-Bold-52"/>
     <use xlink:href="#DejaVuSans-Bold-65" transform="translate(77.001953 0)"/>
     <use xlink:href="#DejaVuSans-Bold-61" transform="translate(144.824219 0)"/>
     <use xlink:href="#DejaVuSans-Bold-6c" transform="translate(212.304688 0)"/>
     <use xlink:href="#DejaVuSans-Bold-2d" transform="translate(246.582031 0)"/>
     <use xlink:href="#DejaVuSans-Bold-74" transform="translate(288.085938 0)"/>
     <use xlink:href="#DejaVuSans-Bold-69" transform="translate(335.888672 0)"/>
     <use xlink:href="#DejaVuSans-Bold-6d" transform="translate(370.166016 0)"/>
     <use xlink:href="#DejaVuSans-Bold-65" transform="translate(474.365234 0)"/>
    </g>
    <!-- Updates -->
    <g transform="translate(1181.920625 750.986625) scale(0.08 -0.08)">
     <use xlink:href="#DejaVuSans-Bold-55"/>
     <use xlink:href="#DejaVuSans-Bold-70" transform="translate(81.201172 0)"/>
     <use xlink:href="#DejaVuSans-Bold-64" transform="translate(152.783203 0)"/>
     <use xlink:href="#DejaVuSans-Bold-61" transform="translate(224.365234 0)"/>
     <use xlink:href="#DejaVuSans-Bold-74" transform="translate(291.845703 0)"/>
     <use xlink:href="#DejaVuSans-Bold-65" transform="translate(339.648438 0)"/>
     <use xlink:href="#DejaVuSans-Bold-73" transform="translate(407.470703 0)"/>
    </g>
   </g>
   <g id="patch_22">
    <path d="M 205.757512 217.8 
Q 287.99914 217.8 368.004699 217.8 
" style="fill: none; stroke: #0000ff; stroke-width: 2; stroke-linecap: round"/>
    <path d="M 364.004699 215.8 
L 368.004699 217.8 
L 364.004699 219.8 
" style="fill: none; stroke: #0000ff; stroke-width: 2; stroke-linecap: round"/>
   </g>
   <g id="patch_23">
    <path d="M 205.757512 358.2 
Q 287.99914 358.2 368.004699 358.2 
" style="fill: none; stroke: #0000ff; stroke-width: 2; stroke-linecap: round"/>
    <path d="M 364.004699 356.2 
L 368.004699 358.2 
L 364.004699 360.2 
" style="fill: none; stroke: #0000ff; stroke-width: 2; stroke-linecap: round"/>
   </g>
   <g id="patch_24">
    <path d="M 205.757512 498.6 
Q 287.99914 498.6 368.004699 498.6 
" style="fill: none; stroke: #0000ff; stroke-width: 2; stroke-linecap: round"/>
    <path d="M 364.004699 496.6 
L 368.004699 498.6 
L 364.004699 500.6 
" style="fill: none; stroke: #0000ff; stroke-width: 2; stroke-linecap: round"/>
   </g>
   <g id="patch_25">
    <path d="M 486.563082 217.8 
Q 561.783686 217.8 634.768222 217.8 
" style="fill: none; stroke: #008000; stroke-width: 2; stroke-linecap: round"/>
    <path d="M 630.768222 215.8 
L 634.768222 217.8 
L 630.768222 219.8 
" style="fill: none; stroke: #008000; stroke-width: 2; stroke-linecap: round"/>
   </g>
   <g id="patch_26">
    <path d="M 486.211954 357.073668 
Q 561.77951 305.550334 635.499565 255.28666 
" style="fill: none; stroke: #008000; stroke-width: 2; stroke-linecap: round"/>
    <path d="M 631.067982 255.887553 
L 635.499565 255.28666 
L 633.321329 259.192462 
" style="fill: none; stroke: #008000; stroke-width: 2; stroke-linecap: round"/>
   </g>
   <g id="patch_27">
    <path d="M 849.6 290.00094 
Q 849.6 323.099379 849.6 353.96175 
" style="fill: none; stroke: #ff0000; stroke-width: 2; stroke-linecap: round"/>
    <path d="M 851.6 349.96175 
L 849.6 353.96175 
L 847.6 349.96175 
" style="fill: none; stroke: #ff0000; stroke-width: 2; stroke-linecap: round"/>
   </g>
   <g id="patch_28">
    <path d="M 919.8 683.904492 
Q 919.8 628.471155 919.8 573.037819 
" style="fill: none; stroke: #800080; stroke-width: 2; stroke-linecap: round"/>
    <path d="M 921.8 679.904492 
L 919.8 683.904492 
L 917.8 679.904492 
" style="fill: none; stroke: #800080; stroke-width: 2; stroke-linecap: round"/>
    <path d="M 917.8 577.037819 
L 919.8 573.037819 
L 921.8 577.037819 
" style="fill: none; stroke: #800080; stroke-width: 2; stroke-linecap: round"/>
   </g>
  </g>
 </g>
 <defs>
  <clipPath id="p1d20186da7">
   <rect x="7.2" y="7.2" width="1263.6" height="842.4"/>
  </clipPath>
 </defs>
</svg>
