<?xml version="1.0" encoding="utf-8" standalone="no"?>
<!DOCTYPE svg PUBLIC "-//W3C//DTD SVG 1.1//EN"
  "http://www.w3.org/Graphics/SVG/1.1/DTD/svg11.dtd">
<svg xmlns:xlink="http://www.w3.org/1999/xlink" width="1131.84pt" height="712.8pt" viewBox="0 0 1131.84 712.8" xmlns="http://www.w3.org/2000/svg" version="1.1">
 <metadata>
  <rdf:RDF xmlns:dc="http://purl.org/dc/elements/1.1/" xmlns:cc="http://creativecommons.org/ns#" xmlns:rdf="http://www.w3.org/1999/02/22-rdf-syntax-ns#">
   <cc:Work>
    <dc:type rdf:resource="http://purl.org/dc/dcmitype/StillImage"/>
    <dc:date>2025-09-29T18:38:24.098439</dc:date>
    <dc:format>image/svg+xml</dc:format>
    <dc:creator>
     <cc:Agent>
      <dc:title>Matplotlib v3.10.6, https://matplotlib.org/</dc:title>
     </cc:Agent>
    </dc:creator>
   </cc:Work>
  </rdf:RDF>
 </metadata>
 <defs>
  <style type="text/css">*{stroke-linejoin: round; stroke-linecap: butt}</style>
 </defs>
 <g id="figure_1">
  <g id="patch_1">
   <path d="M 0 712.8 
L 1131.84 712.8 
L 1131.84 0 
L 0 0 
z
" style="fill: #ffffff"/>
  </g>
  <g id="axes_1">
   <g id="patch_2">
    <path d="M 77.7384 147.5784 
L 216.0216 147.5784 
Q 217.4184 147.5784 217.4184 146.1816 
L 217.4184 77.7384 
Q 217.4184 76.3416 216.0216 76.3416 
L 77.7384 76.3416 
Q 76.3416 76.3416 76.3416 77.7384 
L 76.3416 146.1816 
Q 76.3416 147.5784 77.7384 147.5784 
z
" clip-path="url(#p44145093f0)" style="fill: #ff6b6b; opacity: 0.8; stroke: #8b0000; stroke-width: 2; stroke-linejoin: miter"/>
   </g>
   <g id="patch_3">
    <path d="M 322.1784 147.5784 
L 495.3816 147.5784 
Q 496.7784 147.5784 496.7784 146.1816 
L 496.7784 77.7384 
Q 496.7784 76.3416 495.3816 76.3416 
L 322.1784 76.3416 
Q 320.7816 76.3416 320.7816 77.7384 
L 320.7816 146.1816 
Q 320.7816 147.5784 322.1784 147.5784 
z
" clip-path="url(#p44145093f0)" style="fill: #4ecdc4; opacity: 0.8; stroke: #008080; stroke-width: 2; stroke-linejoin: miter"/>
   </g>
   <g id="patch_4">
    <path d="M 566.6184 147.5784 
L 739.8216 147.5784 
Q 741.2184 147.5784 741.2184 146.1816 
L 741.2184 77.7384 
Q 741.2184 76.3416 739.8216 76.3416 
L 566.6184 76.3416 
Q 565.2216 76.3416 565.2216 77.7384 
L 565.2216 146.1816 
Q 565.2216 147.5784 566.6184 147.5784 
z
" clip-path="url(#p44145093f0)" style="fill: #4ecdc4; opacity: 0.8; stroke: #008080; stroke-width: 2; stroke-linejoin: miter"/>
   </g>
   <g id="patch_5">
    <path d="M 811.0584 147.5784 
L 984.2616 147.5784 
Q 985.6584 147.5784 985.6584 146.1816 
L 985.6584 77.7384 
Q 985.6584 76.3416 984.2616 76.3416 
L 811.0584 76.3416 
Q 809.6616 76.3416 809.6616 77.7384 
L 809.6616 146.1816 
Q 809.6616 147.5784 811.0584 147.5784 
z
" clip-path="url(#p44145093f0)" style="fill: #4ecdc4; opacity: 0.8; stroke: #008080; stroke-width: 2; stroke-linejoin: miter"/>
   </g>
   <g id="patch_6">
    <path d="M 146.88 321.48 
L 984.96 321.48 
L 984.96 195.768 
L 146.88 195.768 
z
" clip-path="url(#p44145093f0)" style="fill: #45b7d1; opacity: 0.3; stroke: #00008b; stroke-width: 2; stroke-linejoin: miter"/>
   </g>
   <g id="patch_7">
    <path d="M 182.4984 301.2264 
L 320.7816 301.2264 
Q 322.1784 301.2264 322.1784 299.8296 
L 322.1784 245.3544 
Q 322.1784 243.9576 320.7816 243.9576 
L 182.4984 243.9576 
Q 181.1016 243.9576 181.1016 245.3544 
L 181.1016 299.8296 
Q 181.1016 301.2264 182.4984 301.2264 
z
" clip-path="url(#p44145093f0)" style="fill: #45b7d1; opacity: 0.8; stroke: #00008b; stroke-width: 2; stroke-linejoin: miter"/>
   </g>
   <g id="patch_8">
    <path d="M 357.0984 301.2264 
L 495.3816 301.2264 
Q 496.7784 301.2264 496.7784 299.8296 
L 496.7784 245.3544 
Q 496.7784 243.9576 495.3816 243.9576 
L 357.0984 243.9576 
Q 355.7016 243.9576 355.7016 245.3544 
L 355.7016 299.8296 
Q 355.7016 301.2264 357.0984 301.2264 
z
" clip-path="url(#p44145093f0)" style="fill: #45b7d1; opacity: 0.8; stroke: #00008b; stroke-width: 2; stroke-linejoin: miter"/>
   </g>
   <g id="patch_9">
    <path d="M 531.6984 301.2264 
L 669.9816 301.2264 
Q 671.3784 301.2264 671.3784 299.8296 
L 671.3784 245.3544 
Q 671.3784 243.9576 669.9816 243.9576 
L 531.6984 243.9576 
Q 530.3016 243.9576 530.3016 245.3544 
L 530.3016 299.8296 
Q 530.3016 301.2264 531.6984 301.2264 
z
" clip-path="url(#p44145093f0)" style="fill: #45b7d1; opacity: 0.8; stroke: #00008b; stroke-width: 2; stroke-linejoin: miter"/>
   </g>
   <g id="patch_10">
    <path d="M 706.2984 301.2264 
L 844.5816 301.2264 
Q 845.9784 301.2264 845.9784 299.8296 
L 845.9784 245.3544 
Q 845.9784 243.9576 844.5816 243.9576 
L 706.2984 243.9576 
Q 704.9016 243.9576 704.9016 245.3544 
L 704.9016 299.8296 
Q 704.9016 301.2264 706.2984 301.2264 
z
" clip-path="url(#p44145093f0)" style="fill: #45b7d1; opacity: 0.8; stroke: #00008b; stroke-width: 2; stroke-linejoin: miter"/>
   </g>
   <g id="patch_11">
    <path d="M 880.8984 301.2264 
L 1005.2136 301.2264 
Q 1006.6104 301.2264 1006.6104 299.8296 
L 1006.6104 245.3544 
Q 1006.6104 243.9576 1005.2136 243.9576 
L 880.8984 243.9576 
Q 879.5016 243.9576 879.5016 245.3544 
L 879.5016 299.8296 
Q 879.5016 301.2264 880.8984 301.2264 
z
" clip-path="url(#p44145093f0)" style="fill: #45b7d1; opacity: 0.8; stroke: #00008b; stroke-width: 2; stroke-linejoin: miter"/>
   </g>
   <g id="patch_12">
    <path d="M 147.5784 461.8584 
L 285.8616 461.8584 
Q 287.2584 461.8584 287.2584 460.4616 
L 287.2584 392.0184 
Q 287.2584 390.6216 285.8616 390.6216 
L 147.5784 390.6216 
Q 146.1816 390.6216 146.1816 392.0184 
L 146.1816 460.4616 
Q 146.1816 461.8584 147.5784 461.8584 
z
" clip-path="url(#p44145093f0)" style="fill: #45b7d1; opacity: 0.8; stroke: #00008b; stroke-width: 2; stroke-linejoin: miter"/>
   </g>
   <g id="patch_13">
    <path d="M 322.1784 461.8584 
L 460.4616 461.8584 
Q 461.8584 461.8584 461.8584 460.4616 
L 461.8584 392.0184 
Q 461.8584 390.6216 460.4616 390.6216 
L 322.1784 390.6216 
Q 320.7816 390.6216 320.7816 392.0184 
L 320.7816 460.4616 
Q 320.7816 461.8584 322.1784 461.8584 
z
" clip-path="url(#p44145093f0)" style="fill: #45b7d1; opacity: 0.8; stroke: #00008b; stroke-width: 2; stroke-linejoin: miter"/>
   </g>
   <g id="patch_14">
    <path d="M 496.7784 461.8584 
L 635.0616 461.8584 
Q 636.4584 461.8584 636.4584 460.4616 
L 636.4584 392.0184 
Q 636.4584 390.6216 635.0616 390.6216 
L 496.7784 390.6216 
Q 495.3816 390.6216 495.3816 392.0184 
L 495.3816 460.4616 
Q 495.3816 461.8584 496.7784 461.8584 
z
" clip-path="url(#p44145093f0)" style="fill: #45b7d1; opacity: 0.8; stroke: #00008b; stroke-width: 2; stroke-linejoin: miter"/>
   </g>
   <g id="patch_15">
    <path d="M 671.3784 461.8584 
L 809.6616 461.8584 
Q 811.0584 461.8584 811.0584 460.4616 
L 811.0584 392.0184 
Q 811.0584 390.6216 809.6616 390.6216 
L 671.3784 390.6216 
Q 669.9816 390.6216 669.9816 392.0184 
L 669.9816 460.4616 
Q 669.9816 461.8584 671.3784 461.8584 
z
" clip-path="url(#p44145093f0)" style="fill: #45b7d1; opacity: 0.8; stroke: #00008b; stroke-width: 2; stroke-linejoin: miter"/>
   </g>
   <g id="patch_16">
    <path d="M 845.9784 461.8584 
L 984.2616 461.8584 
Q 985.6584 461.8584 985.6584 460.4616 
L 985.6584 392.0184 
Q 985.6584 390.6216 984.2616 390.6216 
L 845.9784 390.6216 
Q 844.5816 390.6216 844.5816 392.0184 
L 844.5816 460.4616 
Q 844.5816 461.8584 845.9784 461.8584 
z
" clip-path="url(#p44145093f0)" style="fill: #45b7d1; opacity: 0.8; stroke: #00008b; stroke-width: 2; stroke-linejoin: miter"/>
   </g>
   <g id="patch_17">
    <path d="M 287.2584 601.5384 
L 495.3816 601.5384 
Q 496.7784 601.5384 496.7784 600.1416 
L 496.7784 531.6984 
Q 496.7784 530.3016 495.3816 530.3016 
L 287.2584 530.3016 
Q 285.8616 530.3016 285.8616 531.6984 
L 285.8616 600.1416 
Q 285.8616 601.5384 287.2584 601.5384 
z
" clip-path="url(#p44145093f0)" style="fill: #90ee90; opacity: 0.8; stroke: #006400; stroke-width: 2; stroke-linejoin: miter"/>
   </g>
   <g id="patch_18">
    <path d="M 636.4584 601.5384 
L 844.5816 601.5384 
Q 845.9784 601.5384 845.9784 600.1416 
L 845.9784 531.6984 
Q 845.9784 530.3016 844.5816 530.3016 
L 636.4584 530.3016 
Q 635.0616 530.3016 635.0616 531.6984 
L 635.0616 600.1416 
Q 635.0616 601.5384 636.4584 601.5384 
z
" clip-path="url(#p44145093f0)" style="fill: #ffb6c1; opacity: 0.8; stroke: #8b0000; stroke-width: 2; stroke-linejoin: miter"/>
   </g>
   <g id="text_1">
    <!-- Multi-Factor Authentication (MFA) Workflow -->
    <g transform="translate(342.666563 42.12) scale(0.18 -0.18)">
     <defs>
      <path id="DejaVuSans-Bold-4d" d="M 588 4666 
L 2119 4666 
L 3181 2169 
L 4250 4666 
L 5778 4666 
L 5778 0 
L 4641 0 
L 4641 3413 
L 3566 897 
L 2803 897 
L 1728 3413 
L 1728 0 
L 588 0 
L 588 4666 
z
" transform="scale(0.015625)"/>
      <path id="DejaVuSans-Bold-75" d="M 500 1363 
L 500 3500 
L 1625 3500 
L 1625 3150 
Q 1625 2866 1622 2436 
Q 1619 2006 1619 1863 
Q 1619 1441 1641 1255 
Q 1663 1069 1716 984 
Q 1784 875 1895 815 
Q 2006 756 2150 756 
Q 2500 756 2700 1025 
Q 2900 1294 2900 1772 
L 2900 3500 
L 4019 3500 
L 4019 0 
L 2900 0 
L 2900 506 
Q 2647 200 2364 54 
Q 2081 -91 1741 -91 
Q 1134 -91 817 281 
Q 500 653 500 1363 
z
" transform="scale(0.015625)"/>
      <path id="DejaVuSans-Bold-6c" d="M 538 4863 
L 1656 4863 
L 1656 0 
L 538 0 
L 538 4863 
z
" transform="scale(0.015625)"/>
      <path id="DejaVuSans-Bold-74" d="M 1759 4494 
L 1759 3500 
L 2913 3500 
L 2913 2700 
L 1759 2700 
L 1759 1216 
Q 1759 972 1856 886 
Q 1953 800 2241 800 
L 2816 800 
L 2816 0 
L 1856 0 
Q 1194 0 917 276 
Q 641 553 641 1216 
L 641 2700 
L 84 2700 
L 84 3500 
L 641 3500 
L 641 4494 
L 1759 4494 
z
" transform="scale(0.015625)"/>
      <path id="DejaVuSans-Bold-69" d="M 538 3500 
L 1656 3500 
L 1656 0 
L 538 0 
L 538 3500 
z
M 538 4863 
L 1656 4863 
L 1656 3950 
L 538 3950 
L 538 4863 
z
" transform="scale(0.015625)"/>
      <path id="DejaVuSans-Bold-2d" d="M 347 2297 
L 2309 2297 
L 2309 1388 
L 347 1388 
L 347 2297 
z
" transform="scale(0.015625)"/>
      <path id="DejaVuSans-Bold-46" d="M 588 4666 
L 3834 4666 
L 3834 3756 
L 1791 3756 
L 1791 2888 
L 3713 2888 
L 3713 1978 
L 1791 1978 
L 1791 0 
L 588 0 
L 588 4666 
z
" transform="scale(0.015625)"/>
      <path id="DejaVuSans-Bold-61" d="M 2106 1575 
Q 1756 1575 1579 1456 
Q 1403 1338 1403 1106 
Q 1403 894 1545 773 
Q 1688 653 1941 653 
Q 2256 653 2472 879 
Q 2688 1106 2688 1447 
L 2688 1575 
L 2106 1575 
z
M 3816 1997 
L 3816 0 
L 2688 0 
L 2688 519 
Q 2463 200 2181 54 
Q 1900 -91 1497 -91 
Q 953 -91 614 226 
Q 275 544 275 1050 
Q 275 1666 698 1953 
Q 1122 2241 2028 2241 
L 2688 2241 
L 2688 2328 
Q 2688 2594 2478 2717 
Q 2269 2841 1825 2841 
Q 1466 2841 1156 2769 
Q 847 2697 581 2553 
L 581 3406 
Q 941 3494 1303 3539 
Q 1666 3584 2028 3584 
Q 2975 3584 3395 3211 
Q 3816 2838 3816 1997 
z
" transform="scale(0.015625)"/>
      <path id="DejaVuSans-Bold-63" d="M 3366 3391 
L 3366 2478 
Q 3138 2634 2908 2709 
Q 2678 2784 2431 2784 
Q 1963 2784 1702 2511 
Q 1441 2238 1441 1747 
Q 1441 1256 1702 982 
Q 1963 709 2431 709 
Q 2694 709 2930 787 
Q 3166 866 3366 1019 
L 3366 103 
Q 3103 6 2833 -42 
Q 2563 -91 2291 -91 
Q 1344 -91 809 395 
Q 275 881 275 1747 
Q 275 2613 809 3098 
Q 1344 3584 2291 3584 
Q 2566 3584 2833 3536 
Q 3100 3488 3366 3391 
z
" transform="scale(0.015625)"/>
      <path id="DejaVuSans-Bold-6f" d="M 2203 2784 
Q 1831 2784 1636 2517 
Q 1441 2250 1441 1747 
Q 1441 1244 1636 976 
Q 1831 709 2203 709 
Q 2569 709 2762 976 
Q 2956 1244 2956 1747 
Q 2956 2250 2762 2517 
Q 2569 2784 2203 2784 
z
M 2203 3584 
Q 3106 3584 3614 3096 
Q 4122 2609 4122 1747 
Q 4122 884 3614 396 
Q 3106 -91 2203 -91 
Q 1297 -91 786 396 
Q 275 884 275 1747 
Q 275 2609 786 3096 
Q 1297 3584 2203 3584 
z
" transform="scale(0.015625)"/>
      <path id="DejaVuSans-Bold-72" d="M 3138 2547 
Q 2991 2616 2845 2648 
Q 2700 2681 2553 2681 
Q 2122 2681 1889 2404 
Q 1656 2128 1656 1613 
L 1656 0 
L 538 0 
L 538 3500 
L 1656 3500 
L 1656 2925 
Q 1872 3269 2151 3426 
Q 2431 3584 2822 3584 
Q 2878 3584 2943 3579 
Q 3009 3575 3134 3559 
L 3138 2547 
z
" transform="scale(0.015625)"/>
      <path id="DejaVuSans-Bold-20" transform="scale(0.015625)"/>
      <path id="DejaVuSans-Bold-41" d="M 3419 850 
L 1538 850 
L 1241 0 
L 31 0 
L 1759 4666 
L 3194 4666 
L 4922 0 
L 3713 0 
L 3419 850 
z
M 1838 1716 
L 3116 1716 
L 2478 3572 
L 1838 1716 
z
" transform="scale(0.015625)"/>
      <path id="DejaVuSans-Bold-68" d="M 4056 2131 
L 4056 0 
L 2931 0 
L 2931 347 
L 2931 1625 
Q 2931 2084 2911 2256 
Q 2891 2428 2841 2509 
Q 2775 2619 2662 2680 
Q 2550 2741 2406 2741 
Q 2056 2741 1856 2470 
Q 1656 2200 1656 1722 
L 1656 0 
L 538 0 
L 538 4863 
L 1656 4863 
L 1656 2988 
Q 1909 3294 2193 3439 
Q 2478 3584 2822 3584 
Q 3428 3584 3742 3212 
Q 4056 2841 4056 2131 
z
" transform="scale(0.015625)"/>
      <path id="DejaVuSans-Bold-65" d="M 4031 1759 
L 4031 1441 
L 1416 1441 
Q 1456 1047 1700 850 
Q 1944 653 2381 653 
Q 2734 653 3104 758 
Q 3475 863 3866 1075 
L 3866 213 
Q 3469 63 3072 -14 
Q 2675 -91 2278 -91 
Q 1328 -91 801 392 
Q 275 875 275 1747 
Q 275 2603 792 3093 
Q 1309 3584 2216 3584 
Q 3041 3584 3536 3087 
Q 4031 2591 4031 1759 
z
M 2881 2131 
Q 2881 2450 2695 2645 
Q 2509 2841 2209 2841 
Q 1884 2841 1681 2658 
Q 1478 2475 1428 2131 
L 2881 2131 
z
" transform="scale(0.015625)"/>
      <path id="DejaVuSans-Bold-6e" d="M 4056 2131 
L 4056 0 
L 2931 0 
L 2931 347 
L 2931 1631 
Q 2931 2084 2911 2256 
Q 2891 2428 2841 2509 
Q 2775 2619 2662 2680 
Q 2550 2741 2406 2741 
Q 2056 2741 1856 2470 
Q 1656 2200 1656 1722 
L 1656 0 
L 538 0 
L 538 3500 
L 1656 3500 
L 1656 2988 
Q 1909 3294 2193 3439 
Q 2478 3584 2822 3584 
Q 3428 3584 3742 3212 
Q 4056 2841 4056 2131 
z
" transform="scale(0.015625)"/>
      <path id="DejaVuSans-Bold-28" d="M 2413 -844 
L 1484 -844 
Q 1006 -72 778 623 
Q 550 1319 550 2003 
Q 550 2688 779 3389 
Q 1009 4091 1484 4856 
L 2413 4856 
Q 2013 4116 1813 3408 
Q 1613 2700 1613 2009 
Q 1613 1319 1811 609 
Q 2009 -100 2413 -844 
z
" transform="scale(0.015625)"/>
      <path id="DejaVuSans-Bold-29" d="M 513 -844 
Q 913 -100 1113 609 
Q 1313 1319 1313 2009 
Q 1313 2700 1113 3408 
Q 913 4116 513 4856 
L 1441 4856 
Q 1916 4091 2145 3389 
Q 2375 2688 2375 2003 
Q 2375 1319 2147 623 
Q 1919 -72 1441 -844 
L 513 -844 
z
" transform="scale(0.015625)"/>
      <path id="DejaVuSans-Bold-57" d="M 191 4666 
L 1344 4666 
L 2150 1275 
L 2950 4666 
L 4109 4666 
L 4909 1275 
L 5716 4666 
L 6859 4666 
L 5759 0 
L 4372 0 
L 3525 3547 
L 2688 0 
L 1300 0 
L 191 4666 
z
" transform="scale(0.015625)"/>
      <path id="DejaVuSans-Bold-6b" d="M 538 4863 
L 1656 4863 
L 1656 2216 
L 2944 3500 
L 4244 3500 
L 2534 1894 
L 4378 0 
L 3022 0 
L 1656 1459 
L 1656 0 
L 538 0 
L 538 4863 
z
" transform="scale(0.015625)"/>
      <path id="DejaVuSans-Bold-66" d="M 2841 4863 
L 2841 4128 
L 2222 4128 
Q 1984 4128 1890 4042 
Q 1797 3956 1797 3744 
L 1797 3500 
L 2753 3500 
L 2753 2700 
L 1797 2700 
L 1797 0 
L 678 0 
L 678 2700 
L 122 2700 
L 122 3500 
L 678 3500 
L 678 3744 
Q 678 4316 997 4589 
Q 1316 4863 1984 4863 
L 2841 4863 
z
" transform="scale(0.015625)"/>
      <path id="DejaVuSans-Bold-77" d="M 225 3500 
L 1313 3500 
L 1900 1088 
L 2491 3500 
L 3425 3500 
L 4013 1113 
L 4603 3500 
L 5691 3500 
L 4769 0 
L 3547 0 
L 2956 2406 
L 2369 0 
L 1147 0 
L 225 3500 
z
" transform="scale(0.015625)"/>
     </defs>
     <use xlink:href="#DejaVuSans-Bold-4d"/>
     <use xlink:href="#DejaVuSans-Bold-75" transform="translate(99.511719 0)"/>
     <use xlink:href="#DejaVuSans-Bold-6c" transform="translate(170.703125 0)"/>
     <use xlink:href="#DejaVuSans-Bold-74" transform="translate(204.980469 0)"/>
     <use xlink:href="#DejaVuSans-Bold-69" transform="translate(252.783203 0)"/>
     <use xlink:href="#DejaVuSans-Bold-2d" transform="translate(287.060547 0)"/>
     <use xlink:href="#DejaVuSans-Bold-46" transform="translate(328.564453 0)"/>
     <use xlink:href="#DejaVuSans-Bold-61" transform="translate(391 0)"/>
     <use xlink:href="#DejaVuSans-Bold-63" transform="translate(458.480469 0)"/>
     <use xlink:href="#DejaVuSans-Bold-74" transform="translate(517.757812 0)"/>
     <use xlink:href="#DejaVuSans-Bold-6f" transform="translate(565.560547 0)"/>
     <use xlink:href="#DejaVuSans-Bold-72" transform="translate(634.261719 0)"/>
     <use xlink:href="#DejaVuSans-Bold-20" transform="translate(683.578125 0)"/>
     <use xlink:href="#DejaVuSans-Bold-41" transform="translate(718.392578 0)"/>
     <use xlink:href="#DejaVuSans-Bold-75" transform="translate(795.785156 0)"/>
     <use xlink:href="#DejaVuSans-Bold-74" transform="translate(866.976562 0)"/>
     <use xlink:href="#DejaVuSans-Bold-68" transform="translate(914.779297 0)"/>
     <use xlink:href="#DejaVuSans-Bold-65" transform="translate(985.970703 0)"/>
     <use xlink:href="#DejaVuSans-Bold-6e" transform="translate(1053.792969 0)"/>
     <use xlink:href="#DejaVuSans-Bold-74" transform="translate(1124.984375 0)"/>
     <use xlink:href="#DejaVuSans-Bold-69" transform="translate(1172.787109 0)"/>
     <use xlink:href="#DejaVuSans-Bold-63" transform="translate(1207.064453 0)"/>
     <use xlink:href="#DejaVuSans-Bold-61" transform="translate(1266.341797 0)"/>
     <use xlink:href="#DejaVuSans-Bold-74" transform="translate(1333.822266 0)"/>
     <use xlink:href="#DejaVuSans-Bold-69" transform="translate(1381.625 0)"/>
     <use xlink:href="#DejaVuSans-Bold-6f" transform="translate(1415.902344 0)"/>
     <use xlink:href="#DejaVuSans-Bold-6e" transform="translate(1484.603516 0)"/>
     <use xlink:href="#DejaVuSans-Bold-20" transform="translate(1555.794922 0)"/>
     <use xlink:href="#DejaVuSans-Bold-28" transform="translate(1590.609375 0)"/>
     <use xlink:href="#DejaVuSans-Bold-4d" transform="translate(1636.3125 0)"/>
     <use xlink:href="#DejaVuSans-Bold-46" transform="translate(1735.824219 0)"/>
     <use xlink:href="#DejaVuSans-Bold-41" transform="translate(1792.634766 0)"/>
     <use xlink:href="#DejaVuSans-Bold-29" transform="translate(1870.027344 0)"/>
     <use xlink:href="#DejaVuSans-Bold-20" transform="translate(1915.730469 0)"/>
     <use xlink:href="#DejaVuSans-Bold-57" transform="translate(1950.544922 0)"/>
     <use xlink:href="#DejaVuSans-Bold-6f" transform="translate(2057.222656 0)"/>
     <use xlink:href="#DejaVuSans-Bold-72" transform="translate(2125.923828 0)"/>
     <use xlink:href="#DejaVuSans-Bold-6b" transform="translate(2175.240234 0)"/>
     <use xlink:href="#DejaVuSans-Bold-66" transform="translate(2241.744141 0)"/>
     <use xlink:href="#DejaVuSans-Bold-6c" transform="translate(2285.25 0)"/>
     <use xlink:href="#DejaVuSans-Bold-6f" transform="translate(2319.527344 0)"/>
     <use xlink:href="#DejaVuSans-Bold-77" transform="translate(2388.228516 0)"/>
    </g>
   </g>
   <g id="text_2">
    <!-- User -->
    <g style="fill: #ffffff" transform="translate(135.276328 114.443437) scale(0.09 -0.09)">
     <defs>
      <path id="DejaVuSans-Bold-55" d="M 588 4666 
L 1791 4666 
L 1791 1869 
Q 1791 1291 1980 1042 
Q 2169 794 2597 794 
Q 3028 794 3217 1042 
Q 3406 1291 3406 1869 
L 3406 4666 
L 4609 4666 
L 4609 1869 
Q 4609 878 4112 393 
Q 3616 -91 2597 -91 
Q 1581 -91 1084 393 
Q 588 878 588 1869 
L 588 4666 
z
" transform="scale(0.015625)"/>
      <path id="DejaVuSans-Bold-73" d="M 3272 3391 
L 3272 2541 
Q 2913 2691 2578 2766 
Q 2244 2841 1947 2841 
Q 1628 2841 1473 2761 
Q 1319 2681 1319 2516 
Q 1319 2381 1436 2309 
Q 1553 2238 1856 2203 
L 2053 2175 
Q 2913 2066 3209 1816 
Q 3506 1566 3506 1031 
Q 3506 472 3093 190 
Q 2681 -91 1863 -91 
Q 1516 -91 1145 -36 
Q 775 19 384 128 
L 384 978 
Q 719 816 1070 734 
Q 1422 653 1784 653 
Q 2113 653 2278 743 
Q 2444 834 2444 1013 
Q 2444 1163 2330 1236 
Q 2216 1309 1875 1350 
L 1678 1375 
Q 931 1469 631 1722 
Q 331 1975 331 2491 
Q 331 3047 712 3315 
Q 1094 3584 1881 3584 
Q 2191 3584 2531 3537 
Q 2872 3491 3272 3391 
z
" transform="scale(0.015625)"/>
     </defs>
     <use xlink:href="#DejaVuSans-Bold-55"/>
     <use xlink:href="#DejaVuSans-Bold-73" transform="translate(81.201172 0)"/>
     <use xlink:href="#DejaVuSans-Bold-65" transform="translate(140.722656 0)"/>
     <use xlink:href="#DejaVuSans-Bold-72" transform="translate(208.544922 0)"/>
    </g>
   </g>
   <g id="text_3">
    <!-- Step 1: -->
    <g style="fill: #ffffff" transform="translate(390.618281 109.404422) scale(0.09 -0.09)">
     <defs>
      <path id="DejaVuSans-Bold-53" d="M 3834 4519 
L 3834 3531 
Q 3450 3703 3084 3790 
Q 2719 3878 2394 3878 
Q 1963 3878 1756 3759 
Q 1550 3641 1550 3391 
Q 1550 3203 1689 3098 
Q 1828 2994 2194 2919 
L 2706 2816 
Q 3484 2659 3812 2340 
Q 4141 2022 4141 1434 
Q 4141 663 3683 286 
Q 3225 -91 2284 -91 
Q 1841 -91 1394 -6 
Q 947 78 500 244 
L 500 1259 
Q 947 1022 1364 901 
Q 1781 781 2169 781 
Q 2563 781 2772 912 
Q 2981 1044 2981 1288 
Q 2981 1506 2839 1625 
Q 2697 1744 2272 1838 
L 1806 1941 
Q 1106 2091 782 2419 
Q 459 2747 459 3303 
Q 459 4000 909 4375 
Q 1359 4750 2203 4750 
Q 2588 4750 2994 4692 
Q 3400 4634 3834 4519 
z
" transform="scale(0.015625)"/>
      <path id="DejaVuSans-Bold-70" d="M 1656 506 
L 1656 -1331 
L 538 -1331 
L 538 3500 
L 1656 3500 
L 1656 2988 
Q 1888 3294 2169 3439 
Q 2450 3584 2816 3584 
Q 3463 3584 3878 3070 
Q 4294 2556 4294 1747 
Q 4294 938 3878 423 
Q 3463 -91 2816 -91 
Q 2450 -91 2169 54 
Q 1888 200 1656 506 
z
M 2400 2772 
Q 2041 2772 1848 2508 
Q 1656 2244 1656 1747 
Q 1656 1250 1848 986 
Q 2041 722 2400 722 
Q 2759 722 2948 984 
Q 3138 1247 3138 1747 
Q 3138 2247 2948 2509 
Q 2759 2772 2400 2772 
z
" transform="scale(0.015625)"/>
      <path id="DejaVuSans-Bold-31" d="M 750 831 
L 1813 831 
L 1813 3847 
L 722 3622 
L 722 4441 
L 1806 4666 
L 2950 4666 
L 2950 831 
L 4013 831 
L 4013 0 
L 750 0 
L 750 831 
z
" transform="scale(0.015625)"/>
      <path id="DejaVuSans-Bold-3a" d="M 716 3500 
L 1844 3500 
L 1844 2291 
L 716 2291 
L 716 3500 
z
M 716 1209 
L 1844 1209 
L 1844 0 
L 716 0 
L 716 1209 
z
" transform="scale(0.015625)"/>
     </defs>
     <use xlink:href="#DejaVuSans-Bold-53"/>
     <use xlink:href="#DejaVuSans-Bold-74" transform="translate(72.021484 0)"/>
     <use xlink:href="#DejaVuSans-Bold-65" transform="translate(119.824219 0)"/>
     <use xlink:href="#DejaVuSans-Bold-70" transform="translate(187.646484 0)"/>
     <use xlink:href="#DejaVuSans-Bold-20" transform="translate(259.228516 0)"/>
     <use xlink:href="#DejaVuSans-Bold-31" transform="translate(294.042969 0)"/>
     <use xlink:href="#DejaVuSans-Bold-3a" transform="translate(363.623047 0)"/>
    </g>
    <!-- Username/Password -->
    <g style="fill: #ffffff" transform="translate(357.288047 119.482453) scale(0.09 -0.09)">
     <defs>
      <path id="DejaVuSans-Bold-6d" d="M 3781 2919 
Q 3994 3244 4286 3414 
Q 4578 3584 4928 3584 
Q 5531 3584 5847 3212 
Q 6163 2841 6163 2131 
L 6163 0 
L 5038 0 
L 5038 1825 
Q 5041 1866 5042 1909 
Q 5044 1953 5044 2034 
Q 5044 2406 4934 2573 
Q 4825 2741 4581 2741 
Q 4263 2741 4089 2478 
Q 3916 2216 3909 1719 
L 3909 0 
L 2784 0 
L 2784 1825 
Q 2784 2406 2684 2573 
Q 2584 2741 2328 2741 
Q 2006 2741 1831 2477 
Q 1656 2213 1656 1722 
L 1656 0 
L 531 0 
L 531 3500 
L 1656 3500 
L 1656 2988 
Q 1863 3284 2130 3434 
Q 2397 3584 2719 3584 
Q 3081 3584 3359 3409 
Q 3638 3234 3781 2919 
z
" transform="scale(0.015625)"/>
      <path id="DejaVuSans-Bold-2f" d="M 1644 4666 
L 2338 4666 
L 691 -594 
L 0 -594 
L 1644 4666 
z
" transform="scale(0.015625)"/>
      <path id="DejaVuSans-Bold-50" d="M 588 4666 
L 2584 4666 
Q 3475 4666 3951 4270 
Q 4428 3875 4428 3144 
Q 4428 2409 3951 2014 
Q 3475 1619 2584 1619 
L 1791 1619 
L 1791 0 
L 588 0 
L 588 4666 
z
M 1791 3794 
L 1791 2491 
L 2456 2491 
Q 2806 2491 2997 2661 
Q 3188 2831 3188 3144 
Q 3188 3456 2997 3625 
Q 2806 3794 2456 3794 
L 1791 3794 
z
" transform="scale(0.015625)"/>
      <path id="DejaVuSans-Bold-64" d="M 2919 2988 
L 2919 4863 
L 4044 4863 
L 4044 0 
L 2919 0 
L 2919 506 
Q 2688 197 2409 53 
Q 2131 -91 1766 -91 
Q 1119 -91 703 423 
Q 288 938 288 1747 
Q 288 2556 703 3070 
Q 1119 3584 1766 3584 
Q 2128 3584 2408 3439 
Q 2688 3294 2919 2988 
z
M 2181 722 
Q 2541 722 2730 984 
Q 2919 1247 2919 1747 
Q 2919 2247 2730 2509 
Q 2541 2772 2181 2772 
Q 1825 2772 1636 2509 
Q 1447 2247 1447 1747 
Q 1447 1247 1636 984 
Q 1825 722 2181 722 
z
" transform="scale(0.015625)"/>
     </defs>
     <use xlink:href="#DejaVuSans-Bold-55"/>
     <use xlink:href="#DejaVuSans-Bold-73" transform="translate(81.201172 0)"/>
     <use xlink:href="#DejaVuSans-Bold-65" transform="translate(140.722656 0)"/>
     <use xlink:href="#DejaVuSans-Bold-72" transform="translate(208.544922 0)"/>
     <use xlink:href="#DejaVuSans-Bold-6e" transform="translate(257.861328 0)"/>
     <use xlink:href="#DejaVuSans-Bold-61" transform="translate(329.052734 0)"/>
     <use xlink:href="#DejaVuSans-Bold-6d" transform="translate(396.533203 0)"/>
     <use xlink:href="#DejaVuSans-Bold-65" transform="translate(500.732422 0)"/>
     <use xlink:href="#DejaVuSans-Bold-2f" transform="translate(568.554688 0)"/>
     <use xlink:href="#DejaVuSans-Bold-50" transform="translate(605.078125 0)"/>
     <use xlink:href="#DejaVuSans-Bold-61" transform="translate(675.744141 0)"/>
     <use xlink:href="#DejaVuSans-Bold-73" transform="translate(743.224609 0)"/>
     <use xlink:href="#DejaVuSans-Bold-73" transform="translate(802.746094 0)"/>
     <use xlink:href="#DejaVuSans-Bold-77" transform="translate(862.267578 0)"/>
     <use xlink:href="#DejaVuSans-Bold-6f" transform="translate(954.650391 0)"/>
     <use xlink:href="#DejaVuSans-Bold-72" transform="translate(1023.351562 0)"/>
     <use xlink:href="#DejaVuSans-Bold-64" transform="translate(1072.667969 0)"/>
    </g>
   </g>
   <g id="text_4">
    <!-- Step 2: -->
    <g style="fill: #ffffff" transform="translate(635.058281 109.369266) scale(0.09 -0.09)">
     <defs>
      <path id="DejaVuSans-Bold-32" d="M 1844 884 
L 3897 884 
L 3897 0 
L 506 0 
L 506 884 
L 2209 2388 
Q 2438 2594 2547 2791 
Q 2656 2988 2656 3200 
Q 2656 3528 2436 3728 
Q 2216 3928 1850 3928 
Q 1569 3928 1234 3808 
Q 900 3688 519 3450 
L 519 4475 
Q 925 4609 1322 4679 
Q 1719 4750 2100 4750 
Q 2938 4750 3402 4381 
Q 3866 4013 3866 3353 
Q 3866 2972 3669 2642 
Q 3472 2313 2841 1759 
L 1844 884 
z
" transform="scale(0.015625)"/>
     </defs>
     <use xlink:href="#DejaVuSans-Bold-53"/>
     <use xlink:href="#DejaVuSans-Bold-74" transform="translate(72.021484 0)"/>
     <use xlink:href="#DejaVuSans-Bold-65" transform="translate(119.824219 0)"/>
     <use xlink:href="#DejaVuSans-Bold-70" transform="translate(187.646484 0)"/>
     <use xlink:href="#DejaVuSans-Bold-20" transform="translate(259.228516 0)"/>
     <use xlink:href="#DejaVuSans-Bold-32" transform="translate(294.042969 0)"/>
     <use xlink:href="#DejaVuSans-Bold-3a" transform="translate(363.623047 0)"/>
    </g>
    <!-- MFA Challenge -->
    <g style="fill: #ffffff" transform="translate(615.978984 119.447297) scale(0.09 -0.09)">
     <defs>
      <path id="DejaVuSans-Bold-43" d="M 4288 256 
Q 3956 84 3597 -3 
Q 3238 -91 2847 -91 
Q 1681 -91 1000 561 
Q 319 1213 319 2328 
Q 319 3447 1000 4098 
Q 1681 4750 2847 4750 
Q 3238 4750 3597 4662 
Q 3956 4575 4288 4403 
L 4288 3438 
Q 3953 3666 3628 3772 
Q 3303 3878 2944 3878 
Q 2300 3878 1931 3465 
Q 1563 3053 1563 2328 
Q 1563 1606 1931 1193 
Q 2300 781 2944 781 
Q 3303 781 3628 887 
Q 3953 994 4288 1222 
L 4288 256 
z
" transform="scale(0.015625)"/>
      <path id="DejaVuSans-Bold-67" d="M 2919 594 
Q 2688 288 2409 144 
Q 2131 0 1766 0 
Q 1125 0 706 504 
Q 288 1009 288 1791 
Q 288 2575 706 3076 
Q 1125 3578 1766 3578 
Q 2131 3578 2409 3434 
Q 2688 3291 2919 2981 
L 2919 3500 
L 4044 3500 
L 4044 353 
Q 4044 -491 3511 -936 
Q 2978 -1381 1966 -1381 
Q 1638 -1381 1331 -1331 
Q 1025 -1281 716 -1178 
L 716 -306 
Q 1009 -475 1290 -558 
Q 1572 -641 1856 -641 
Q 2406 -641 2662 -400 
Q 2919 -159 2919 353 
L 2919 594 
z
M 2181 2772 
Q 1834 2772 1640 2515 
Q 1447 2259 1447 1791 
Q 1447 1309 1634 1061 
Q 1822 813 2181 813 
Q 2531 813 2725 1069 
Q 2919 1325 2919 1791 
Q 2919 2259 2725 2515 
Q 2531 2772 2181 2772 
z
" transform="scale(0.015625)"/>
     </defs>
     <use xlink:href="#DejaVuSans-Bold-4d"/>
     <use xlink:href="#DejaVuSans-Bold-46" transform="translate(99.511719 0)"/>
     <use xlink:href="#DejaVuSans-Bold-41" transform="translate(156.322266 0)"/>
     <use xlink:href="#DejaVuSans-Bold-20" transform="translate(233.714844 0)"/>
     <use xlink:href="#DejaVuSans-Bold-43" transform="translate(268.529297 0)"/>
     <use xlink:href="#DejaVuSans-Bold-68" transform="translate(341.917969 0)"/>
     <use xlink:href="#DejaVuSans-Bold-61" transform="translate(413.109375 0)"/>
     <use xlink:href="#DejaVuSans-Bold-6c" transform="translate(480.589844 0)"/>
     <use xlink:href="#DejaVuSans-Bold-6c" transform="translate(514.867188 0)"/>
     <use xlink:href="#DejaVuSans-Bold-65" transform="translate(549.144531 0)"/>
     <use xlink:href="#DejaVuSans-Bold-6e" transform="translate(616.966797 0)"/>
     <use xlink:href="#DejaVuSans-Bold-67" transform="translate(688.158203 0)"/>
     <use xlink:href="#DejaVuSans-Bold-65" transform="translate(759.740234 0)"/>
    </g>
   </g>
   <g id="text_5">
    <!-- Step 3: -->
    <g style="fill: #ffffff" transform="translate(879.498281 109.404422) scale(0.09 -0.09)">
     <defs>
      <path id="DejaVuSans-Bold-33" d="M 2981 2516 
Q 3453 2394 3698 2092 
Q 3944 1791 3944 1325 
Q 3944 631 3412 270 
Q 2881 -91 1863 -91 
Q 1503 -91 1142 -33 
Q 781 25 428 141 
L 428 1069 
Q 766 900 1098 814 
Q 1431 728 1753 728 
Q 2231 728 2486 893 
Q 2741 1059 2741 1369 
Q 2741 1688 2480 1852 
Q 2219 2016 1709 2016 
L 1228 2016 
L 1228 2791 
L 1734 2791 
Q 2188 2791 2409 2933 
Q 2631 3075 2631 3366 
Q 2631 3634 2415 3781 
Q 2200 3928 1806 3928 
Q 1516 3928 1219 3862 
Q 922 3797 628 3669 
L 628 4550 
Q 984 4650 1334 4700 
Q 1684 4750 2022 4750 
Q 2931 4750 3382 4451 
Q 3834 4153 3834 3553 
Q 3834 3144 3618 2883 
Q 3403 2622 2981 2516 
z
" transform="scale(0.015625)"/>
     </defs>
     <use xlink:href="#DejaVuSans-Bold-53"/>
     <use xlink:href="#DejaVuSans-Bold-74" transform="translate(72.021484 0)"/>
     <use xlink:href="#DejaVuSans-Bold-65" transform="translate(119.824219 0)"/>
     <use xlink:href="#DejaVuSans-Bold-70" transform="translate(187.646484 0)"/>
     <use xlink:href="#DejaVuSans-Bold-20" transform="translate(259.228516 0)"/>
     <use xlink:href="#DejaVuSans-Bold-33" transform="translate(294.042969 0)"/>
     <use xlink:href="#DejaVuSans-Bold-3a" transform="translate(363.623047 0)"/>
    </g>
    <!-- Token Validation -->
    <g style="fill: #ffffff" transform="translate(855.794531 119.482453) scale(0.09 -0.09)">
     <defs>
      <path id="DejaVuSans-Bold-54" d="M 31 4666 
L 4331 4666 
L 4331 3756 
L 2784 3756 
L 2784 0 
L 1581 0 
L 1581 3756 
L 31 3756 
L 31 4666 
z
" transform="scale(0.015625)"/>
      <path id="DejaVuSans-Bold-56" d="M 31 4666 
L 1241 4666 
L 2478 1222 
L 3713 4666 
L 4922 4666 
L 3194 0 
L 1759 0 
L 31 4666 
z
" transform="scale(0.015625)"/>
     </defs>
     <use xlink:href="#DejaVuSans-Bold-54"/>
     <use xlink:href="#DejaVuSans-Bold-6f" transform="translate(54.962891 0)"/>
     <use xlink:href="#DejaVuSans-Bold-6b" transform="translate(123.664062 0)"/>
     <use xlink:href="#DejaVuSans-Bold-65" transform="translate(187.542969 0)"/>
     <use xlink:href="#DejaVuSans-Bold-6e" transform="translate(255.365234 0)"/>
     <use xlink:href="#DejaVuSans-Bold-20" transform="translate(326.556641 0)"/>
     <use xlink:href="#DejaVuSans-Bold-56" transform="translate(361.371094 0)"/>
     <use xlink:href="#DejaVuSans-Bold-61" transform="translate(433.263672 0)"/>
     <use xlink:href="#DejaVuSans-Bold-6c" transform="translate(500.744141 0)"/>
     <use xlink:href="#DejaVuSans-Bold-69" transform="translate(535.021484 0)"/>
     <use xlink:href="#DejaVuSans-Bold-64" transform="translate(569.298828 0)"/>
     <use xlink:href="#DejaVuSans-Bold-61" transform="translate(640.880859 0)"/>
     <use xlink:href="#DejaVuSans-Bold-74" transform="translate(708.361328 0)"/>
     <use xlink:href="#DejaVuSans-Bold-69" transform="translate(756.164062 0)"/>
     <use xlink:href="#DejaVuSans-Bold-6f" transform="translate(790.441406 0)"/>
     <use xlink:href="#DejaVuSans-Bold-6e" transform="translate(859.142578 0)"/>
    </g>
   </g>
   <g id="text_6">
    <!-- MFA Methods -->
    <g style="fill: #00008b" transform="translate(160.848 216.72) scale(0.11 -0.11)">
     <use xlink:href="#DejaVuSans-Bold-4d"/>
     <use xlink:href="#DejaVuSans-Bold-46" transform="translate(99.511719 0)"/>
     <use xlink:href="#DejaVuSans-Bold-41" transform="translate(156.322266 0)"/>
     <use xlink:href="#DejaVuSans-Bold-20" transform="translate(233.714844 0)"/>
     <use xlink:href="#DejaVuSans-Bold-4d" transform="translate(268.529297 0)"/>
     <use xlink:href="#DejaVuSans-Bold-65" transform="translate(368.041016 0)"/>
     <use xlink:href="#DejaVuSans-Bold-74" transform="translate(435.863281 0)"/>
     <use xlink:href="#DejaVuSans-Bold-68" transform="translate(483.666016 0)"/>
     <use xlink:href="#DejaVuSans-Bold-6f" transform="translate(554.857422 0)"/>
     <use xlink:href="#DejaVuSans-Bold-64" transform="translate(623.558594 0)"/>
     <use xlink:href="#DejaVuSans-Bold-73" transform="translate(695.140625 0)"/>
    </g>
   </g>
   <g id="text_7">
    <!-- TOTP -->
    <g style="fill: #ffffff" transform="translate(238.37625 270.001266) scale(0.09 -0.09)">
     <defs>
      <path id="DejaVuSans-Bold-4f" d="M 2719 3878 
Q 2169 3878 1866 3472 
Q 1563 3066 1563 2328 
Q 1563 1594 1866 1187 
Q 2169 781 2719 781 
Q 3272 781 3575 1187 
Q 3878 1594 3878 2328 
Q 3878 3066 3575 3472 
Q 3272 3878 2719 3878 
z
M 2719 4750 
Q 3844 4750 4481 4106 
Q 5119 3463 5119 2328 
Q 5119 1197 4481 553 
Q 3844 -91 2719 -91 
Q 1597 -91 958 553 
Q 319 1197 319 2328 
Q 319 3463 958 4106 
Q 1597 4750 2719 4750 
z
" transform="scale(0.015625)"/>
     </defs>
     <use xlink:href="#DejaVuSans-Bold-54"/>
     <use xlink:href="#DejaVuSans-Bold-4f" transform="translate(68.212891 0)"/>
     <use xlink:href="#DejaVuSans-Bold-54" transform="translate(153.222656 0)"/>
     <use xlink:href="#DejaVuSans-Bold-50" transform="translate(221.435547 0)"/>
    </g>
    <!-- (Google Auth) -->
    <g style="fill: #ffffff" transform="translate(216.227109 280.079297) scale(0.09 -0.09)">
     <defs>
      <path id="DejaVuSans-Bold-47" d="M 4781 347 
Q 4331 128 3847 18 
Q 3363 -91 2847 -91 
Q 1681 -91 1000 561 
Q 319 1213 319 2328 
Q 319 3456 1012 4103 
Q 1706 4750 2913 4750 
Q 3378 4750 3804 4662 
Q 4231 4575 4609 4403 
L 4609 3438 
Q 4219 3659 3833 3768 
Q 3447 3878 3059 3878 
Q 2341 3878 1952 3476 
Q 1563 3075 1563 2328 
Q 1563 1588 1938 1184 
Q 2313 781 3003 781 
Q 3191 781 3352 804 
Q 3513 828 3641 878 
L 3641 1784 
L 2906 1784 
L 2906 2591 
L 4781 2591 
L 4781 347 
z
" transform="scale(0.015625)"/>
     </defs>
     <use xlink:href="#DejaVuSans-Bold-28"/>
     <use xlink:href="#DejaVuSans-Bold-47" transform="translate(45.703125 0)"/>
     <use xlink:href="#DejaVuSans-Bold-6f" transform="translate(127.783203 0)"/>
     <use xlink:href="#DejaVuSans-Bold-6f" transform="translate(196.484375 0)"/>
     <use xlink:href="#DejaVuSans-Bold-67" transform="translate(265.185547 0)"/>
     <use xlink:href="#DejaVuSans-Bold-6c" transform="translate(336.767578 0)"/>
     <use xlink:href="#DejaVuSans-Bold-65" transform="translate(371.044922 0)"/>
     <use xlink:href="#DejaVuSans-Bold-20" transform="translate(438.867188 0)"/>
     <use xlink:href="#DejaVuSans-Bold-41" transform="translate(473.681641 0)"/>
     <use xlink:href="#DejaVuSans-Bold-75" transform="translate(551.074219 0)"/>
     <use xlink:href="#DejaVuSans-Bold-74" transform="translate(622.265625 0)"/>
     <use xlink:href="#DejaVuSans-Bold-68" transform="translate(670.068359 0)"/>
     <use xlink:href="#DejaVuSans-Bold-29" transform="translate(741.259766 0)"/>
    </g>
   </g>
   <g id="text_8">
    <!-- SMS -->
    <g style="fill: #ffffff" transform="translate(415.280391 270.036422) scale(0.09 -0.09)">
     <use xlink:href="#DejaVuSans-Bold-53"/>
     <use xlink:href="#DejaVuSans-Bold-4d" transform="translate(72.021484 0)"/>
     <use xlink:href="#DejaVuSans-Bold-53" transform="translate(171.533203 0)"/>
    </g>
    <!-- Token -->
    <g style="fill: #ffffff" transform="translate(411.544688 280.114453) scale(0.09 -0.09)">
     <use xlink:href="#DejaVuSans-Bold-54"/>
     <use xlink:href="#DejaVuSans-Bold-6f" transform="translate(54.962891 0)"/>
     <use xlink:href="#DejaVuSans-Bold-6b" transform="translate(123.664062 0)"/>
     <use xlink:href="#DejaVuSans-Bold-65" transform="translate(187.542969 0)"/>
     <use xlink:href="#DejaVuSans-Bold-6e" transform="translate(255.365234 0)"/>
    </g>
   </g>
   <g id="text_9">
    <!-- Email -->
    <g style="fill: #ffffff" transform="translate(586.954687 270.036422) scale(0.09 -0.09)">
     <defs>
      <path id="DejaVuSans-Bold-45" d="M 588 4666 
L 3834 4666 
L 3834 3756 
L 1791 3756 
L 1791 2888 
L 3713 2888 
L 3713 1978 
L 1791 1978 
L 1791 909 
L 3903 909 
L 3903 0 
L 588 0 
L 588 4666 
z
" transform="scale(0.015625)"/>
     </defs>
     <use xlink:href="#DejaVuSans-Bold-45"/>
     <use xlink:href="#DejaVuSans-Bold-6d" transform="translate(68.310547 0)"/>
     <use xlink:href="#DejaVuSans-Bold-61" transform="translate(172.509766 0)"/>
     <use xlink:href="#DejaVuSans-Bold-69" transform="translate(239.990234 0)"/>
     <use xlink:href="#DejaVuSans-Bold-6c" transform="translate(274.267578 0)"/>
    </g>
    <!-- Token -->
    <g style="fill: #ffffff" transform="translate(586.144688 280.114453) scale(0.09 -0.09)">
     <use xlink:href="#DejaVuSans-Bold-54"/>
     <use xlink:href="#DejaVuSans-Bold-6f" transform="translate(54.962891 0)"/>
     <use xlink:href="#DejaVuSans-Bold-6b" transform="translate(123.664062 0)"/>
     <use xlink:href="#DejaVuSans-Bold-65" transform="translate(187.542969 0)"/>
     <use xlink:href="#DejaVuSans-Bold-6e" transform="translate(255.365234 0)"/>
    </g>
   </g>
   <g id="text_10">
    <!-- Hardware -->
    <g style="fill: #ffffff" transform="translate(750.731484 270.036422) scale(0.09 -0.09)">
     <defs>
      <path id="DejaVuSans-Bold-48" d="M 588 4666 
L 1791 4666 
L 1791 2888 
L 3566 2888 
L 3566 4666 
L 4769 4666 
L 4769 0 
L 3566 0 
L 3566 1978 
L 1791 1978 
L 1791 0 
L 588 0 
L 588 4666 
z
" transform="scale(0.015625)"/>
     </defs>
     <use xlink:href="#DejaVuSans-Bold-48"/>
     <use xlink:href="#DejaVuSans-Bold-61" transform="translate(83.691406 0)"/>
     <use xlink:href="#DejaVuSans-Bold-72" transform="translate(151.171875 0)"/>
     <use xlink:href="#DejaVuSans-Bold-64" transform="translate(200.488281 0)"/>
     <use xlink:href="#DejaVuSans-Bold-77" transform="translate(272.070312 0)"/>
     <use xlink:href="#DejaVuSans-Bold-61" transform="translate(364.453125 0)"/>
     <use xlink:href="#DejaVuSans-Bold-72" transform="translate(431.933594 0)"/>
     <use xlink:href="#DejaVuSans-Bold-65" transform="translate(481.25 0)"/>
    </g>
    <!-- Token -->
    <g style="fill: #ffffff" transform="translate(760.744688 280.114453) scale(0.09 -0.09)">
     <use xlink:href="#DejaVuSans-Bold-54"/>
     <use xlink:href="#DejaVuSans-Bold-6f" transform="translate(54.962891 0)"/>
     <use xlink:href="#DejaVuSans-Bold-6b" transform="translate(123.664062 0)"/>
     <use xlink:href="#DejaVuSans-Bold-65" transform="translate(187.542969 0)"/>
     <use xlink:href="#DejaVuSans-Bold-6e" transform="translate(255.365234 0)"/>
    </g>
   </g>
   <g id="text_11">
    <!-- Backup -->
    <g style="fill: #ffffff" transform="translate(924.50475 270.036422) scale(0.09 -0.09)">
     <defs>
      <path id="DejaVuSans-Bold-42" d="M 2456 2859 
Q 2741 2859 2887 2984 
Q 3034 3109 3034 3353 
Q 3034 3594 2887 3720 
Q 2741 3847 2456 3847 
L 1791 3847 
L 1791 2859 
L 2456 2859 
z
M 2497 819 
Q 2859 819 3042 972 
Q 3225 1125 3225 1434 
Q 3225 1738 3044 1889 
Q 2863 2041 2497 2041 
L 1791 2041 
L 1791 819 
L 2497 819 
z
M 3616 2497 
Q 4003 2384 4215 2081 
Q 4428 1778 4428 1338 
Q 4428 663 3972 331 
Q 3516 0 2584 0 
L 588 0 
L 588 4666 
L 2394 4666 
Q 3366 4666 3802 4372 
Q 4238 4078 4238 3431 
Q 4238 3091 4078 2852 
Q 3919 2613 3616 2497 
z
" transform="scale(0.015625)"/>
     </defs>
     <use xlink:href="#DejaVuSans-Bold-42"/>
     <use xlink:href="#DejaVuSans-Bold-61" transform="translate(76.220703 0)"/>
     <use xlink:href="#DejaVuSans-Bold-63" transform="translate(143.701172 0)"/>
     <use xlink:href="#DejaVuSans-Bold-6b" transform="translate(202.978516 0)"/>
     <use xlink:href="#DejaVuSans-Bold-75" transform="translate(269.482422 0)"/>
     <use xlink:href="#DejaVuSans-Bold-70" transform="translate(340.673828 0)"/>
    </g>
    <!-- Codes -->
    <g style="fill: #ffffff" transform="translate(927.710297 280.114453) scale(0.09 -0.09)">
     <use xlink:href="#DejaVuSans-Bold-43"/>
     <use xlink:href="#DejaVuSans-Bold-6f" transform="translate(73.388672 0)"/>
     <use xlink:href="#DejaVuSans-Bold-64" transform="translate(142.089844 0)"/>
     <use xlink:href="#DejaVuSans-Bold-65" transform="translate(213.671875 0)"/>
     <use xlink:href="#DejaVuSans-Bold-73" transform="translate(281.494141 0)"/>
    </g>
   </g>
   <g id="text_12">
    <!-- Token -->
    <g style="fill: #ffffff" transform="translate(202.024687 423.684422) scale(0.09 -0.09)">
     <use xlink:href="#DejaVuSans-Bold-54"/>
     <use xlink:href="#DejaVuSans-Bold-6f" transform="translate(54.962891 0)"/>
     <use xlink:href="#DejaVuSans-Bold-6b" transform="translate(123.664062 0)"/>
     <use xlink:href="#DejaVuSans-Bold-65" transform="translate(187.542969 0)"/>
     <use xlink:href="#DejaVuSans-Bold-6e" transform="translate(255.365234 0)"/>
    </g>
    <!-- Generated -->
    <g style="fill: #ffffff" transform="translate(190.038516 433.762453) scale(0.09 -0.09)">
     <use xlink:href="#DejaVuSans-Bold-47"/>
     <use xlink:href="#DejaVuSans-Bold-65" transform="translate(82.080078 0)"/>
     <use xlink:href="#DejaVuSans-Bold-6e" transform="translate(149.902344 0)"/>
     <use xlink:href="#DejaVuSans-Bold-65" transform="translate(221.09375 0)"/>
     <use xlink:href="#DejaVuSans-Bold-72" transform="translate(288.916016 0)"/>
     <use xlink:href="#DejaVuSans-Bold-61" transform="translate(338.232422 0)"/>
     <use xlink:href="#DejaVuSans-Bold-74" transform="translate(405.712891 0)"/>
     <use xlink:href="#DejaVuSans-Bold-65" transform="translate(453.515625 0)"/>
     <use xlink:href="#DejaVuSans-Bold-64" transform="translate(521.337891 0)"/>
    </g>
   </g>
   <g id="text_13">
    <!-- User -->
    <g style="fill: #ffffff" transform="translate(379.716328 423.684422) scale(0.09 -0.09)">
     <use xlink:href="#DejaVuSans-Bold-55"/>
     <use xlink:href="#DejaVuSans-Bold-73" transform="translate(81.201172 0)"/>
     <use xlink:href="#DejaVuSans-Bold-65" transform="translate(140.722656 0)"/>
     <use xlink:href="#DejaVuSans-Bold-72" transform="translate(208.544922 0)"/>
    </g>
    <!-- Input -->
    <g style="fill: #ffffff" transform="translate(377.867109 433.762453) scale(0.09 -0.09)">
     <defs>
      <path id="DejaVuSans-Bold-49" d="M 588 4666 
L 1791 4666 
L 1791 0 
L 588 0 
L 588 4666 
z
" transform="scale(0.015625)"/>
     </defs>
     <use xlink:href="#DejaVuSans-Bold-49"/>
     <use xlink:href="#DejaVuSans-Bold-6e" transform="translate(37.207031 0)"/>
     <use xlink:href="#DejaVuSans-Bold-70" transform="translate(108.398438 0)"/>
     <use xlink:href="#DejaVuSans-Bold-75" transform="translate(179.980469 0)"/>
     <use xlink:href="#DejaVuSans-Bold-74" transform="translate(251.171875 0)"/>
    </g>
   </g>
   <g id="text_14">
    <!-- Server -->
    <g style="fill: #ffffff" transform="translate(549.203203 423.684422) scale(0.09 -0.09)">
     <defs>
      <path id="DejaVuSans-Bold-76" d="M 97 3500 
L 1216 3500 
L 2088 1081 
L 2956 3500 
L 4078 3500 
L 2700 0 
L 1472 0 
L 97 3500 
z
" transform="scale(0.015625)"/>
     </defs>
     <use xlink:href="#DejaVuSans-Bold-53"/>
     <use xlink:href="#DejaVuSans-Bold-65" transform="translate(72.021484 0)"/>
     <use xlink:href="#DejaVuSans-Bold-72" transform="translate(139.84375 0)"/>
     <use xlink:href="#DejaVuSans-Bold-76" transform="translate(189.160156 0)"/>
     <use xlink:href="#DejaVuSans-Bold-65" transform="translate(254.345703 0)"/>
     <use xlink:href="#DejaVuSans-Bold-72" transform="translate(322.167969 0)"/>
    </g>
    <!-- Validation -->
    <g style="fill: #ffffff" transform="translate(540.316406 433.762453) scale(0.09 -0.09)">
     <use xlink:href="#DejaVuSans-Bold-56"/>
     <use xlink:href="#DejaVuSans-Bold-61" transform="translate(71.892578 0)"/>
     <use xlink:href="#DejaVuSans-Bold-6c" transform="translate(139.373047 0)"/>
     <use xlink:href="#DejaVuSans-Bold-69" transform="translate(173.650391 0)"/>
     <use xlink:href="#DejaVuSans-Bold-64" transform="translate(207.927734 0)"/>
     <use xlink:href="#DejaVuSans-Bold-61" transform="translate(279.509766 0)"/>
     <use xlink:href="#DejaVuSans-Bold-74" transform="translate(346.990234 0)"/>
     <use xlink:href="#DejaVuSans-Bold-69" transform="translate(394.792969 0)"/>
     <use xlink:href="#DejaVuSans-Bold-6f" transform="translate(429.070312 0)"/>
     <use xlink:href="#DejaVuSans-Bold-6e" transform="translate(497.771484 0)"/>
    </g>
   </g>
   <g id="text_15">
    <!-- Time Window -->
    <g style="fill: #ffffff" transform="translate(706.419844 423.684422) scale(0.09 -0.09)">
     <use xlink:href="#DejaVuSans-Bold-54"/>
     <use xlink:href="#DejaVuSans-Bold-69" transform="translate(68.212891 0)"/>
     <use xlink:href="#DejaVuSans-Bold-6d" transform="translate(102.490234 0)"/>
     <use xlink:href="#DejaVuSans-Bold-65" transform="translate(206.689453 0)"/>
     <use xlink:href="#DejaVuSans-Bold-20" transform="translate(274.511719 0)"/>
     <use xlink:href="#DejaVuSans-Bold-57" transform="translate(309.326172 0)"/>
     <use xlink:href="#DejaVuSans-Bold-69" transform="translate(419.628906 0)"/>
     <use xlink:href="#DejaVuSans-Bold-6e" transform="translate(453.90625 0)"/>
     <use xlink:href="#DejaVuSans-Bold-64" transform="translate(525.097656 0)"/>
     <use xlink:href="#DejaVuSans-Bold-6f" transform="translate(596.679688 0)"/>
     <use xlink:href="#DejaVuSans-Bold-77" transform="translate(665.380859 0)"/>
    </g>
    <!-- Check -->
    <g style="fill: #ffffff" transform="translate(725.301563 433.762453) scale(0.09 -0.09)">
     <use xlink:href="#DejaVuSans-Bold-43"/>
     <use xlink:href="#DejaVuSans-Bold-68" transform="translate(73.388672 0)"/>
     <use xlink:href="#DejaVuSans-Bold-65" transform="translate(144.580078 0)"/>
     <use xlink:href="#DejaVuSans-Bold-63" transform="translate(212.402344 0)"/>
     <use xlink:href="#DejaVuSans-Bold-6b" transform="translate(271.679688 0)"/>
    </g>
   </g>
   <g id="text_16">
    <!-- Access -->
    <g style="fill: #ffffff" transform="translate(897.893438 423.684422) scale(0.09 -0.09)">
     <use xlink:href="#DejaVuSans-Bold-41"/>
     <use xlink:href="#DejaVuSans-Bold-63" transform="translate(77.392578 0)"/>
     <use xlink:href="#DejaVuSans-Bold-63" transform="translate(136.669922 0)"/>
     <use xlink:href="#DejaVuSans-Bold-65" transform="translate(195.947266 0)"/>
     <use xlink:href="#DejaVuSans-Bold-73" transform="translate(263.769531 0)"/>
     <use xlink:href="#DejaVuSans-Bold-73" transform="translate(323.291016 0)"/>
    </g>
    <!-- Granted -->
    <g style="fill: #ffffff" transform="translate(894.543047 433.762453) scale(0.09 -0.09)">
     <use xlink:href="#DejaVuSans-Bold-47"/>
     <use xlink:href="#DejaVuSans-Bold-72" transform="translate(82.080078 0)"/>
     <use xlink:href="#DejaVuSans-Bold-61" transform="translate(131.396484 0)"/>
     <use xlink:href="#DejaVuSans-Bold-6e" transform="translate(198.876953 0)"/>
     <use xlink:href="#DejaVuSans-Bold-74" transform="translate(270.068359 0)"/>
     <use xlink:href="#DejaVuSans-Bold-65" transform="translate(317.871094 0)"/>
     <use xlink:href="#DejaVuSans-Bold-64" transform="translate(385.693359 0)"/>
    </g>
   </g>
   <g id="text_17">
    <!-- SUCCESS: -->
    <g transform="translate(366.667734 563.364422) scale(0.09 -0.09)">
     <use xlink:href="#DejaVuSans-Bold-53"/>
     <use xlink:href="#DejaVuSans-Bold-55" transform="translate(72.021484 0)"/>
     <use xlink:href="#DejaVuSans-Bold-43" transform="translate(153.222656 0)"/>
     <use xlink:href="#DejaVuSans-Bold-43" transform="translate(226.611328 0)"/>
     <use xlink:href="#DejaVuSans-Bold-45" transform="translate(300 0)"/>
     <use xlink:href="#DejaVuSans-Bold-53" transform="translate(368.310547 0)"/>
     <use xlink:href="#DejaVuSans-Bold-53" transform="translate(435.832031 0)"/>
     <use xlink:href="#DejaVuSans-Bold-3a" transform="translate(507.853516 0)"/>
    </g>
    <!-- JWT Token Issued -->
    <g transform="translate(347.276953 573.442453) scale(0.09 -0.09)">
     <defs>
      <path id="DejaVuSans-Bold-4a" d="M 588 4666 
L 1791 4666 
L 1791 453 
Q 1791 -419 1317 -850 
Q 844 -1281 -116 -1281 
L -359 -1281 
L -359 -372 
L -172 -372 
Q 203 -372 395 -162 
Q 588 47 588 453 
L 588 4666 
z
" transform="scale(0.015625)"/>
     </defs>
     <use xlink:href="#DejaVuSans-Bold-4a"/>
     <use xlink:href="#DejaVuSans-Bold-57" transform="translate(37.207031 0)"/>
     <use xlink:href="#DejaVuSans-Bold-54" transform="translate(147.509766 0)"/>
     <use xlink:href="#DejaVuSans-Bold-20" transform="translate(215.722656 0)"/>
     <use xlink:href="#DejaVuSans-Bold-54" transform="translate(250.537109 0)"/>
     <use xlink:href="#DejaVuSans-Bold-6f" transform="translate(305.5 0)"/>
     <use xlink:href="#DejaVuSans-Bold-6b" transform="translate(374.201172 0)"/>
     <use xlink:href="#DejaVuSans-Bold-65" transform="translate(438.080078 0)"/>
     <use xlink:href="#DejaVuSans-Bold-6e" transform="translate(505.902344 0)"/>
     <use xlink:href="#DejaVuSans-Bold-20" transform="translate(577.09375 0)"/>
     <use xlink:href="#DejaVuSans-Bold-49" transform="translate(611.908203 0)"/>
     <use xlink:href="#DejaVuSans-Bold-73" transform="translate(649.115234 0)"/>
     <use xlink:href="#DejaVuSans-Bold-73" transform="translate(708.636719 0)"/>
     <use xlink:href="#DejaVuSans-Bold-75" transform="translate(768.158203 0)"/>
     <use xlink:href="#DejaVuSans-Bold-65" transform="translate(839.349609 0)"/>
     <use xlink:href="#DejaVuSans-Bold-64" transform="translate(907.171875 0)"/>
    </g>
   </g>
   <g id="text_18">
    <!-- FAILURE: -->
    <g transform="translate(718.11 563.364422) scale(0.09 -0.09)">
     <defs>
      <path id="DejaVuSans-Bold-4c" d="M 588 4666 
L 1791 4666 
L 1791 909 
L 3903 909 
L 3903 0 
L 588 0 
L 588 4666 
z
" transform="scale(0.015625)"/>
      <path id="DejaVuSans-Bold-52" d="M 2297 2597 
Q 2675 2597 2839 2737 
Q 3003 2878 3003 3200 
Q 3003 3519 2839 3656 
Q 2675 3794 2297 3794 
L 1791 3794 
L 1791 2597 
L 2297 2597 
z
M 1791 1766 
L 1791 0 
L 588 0 
L 588 4666 
L 2425 4666 
Q 3347 4666 3776 4356 
Q 4206 4047 4206 3378 
Q 4206 2916 3982 2619 
Q 3759 2322 3309 2181 
Q 3556 2125 3751 1926 
Q 3947 1728 4147 1325 
L 4800 0 
L 3519 0 
L 2950 1159 
Q 2778 1509 2601 1637 
Q 2425 1766 2131 1766 
L 1791 1766 
z
" transform="scale(0.015625)"/>
     </defs>
     <use xlink:href="#DejaVuSans-Bold-46"/>
     <use xlink:href="#DejaVuSans-Bold-41" transform="translate(56.810547 0)"/>
     <use xlink:href="#DejaVuSans-Bold-49" transform="translate(134.203125 0)"/>
     <use xlink:href="#DejaVuSans-Bold-4c" transform="translate(171.410156 0)"/>
     <use xlink:href="#DejaVuSans-Bold-55" transform="translate(231.505859 0)"/>
     <use xlink:href="#DejaVuSans-Bold-52" transform="translate(312.707031 0)"/>
     <use xlink:href="#DejaVuSans-Bold-45" transform="translate(389.708984 0)"/>
     <use xlink:href="#DejaVuSans-Bold-3a" transform="translate(458.019531 0)"/>
    </g>
    <!-- Access Denied -->
    <g transform="translate(703.919531 573.442453) scale(0.09 -0.09)">
     <defs>
      <path id="DejaVuSans-Bold-44" d="M 1791 3756 
L 1791 909 
L 2222 909 
Q 2959 909 3348 1275 
Q 3738 1641 3738 2338 
Q 3738 3031 3350 3393 
Q 2963 3756 2222 3756 
L 1791 3756 
z
M 588 4666 
L 1856 4666 
Q 2919 4666 3439 4514 
Q 3959 4363 4331 4000 
Q 4659 3684 4818 3271 
Q 4978 2859 4978 2338 
Q 4978 1809 4818 1395 
Q 4659 981 4331 666 
Q 3956 303 3431 151 
Q 2906 0 1856 0 
L 588 0 
L 588 4666 
z
" transform="scale(0.015625)"/>
     </defs>
     <use xlink:href="#DejaVuSans-Bold-41"/>
     <use xlink:href="#DejaVuSans-Bold-63" transform="translate(77.392578 0)"/>
     <use xlink:href="#DejaVuSans-Bold-63" transform="translate(136.669922 0)"/>
     <use xlink:href="#DejaVuSans-Bold-65" transform="translate(195.947266 0)"/>
     <use xlink:href="#DejaVuSans-Bold-73" transform="translate(263.769531 0)"/>
     <use xlink:href="#DejaVuSans-Bold-73" transform="translate(323.291016 0)"/>
     <use xlink:href="#DejaVuSans-Bold-20" transform="translate(382.8125 0)"/>
     <use xlink:href="#DejaVuSans-Bold-44" transform="translate(417.626953 0)"/>
     <use xlink:href="#DejaVuSans-Bold-65" transform="translate(500.634766 0)"/>
     <use xlink:href="#DejaVuSans-Bold-6e" transform="translate(568.457031 0)"/>
     <use xlink:href="#DejaVuSans-Bold-69" transform="translate(639.648438 0)"/>
     <use xlink:href="#DejaVuSans-Bold-65" transform="translate(673.925781 0)"/>
     <use xlink:href="#DejaVuSans-Bold-64" transform="translate(741.748047 0)"/>
    </g>
   </g>
   <g id="patch_19">
    <path d="M 218.718138 111.96 
Q 269.100239 111.96 316.128239 111.96 
" style="fill: none; stroke: #0000ff; stroke-width: 3; stroke-linecap: round"/>
    <path d="M 312.128239 109.96 
L 316.128239 111.96 
L 312.128239 113.96 
" style="fill: none; stroke: #0000ff; stroke-width: 3; stroke-linecap: round"/>
   </g>
   <g id="patch_20">
    <path d="M 498.079204 111.96 
Q 530.999629 111.96 560.565953 111.96 
" style="fill: none; stroke: #0000ff; stroke-width: 3; stroke-linecap: round"/>
    <path d="M 556.565953 109.96 
L 560.565953 111.96 
L 556.565953 113.96 
" style="fill: none; stroke: #0000ff; stroke-width: 3; stroke-linecap: round"/>
   </g>
   <g id="patch_21">
    <path d="M 742.519204 111.96 
Q 775.439629 111.96 805.005953 111.96 
" style="fill: none; stroke: #0000ff; stroke-width: 3; stroke-linecap: round"/>
    <path d="M 801.005953 109.96 
L 805.005953 111.96 
L 801.005953 113.96 
" style="fill: none; stroke: #0000ff; stroke-width: 3; stroke-linecap: round"/>
   </g>
   <g id="patch_22">
    <path d="M 565.92 197.770188 
Q 565.92 293.54539 565.92 387.084524 
" style="fill: none; stroke: #008000; stroke-width: 2; stroke-linecap: round"/>
    <path d="M 567.92 383.084524 
L 565.92 387.084524 
L 563.92 383.084524 
" style="fill: none; stroke: #008000; stroke-width: 2; stroke-linecap: round"/>
   </g>
   <g id="patch_23">
    <path d="M 288.559204 426.24 
Q 304.020967 426.24 317.246662 426.24 
" style="fill: none; stroke: #800080; stroke-width: 2; stroke-linecap: round"/>
    <path d="M 313.246662 424.24 
L 317.246662 426.24 
L 313.246662 428.24 
" style="fill: none; stroke: #800080; stroke-width: 2; stroke-linecap: round"/>
   </g>
   <g id="patch_24">
    <path d="M 463.159204 426.24 
Q 478.620967 426.24 491.846662 426.24 
" style="fill: none; stroke: #800080; stroke-width: 2; stroke-linecap: round"/>
    <path d="M 487.846662 424.24 
L 491.846662 426.24 
L 487.846662 428.24 
" style="fill: none; stroke: #800080; stroke-width: 2; stroke-linecap: round"/>
   </g>
   <g id="patch_25">
    <path d="M 637.759204 426.24 
Q 653.220967 426.24 666.446662 426.24 
" style="fill: none; stroke: #800080; stroke-width: 2; stroke-linecap: round"/>
    <path d="M 662.446662 424.24 
L 666.446662 426.24 
L 662.446662 428.24 
" style="fill: none; stroke: #800080; stroke-width: 2; stroke-linecap: round"/>
   </g>
   <g id="patch_26">
    <path d="M 812.359204 426.24 
Q 827.820967 426.24 841.046662 426.24 
" style="fill: none; stroke: #800080; stroke-width: 2; stroke-linecap: round"/>
    <path d="M 837.046662 424.24 
L 841.046662 426.24 
L 837.046662 428.24 
" style="fill: none; stroke: #800080; stroke-width: 2; stroke-linecap: round"/>
   </g>
   <g id="patch_27">
    <path d="M 703.660474 461.644882 
Q 565.921733 496.079567 430.352298 529.971926 
" style="fill: none; stroke: #008000; stroke-width: 2; stroke-linecap: round"/>
    <path d="M 434.717939 530.942068 
L 430.352298 529.971926 
L 433.747796 527.061498 
" style="fill: none; stroke: #008000; stroke-width: 2; stroke-linecap: round"/>
   </g>
   <g id="patch_28">
    <path d="M 705.6 463.159204 
Q 705.6 496.079629 705.6 526.763987 
" style="fill: none; stroke: #ff0000; stroke-width: 2; stroke-linecap: round"/>
    <path d="M 707.6 522.763987 
L 705.6 526.763987 
L 703.6 522.763987 
" style="fill: none; stroke: #ff0000; stroke-width: 2; stroke-linecap: round"/>
   </g>
   <g id="text_19">
    <g id="patch_29">
     <path d="M 42.12 493.432594 
L 253.601719 493.432594 
Q 256.301719 493.432594 256.301719 490.732594 
L 256.301719 391.32 
Q 256.301719 388.62 253.601719 388.62 
L 42.12 388.62 
Q 39.42 388.62 39.42 391.32 
L 39.42 490.732594 
Q 39.42 493.432594 42.12 493.432594 
z
" style="fill: #e0ffff; opacity: 0.8; stroke: #000000; stroke-linejoin: miter"/>
    </g>
    <!-- SECURITY CONSIDERATIONS -->
    <g transform="translate(42.12 398.158594) scale(0.09 -0.09)">
     <defs>
      <path id="DejaVuSans-53" d="M 3425 4513 
L 3425 3897 
Q 3066 4069 2747 4153 
Q 2428 4238 2131 4238 
Q 1616 4238 1336 4038 
Q 1056 3838 1056 3469 
Q 1056 3159 1242 3001 
Q 1428 2844 1947 2747 
L 2328 2669 
Q 3034 2534 3370 2195 
Q 3706 1856 3706 1288 
Q 3706 609 3251 259 
Q 2797 -91 1919 -91 
Q 1588 -91 1214 -16 
Q 841 59 441 206 
L 441 856 
Q 825 641 1194 531 
Q 1563 422 1919 422 
Q 2459 422 2753 634 
Q 3047 847 3047 1241 
Q 3047 1584 2836 1778 
Q 2625 1972 2144 2069 
L 1759 2144 
Q 1053 2284 737 2584 
Q 422 2884 422 3419 
Q 422 4038 858 4394 
Q 1294 4750 2059 4750 
Q 2388 4750 2728 4690 
Q 3069 4631 3425 4513 
z
" transform="scale(0.015625)"/>
      <path id="DejaVuSans-45" d="M 628 4666 
L 3578 4666 
L 3578 4134 
L 1259 4134 
L 1259 2753 
L 3481 2753 
L 3481 2222 
L 1259 2222 
L 1259 531 
L 3634 531 
L 3634 0 
L 628 0 
L 628 4666 
z
" transform="scale(0.015625)"/>
      <path id="DejaVuSans-43" d="M 4122 4306 
L 4122 3641 
Q 3803 3938 3442 4084 
Q 3081 4231 2675 4231 
Q 1875 4231 1450 3742 
Q 1025 3253 1025 2328 
Q 1025 1406 1450 917 
Q 1875 428 2675 428 
Q 3081 428 3442 575 
Q 3803 722 4122 1019 
L 4122 359 
Q 3791 134 3420 21 
Q 3050 -91 2638 -91 
Q 1578 -91 968 557 
Q 359 1206 359 2328 
Q 359 3453 968 4101 
Q 1578 4750 2638 4750 
Q 3056 4750 3426 4639 
Q 3797 4528 4122 4306 
z
" transform="scale(0.015625)"/>
      <path id="DejaVuSans-55" d="M 556 4666 
L 1191 4666 
L 1191 1831 
Q 1191 1081 1462 751 
Q 1734 422 2344 422 
Q 2950 422 3222 751 
Q 3494 1081 3494 1831 
L 3494 4666 
L 4128 4666 
L 4128 1753 
Q 4128 841 3676 375 
Q 3225 -91 2344 -91 
Q 1459 -91 1007 375 
Q 556 841 556 1753 
L 556 4666 
z
" transform="scale(0.015625)"/>
      <path id="DejaVuSans-52" d="M 2841 2188 
Q 3044 2119 3236 1894 
Q 3428 1669 3622 1275 
L 4263 0 
L 3584 0 
L 2988 1197 
Q 2756 1666 2539 1819 
Q 2322 1972 1947 1972 
L 1259 1972 
L 1259 0 
L 628 0 
L 628 4666 
L 2053 4666 
Q 2853 4666 3247 4331 
Q 3641 3997 3641 3322 
Q 3641 2881 3436 2590 
Q 3231 2300 2841 2188 
z
M 1259 4147 
L 1259 2491 
L 2053 2491 
Q 2509 2491 2742 2702 
Q 2975 2913 2975 3322 
Q 2975 3731 2742 3939 
Q 2509 4147 2053 4147 
L 1259 4147 
z
" transform="scale(0.015625)"/>
      <path id="DejaVuSans-49" d="M 628 4666 
L 1259 4666 
L 1259 0 
L 628 0 
L 628 4666 
z
" transform="scale(0.015625)"/>
      <path id="DejaVuSans-54" d="M -19 4666 
L 3928 4666 
L 3928 4134 
L 2272 4134 
L 2272 0 
L 1638 0 
L 1638 4134 
L -19 4134 
L -19 4666 
z
" transform="scale(0.015625)"/>
      <path id="DejaVuSans-59" d="M -13 4666 
L 666 4666 
L 1959 2747 
L 3244 4666 
L 3922 4666 
L 2272 2222 
L 2272 0 
L 1638 0 
L 1638 2222 
L -13 4666 
z
" transform="scale(0.015625)"/>
      <path id="DejaVuSans-20" transform="scale(0.015625)"/>
      <path id="DejaVuSans-4f" d="M 2522 4238 
Q 1834 4238 1429 3725 
Q 1025 3213 1025 2328 
Q 1025 1447 1429 934 
Q 1834 422 2522 422 
Q 3209 422 3611 934 
Q 4013 1447 4013 2328 
Q 4013 3213 3611 3725 
Q 3209 4238 2522 4238 
z
M 2522 4750 
Q 3503 4750 4090 4092 
Q 4678 3434 4678 2328 
Q 4678 1225 4090 567 
Q 3503 -91 2522 -91 
Q 1538 -91 948 565 
Q 359 1222 359 2328 
Q 359 3434 948 4092 
Q 1538 4750 2522 4750 
z
" transform="scale(0.015625)"/>
      <path id="DejaVuSans-4e" d="M 628 4666 
L 1478 4666 
L 3547 763 
L 3547 4666 
L 4159 4666 
L 4159 0 
L 3309 0 
L 1241 3903 
L 1241 0 
L 628 0 
L 628 4666 
z
" transform="scale(0.015625)"/>
      <path id="DejaVuSans-44" d="M 1259 4147 
L 1259 519 
L 2022 519 
Q 2988 519 3436 956 
Q 3884 1394 3884 2338 
Q 3884 3275 3436 3711 
Q 2988 4147 2022 4147 
L 1259 4147 
z
M 628 4666 
L 1925 4666 
Q 3281 4666 3915 4102 
Q 4550 3538 4550 2338 
Q 4550 1131 3912 565 
Q 3275 0 1925 0 
L 628 0 
L 628 4666 
z
" transform="scale(0.015625)"/>
      <path id="DejaVuSans-41" d="M 2188 4044 
L 1331 1722 
L 3047 1722 
L 2188 4044 
z
M 1831 4666 
L 2547 4666 
L 4325 0 
L 3669 0 
L 3244 1197 
L 1141 1197 
L 716 0 
L 50 0 
L 1831 4666 
z
" transform="scale(0.015625)"/>
     </defs>
     <use xlink:href="#DejaVuSans-53"/>
     <use xlink:href="#DejaVuSans-45" transform="translate(63.476562 0)"/>
     <use xlink:href="#DejaVuSans-43" transform="translate(126.660156 0)"/>
     <use xlink:href="#DejaVuSans-55" transform="translate(196.484375 0)"/>
     <use xlink:href="#DejaVuSans-52" transform="translate(269.677734 0)"/>
     <use xlink:href="#DejaVuSans-49" transform="translate(339.160156 0)"/>
     <use xlink:href="#DejaVuSans-54" transform="translate(368.652344 0)"/>
     <use xlink:href="#DejaVuSans-59" transform="translate(429.736328 0)"/>
     <use xlink:href="#DejaVuSans-20" transform="translate(490.820312 0)"/>
     <use xlink:href="#DejaVuSans-43" transform="translate(522.607422 0)"/>
     <use xlink:href="#DejaVuSans-4f" transform="translate(592.431641 0)"/>
     <use xlink:href="#DejaVuSans-4e" transform="translate(671.142578 0)"/>
     <use xlink:href="#DejaVuSans-53" transform="translate(745.947266 0)"/>
     <use xlink:href="#DejaVuSans-49" transform="translate(809.423828 0)"/>
     <use xlink:href="#DejaVuSans-44" transform="translate(838.916016 0)"/>
     <use xlink:href="#DejaVuSans-45" transform="translate(915.917969 0)"/>
     <use xlink:href="#DejaVuSans-52" transform="translate(979.101562 0)"/>
     <use xlink:href="#DejaVuSans-41" transform="translate(1044.583984 0)"/>
     <use xlink:href="#DejaVuSans-54" transform="translate(1105.242188 0)"/>
     <use xlink:href="#DejaVuSans-49" transform="translate(1166.326172 0)"/>
     <use xlink:href="#DejaVuSans-4f" transform="translate(1195.818359 0)"/>
     <use xlink:href="#DejaVuSans-4e" transform="translate(1274.529297 0)"/>
     <use xlink:href="#DejaVuSans-53" transform="translate(1349.333984 0)"/>
    </g>
    <!--  -->
    <g transform="translate(42.12 408.236625) scale(0.09 -0.09)"/>
    <!--  Time-based token validation (30-60 seconds) -->
    <g transform="translate(42.12 418.314656) scale(0.09 -0.09)">
     <defs>
      <path id="DejaVuSans-2022" d="M 959 2381 
Q 959 2769 1229 3036 
Q 1500 3303 1894 3303 
Q 2281 3303 2548 3036 
Q 2816 2769 2816 2381 
Q 2816 1991 2547 1722 
Q 2278 1453 1888 1453 
Q 1497 1453 1228 1722 
Q 959 1991 959 2381 
z
" transform="scale(0.015625)"/>
      <path id="DejaVuSans-69" d="M 603 3500 
L 1178 3500 
L 1178 0 
L 603 0 
L 603 3500 
z
M 603 4863 
L 1178 4863 
L 1178 4134 
L 603 4134 
L 603 4863 
z
" transform="scale(0.015625)"/>
      <path id="DejaVuSans-6d" d="M 3328 2828 
Q 3544 3216 3844 3400 
Q 4144 3584 4550 3584 
Q 5097 3584 5394 3201 
Q 5691 2819 5691 2113 
L 5691 0 
L 5113 0 
L 5113 2094 
Q 5113 2597 4934 2840 
Q 4756 3084 4391 3084 
Q 3944 3084 3684 2787 
Q 3425 2491 3425 1978 
L 3425 0 
L 2847 0 
L 2847 2094 
Q 2847 2600 2669 2842 
Q 2491 3084 2119 3084 
Q 1678 3084 1418 2786 
Q 1159 2488 1159 1978 
L 1159 0 
L 581 0 
L 581 3500 
L 1159 3500 
L 1159 2956 
Q 1356 3278 1631 3431 
Q 1906 3584 2284 3584 
Q 2666 3584 2933 3390 
Q 3200 3197 3328 2828 
z
" transform="scale(0.015625)"/>
      <path id="DejaVuSans-65" d="M 3597 1894 
L 3597 1613 
L 953 1613 
Q 991 1019 1311 708 
Q 1631 397 2203 397 
Q 2534 397 2845 478 
Q 3156 559 3463 722 
L 3463 178 
Q 3153 47 2828 -22 
Q 2503 -91 2169 -91 
Q 1331 -91 842 396 
Q 353 884 353 1716 
Q 353 2575 817 3079 
Q 1281 3584 2069 3584 
Q 2775 3584 3186 3129 
Q 3597 2675 3597 1894 
z
M 3022 2063 
Q 3016 2534 2758 2815 
Q 2500 3097 2075 3097 
Q 1594 3097 1305 2825 
Q 1016 2553 972 2059 
L 3022 2063 
z
" transform="scale(0.015625)"/>
      <path id="DejaVuSans-2d" d="M 313 2009 
L 1997 2009 
L 1997 1497 
L 313 1497 
L 313 2009 
z
" transform="scale(0.015625)"/>
      <path id="DejaVuSans-62" d="M 3116 1747 
Q 3116 2381 2855 2742 
Q 2594 3103 2138 3103 
Q 1681 3103 1420 2742 
Q 1159 2381 1159 1747 
Q 1159 1113 1420 752 
Q 1681 391 2138 391 
Q 2594 391 2855 752 
Q 3116 1113 3116 1747 
z
M 1159 2969 
Q 1341 3281 1617 3432 
Q 1894 3584 2278 3584 
Q 2916 3584 3314 3078 
Q 3713 2572 3713 1747 
Q 3713 922 3314 415 
Q 2916 -91 2278 -91 
Q 1894 -91 1617 61 
Q 1341 213 1159 525 
L 1159 0 
L 581 0 
L 581 4863 
L 1159 4863 
L 1159 2969 
z
" transform="scale(0.015625)"/>
      <path id="DejaVuSans-61" d="M 2194 1759 
Q 1497 1759 1228 1600 
Q 959 1441 959 1056 
Q 959 750 1161 570 
Q 1363 391 1709 391 
Q 2188 391 2477 730 
Q 2766 1069 2766 1631 
L 2766 1759 
L 2194 1759 
z
M 3341 1997 
L 3341 0 
L 2766 0 
L 2766 531 
Q 2569 213 2275 61 
Q 1981 -91 1556 -91 
Q 1019 -91 701 211 
Q 384 513 384 1019 
Q 384 1609 779 1909 
Q 1175 2209 1959 2209 
L 2766 2209 
L 2766 2266 
Q 2766 2663 2505 2880 
Q 2244 3097 1772 3097 
Q 1472 3097 1187 3025 
Q 903 2953 641 2809 
L 641 3341 
Q 956 3463 1253 3523 
Q 1550 3584 1831 3584 
Q 2591 3584 2966 3190 
Q 3341 2797 3341 1997 
z
" transform="scale(0.015625)"/>
      <path id="DejaVuSans-73" d="M 2834 3397 
L 2834 2853 
Q 2591 2978 2328 3040 
Q 2066 3103 1784 3103 
Q 1356 3103 1142 2972 
Q 928 2841 928 2578 
Q 928 2378 1081 2264 
Q 1234 2150 1697 2047 
L 1894 2003 
Q 2506 1872 2764 1633 
Q 3022 1394 3022 966 
Q 3022 478 2636 193 
Q 2250 -91 1575 -91 
Q 1294 -91 989 -36 
Q 684 19 347 128 
L 347 722 
Q 666 556 975 473 
Q 1284 391 1588 391 
Q 1994 391 2212 530 
Q 2431 669 2431 922 
Q 2431 1156 2273 1281 
Q 2116 1406 1581 1522 
L 1381 1569 
Q 847 1681 609 1914 
Q 372 2147 372 2553 
Q 372 3047 722 3315 
Q 1072 3584 1716 3584 
Q 2034 3584 2315 3537 
Q 2597 3491 2834 3397 
z
" transform="scale(0.015625)"/>
      <path id="DejaVuSans-64" d="M 2906 2969 
L 2906 4863 
L 3481 4863 
L 3481 0 
L 2906 0 
L 2906 525 
Q 2725 213 2448 61 
Q 2172 -91 1784 -91 
Q 1150 -91 751 415 
Q 353 922 353 1747 
Q 353 2572 751 3078 
Q 1150 3584 1784 3584 
Q 2172 3584 2448 3432 
Q 2725 3281 2906 2969 
z
M 947 1747 
Q 947 1113 1208 752 
Q 1469 391 1925 391 
Q 2381 391 2643 752 
Q 2906 1113 2906 1747 
Q 2906 2381 2643 2742 
Q 2381 3103 1925 3103 
Q 1469 3103 1208 2742 
Q 947 2381 947 1747 
z
" transform="scale(0.015625)"/>
      <path id="DejaVuSans-74" d="M 1172 4494 
L 1172 3500 
L 2356 3500 
L 2356 3053 
L 1172 3053 
L 1172 1153 
Q 1172 725 1289 603 
Q 1406 481 1766 481 
L 2356 481 
L 2356 0 
L 1766 0 
Q 1100 0 847 248 
Q 594 497 594 1153 
L 594 3053 
L 172 3053 
L 172 3500 
L 594 3500 
L 594 4494 
L 1172 4494 
z
" transform="scale(0.015625)"/>
      <path id="DejaVuSans-6f" d="M 1959 3097 
Q 1497 3097 1228 2736 
Q 959 2375 959 1747 
Q 959 1119 1226 758 
Q 1494 397 1959 397 
Q 2419 397 2687 759 
Q 2956 1122 2956 1747 
Q 2956 2369 2687 2733 
Q 2419 3097 1959 3097 
z
M 1959 3584 
Q 2709 3584 3137 3096 
Q 3566 2609 3566 1747 
Q 3566 888 3137 398 
Q 2709 -91 1959 -91 
Q 1206 -91 779 398 
Q 353 888 353 1747 
Q 353 2609 779 3096 
Q 1206 3584 1959 3584 
z
" transform="scale(0.015625)"/>
      <path id="DejaVuSans-6b" d="M 581 4863 
L 1159 4863 
L 1159 1991 
L 2875 3500 
L 3609 3500 
L 1753 1863 
L 3688 0 
L 2938 0 
L 1159 1709 
L 1159 0 
L 581 0 
L 581 4863 
z
" transform="scale(0.015625)"/>
      <path id="DejaVuSans-6e" d="M 3513 2113 
L 3513 0 
L 2938 0 
L 2938 2094 
Q 2938 2591 2744 2837 
Q 2550 3084 2163 3084 
Q 1697 3084 1428 2787 
Q 1159 2491 1159 1978 
L 1159 0 
L 581 0 
L 581 3500 
L 1159 3500 
L 1159 2956 
Q 1366 3272 1645 3428 
Q 1925 3584 2291 3584 
Q 2894 3584 3203 3211 
Q 3513 2838 3513 2113 
z
" transform="scale(0.015625)"/>
      <path id="DejaVuSans-76" d="M 191 3500 
L 800 3500 
L 1894 563 
L 2988 3500 
L 3597 3500 
L 2284 0 
L 1503 0 
L 191 3500 
z
" transform="scale(0.015625)"/>
      <path id="DejaVuSans-6c" d="M 603 4863 
L 1178 4863 
L 1178 0 
L 603 0 
L 603 4863 
z
" transform="scale(0.015625)"/>
      <path id="DejaVuSans-28" d="M 1984 4856 
Q 1566 4138 1362 3434 
Q 1159 2731 1159 2009 
Q 1159 1288 1364 580 
Q 1569 -128 1984 -844 
L 1484 -844 
Q 1016 -109 783 600 
Q 550 1309 550 2009 
Q 550 2706 781 3412 
Q 1013 4119 1484 4856 
L 1984 4856 
z
" transform="scale(0.015625)"/>
      <path id="DejaVuSans-33" d="M 2597 2516 
Q 3050 2419 3304 2112 
Q 3559 1806 3559 1356 
Q 3559 666 3084 287 
Q 2609 -91 1734 -91 
Q 1441 -91 1130 -33 
Q 819 25 488 141 
L 488 750 
Q 750 597 1062 519 
Q 1375 441 1716 441 
Q 2309 441 2620 675 
Q 2931 909 2931 1356 
Q 2931 1769 2642 2001 
Q 2353 2234 1838 2234 
L 1294 2234 
L 1294 2753 
L 1863 2753 
Q 2328 2753 2575 2939 
Q 2822 3125 2822 3475 
Q 2822 3834 2567 4026 
Q 2313 4219 1838 4219 
Q 1578 4219 1281 4162 
Q 984 4106 628 3988 
L 628 4550 
Q 988 4650 1302 4700 
Q 1616 4750 1894 4750 
Q 2613 4750 3031 4423 
Q 3450 4097 3450 3541 
Q 3450 3153 3228 2886 
Q 3006 2619 2597 2516 
z
" transform="scale(0.015625)"/>
      <path id="DejaVuSans-30" d="M 2034 4250 
Q 1547 4250 1301 3770 
Q 1056 3291 1056 2328 
Q 1056 1369 1301 889 
Q 1547 409 2034 409 
Q 2525 409 2770 889 
Q 3016 1369 3016 2328 
Q 3016 3291 2770 3770 
Q 2525 4250 2034 4250 
z
M 2034 4750 
Q 2819 4750 3233 4129 
Q 3647 3509 3647 2328 
Q 3647 1150 3233 529 
Q 2819 -91 2034 -91 
Q 1250 -91 836 529 
Q 422 1150 422 2328 
Q 422 3509 836 4129 
Q 1250 4750 2034 4750 
z
" transform="scale(0.015625)"/>
      <path id="DejaVuSans-36" d="M 2113 2584 
Q 1688 2584 1439 2293 
Q 1191 2003 1191 1497 
Q 1191 994 1439 701 
Q 1688 409 2113 409 
Q 2538 409 2786 701 
Q 3034 994 3034 1497 
Q 3034 2003 2786 2293 
Q 2538 2584 2113 2584 
z
M 3366 4563 
L 3366 3988 
Q 3128 4100 2886 4159 
Q 2644 4219 2406 4219 
Q 1781 4219 1451 3797 
Q 1122 3375 1075 2522 
Q 1259 2794 1537 2939 
Q 1816 3084 2150 3084 
Q 2853 3084 3261 2657 
Q 3669 2231 3669 1497 
Q 3669 778 3244 343 
Q 2819 -91 2113 -91 
Q 1303 -91 875 529 
Q 447 1150 447 2328 
Q 447 3434 972 4092 
Q 1497 4750 2381 4750 
Q 2619 4750 2861 4703 
Q 3103 4656 3366 4563 
z
" transform="scale(0.015625)"/>
      <path id="DejaVuSans-63" d="M 3122 3366 
L 3122 2828 
Q 2878 2963 2633 3030 
Q 2388 3097 2138 3097 
Q 1578 3097 1268 2742 
Q 959 2388 959 1747 
Q 959 1106 1268 751 
Q 1578 397 2138 397 
Q 2388 397 2633 464 
Q 2878 531 3122 666 
L 3122 134 
Q 2881 22 2623 -34 
Q 2366 -91 2075 -91 
Q 1284 -91 818 406 
Q 353 903 353 1747 
Q 353 2603 823 3093 
Q 1294 3584 2113 3584 
Q 2378 3584 2631 3529 
Q 2884 3475 3122 3366 
z
" transform="scale(0.015625)"/>
      <path id="DejaVuSans-29" d="M 513 4856 
L 1013 4856 
Q 1481 4119 1714 3412 
Q 1947 2706 1947 2009 
Q 1947 1309 1714 600 
Q 1481 -109 1013 -844 
L 513 -844 
Q 928 -128 1133 580 
Q 1338 1288 1338 2009 
Q 1338 2731 1133 3434 
Q 928 4138 513 4856 
z
" transform="scale(0.015625)"/>
     </defs>
     <use xlink:href="#DejaVuSans-2022"/>
     <use xlink:href="#DejaVuSans-20" transform="translate(58.984375 0)"/>
     <use xlink:href="#DejaVuSans-54" transform="translate(90.771484 0)"/>
     <use xlink:href="#DejaVuSans-69" transform="translate(148.730469 0)"/>
     <use xlink:href="#DejaVuSans-6d" transform="translate(176.513672 0)"/>
     <use xlink:href="#DejaVuSans-65" transform="translate(273.925781 0)"/>
     <use xlink:href="#DejaVuSans-2d" transform="translate(335.449219 0)"/>
     <use xlink:href="#DejaVuSans-62" transform="translate(371.533203 0)"/>
     <use xlink:href="#DejaVuSans-61" transform="translate(435.009766 0)"/>
     <use xlink:href="#DejaVuSans-73" transform="translate(496.289062 0)"/>
     <use xlink:href="#DejaVuSans-65" transform="translate(548.388672 0)"/>
     <use xlink:href="#DejaVuSans-64" transform="translate(609.912109 0)"/>
     <use xlink:href="#DejaVuSans-20" transform="translate(673.388672 0)"/>
     <use xlink:href="#DejaVuSans-74" transform="translate(705.175781 0)"/>
     <use xlink:href="#DejaVuSans-6f" transform="translate(744.384766 0)"/>
     <use xlink:href="#DejaVuSans-6b" transform="translate(805.566406 0)"/>
     <use xlink:href="#DejaVuSans-65" transform="translate(859.851562 0)"/>
     <use xlink:href="#DejaVuSans-6e" transform="translate(921.375 0)"/>
     <use xlink:href="#DejaVuSans-20" transform="translate(984.753906 0)"/>
     <use xlink:href="#DejaVuSans-76" transform="translate(1016.541016 0)"/>
     <use xlink:href="#DejaVuSans-61" transform="translate(1075.720703 0)"/>
     <use xlink:href="#DejaVuSans-6c" transform="translate(1137 0)"/>
     <use xlink:href="#DejaVuSans-69" transform="translate(1164.783203 0)"/>
     <use xlink:href="#DejaVuSans-64" transform="translate(1192.566406 0)"/>
     <use xlink:href="#DejaVuSans-61" transform="translate(1256.042969 0)"/>
     <use xlink:href="#DejaVuSans-74" transform="translate(1317.322266 0)"/>
     <use xlink:href="#DejaVuSans-69" transform="translate(1356.53125 0)"/>
     <use xlink:href="#DejaVuSans-6f" transform="translate(1384.314453 0)"/>
     <use xlink:href="#DejaVuSans-6e" transform="translate(1445.496094 0)"/>
     <use xlink:href="#DejaVuSans-20" transform="translate(1508.875 0)"/>
     <use xlink:href="#DejaVuSans-28" transform="translate(1540.662109 0)"/>
     <use xlink:href="#DejaVuSans-33" transform="translate(1579.675781 0)"/>
     <use xlink:href="#DejaVuSans-30" transform="translate(1643.298828 0)"/>
     <use xlink:href="#DejaVuSans-2d" transform="translate(1706.921875 0)"/>
     <use xlink:href="#DejaVuSans-36" transform="translate(1743.005859 0)"/>
     <use xlink:href="#DejaVuSans-30" transform="translate(1806.628906 0)"/>
     <use xlink:href="#DejaVuSans-20" transform="translate(1870.251953 0)"/>
     <use xlink:href="#DejaVuSans-73" transform="translate(1902.039062 0)"/>
     <use xlink:href="#DejaVuSans-65" transform="translate(1954.138672 0)"/>
     <use xlink:href="#DejaVuSans-63" transform="translate(2015.662109 0)"/>
     <use xlink:href="#DejaVuSans-6f" transform="translate(2070.642578 0)"/>
     <use xlink:href="#DejaVuSans-6e" transform="translate(2131.824219 0)"/>
     <use xlink:href="#DejaVuSans-64" transform="translate(2195.203125 0)"/>
     <use xlink:href="#DejaVuSans-73" transform="translate(2258.679688 0)"/>
     <use xlink:href="#DejaVuSans-29" transform="translate(2310.779297 0)"/>
    </g>
    <!--  Rate limiting on MFA attempts -->
    <g transform="translate(42.12 428.392687) scale(0.09 -0.09)">
     <defs>
      <path id="DejaVuSans-67" d="M 2906 1791 
Q 2906 2416 2648 2759 
Q 2391 3103 1925 3103 
Q 1463 3103 1205 2759 
Q 947 2416 947 1791 
Q 947 1169 1205 825 
Q 1463 481 1925 481 
Q 2391 481 2648 825 
Q 2906 1169 2906 1791 
z
M 3481 434 
Q 3481 -459 3084 -895 
Q 2688 -1331 1869 -1331 
Q 1566 -1331 1297 -1286 
Q 1028 -1241 775 -1147 
L 775 -588 
Q 1028 -725 1275 -790 
Q 1522 -856 1778 -856 
Q 2344 -856 2625 -561 
Q 2906 -266 2906 331 
L 2906 616 
Q 2728 306 2450 153 
Q 2172 0 1784 0 
Q 1141 0 747 490 
Q 353 981 353 1791 
Q 353 2603 747 3093 
Q 1141 3584 1784 3584 
Q 2172 3584 2450 3431 
Q 2728 3278 2906 2969 
L 2906 3500 
L 3481 3500 
L 3481 434 
z
" transform="scale(0.015625)"/>
      <path id="DejaVuSans-4d" d="M 628 4666 
L 1569 4666 
L 2759 1491 
L 3956 4666 
L 4897 4666 
L 4897 0 
L 4281 0 
L 4281 4097 
L 3078 897 
L 2444 897 
L 1241 4097 
L 1241 0 
L 628 0 
L 628 4666 
z
" transform="scale(0.015625)"/>
      <path id="DejaVuSans-46" d="M 628 4666 
L 3309 4666 
L 3309 4134 
L 1259 4134 
L 1259 2759 
L 3109 2759 
L 3109 2228 
L 1259 2228 
L 1259 0 
L 628 0 
L 628 4666 
z
" transform="scale(0.015625)"/>
      <path id="DejaVuSans-70" d="M 1159 525 
L 1159 -1331 
L 581 -1331 
L 581 3500 
L 1159 3500 
L 1159 2969 
Q 1341 3281 1617 3432 
Q 1894 3584 2278 3584 
Q 2916 3584 3314 3078 
Q 3713 2572 3713 1747 
Q 3713 922 3314 415 
Q 2916 -91 2278 -91 
Q 1894 -91 1617 61 
Q 1341 213 1159 525 
z
M 3116 1747 
Q 3116 2381 2855 2742 
Q 2594 3103 2138 3103 
Q 1681 3103 1420 2742 
Q 1159 2381 1159 1747 
Q 1159 1113 1420 752 
Q 1681 391 2138 391 
Q 2594 391 2855 752 
Q 3116 1113 3116 1747 
z
" transform="scale(0.015625)"/>
     </defs>
     <use xlink:href="#DejaVuSans-2022"/>
     <use xlink:href="#DejaVuSans-20" transform="translate(58.984375 0)"/>
     <use xlink:href="#DejaVuSans-52" transform="translate(90.771484 0)"/>
     <use xlink:href="#DejaVuSans-61" transform="translate(158.003906 0)"/>
     <use xlink:href="#DejaVuSans-74" transform="translate(219.283203 0)"/>
     <use xlink:href="#DejaVuSans-65" transform="translate(258.492188 0)"/>
     <use xlink:href="#DejaVuSans-20" transform="translate(320.015625 0)"/>
     <use xlink:href="#DejaVuSans-6c" transform="translate(351.802734 0)"/>
     <use xlink:href="#DejaVuSans-69" transform="translate(379.585938 0)"/>
     <use xlink:href="#DejaVuSans-6d" transform="translate(407.369141 0)"/>
     <use xlink:href="#DejaVuSans-69" transform="translate(504.78125 0)"/>
     <use xlink:href="#DejaVuSans-74" transform="translate(532.564453 0)"/>
     <use xlink:href="#DejaVuSans-69" transform="translate(571.773438 0)"/>
     <use xlink:href="#DejaVuSans-6e" transform="translate(599.556641 0)"/>
     <use xlink:href="#DejaVuSans-67" transform="translate(662.935547 0)"/>
     <use xlink:href="#DejaVuSans-20" transform="translate(726.412109 0)"/>
     <use xlink:href="#DejaVuSans-6f" transform="translate(758.199219 0)"/>
     <use xlink:href="#DejaVuSans-6e" transform="translate(819.380859 0)"/>
     <use xlink:href="#DejaVuSans-20" transform="translate(882.759766 0)"/>
     <use xlink:href="#DejaVuSans-4d" transform="translate(914.546875 0)"/>
     <use xlink:href="#DejaVuSans-46" transform="translate(1000.826172 0)"/>
     <use xlink:href="#DejaVuSans-41" transform="translate(1049.220703 0)"/>
     <use xlink:href="#DejaVuSans-20" transform="translate(1117.628906 0)"/>
     <use xlink:href="#DejaVuSans-61" transform="translate(1149.416016 0)"/>
     <use xlink:href="#DejaVuSans-74" transform="translate(1210.695312 0)"/>
     <use xlink:href="#DejaVuSans-74" transform="translate(1249.904297 0)"/>
     <use xlink:href="#DejaVuSans-65" transform="translate(1289.113281 0)"/>
     <use xlink:href="#DejaVuSans-6d" transform="translate(1350.636719 0)"/>
     <use xlink:href="#DejaVuSans-70" transform="translate(1448.048828 0)"/>
     <use xlink:href="#DejaVuSans-74" transform="translate(1511.525391 0)"/>
     <use xlink:href="#DejaVuSans-73" transform="translate(1550.734375 0)"/>
    </g>
    <!--  Backup codes for recovery -->
    <g transform="translate(42.12 438.470719) scale(0.09 -0.09)">
     <defs>
      <path id="DejaVuSans-42" d="M 1259 2228 
L 1259 519 
L 2272 519 
Q 2781 519 3026 730 
Q 3272 941 3272 1375 
Q 3272 1813 3026 2020 
Q 2781 2228 2272 2228 
L 1259 2228 
z
M 1259 4147 
L 1259 2741 
L 2194 2741 
Q 2656 2741 2882 2914 
Q 3109 3088 3109 3444 
Q 3109 3797 2882 3972 
Q 2656 4147 2194 4147 
L 1259 4147 
z
M 628 4666 
L 2241 4666 
Q 2963 4666 3353 4366 
Q 3744 4066 3744 3513 
Q 3744 3084 3544 2831 
Q 3344 2578 2956 2516 
Q 3422 2416 3680 2098 
Q 3938 1781 3938 1306 
Q 3938 681 3513 340 
Q 3088 0 2303 0 
L 628 0 
L 628 4666 
z
" transform="scale(0.015625)"/>
      <path id="DejaVuSans-75" d="M 544 1381 
L 544 3500 
L 1119 3500 
L 1119 1403 
Q 1119 906 1312 657 
Q 1506 409 1894 409 
Q 2359 409 2629 706 
Q 2900 1003 2900 1516 
L 2900 3500 
L 3475 3500 
L 3475 0 
L 2900 0 
L 2900 538 
Q 2691 219 2414 64 
Q 2138 -91 1772 -91 
Q 1169 -91 856 284 
Q 544 659 544 1381 
z
M 1991 3584 
L 1991 3584 
z
" transform="scale(0.015625)"/>
      <path id="DejaVuSans-66" d="M 2375 4863 
L 2375 4384 
L 1825 4384 
Q 1516 4384 1395 4259 
Q 1275 4134 1275 3809 
L 1275 3500 
L 2222 3500 
L 2222 3053 
L 1275 3053 
L 1275 0 
L 697 0 
L 697 3053 
L 147 3053 
L 147 3500 
L 697 3500 
L 697 3744 
Q 697 4328 969 4595 
Q 1241 4863 1831 4863 
L 2375 4863 
z
" transform="scale(0.015625)"/>
      <path id="DejaVuSans-72" d="M 2631 2963 
Q 2534 3019 2420 3045 
Q 2306 3072 2169 3072 
Q 1681 3072 1420 2755 
Q 1159 2438 1159 1844 
L 1159 0 
L 581 0 
L 581 3500 
L 1159 3500 
L 1159 2956 
Q 1341 3275 1631 3429 
Q 1922 3584 2338 3584 
Q 2397 3584 2469 3576 
Q 2541 3569 2628 3553 
L 2631 2963 
z
" transform="scale(0.015625)"/>
      <path id="DejaVuSans-79" d="M 2059 -325 
Q 1816 -950 1584 -1140 
Q 1353 -1331 966 -1331 
L 506 -1331 
L 506 -850 
L 844 -850 
Q 1081 -850 1212 -737 
Q 1344 -625 1503 -206 
L 1606 56 
L 191 3500 
L 800 3500 
L 1894 763 
L 2988 3500 
L 3597 3500 
L 2059 -325 
z
" transform="scale(0.015625)"/>
     </defs>
     <use xlink:href="#DejaVuSans-2022"/>
     <use xlink:href="#DejaVuSans-20" transform="translate(58.984375 0)"/>
     <use xlink:href="#DejaVuSans-42" transform="translate(90.771484 0)"/>
     <use xlink:href="#DejaVuSans-61" transform="translate(159.375 0)"/>
     <use xlink:href="#DejaVuSans-63" transform="translate(220.654297 0)"/>
     <use xlink:href="#DejaVuSans-6b" transform="translate(275.634766 0)"/>
     <use xlink:href="#DejaVuSans-75" transform="translate(330.419922 0)"/>
     <use xlink:href="#DejaVuSans-70" transform="translate(393.798828 0)"/>
     <use xlink:href="#DejaVuSans-20" transform="translate(457.275391 0)"/>
     <use xlink:href="#DejaVuSans-63" transform="translate(489.0625 0)"/>
     <use xlink:href="#DejaVuSans-6f" transform="translate(544.042969 0)"/>
     <use xlink:href="#DejaVuSans-64" transform="translate(605.224609 0)"/>
     <use xlink:href="#DejaVuSans-65" transform="translate(668.701172 0)"/>
     <use xlink:href="#DejaVuSans-73" transform="translate(730.224609 0)"/>
     <use xlink:href="#DejaVuSans-20" transform="translate(782.324219 0)"/>
     <use xlink:href="#DejaVuSans-66" transform="translate(814.111328 0)"/>
     <use xlink:href="#DejaVuSans-6f" transform="translate(849.316406 0)"/>
     <use xlink:href="#DejaVuSans-72" transform="translate(910.498047 0)"/>
     <use xlink:href="#DejaVuSans-20" transform="translate(951.611328 0)"/>
     <use xlink:href="#DejaVuSans-72" transform="translate(983.398438 0)"/>
     <use xlink:href="#DejaVuSans-65" transform="translate(1022.261719 0)"/>
     <use xlink:href="#DejaVuSans-63" transform="translate(1083.785156 0)"/>
     <use xlink:href="#DejaVuSans-6f" transform="translate(1138.765625 0)"/>
     <use xlink:href="#DejaVuSans-76" transform="translate(1199.947266 0)"/>
     <use xlink:href="#DejaVuSans-65" transform="translate(1259.126953 0)"/>
     <use xlink:href="#DejaVuSans-72" transform="translate(1320.650391 0)"/>
     <use xlink:href="#DejaVuSans-79" transform="translate(1361.763672 0)"/>
    </g>
    <!--  Audit logging of all attempts -->
    <g transform="translate(42.12 448.54875) scale(0.09 -0.09)">
     <use xlink:href="#DejaVuSans-2022"/>
     <use xlink:href="#DejaVuSans-20" transform="translate(58.984375 0)"/>
     <use xlink:href="#DejaVuSans-41" transform="translate(90.771484 0)"/>
     <use xlink:href="#DejaVuSans-75" transform="translate(159.179688 0)"/>
     <use xlink:href="#DejaVuSans-64" transform="translate(222.558594 0)"/>
     <use xlink:href="#DejaVuSans-69" transform="translate(286.035156 0)"/>
     <use xlink:href="#DejaVuSans-74" transform="translate(313.818359 0)"/>
     <use xlink:href="#DejaVuSans-20" transform="translate(353.027344 0)"/>
     <use xlink:href="#DejaVuSans-6c" transform="translate(384.814453 0)"/>
     <use xlink:href="#DejaVuSans-6f" transform="translate(412.597656 0)"/>
     <use xlink:href="#DejaVuSans-67" transform="translate(473.779297 0)"/>
     <use xlink:href="#DejaVuSans-67" transform="translate(537.255859 0)"/>
     <use xlink:href="#DejaVuSans-69" transform="translate(600.732422 0)"/>
     <use xlink:href="#DejaVuSans-6e" transform="translate(628.515625 0)"/>
     <use xlink:href="#DejaVuSans-67" transform="translate(691.894531 0)"/>
     <use xlink:href="#DejaVuSans-20" transform="translate(755.371094 0)"/>
     <use xlink:href="#DejaVuSans-6f" transform="translate(787.158203 0)"/>
     <use xlink:href="#DejaVuSans-66" transform="translate(848.339844 0)"/>
     <use xlink:href="#DejaVuSans-20" transform="translate(883.544922 0)"/>
     <use xlink:href="#DejaVuSans-61" transform="translate(915.332031 0)"/>
     <use xlink:href="#DejaVuSans-6c" transform="translate(976.611328 0)"/>
     <use xlink:href="#DejaVuSans-6c" transform="translate(1004.394531 0)"/>
     <use xlink:href="#DejaVuSans-20" transform="translate(1032.177734 0)"/>
     <use xlink:href="#DejaVuSans-61" transform="translate(1063.964844 0)"/>
     <use xlink:href="#DejaVuSans-74" transform="translate(1125.244141 0)"/>
     <use xlink:href="#DejaVuSans-74" transform="translate(1164.453125 0)"/>
     <use xlink:href="#DejaVuSans-65" transform="translate(1203.662109 0)"/>
     <use xlink:href="#DejaVuSans-6d" transform="translate(1265.185547 0)"/>
     <use xlink:href="#DejaVuSans-70" transform="translate(1362.597656 0)"/>
     <use xlink:href="#DejaVuSans-74" transform="translate(1426.074219 0)"/>
     <use xlink:href="#DejaVuSans-73" transform="translate(1465.283203 0)"/>
    </g>
    <!--  Account lockout after failures -->
    <g transform="translate(42.12 458.626781) scale(0.09 -0.09)">
     <use xlink:href="#DejaVuSans-2022"/>
     <use xlink:href="#DejaVuSans-20" transform="translate(58.984375 0)"/>
     <use xlink:href="#DejaVuSans-41" transform="translate(90.771484 0)"/>
     <use xlink:href="#DejaVuSans-63" transform="translate(157.429688 0)"/>
     <use xlink:href="#DejaVuSans-63" transform="translate(212.410156 0)"/>
     <use xlink:href="#DejaVuSans-6f" transform="translate(267.390625 0)"/>
     <use xlink:href="#DejaVuSans-75" transform="translate(328.572266 0)"/>
     <use xlink:href="#DejaVuSans-6e" transform="translate(391.951172 0)"/>
     <use xlink:href="#DejaVuSans-74" transform="translate(455.330078 0)"/>
     <use xlink:href="#DejaVuSans-20" transform="translate(494.539062 0)"/>
     <use xlink:href="#DejaVuSans-6c" transform="translate(526.326172 0)"/>
     <use xlink:href="#DejaVuSans-6f" transform="translate(554.109375 0)"/>
     <use xlink:href="#DejaVuSans-63" transform="translate(615.291016 0)"/>
     <use xlink:href="#DejaVuSans-6b" transform="translate(670.271484 0)"/>
     <use xlink:href="#DejaVuSans-6f" transform="translate(724.556641 0)"/>
     <use xlink:href="#DejaVuSans-75" transform="translate(785.738281 0)"/>
     <use xlink:href="#DejaVuSans-74" transform="translate(849.117188 0)"/>
     <use xlink:href="#DejaVuSans-20" transform="translate(888.326172 0)"/>
     <use xlink:href="#DejaVuSans-61" transform="translate(920.113281 0)"/>
     <use xlink:href="#DejaVuSans-66" transform="translate(981.392578 0)"/>
     <use xlink:href="#DejaVuSans-74" transform="translate(1014.847656 0)"/>
     <use xlink:href="#DejaVuSans-65" transform="translate(1054.056641 0)"/>
     <use xlink:href="#DejaVuSans-72" transform="translate(1115.580078 0)"/>
     <use xlink:href="#DejaVuSans-20" transform="translate(1156.693359 0)"/>
     <use xlink:href="#DejaVuSans-66" transform="translate(1188.480469 0)"/>
     <use xlink:href="#DejaVuSans-61" transform="translate(1223.685547 0)"/>
     <use xlink:href="#DejaVuSans-69" transform="translate(1284.964844 0)"/>
     <use xlink:href="#DejaVuSans-6c" transform="translate(1312.748047 0)"/>
     <use xlink:href="#DejaVuSans-75" transform="translate(1340.53125 0)"/>
     <use xlink:href="#DejaVuSans-72" transform="translate(1403.910156 0)"/>
     <use xlink:href="#DejaVuSans-65" transform="translate(1442.773438 0)"/>
     <use xlink:href="#DejaVuSans-73" transform="translate(1504.296875 0)"/>
    </g>
    <!--  Secure token transmission -->
    <g transform="translate(42.12 468.704812) scale(0.09 -0.09)">
     <use xlink:href="#DejaVuSans-2022"/>
     <use xlink:href="#DejaVuSans-20" transform="translate(58.984375 0)"/>
     <use xlink:href="#DejaVuSans-53" transform="translate(90.771484 0)"/>
     <use xlink:href="#DejaVuSans-65" transform="translate(154.248047 0)"/>
     <use xlink:href="#DejaVuSans-63" transform="translate(215.771484 0)"/>
     <use xlink:href="#DejaVuSans-75" transform="translate(270.751953 0)"/>
     <use xlink:href="#DejaVuSans-72" transform="translate(334.130859 0)"/>
     <use xlink:href="#DejaVuSans-65" transform="translate(372.994141 0)"/>
     <use xlink:href="#DejaVuSans-20" transform="translate(434.517578 0)"/>
     <use xlink:href="#DejaVuSans-74" transform="translate(466.304688 0)"/>
     <use xlink:href="#DejaVuSans-6f" transform="translate(505.513672 0)"/>
     <use xlink:href="#DejaVuSans-6b" transform="translate(566.695312 0)"/>
     <use xlink:href="#DejaVuSans-65" transform="translate(620.980469 0)"/>
     <use xlink:href="#DejaVuSans-6e" transform="translate(682.503906 0)"/>
     <use xlink:href="#DejaVuSans-20" transform="translate(745.882812 0)"/>
     <use xlink:href="#DejaVuSans-74" transform="translate(777.669922 0)"/>
     <use xlink:href="#DejaVuSans-72" transform="translate(816.878906 0)"/>
     <use xlink:href="#DejaVuSans-61" transform="translate(857.992188 0)"/>
     <use xlink:href="#DejaVuSans-6e" transform="translate(919.271484 0)"/>
     <use xlink:href="#DejaVuSans-73" transform="translate(982.650391 0)"/>
     <use xlink:href="#DejaVuSans-6d" transform="translate(1034.75 0)"/>
     <use xlink:href="#DejaVuSans-69" transform="translate(1132.162109 0)"/>
     <use xlink:href="#DejaVuSans-73" transform="translate(1159.945312 0)"/>
     <use xlink:href="#DejaVuSans-73" transform="translate(1212.044922 0)"/>
     <use xlink:href="#DejaVuSans-69" transform="translate(1264.144531 0)"/>
     <use xlink:href="#DejaVuSans-6f" transform="translate(1291.927734 0)"/>
     <use xlink:href="#DejaVuSans-6e" transform="translate(1353.109375 0)"/>
    </g>
    <!--  Device registration &amp; trust -->
    <g transform="translate(42.12 478.782844) scale(0.09 -0.09)">
     <defs>
      <path id="DejaVuSans-26" d="M 1556 2509 
Q 1272 2256 1139 2004 
Q 1006 1753 1006 1478 
Q 1006 1022 1337 719 
Q 1669 416 2169 416 
Q 2466 416 2725 514 
Q 2984 613 3213 813 
L 1556 2509 
z
M 1997 2859 
L 3584 1234 
Q 3769 1513 3872 1830 
Q 3975 2147 3994 2503 
L 4575 2503 
Q 4538 2091 4375 1687 
Q 4213 1284 3922 891 
L 4794 0 
L 4006 0 
L 3559 459 
Q 3234 181 2878 45 
Q 2522 -91 2113 -91 
Q 1359 -91 881 339 
Q 403 769 403 1441 
Q 403 1841 612 2192 
Q 822 2544 1241 2853 
Q 1091 3050 1012 3245 
Q 934 3441 934 3628 
Q 934 4134 1281 4442 
Q 1628 4750 2203 4750 
Q 2463 4750 2720 4694 
Q 2978 4638 3244 4525 
L 3244 3956 
Q 2972 4103 2725 4179 
Q 2478 4256 2266 4256 
Q 1938 4256 1733 4082 
Q 1528 3909 1528 3634 
Q 1528 3475 1620 3314 
Q 1713 3153 1997 2859 
z
" transform="scale(0.015625)"/>
     </defs>
     <use xlink:href="#DejaVuSans-2022"/>
     <use xlink:href="#DejaVuSans-20" transform="translate(58.984375 0)"/>
     <use xlink:href="#DejaVuSans-44" transform="translate(90.771484 0)"/>
     <use xlink:href="#DejaVuSans-65" transform="translate(167.773438 0)"/>
     <use xlink:href="#DejaVuSans-76" transform="translate(229.296875 0)"/>
     <use xlink:href="#DejaVuSans-69" transform="translate(288.476562 0)"/>
     <use xlink:href="#DejaVuSans-63" transform="translate(316.259766 0)"/>
     <use xlink:href="#DejaVuSans-65" transform="translate(371.240234 0)"/>
     <use xlink:href="#DejaVuSans-20" transform="translate(432.763672 0)"/>
     <use xlink:href="#DejaVuSans-72" transform="translate(464.550781 0)"/>
     <use xlink:href="#DejaVuSans-65" transform="translate(503.414062 0)"/>
     <use xlink:href="#DejaVuSans-67" transform="translate(564.9375 0)"/>
     <use xlink:href="#DejaVuSans-69" transform="translate(628.414062 0)"/>
     <use xlink:href="#DejaVuSans-73" transform="translate(656.197266 0)"/>
     <use xlink:href="#DejaVuSans-74" transform="translate(708.296875 0)"/>
     <use xlink:href="#DejaVuSans-72" transform="translate(747.505859 0)"/>
     <use xlink:href="#DejaVuSans-61" transform="translate(788.619141 0)"/>
     <use xlink:href="#DejaVuSans-74" transform="translate(849.898438 0)"/>
     <use xlink:href="#DejaVuSans-69" transform="translate(889.107422 0)"/>
     <use xlink:href="#DejaVuSans-6f" transform="translate(916.890625 0)"/>
     <use xlink:href="#DejaVuSans-6e" transform="translate(978.072266 0)"/>
     <use xlink:href="#DejaVuSans-20" transform="translate(1041.451172 0)"/>
     <use xlink:href="#DejaVuSans-26" transform="translate(1073.238281 0)"/>
     <use xlink:href="#DejaVuSans-20" transform="translate(1151.216797 0)"/>
     <use xlink:href="#DejaVuSans-74" transform="translate(1183.003906 0)"/>
     <use xlink:href="#DejaVuSans-72" transform="translate(1222.212891 0)"/>
     <use xlink:href="#DejaVuSans-75" transform="translate(1263.326172 0)"/>
     <use xlink:href="#DejaVuSans-73" transform="translate(1326.705078 0)"/>
     <use xlink:href="#DejaVuSans-74" transform="translate(1378.804688 0)"/>
    </g>
    <!--  Emergency access procedures -->
    <g transform="translate(42.12 488.860875) scale(0.09 -0.09)">
     <use xlink:href="#DejaVuSans-2022"/>
     <use xlink:href="#DejaVuSans-20" transform="translate(58.984375 0)"/>
     <use xlink:href="#DejaVuSans-45" transform="translate(90.771484 0)"/>
     <use xlink:href="#DejaVuSans-6d" transform="translate(153.955078 0)"/>
     <use xlink:href="#DejaVuSans-65" transform="translate(251.367188 0)"/>
     <use xlink:href="#DejaVuSans-72" transform="translate(312.890625 0)"/>
     <use xlink:href="#DejaVuSans-67" transform="translate(352.253906 0)"/>
     <use xlink:href="#DejaVuSans-65" transform="translate(415.730469 0)"/>
     <use xlink:href="#DejaVuSans-6e" transform="translate(477.253906 0)"/>
     <use xlink:href="#DejaVuSans-63" transform="translate(540.632812 0)"/>
     <use xlink:href="#DejaVuSans-79" transform="translate(595.613281 0)"/>
     <use xlink:href="#DejaVuSans-20" transform="translate(654.792969 0)"/>
     <use xlink:href="#DejaVuSans-61" transform="translate(686.580078 0)"/>
     <use xlink:href="#DejaVuSans-63" transform="translate(747.859375 0)"/>
     <use xlink:href="#DejaVuSans-63" transform="translate(802.839844 0)"/>
     <use xlink:href="#DejaVuSans-65" transform="translate(857.820312 0)"/>
     <use xlink:href="#DejaVuSans-73" transform="translate(919.34375 0)"/>
     <use xlink:href="#DejaVuSans-73" transform="translate(971.443359 0)"/>
     <use xlink:href="#DejaVuSans-20" transform="translate(1023.542969 0)"/>
     <use xlink:href="#DejaVuSans-70" transform="translate(1055.330078 0)"/>
     <use xlink:href="#DejaVuSans-72" transform="translate(1118.806641 0)"/>
     <use xlink:href="#DejaVuSans-6f" transform="translate(1157.669922 0)"/>
     <use xlink:href="#DejaVuSans-63" transform="translate(1218.851562 0)"/>
     <use xlink:href="#DejaVuSans-65" transform="translate(1273.832031 0)"/>
     <use xlink:href="#DejaVuSans-64" transform="translate(1335.355469 0)"/>
     <use xlink:href="#DejaVuSans-75" transform="translate(1398.832031 0)"/>
     <use xlink:href="#DejaVuSans-72" transform="translate(1462.210938 0)"/>
     <use xlink:href="#DejaVuSans-65" transform="translate(1501.074219 0)"/>
     <use xlink:href="#DejaVuSans-73" transform="translate(1562.597656 0)"/>
    </g>
   </g>
  </g>
 </g>
 <defs>
  <clipPath id="p44145093f0">
   <rect x="7.2" y="7.2" width="1117.44" height="698.4"/>
  </clipPath>
 </defs>
</svg>
