<?xml version="1.0" encoding="utf-8" standalone="no"?>
<!DOCTYPE svg PUBLIC "-//W3C//DTD SVG 1.1//EN"
  "http://www.w3.org/Graphics/SVG/1.1/DTD/svg11.dtd">
<svg xmlns:xlink="http://www.w3.org/1999/xlink" width="1137.6pt" height="856.8pt" viewBox="0 0 1137.6 856.8" xmlns="http://www.w3.org/2000/svg" version="1.1">
 <metadata>
  <rdf:RDF xmlns:dc="http://purl.org/dc/elements/1.1/" xmlns:cc="http://creativecommons.org/ns#" xmlns:rdf="http://www.w3.org/1999/02/22-rdf-syntax-ns#">
   <cc:Work>
    <dc:type rdf:resource="http://purl.org/dc/dcmitype/StillImage"/>
    <dc:date>2025-09-29T18:39:33.297184</dc:date>
    <dc:format>image/svg+xml</dc:format>
    <dc:creator>
     <cc:Agent>
      <dc:title>Matplotlib v3.10.6, https://matplotlib.org/</dc:title>
     </cc:Agent>
    </dc:creator>
   </cc:Work>
  </rdf:RDF>
 </metadata>
 <defs>
  <style type="text/css">*{stroke-linejoin: round; stroke-linecap: butt}</style>
 </defs>
 <g id="figure_1">
  <g id="patch_1">
   <path d="M 0 856.8 
L 1137.6 856.8 
L 1137.6 0 
L 0 0 
z
" style="fill: #ffffff"/>
  </g>
  <g id="axes_1">
   <g id="patch_2">
    <path d="M 105.48 217.8 
L 189.72 217.8 
Q 196.74 217.8 196.74 210.78 
L 196.74 154.62 
Q 196.74 147.6 189.72 147.6 
L 105.48 147.6 
Q 98.46 147.6 98.46 154.62 
L 98.46 210.78 
Q 98.46 217.8 105.48 217.8 
z
" clip-path="url(#pa9e14b5dc5)" style="fill: #ff6b6b; stroke: #000000; stroke-width: 2; stroke-linejoin: miter"/>
   </g>
   <g id="patch_3">
    <path d="M 295.02 231.84 
L 421.38 231.84 
Q 428.4 231.84 428.4 224.82 
L 428.4 140.58 
Q 428.4 133.56 421.38 133.56 
L 295.02 133.56 
Q 288 133.56 288 140.58 
L 288 224.82 
Q 288 231.84 295.02 231.84 
z
" clip-path="url(#pa9e14b5dc5)" style="fill: #4ecdc4; stroke: #000000; stroke-width: 2; stroke-linejoin: miter"/>
   </g>
   <g id="patch_4">
    <path d="M 484.56 245.88 
L 653.04 245.88 
Q 660.06 245.88 660.06 238.86 
L 660.06 126.54 
Q 660.06 119.52 653.04 119.52 
L 484.56 119.52 
Q 477.54 119.52 477.54 126.54 
L 477.54 238.86 
Q 477.54 245.88 484.56 245.88 
z
" clip-path="url(#pa9e14b5dc5)" style="fill: #45b7d1; stroke: #000000; stroke-width: 2; stroke-linejoin: miter"/>
   </g>
   <g id="patch_5">
    <path d="M 674.1 259.92 
L 884.7 259.92 
Q 891.72 259.92 891.72 252.9 
L 891.72 112.5 
Q 891.72 105.48 884.7 105.48 
L 674.1 105.48 
Q 667.08 105.48 667.08 112.5 
L 667.08 252.9 
Q 667.08 259.92 674.1 259.92 
z
" clip-path="url(#pa9e14b5dc5)" style="fill: #96ceb4; stroke: #000000; stroke-width: 2; stroke-linejoin: miter"/>
   </g>
   <g id="patch_6">
    <path d="M 161.64 393.3 
L 273.96 393.3 
Q 280.98 393.3 280.98 386.28 
L 280.98 330.12 
Q 280.98 323.1 273.96 323.1 
L 161.64 323.1 
Q 154.62 323.1 154.62 330.12 
L 154.62 386.28 
Q 154.62 393.3 161.64 393.3 
z
" clip-path="url(#pa9e14b5dc5)" style="fill: #61dafb; stroke: #000000; stroke-width: 2; stroke-linejoin: miter"/>
   </g>
   <g id="patch_7">
    <path d="M 512.64 393.3 
L 624.96 393.3 
Q 631.98 393.3 631.98 386.28 
L 631.98 330.12 
Q 631.98 323.1 624.96 323.1 
L 512.64 323.1 
Q 505.62 323.1 505.62 330.12 
L 505.62 386.28 
Q 505.62 393.3 512.64 393.3 
z
" clip-path="url(#pa9e14b5dc5)" style="fill: #61dafb; stroke: #000000; stroke-width: 2; stroke-linejoin: miter"/>
   </g>
   <g id="patch_8">
    <path d="M 863.64 393.3 
L 975.96 393.3 
Q 982.98 393.3 982.98 386.28 
L 982.98 330.12 
Q 982.98 323.1 975.96 323.1 
L 863.64 323.1 
Q 856.62 323.1 856.62 330.12 
L 856.62 386.28 
Q 856.62 393.3 863.64 393.3 
z
" clip-path="url(#pa9e14b5dc5)" style="fill: #61dafb; stroke: #000000; stroke-width: 2; stroke-linejoin: miter"/>
   </g>
   <g id="patch_9">
    <path d="M 98.46 488.07 
L 196.74 488.07 
Q 200.25 488.07 200.25 484.56 
L 200.25 442.44 
Q 200.25 438.93 196.74 438.93 
L 98.46 438.93 
Q 94.95 438.93 94.95 442.44 
L 94.95 484.56 
Q 94.95 488.07 98.46 488.07 
z
" clip-path="url(#pa9e14b5dc5)" style="fill: #ffd93d; stroke: #000000; stroke-linejoin: miter"/>
   </g>
   <g id="patch_10">
    <path d="M 309.06 488.07 
L 407.34 488.07 
Q 410.85 488.07 410.85 484.56 
L 410.85 442.44 
Q 410.85 438.93 407.34 438.93 
L 309.06 438.93 
Q 305.55 438.93 305.55 442.44 
L 305.55 484.56 
Q 305.55 488.07 309.06 488.07 
z
" clip-path="url(#pa9e14b5dc5)" style="fill: #ffd93d; stroke: #000000; stroke-linejoin: miter"/>
   </g>
   <g id="patch_11">
    <path d="M 519.66 488.07 
L 617.94 488.07 
Q 621.45 488.07 621.45 484.56 
L 621.45 442.44 
Q 621.45 438.93 617.94 438.93 
L 519.66 438.93 
Q 516.15 438.93 516.15 442.44 
L 516.15 484.56 
Q 516.15 488.07 519.66 488.07 
z
" clip-path="url(#pa9e14b5dc5)" style="fill: #ffd93d; stroke: #000000; stroke-linejoin: miter"/>
   </g>
   <g id="patch_12">
    <path d="M 730.26 488.07 
L 828.54 488.07 
Q 832.05 488.07 832.05 484.56 
L 832.05 442.44 
Q 832.05 438.93 828.54 438.93 
L 730.26 438.93 
Q 726.75 438.93 726.75 442.44 
L 726.75 484.56 
Q 726.75 488.07 730.26 488.07 
z
" clip-path="url(#pa9e14b5dc5)" style="fill: #ffd93d; stroke: #000000; stroke-linejoin: miter"/>
   </g>
   <g id="patch_13">
    <path d="M 940.86 488.07 
L 1039.14 488.07 
Q 1042.65 488.07 1042.65 484.56 
L 1042.65 442.44 
Q 1042.65 438.93 1039.14 438.93 
L 940.86 438.93 
Q 937.35 438.93 937.35 442.44 
L 937.35 484.56 
Q 937.35 488.07 940.86 488.07 
z
" clip-path="url(#pa9e14b5dc5)" style="fill: #ffd93d; stroke: #000000; stroke-linejoin: miter"/>
   </g>
   <g id="patch_14">
    <path d="M 49.32 584.244 
L 105.48 584.244 
Q 106.884 584.244 106.884 582.84 
L 106.884 554.76 
Q 106.884 553.356 105.48 553.356 
L 49.32 553.356 
Q 47.916 553.356 47.916 554.76 
L 47.916 582.84 
Q 47.916 584.244 49.32 584.244 
z
" clip-path="url(#pa9e14b5dc5)" style="fill: #a8e6cf; stroke: #000000; stroke-linejoin: miter"/>
   </g>
   <g id="patch_15">
    <path d="M 189.72 584.244 
L 245.88 584.244 
Q 247.284 584.244 247.284 582.84 
L 247.284 554.76 
Q 247.284 553.356 245.88 553.356 
L 189.72 553.356 
Q 188.316 553.356 188.316 554.76 
L 188.316 582.84 
Q 188.316 584.244 189.72 584.244 
z
" clip-path="url(#pa9e14b5dc5)" style="fill: #a8e6cf; stroke: #000000; stroke-linejoin: miter"/>
   </g>
   <g id="patch_16">
    <path d="M 330.12 584.244 
L 386.28 584.244 
Q 387.684 584.244 387.684 582.84 
L 387.684 554.76 
Q 387.684 553.356 386.28 553.356 
L 330.12 553.356 
Q 328.716 553.356 328.716 554.76 
L 328.716 582.84 
Q 328.716 584.244 330.12 584.244 
z
" clip-path="url(#pa9e14b5dc5)" style="fill: #a8e6cf; stroke: #000000; stroke-linejoin: miter"/>
   </g>
   <g id="patch_17">
    <path d="M 470.52 584.244 
L 526.68 584.244 
Q 528.084 584.244 528.084 582.84 
L 528.084 554.76 
Q 528.084 553.356 526.68 553.356 
L 470.52 553.356 
Q 469.116 553.356 469.116 554.76 
L 469.116 582.84 
Q 469.116 584.244 470.52 584.244 
z
" clip-path="url(#pa9e14b5dc5)" style="fill: #a8e6cf; stroke: #000000; stroke-linejoin: miter"/>
   </g>
   <g id="patch_18">
    <path d="M 610.92 584.244 
L 667.08 584.244 
Q 668.484 584.244 668.484 582.84 
L 668.484 554.76 
Q 668.484 553.356 667.08 553.356 
L 610.92 553.356 
Q 609.516 553.356 609.516 554.76 
L 609.516 582.84 
Q 609.516 584.244 610.92 584.244 
z
" clip-path="url(#pa9e14b5dc5)" style="fill: #a8e6cf; stroke: #000000; stroke-linejoin: miter"/>
   </g>
   <g id="patch_19">
    <path d="M 751.32 584.244 
L 807.48 584.244 
Q 808.884 584.244 808.884 582.84 
L 808.884 554.76 
Q 808.884 553.356 807.48 553.356 
L 751.32 553.356 
Q 749.916 553.356 749.916 554.76 
L 749.916 582.84 
Q 749.916 584.244 751.32 584.244 
z
" clip-path="url(#pa9e14b5dc5)" style="fill: #a8e6cf; stroke: #000000; stroke-linejoin: miter"/>
   </g>
   <g id="patch_20">
    <path d="M 891.72 584.244 
L 947.88 584.244 
Q 949.284 584.244 949.284 582.84 
L 949.284 554.76 
Q 949.284 553.356 947.88 553.356 
L 891.72 553.356 
Q 890.316 553.356 890.316 554.76 
L 890.316 582.84 
Q 890.316 584.244 891.72 584.244 
z
" clip-path="url(#pa9e14b5dc5)" style="fill: #a8e6cf; stroke: #000000; stroke-linejoin: miter"/>
   </g>
   <g id="patch_21">
    <path d="M 1032.12 584.244 
L 1088.28 584.244 
Q 1089.684 584.244 1089.684 582.84 
L 1089.684 554.76 
Q 1089.684 553.356 1088.28 553.356 
L 1032.12 553.356 
Q 1030.716 553.356 1030.716 554.76 
L 1030.716 582.84 
Q 1030.716 584.244 1032.12 584.244 
z
" clip-path="url(#pa9e14b5dc5)" style="fill: #a8e6cf; stroke: #000000; stroke-linejoin: miter"/>
   </g>
   <g id="patch_22">
    <path d="M 161.64 733.77 
L 273.96 733.77 
Q 277.47 733.77 277.47 730.26 
L 277.47 688.14 
Q 277.47 684.63 273.96 684.63 
L 161.64 684.63 
Q 158.13 684.63 158.13 688.14 
L 158.13 730.26 
Q 158.13 733.77 161.64 733.77 
z
" clip-path="url(#pa9e14b5dc5)" style="fill: #ff4154; stroke: #000000; stroke-linejoin: miter"/>
   </g>
   <g id="patch_23">
    <path d="M 372.24 733.77 
L 484.56 733.77 
Q 488.07 733.77 488.07 730.26 
L 488.07 688.14 
Q 488.07 684.63 484.56 684.63 
L 372.24 684.63 
Q 368.73 684.63 368.73 688.14 
L 368.73 730.26 
Q 368.73 733.77 372.24 733.77 
z
" clip-path="url(#pa9e14b5dc5)" style="fill: #61dafb; stroke: #000000; stroke-linejoin: miter"/>
   </g>
   <g id="patch_24">
    <path d="M 582.84 733.77 
L 695.16 733.77 
Q 698.67 733.77 698.67 730.26 
L 698.67 688.14 
Q 698.67 684.63 695.16 684.63 
L 582.84 684.63 
Q 579.33 684.63 579.33 688.14 
L 579.33 730.26 
Q 579.33 733.77 582.84 733.77 
z
" clip-path="url(#pa9e14b5dc5)" style="fill: #ec4899; stroke: #000000; stroke-linejoin: miter"/>
   </g>
   <g id="patch_25">
    <path d="M 793.44 733.77 
L 905.76 733.77 
Q 909.27 733.77 909.27 730.26 
L 909.27 688.14 
Q 909.27 684.63 905.76 684.63 
L 793.44 684.63 
Q 789.93 684.63 789.93 688.14 
L 789.93 730.26 
Q 789.93 733.77 793.44 733.77 
z
" clip-path="url(#pa9e14b5dc5)" style="fill: #8b5cf6; stroke: #000000; stroke-linejoin: miter"/>
   </g>
   <g id="patch_26">
    <path d="M 147.6 821.52 
L 990 821.52 
Q 997.02 821.52 997.02 814.5 
L 997.02 758.34 
Q 997.02 751.32 990 751.32 
L 147.6 751.32 
Q 140.58 751.32 140.58 758.34 
L 140.58 814.5 
Q 140.58 821.52 147.6 821.52 
z
" clip-path="url(#pa9e14b5dc5)" style="fill: #f08080; stroke: #000000; stroke-width: 2; stroke-linejoin: miter"/>
   </g>
   <g id="text_1">
    <!-- Web Applications Component Architecture &amp; Responsive Design -->
    <g transform="translate(279.47125 42.3) scale(0.16 -0.16)">
     <defs>
      <path id="DejaVuSans-Bold-57" d="M 191 4666 
L 1344 4666 
L 2150 1275 
L 2950 4666 
L 4109 4666 
L 4909 1275 
L 5716 4666 
L 6859 4666 
L 5759 0 
L 4372 0 
L 3525 3547 
L 2688 0 
L 1300 0 
L 191 4666 
z
" transform="scale(0.015625)"/>
      <path id="DejaVuSans-Bold-65" d="M 4031 1759 
L 4031 1441 
L 1416 1441 
Q 1456 1047 1700 850 
Q 1944 653 2381 653 
Q 2734 653 3104 758 
Q 3475 863 3866 1075 
L 3866 213 
Q 3469 63 3072 -14 
Q 2675 -91 2278 -91 
Q 1328 -91 801 392 
Q 275 875 275 1747 
Q 275 2603 792 3093 
Q 1309 3584 2216 3584 
Q 3041 3584 3536 3087 
Q 4031 2591 4031 1759 
z
M 2881 2131 
Q 2881 2450 2695 2645 
Q 2509 2841 2209 2841 
Q 1884 2841 1681 2658 
Q 1478 2475 1428 2131 
L 2881 2131 
z
" transform="scale(0.015625)"/>
      <path id="DejaVuSans-Bold-62" d="M 2400 722 
Q 2759 722 2948 984 
Q 3138 1247 3138 1747 
Q 3138 2247 2948 2509 
Q 2759 2772 2400 2772 
Q 2041 2772 1848 2508 
Q 1656 2244 1656 1747 
Q 1656 1250 1848 986 
Q 2041 722 2400 722 
z
M 1656 2988 
Q 1888 3294 2169 3439 
Q 2450 3584 2816 3584 
Q 3463 3584 3878 3070 
Q 4294 2556 4294 1747 
Q 4294 938 3878 423 
Q 3463 -91 2816 -91 
Q 2450 -91 2169 54 
Q 1888 200 1656 506 
L 1656 0 
L 538 0 
L 538 4863 
L 1656 4863 
L 1656 2988 
z
" transform="scale(0.015625)"/>
      <path id="DejaVuSans-Bold-20" transform="scale(0.015625)"/>
      <path id="DejaVuSans-Bold-41" d="M 3419 850 
L 1538 850 
L 1241 0 
L 31 0 
L 1759 4666 
L 3194 4666 
L 4922 0 
L 3713 0 
L 3419 850 
z
M 1838 1716 
L 3116 1716 
L 2478 3572 
L 1838 1716 
z
" transform="scale(0.015625)"/>
      <path id="DejaVuSans-Bold-70" d="M 1656 506 
L 1656 -1331 
L 538 -1331 
L 538 3500 
L 1656 3500 
L 1656 2988 
Q 1888 3294 2169 3439 
Q 2450 3584 2816 3584 
Q 3463 3584 3878 3070 
Q 4294 2556 4294 1747 
Q 4294 938 3878 423 
Q 3463 -91 2816 -91 
Q 2450 -91 2169 54 
Q 1888 200 1656 506 
z
M 2400 2772 
Q 2041 2772 1848 2508 
Q 1656 2244 1656 1747 
Q 1656 1250 1848 986 
Q 2041 722 2400 722 
Q 2759 722 2948 984 
Q 3138 1247 3138 1747 
Q 3138 2247 2948 2509 
Q 2759 2772 2400 2772 
z
" transform="scale(0.015625)"/>
      <path id="DejaVuSans-Bold-6c" d="M 538 4863 
L 1656 4863 
L 1656 0 
L 538 0 
L 538 4863 
z
" transform="scale(0.015625)"/>
      <path id="DejaVuSans-Bold-69" d="M 538 3500 
L 1656 3500 
L 1656 0 
L 538 0 
L 538 3500 
z
M 538 4863 
L 1656 4863 
L 1656 3950 
L 538 3950 
L 538 4863 
z
" transform="scale(0.015625)"/>
      <path id="DejaVuSans-Bold-63" d="M 3366 3391 
L 3366 2478 
Q 3138 2634 2908 2709 
Q 2678 2784 2431 2784 
Q 1963 2784 1702 2511 
Q 1441 2238 1441 1747 
Q 1441 1256 1702 982 
Q 1963 709 2431 709 
Q 2694 709 2930 787 
Q 3166 866 3366 1019 
L 3366 103 
Q 3103 6 2833 -42 
Q 2563 -91 2291 -91 
Q 1344 -91 809 395 
Q 275 881 275 1747 
Q 275 2613 809 3098 
Q 1344 3584 2291 3584 
Q 2566 3584 2833 3536 
Q 3100 3488 3366 3391 
z
" transform="scale(0.015625)"/>
      <path id="DejaVuSans-Bold-61" d="M 2106 1575 
Q 1756 1575 1579 1456 
Q 1403 1338 1403 1106 
Q 1403 894 1545 773 
Q 1688 653 1941 653 
Q 2256 653 2472 879 
Q 2688 1106 2688 1447 
L 2688 1575 
L 2106 1575 
z
M 3816 1997 
L 3816 0 
L 2688 0 
L 2688 519 
Q 2463 200 2181 54 
Q 1900 -91 1497 -91 
Q 953 -91 614 226 
Q 275 544 275 1050 
Q 275 1666 698 1953 
Q 1122 2241 2028 2241 
L 2688 2241 
L 2688 2328 
Q 2688 2594 2478 2717 
Q 2269 2841 1825 2841 
Q 1466 2841 1156 2769 
Q 847 2697 581 2553 
L 581 3406 
Q 941 3494 1303 3539 
Q 1666 3584 2028 3584 
Q 2975 3584 3395 3211 
Q 3816 2838 3816 1997 
z
" transform="scale(0.015625)"/>
      <path id="DejaVuSans-Bold-74" d="M 1759 4494 
L 1759 3500 
L 2913 3500 
L 2913 2700 
L 1759 2700 
L 1759 1216 
Q 1759 972 1856 886 
Q 1953 800 2241 800 
L 2816 800 
L 2816 0 
L 1856 0 
Q 1194 0 917 276 
Q 641 553 641 1216 
L 641 2700 
L 84 2700 
L 84 3500 
L 641 3500 
L 641 4494 
L 1759 4494 
z
" transform="scale(0.015625)"/>
      <path id="DejaVuSans-Bold-6f" d="M 2203 2784 
Q 1831 2784 1636 2517 
Q 1441 2250 1441 1747 
Q 1441 1244 1636 976 
Q 1831 709 2203 709 
Q 2569 709 2762 976 
Q 2956 1244 2956 1747 
Q 2956 2250 2762 2517 
Q 2569 2784 2203 2784 
z
M 2203 3584 
Q 3106 3584 3614 3096 
Q 4122 2609 4122 1747 
Q 4122 884 3614 396 
Q 3106 -91 2203 -91 
Q 1297 -91 786 396 
Q 275 884 275 1747 
Q 275 2609 786 3096 
Q 1297 3584 2203 3584 
z
" transform="scale(0.015625)"/>
      <path id="DejaVuSans-Bold-6e" d="M 4056 2131 
L 4056 0 
L 2931 0 
L 2931 347 
L 2931 1631 
Q 2931 2084 2911 2256 
Q 2891 2428 2841 2509 
Q 2775 2619 2662 2680 
Q 2550 2741 2406 2741 
Q 2056 2741 1856 2470 
Q 1656 2200 1656 1722 
L 1656 0 
L 538 0 
L 538 3500 
L 1656 3500 
L 1656 2988 
Q 1909 3294 2193 3439 
Q 2478 3584 2822 3584 
Q 3428 3584 3742 3212 
Q 4056 2841 4056 2131 
z
" transform="scale(0.015625)"/>
      <path id="DejaVuSans-Bold-73" d="M 3272 3391 
L 3272 2541 
Q 2913 2691 2578 2766 
Q 2244 2841 1947 2841 
Q 1628 2841 1473 2761 
Q 1319 2681 1319 2516 
Q 1319 2381 1436 2309 
Q 1553 2238 1856 2203 
L 2053 2175 
Q 2913 2066 3209 1816 
Q 3506 1566 3506 1031 
Q 3506 472 3093 190 
Q 2681 -91 1863 -91 
Q 1516 -91 1145 -36 
Q 775 19 384 128 
L 384 978 
Q 719 816 1070 734 
Q 1422 653 1784 653 
Q 2113 653 2278 743 
Q 2444 834 2444 1013 
Q 2444 1163 2330 1236 
Q 2216 1309 1875 1350 
L 1678 1375 
Q 931 1469 631 1722 
Q 331 1975 331 2491 
Q 331 3047 712 3315 
Q 1094 3584 1881 3584 
Q 2191 3584 2531 3537 
Q 2872 3491 3272 3391 
z
" transform="scale(0.015625)"/>
      <path id="DejaVuSans-Bold-43" d="M 4288 256 
Q 3956 84 3597 -3 
Q 3238 -91 2847 -91 
Q 1681 -91 1000 561 
Q 319 1213 319 2328 
Q 319 3447 1000 4098 
Q 1681 4750 2847 4750 
Q 3238 4750 3597 4662 
Q 3956 4575 4288 4403 
L 4288 3438 
Q 3953 3666 3628 3772 
Q 3303 3878 2944 3878 
Q 2300 3878 1931 3465 
Q 1563 3053 1563 2328 
Q 1563 1606 1931 1193 
Q 2300 781 2944 781 
Q 3303 781 3628 887 
Q 3953 994 4288 1222 
L 4288 256 
z
" transform="scale(0.015625)"/>
      <path id="DejaVuSans-Bold-6d" d="M 3781 2919 
Q 3994 3244 4286 3414 
Q 4578 3584 4928 3584 
Q 5531 3584 5847 3212 
Q 6163 2841 6163 2131 
L 6163 0 
L 5038 0 
L 5038 1825 
Q 5041 1866 5042 1909 
Q 5044 1953 5044 2034 
Q 5044 2406 4934 2573 
Q 4825 2741 4581 2741 
Q 4263 2741 4089 2478 
Q 3916 2216 3909 1719 
L 3909 0 
L 2784 0 
L 2784 1825 
Q 2784 2406 2684 2573 
Q 2584 2741 2328 2741 
Q 2006 2741 1831 2477 
Q 1656 2213 1656 1722 
L 1656 0 
L 531 0 
L 531 3500 
L 1656 3500 
L 1656 2988 
Q 1863 3284 2130 3434 
Q 2397 3584 2719 3584 
Q 3081 3584 3359 3409 
Q 3638 3234 3781 2919 
z
" transform="scale(0.015625)"/>
      <path id="DejaVuSans-Bold-72" d="M 3138 2547 
Q 2991 2616 2845 2648 
Q 2700 2681 2553 2681 
Q 2122 2681 1889 2404 
Q 1656 2128 1656 1613 
L 1656 0 
L 538 0 
L 538 3500 
L 1656 3500 
L 1656 2925 
Q 1872 3269 2151 3426 
Q 2431 3584 2822 3584 
Q 2878 3584 2943 3579 
Q 3009 3575 3134 3559 
L 3138 2547 
z
" transform="scale(0.015625)"/>
      <path id="DejaVuSans-Bold-68" d="M 4056 2131 
L 4056 0 
L 2931 0 
L 2931 347 
L 2931 1625 
Q 2931 2084 2911 2256 
Q 2891 2428 2841 2509 
Q 2775 2619 2662 2680 
Q 2550 2741 2406 2741 
Q 2056 2741 1856 2470 
Q 1656 2200 1656 1722 
L 1656 0 
L 538 0 
L 538 4863 
L 1656 4863 
L 1656 2988 
Q 1909 3294 2193 3439 
Q 2478 3584 2822 3584 
Q 3428 3584 3742 3212 
Q 4056 2841 4056 2131 
z
" transform="scale(0.015625)"/>
      <path id="DejaVuSans-Bold-75" d="M 500 1363 
L 500 3500 
L 1625 3500 
L 1625 3150 
Q 1625 2866 1622 2436 
Q 1619 2006 1619 1863 
Q 1619 1441 1641 1255 
Q 1663 1069 1716 984 
Q 1784 875 1895 815 
Q 2006 756 2150 756 
Q 2500 756 2700 1025 
Q 2900 1294 2900 1772 
L 2900 3500 
L 4019 3500 
L 4019 0 
L 2900 0 
L 2900 506 
Q 2647 200 2364 54 
Q 2081 -91 1741 -91 
Q 1134 -91 817 281 
Q 500 653 500 1363 
z
" transform="scale(0.015625)"/>
      <path id="DejaVuSans-Bold-26" d="M 2497 3097 
L 3775 1691 
Q 3941 1909 4027 2181 
Q 4113 2453 4128 2797 
L 5100 2797 
Q 5053 2228 4879 1784 
Q 4706 1341 4397 1006 
L 5313 0 
L 3988 0 
L 3681 341 
Q 3353 122 2990 15 
Q 2628 -91 2222 -91 
Q 1400 -91 892 342 
Q 384 775 384 1459 
Q 384 1916 607 2267 
Q 831 2619 1338 2950 
Q 1206 3116 1143 3281 
Q 1081 3447 1081 3628 
Q 1081 4138 1478 4444 
Q 1875 4750 2534 4750 
Q 2819 4750 3126 4704 
Q 3434 4659 3769 4569 
L 3769 3700 
Q 3475 3850 3212 3922 
Q 2950 3994 2700 3994 
Q 2459 3994 2326 3901 
Q 2194 3809 2194 3641 
Q 2194 3534 2270 3398 
Q 2347 3263 2497 3097 
z
M 1875 2322 
Q 1672 2175 1569 1989 
Q 1466 1803 1466 1581 
Q 1466 1222 1731 969 
Q 1997 716 2369 716 
Q 2578 716 2759 780 
Q 2941 844 3097 972 
L 1875 2322 
z
" transform="scale(0.015625)"/>
      <path id="DejaVuSans-Bold-52" d="M 2297 2597 
Q 2675 2597 2839 2737 
Q 3003 2878 3003 3200 
Q 3003 3519 2839 3656 
Q 2675 3794 2297 3794 
L 1791 3794 
L 1791 2597 
L 2297 2597 
z
M 1791 1766 
L 1791 0 
L 588 0 
L 588 4666 
L 2425 4666 
Q 3347 4666 3776 4356 
Q 4206 4047 4206 3378 
Q 4206 2916 3982 2619 
Q 3759 2322 3309 2181 
Q 3556 2125 3751 1926 
Q 3947 1728 4147 1325 
L 4800 0 
L 3519 0 
L 2950 1159 
Q 2778 1509 2601 1637 
Q 2425 1766 2131 1766 
L 1791 1766 
z
" transform="scale(0.015625)"/>
      <path id="DejaVuSans-Bold-76" d="M 97 3500 
L 1216 3500 
L 2088 1081 
L 2956 3500 
L 4078 3500 
L 2700 0 
L 1472 0 
L 97 3500 
z
" transform="scale(0.015625)"/>
      <path id="DejaVuSans-Bold-44" d="M 1791 3756 
L 1791 909 
L 2222 909 
Q 2959 909 3348 1275 
Q 3738 1641 3738 2338 
Q 3738 3031 3350 3393 
Q 2963 3756 2222 3756 
L 1791 3756 
z
M 588 4666 
L 1856 4666 
Q 2919 4666 3439 4514 
Q 3959 4363 4331 4000 
Q 4659 3684 4818 3271 
Q 4978 2859 4978 2338 
Q 4978 1809 4818 1395 
Q 4659 981 4331 666 
Q 3956 303 3431 151 
Q 2906 0 1856 0 
L 588 0 
L 588 4666 
z
" transform="scale(0.015625)"/>
      <path id="DejaVuSans-Bold-67" d="M 2919 594 
Q 2688 288 2409 144 
Q 2131 0 1766 0 
Q 1125 0 706 504 
Q 288 1009 288 1791 
Q 288 2575 706 3076 
Q 1125 3578 1766 3578 
Q 2131 3578 2409 3434 
Q 2688 3291 2919 2981 
L 2919 3500 
L 4044 3500 
L 4044 353 
Q 4044 -491 3511 -936 
Q 2978 -1381 1966 -1381 
Q 1638 -1381 1331 -1331 
Q 1025 -1281 716 -1178 
L 716 -306 
Q 1009 -475 1290 -558 
Q 1572 -641 1856 -641 
Q 2406 -641 2662 -400 
Q 2919 -159 2919 353 
L 2919 594 
z
M 2181 2772 
Q 1834 2772 1640 2515 
Q 1447 2259 1447 1791 
Q 1447 1309 1634 1061 
Q 1822 813 2181 813 
Q 2531 813 2725 1069 
Q 2919 1325 2919 1791 
Q 2919 2259 2725 2515 
Q 2531 2772 2181 2772 
z
" transform="scale(0.015625)"/>
     </defs>
     <use xlink:href="#DejaVuSans-Bold-57"/>
     <use xlink:href="#DejaVuSans-Bold-65" transform="translate(106.677734 0)"/>
     <use xlink:href="#DejaVuSans-Bold-62" transform="translate(174.5 0)"/>
     <use xlink:href="#DejaVuSans-Bold-20" transform="translate(246.082031 0)"/>
     <use xlink:href="#DejaVuSans-Bold-41" transform="translate(280.896484 0)"/>
     <use xlink:href="#DejaVuSans-Bold-70" transform="translate(358.289062 0)"/>
     <use xlink:href="#DejaVuSans-Bold-70" transform="translate(429.871094 0)"/>
     <use xlink:href="#DejaVuSans-Bold-6c" transform="translate(501.453125 0)"/>
     <use xlink:href="#DejaVuSans-Bold-69" transform="translate(535.730469 0)"/>
     <use xlink:href="#DejaVuSans-Bold-63" transform="translate(570.007812 0)"/>
     <use xlink:href="#DejaVuSans-Bold-61" transform="translate(629.285156 0)"/>
     <use xlink:href="#DejaVuSans-Bold-74" transform="translate(696.765625 0)"/>
     <use xlink:href="#DejaVuSans-Bold-69" transform="translate(744.568359 0)"/>
     <use xlink:href="#DejaVuSans-Bold-6f" transform="translate(778.845703 0)"/>
     <use xlink:href="#DejaVuSans-Bold-6e" transform="translate(847.546875 0)"/>
     <use xlink:href="#DejaVuSans-Bold-73" transform="translate(918.738281 0)"/>
     <use xlink:href="#DejaVuSans-Bold-20" transform="translate(978.259766 0)"/>
     <use xlink:href="#DejaVuSans-Bold-43" transform="translate(1013.074219 0)"/>
     <use xlink:href="#DejaVuSans-Bold-6f" transform="translate(1086.462891 0)"/>
     <use xlink:href="#DejaVuSans-Bold-6d" transform="translate(1155.164062 0)"/>
     <use xlink:href="#DejaVuSans-Bold-70" transform="translate(1259.363281 0)"/>
     <use xlink:href="#DejaVuSans-Bold-6f" transform="translate(1330.945312 0)"/>
     <use xlink:href="#DejaVuSans-Bold-6e" transform="translate(1399.646484 0)"/>
     <use xlink:href="#DejaVuSans-Bold-65" transform="translate(1470.837891 0)"/>
     <use xlink:href="#DejaVuSans-Bold-6e" transform="translate(1538.660156 0)"/>
     <use xlink:href="#DejaVuSans-Bold-74" transform="translate(1609.851562 0)"/>
     <use xlink:href="#DejaVuSans-Bold-20" transform="translate(1657.654297 0)"/>
     <use xlink:href="#DejaVuSans-Bold-41" transform="translate(1692.46875 0)"/>
     <use xlink:href="#DejaVuSans-Bold-72" transform="translate(1769.861328 0)"/>
     <use xlink:href="#DejaVuSans-Bold-63" transform="translate(1819.177734 0)"/>
     <use xlink:href="#DejaVuSans-Bold-68" transform="translate(1878.455078 0)"/>
     <use xlink:href="#DejaVuSans-Bold-69" transform="translate(1949.646484 0)"/>
     <use xlink:href="#DejaVuSans-Bold-74" transform="translate(1983.923828 0)"/>
     <use xlink:href="#DejaVuSans-Bold-65" transform="translate(2031.726562 0)"/>
     <use xlink:href="#DejaVuSans-Bold-63" transform="translate(2099.548828 0)"/>
     <use xlink:href="#DejaVuSans-Bold-74" transform="translate(2158.826172 0)"/>
     <use xlink:href="#DejaVuSans-Bold-75" transform="translate(2206.628906 0)"/>
     <use xlink:href="#DejaVuSans-Bold-72" transform="translate(2277.820312 0)"/>
     <use xlink:href="#DejaVuSans-Bold-65" transform="translate(2327.136719 0)"/>
     <use xlink:href="#DejaVuSans-Bold-20" transform="translate(2394.958984 0)"/>
     <use xlink:href="#DejaVuSans-Bold-26" transform="translate(2429.773438 0)"/>
     <use xlink:href="#DejaVuSans-Bold-20" transform="translate(2516.980469 0)"/>
     <use xlink:href="#DejaVuSans-Bold-52" transform="translate(2551.794922 0)"/>
     <use xlink:href="#DejaVuSans-Bold-65" transform="translate(2628.796875 0)"/>
     <use xlink:href="#DejaVuSans-Bold-73" transform="translate(2696.619141 0)"/>
     <use xlink:href="#DejaVuSans-Bold-70" transform="translate(2756.140625 0)"/>
     <use xlink:href="#DejaVuSans-Bold-6f" transform="translate(2827.722656 0)"/>
     <use xlink:href="#DejaVuSans-Bold-6e" transform="translate(2896.423828 0)"/>
     <use xlink:href="#DejaVuSans-Bold-73" transform="translate(2967.615234 0)"/>
     <use xlink:href="#DejaVuSans-Bold-69" transform="translate(3027.136719 0)"/>
     <use xlink:href="#DejaVuSans-Bold-76" transform="translate(3061.414062 0)"/>
     <use xlink:href="#DejaVuSans-Bold-65" transform="translate(3126.599609 0)"/>
     <use xlink:href="#DejaVuSans-Bold-20" transform="translate(3194.421875 0)"/>
     <use xlink:href="#DejaVuSans-Bold-44" transform="translate(3229.236328 0)"/>
     <use xlink:href="#DejaVuSans-Bold-65" transform="translate(3312.244141 0)"/>
     <use xlink:href="#DejaVuSans-Bold-73" transform="translate(3380.066406 0)"/>
     <use xlink:href="#DejaVuSans-Bold-69" transform="translate(3439.587891 0)"/>
     <use xlink:href="#DejaVuSans-Bold-67" transform="translate(3473.865234 0)"/>
     <use xlink:href="#DejaVuSans-Bold-6e" transform="translate(3545.447266 0)"/>
    </g>
   </g>
   <g id="text_2">
    <!-- Mobile -->
    <g transform="translate(130.671563 180.144422) scale(0.09 -0.09)">
     <defs>
      <path id="DejaVuSans-Bold-4d" d="M 588 4666 
L 2119 4666 
L 3181 2169 
L 4250 4666 
L 5778 4666 
L 5778 0 
L 4641 0 
L 4641 3413 
L 3566 897 
L 2803 897 
L 1728 3413 
L 1728 0 
L 588 0 
L 588 4666 
z
" transform="scale(0.015625)"/>
     </defs>
     <use xlink:href="#DejaVuSans-Bold-4d"/>
     <use xlink:href="#DejaVuSans-Bold-6f" transform="translate(99.511719 0)"/>
     <use xlink:href="#DejaVuSans-Bold-62" transform="translate(168.212891 0)"/>
     <use xlink:href="#DejaVuSans-Bold-69" transform="translate(239.794922 0)"/>
     <use xlink:href="#DejaVuSans-Bold-6c" transform="translate(274.072266 0)"/>
     <use xlink:href="#DejaVuSans-Bold-65" transform="translate(308.349609 0)"/>
    </g>
    <!-- &lt; 768px -->
    <g transform="translate(126.746016 190.222453) scale(0.09 -0.09)">
     <defs>
      <path id="DejaVuSans-Bold-3c" d="M 4684 3041 
L 1672 2003 
L 4684 972 
L 4684 191 
L 678 1638 
L 678 2375 
L 4684 3822 
L 4684 3041 
z
" transform="scale(0.015625)"/>
      <path id="DejaVuSans-Bold-37" d="M 428 4666 
L 3944 4666 
L 3944 3988 
L 2125 0 
L 953 0 
L 2675 3781 
L 428 3781 
L 428 4666 
z
" transform="scale(0.015625)"/>
      <path id="DejaVuSans-Bold-36" d="M 2316 2303 
Q 2000 2303 1842 2098 
Q 1684 1894 1684 1484 
Q 1684 1075 1842 870 
Q 2000 666 2316 666 
Q 2634 666 2792 870 
Q 2950 1075 2950 1484 
Q 2950 1894 2792 2098 
Q 2634 2303 2316 2303 
z
M 3803 4544 
L 3803 3681 
Q 3506 3822 3243 3889 
Q 2981 3956 2731 3956 
Q 2194 3956 1894 3657 
Q 1594 3359 1544 2772 
Q 1750 2925 1990 3001 
Q 2231 3078 2516 3078 
Q 3231 3078 3670 2659 
Q 4109 2241 4109 1563 
Q 4109 813 3618 361 
Q 3128 -91 2303 -91 
Q 1394 -91 895 523 
Q 397 1138 397 2266 
Q 397 3422 980 4083 
Q 1563 4744 2578 4744 
Q 2900 4744 3203 4694 
Q 3506 4644 3803 4544 
z
" transform="scale(0.015625)"/>
      <path id="DejaVuSans-Bold-38" d="M 2228 2088 
Q 1891 2088 1709 1903 
Q 1528 1719 1528 1375 
Q 1528 1031 1709 848 
Q 1891 666 2228 666 
Q 2563 666 2741 848 
Q 2919 1031 2919 1375 
Q 2919 1722 2741 1905 
Q 2563 2088 2228 2088 
z
M 1350 2484 
Q 925 2613 709 2878 
Q 494 3144 494 3541 
Q 494 4131 934 4440 
Q 1375 4750 2228 4750 
Q 3075 4750 3515 4442 
Q 3956 4134 3956 3541 
Q 3956 3144 3739 2878 
Q 3522 2613 3097 2484 
Q 3572 2353 3814 2058 
Q 4056 1763 4056 1313 
Q 4056 619 3595 264 
Q 3134 -91 2228 -91 
Q 1319 -91 855 264 
Q 391 619 391 1313 
Q 391 1763 633 2058 
Q 875 2353 1350 2484 
z
M 1631 3419 
Q 1631 3141 1786 2991 
Q 1941 2841 2228 2841 
Q 2509 2841 2662 2991 
Q 2816 3141 2816 3419 
Q 2816 3697 2662 3845 
Q 2509 3994 2228 3994 
Q 1941 3994 1786 3844 
Q 1631 3694 1631 3419 
z
" transform="scale(0.015625)"/>
      <path id="DejaVuSans-Bold-78" d="M 1422 1791 
L 159 3500 
L 1344 3500 
L 2059 2463 
L 2784 3500 
L 3969 3500 
L 2706 1797 
L 4031 0 
L 2847 0 
L 2059 1106 
L 1281 0 
L 97 0 
L 1422 1791 
z
" transform="scale(0.015625)"/>
     </defs>
     <use xlink:href="#DejaVuSans-Bold-3c"/>
     <use xlink:href="#DejaVuSans-Bold-20" transform="translate(83.789062 0)"/>
     <use xlink:href="#DejaVuSans-Bold-37" transform="translate(118.603516 0)"/>
     <use xlink:href="#DejaVuSans-Bold-36" transform="translate(188.183594 0)"/>
     <use xlink:href="#DejaVuSans-Bold-38" transform="translate(257.763672 0)"/>
     <use xlink:href="#DejaVuSans-Bold-70" transform="translate(327.34375 0)"/>
     <use xlink:href="#DejaVuSans-Bold-78" transform="translate(398.925781 0)"/>
    </g>
   </g>
   <g id="text_3">
    <!-- Tablet -->
    <g transform="translate(342.705938 180.144422) scale(0.09 -0.09)">
     <defs>
      <path id="DejaVuSans-Bold-54" d="M 31 4666 
L 4331 4666 
L 4331 3756 
L 2784 3756 
L 2784 0 
L 1581 0 
L 1581 3756 
L 31 3756 
L 31 4666 
z
" transform="scale(0.015625)"/>
     </defs>
     <use xlink:href="#DejaVuSans-Bold-54"/>
     <use xlink:href="#DejaVuSans-Bold-61" transform="translate(55.337891 0)"/>
     <use xlink:href="#DejaVuSans-Bold-62" transform="translate(122.818359 0)"/>
     <use xlink:href="#DejaVuSans-Bold-6c" transform="translate(194.400391 0)"/>
     <use xlink:href="#DejaVuSans-Bold-65" transform="translate(228.677734 0)"/>
     <use xlink:href="#DejaVuSans-Bold-74" transform="translate(296.5 0)"/>
    </g>
    <!-- 768-1024px -->
    <g transform="translate(328.291875 190.222453) scale(0.09 -0.09)">
     <defs>
      <path id="DejaVuSans-Bold-2d" d="M 347 2297 
L 2309 2297 
L 2309 1388 
L 347 1388 
L 347 2297 
z
" transform="scale(0.015625)"/>
      <path id="DejaVuSans-Bold-31" d="M 750 831 
L 1813 831 
L 1813 3847 
L 722 3622 
L 722 4441 
L 1806 4666 
L 2950 4666 
L 2950 831 
L 4013 831 
L 4013 0 
L 750 0 
L 750 831 
z
" transform="scale(0.015625)"/>
      <path id="DejaVuSans-Bold-30" d="M 2944 2338 
Q 2944 3213 2780 3570 
Q 2616 3928 2228 3928 
Q 1841 3928 1675 3570 
Q 1509 3213 1509 2338 
Q 1509 1453 1675 1090 
Q 1841 728 2228 728 
Q 2613 728 2778 1090 
Q 2944 1453 2944 2338 
z
M 4147 2328 
Q 4147 1169 3647 539 
Q 3147 -91 2228 -91 
Q 1306 -91 806 539 
Q 306 1169 306 2328 
Q 306 3491 806 4120 
Q 1306 4750 2228 4750 
Q 3147 4750 3647 4120 
Q 4147 3491 4147 2328 
z
" transform="scale(0.015625)"/>
      <path id="DejaVuSans-Bold-32" d="M 1844 884 
L 3897 884 
L 3897 0 
L 506 0 
L 506 884 
L 2209 2388 
Q 2438 2594 2547 2791 
Q 2656 2988 2656 3200 
Q 2656 3528 2436 3728 
Q 2216 3928 1850 3928 
Q 1569 3928 1234 3808 
Q 900 3688 519 3450 
L 519 4475 
Q 925 4609 1322 4679 
Q 1719 4750 2100 4750 
Q 2938 4750 3402 4381 
Q 3866 4013 3866 3353 
Q 3866 2972 3669 2642 
Q 3472 2313 2841 1759 
L 1844 884 
z
" transform="scale(0.015625)"/>
      <path id="DejaVuSans-Bold-34" d="M 2356 3675 
L 1038 1722 
L 2356 1722 
L 2356 3675 
z
M 2156 4666 
L 3494 4666 
L 3494 1722 
L 4159 1722 
L 4159 850 
L 3494 850 
L 3494 0 
L 2356 0 
L 2356 850 
L 288 850 
L 288 1881 
L 2156 4666 
z
" transform="scale(0.015625)"/>
     </defs>
     <use xlink:href="#DejaVuSans-Bold-37"/>
     <use xlink:href="#DejaVuSans-Bold-36" transform="translate(69.580078 0)"/>
     <use xlink:href="#DejaVuSans-Bold-38" transform="translate(139.160156 0)"/>
     <use xlink:href="#DejaVuSans-Bold-2d" transform="translate(208.740234 0)"/>
     <use xlink:href="#DejaVuSans-Bold-31" transform="translate(250.244141 0)"/>
     <use xlink:href="#DejaVuSans-Bold-30" transform="translate(319.824219 0)"/>
     <use xlink:href="#DejaVuSans-Bold-32" transform="translate(389.404297 0)"/>
     <use xlink:href="#DejaVuSans-Bold-34" transform="translate(458.984375 0)"/>
     <use xlink:href="#DejaVuSans-Bold-70" transform="translate(528.564453 0)"/>
     <use xlink:href="#DejaVuSans-Bold-78" transform="translate(600.146484 0)"/>
    </g>
   </g>
   <g id="text_4">
    <!-- Desktop -->
    <g transform="translate(547.877813 180.144422) scale(0.09 -0.09)">
     <defs>
      <path id="DejaVuSans-Bold-6b" d="M 538 4863 
L 1656 4863 
L 1656 2216 
L 2944 3500 
L 4244 3500 
L 2534 1894 
L 4378 0 
L 3022 0 
L 1656 1459 
L 1656 0 
L 538 0 
L 538 4863 
z
" transform="scale(0.015625)"/>
     </defs>
     <use xlink:href="#DejaVuSans-Bold-44"/>
     <use xlink:href="#DejaVuSans-Bold-65" transform="translate(83.007812 0)"/>
     <use xlink:href="#DejaVuSans-Bold-73" transform="translate(150.830078 0)"/>
     <use xlink:href="#DejaVuSans-Bold-6b" transform="translate(210.351562 0)"/>
     <use xlink:href="#DejaVuSans-Bold-74" transform="translate(276.855469 0)"/>
     <use xlink:href="#DejaVuSans-Bold-6f" transform="translate(324.658203 0)"/>
     <use xlink:href="#DejaVuSans-Bold-70" transform="translate(393.359375 0)"/>
    </g>
    <!-- &gt; 1024px -->
    <g transform="translate(544.815 190.222453) scale(0.09 -0.09)">
     <defs>
      <path id="DejaVuSans-Bold-3e" d="M 678 3041 
L 678 3822 
L 4684 2375 
L 4684 1638 
L 678 191 
L 678 972 
L 3694 2003 
L 678 3041 
z
" transform="scale(0.015625)"/>
     </defs>
     <use xlink:href="#DejaVuSans-Bold-3e"/>
     <use xlink:href="#DejaVuSans-Bold-20" transform="translate(83.789062 0)"/>
     <use xlink:href="#DejaVuSans-Bold-31" transform="translate(118.603516 0)"/>
     <use xlink:href="#DejaVuSans-Bold-30" transform="translate(188.183594 0)"/>
     <use xlink:href="#DejaVuSans-Bold-32" transform="translate(257.763672 0)"/>
     <use xlink:href="#DejaVuSans-Bold-34" transform="translate(327.34375 0)"/>
     <use xlink:href="#DejaVuSans-Bold-70" transform="translate(396.923828 0)"/>
     <use xlink:href="#DejaVuSans-Bold-78" transform="translate(468.505859 0)"/>
    </g>
   </g>
   <g id="text_5">
    <!-- Large Screen -->
    <g transform="translate(746.001563 180.074109) scale(0.09 -0.09)">
     <defs>
      <path id="DejaVuSans-Bold-4c" d="M 588 4666 
L 1791 4666 
L 1791 909 
L 3903 909 
L 3903 0 
L 588 0 
L 588 4666 
z
" transform="scale(0.015625)"/>
      <path id="DejaVuSans-Bold-53" d="M 3834 4519 
L 3834 3531 
Q 3450 3703 3084 3790 
Q 2719 3878 2394 3878 
Q 1963 3878 1756 3759 
Q 1550 3641 1550 3391 
Q 1550 3203 1689 3098 
Q 1828 2994 2194 2919 
L 2706 2816 
Q 3484 2659 3812 2340 
Q 4141 2022 4141 1434 
Q 4141 663 3683 286 
Q 3225 -91 2284 -91 
Q 1841 -91 1394 -6 
Q 947 78 500 244 
L 500 1259 
Q 947 1022 1364 901 
Q 1781 781 2169 781 
Q 2563 781 2772 912 
Q 2981 1044 2981 1288 
Q 2981 1506 2839 1625 
Q 2697 1744 2272 1838 
L 1806 1941 
Q 1106 2091 782 2419 
Q 459 2747 459 3303 
Q 459 4000 909 4375 
Q 1359 4750 2203 4750 
Q 2588 4750 2994 4692 
Q 3400 4634 3834 4519 
z
" transform="scale(0.015625)"/>
     </defs>
     <use xlink:href="#DejaVuSans-Bold-4c"/>
     <use xlink:href="#DejaVuSans-Bold-61" transform="translate(63.720703 0)"/>
     <use xlink:href="#DejaVuSans-Bold-72" transform="translate(131.201172 0)"/>
     <use xlink:href="#DejaVuSans-Bold-67" transform="translate(180.517578 0)"/>
     <use xlink:href="#DejaVuSans-Bold-65" transform="translate(252.099609 0)"/>
     <use xlink:href="#DejaVuSans-Bold-20" transform="translate(319.921875 0)"/>
     <use xlink:href="#DejaVuSans-Bold-53" transform="translate(354.736328 0)"/>
     <use xlink:href="#DejaVuSans-Bold-63" transform="translate(426.757812 0)"/>
     <use xlink:href="#DejaVuSans-Bold-72" transform="translate(486.035156 0)"/>
     <use xlink:href="#DejaVuSans-Bold-65" transform="translate(535.351562 0)"/>
     <use xlink:href="#DejaVuSans-Bold-65" transform="translate(603.173828 0)"/>
     <use xlink:href="#DejaVuSans-Bold-6e" transform="translate(670.996094 0)"/>
    </g>
    <!-- &gt; 1440px -->
    <g transform="translate(755.415 190.222453) scale(0.09 -0.09)">
     <use xlink:href="#DejaVuSans-Bold-3e"/>
     <use xlink:href="#DejaVuSans-Bold-20" transform="translate(83.789062 0)"/>
     <use xlink:href="#DejaVuSans-Bold-31" transform="translate(118.603516 0)"/>
     <use xlink:href="#DejaVuSans-Bold-34" transform="translate(188.183594 0)"/>
     <use xlink:href="#DejaVuSans-Bold-34" transform="translate(257.763672 0)"/>
     <use xlink:href="#DejaVuSans-Bold-30" transform="translate(327.34375 0)"/>
     <use xlink:href="#DejaVuSans-Bold-70" transform="translate(396.923828 0)"/>
     <use xlink:href="#DejaVuSans-Bold-78" transform="translate(468.505859 0)"/>
    </g>
   </g>
   <g id="text_6">
    <!-- React Component Hierarchy -->
    <g transform="translate(458.119063 288) scale(0.14 -0.14)">
     <defs>
      <path id="DejaVuSans-Bold-48" d="M 588 4666 
L 1791 4666 
L 1791 2888 
L 3566 2888 
L 3566 4666 
L 4769 4666 
L 4769 0 
L 3566 0 
L 3566 1978 
L 1791 1978 
L 1791 0 
L 588 0 
L 588 4666 
z
" transform="scale(0.015625)"/>
      <path id="DejaVuSans-Bold-79" d="M 78 3500 
L 1197 3500 
L 2138 1125 
L 2938 3500 
L 4056 3500 
L 2584 -331 
Q 2363 -916 2067 -1148 
Q 1772 -1381 1288 -1381 
L 641 -1381 
L 641 -647 
L 991 -647 
Q 1275 -647 1404 -556 
Q 1534 -466 1606 -231 
L 1638 -134 
L 78 3500 
z
" transform="scale(0.015625)"/>
     </defs>
     <use xlink:href="#DejaVuSans-Bold-52"/>
     <use xlink:href="#DejaVuSans-Bold-65" transform="translate(77.001953 0)"/>
     <use xlink:href="#DejaVuSans-Bold-61" transform="translate(144.824219 0)"/>
     <use xlink:href="#DejaVuSans-Bold-63" transform="translate(212.304688 0)"/>
     <use xlink:href="#DejaVuSans-Bold-74" transform="translate(271.582031 0)"/>
     <use xlink:href="#DejaVuSans-Bold-20" transform="translate(319.384766 0)"/>
     <use xlink:href="#DejaVuSans-Bold-43" transform="translate(354.199219 0)"/>
     <use xlink:href="#DejaVuSans-Bold-6f" transform="translate(427.587891 0)"/>
     <use xlink:href="#DejaVuSans-Bold-6d" transform="translate(496.289062 0)"/>
     <use xlink:href="#DejaVuSans-Bold-70" transform="translate(600.488281 0)"/>
     <use xlink:href="#DejaVuSans-Bold-6f" transform="translate(672.070312 0)"/>
     <use xlink:href="#DejaVuSans-Bold-6e" transform="translate(740.771484 0)"/>
     <use xlink:href="#DejaVuSans-Bold-65" transform="translate(811.962891 0)"/>
     <use xlink:href="#DejaVuSans-Bold-6e" transform="translate(879.785156 0)"/>
     <use xlink:href="#DejaVuSans-Bold-74" transform="translate(950.976562 0)"/>
     <use xlink:href="#DejaVuSans-Bold-20" transform="translate(998.779297 0)"/>
     <use xlink:href="#DejaVuSans-Bold-48" transform="translate(1033.59375 0)"/>
     <use xlink:href="#DejaVuSans-Bold-69" transform="translate(1117.285156 0)"/>
     <use xlink:href="#DejaVuSans-Bold-65" transform="translate(1151.5625 0)"/>
     <use xlink:href="#DejaVuSans-Bold-72" transform="translate(1219.384766 0)"/>
     <use xlink:href="#DejaVuSans-Bold-61" transform="translate(1268.701172 0)"/>
     <use xlink:href="#DejaVuSans-Bold-72" transform="translate(1336.181641 0)"/>
     <use xlink:href="#DejaVuSans-Bold-63" transform="translate(1385.498047 0)"/>
     <use xlink:href="#DejaVuSans-Bold-68" transform="translate(1444.775391 0)"/>
     <use xlink:href="#DejaVuSans-Bold-79" transform="translate(1515.966797 0)"/>
    </g>
   </g>
   <g id="text_7">
    <!-- App.tsx -->
    <g transform="translate(198.434531 355.644422) scale(0.09 -0.09)">
     <defs>
      <path id="DejaVuSans-Bold-2e" d="M 653 1209 
L 1778 1209 
L 1778 0 
L 653 0 
L 653 1209 
z
" transform="scale(0.015625)"/>
     </defs>
     <use xlink:href="#DejaVuSans-Bold-41"/>
     <use xlink:href="#DejaVuSans-Bold-70" transform="translate(77.392578 0)"/>
     <use xlink:href="#DejaVuSans-Bold-70" transform="translate(148.974609 0)"/>
     <use xlink:href="#DejaVuSans-Bold-2e" transform="translate(220.556641 0)"/>
     <use xlink:href="#DejaVuSans-Bold-74" transform="translate(258.544922 0)"/>
     <use xlink:href="#DejaVuSans-Bold-73" transform="translate(306.347656 0)"/>
     <use xlink:href="#DejaVuSans-Bold-78" transform="translate(365.869141 0)"/>
    </g>
    <!-- (Router) -->
    <g transform="translate(196.504453 365.722453) scale(0.09 -0.09)">
     <defs>
      <path id="DejaVuSans-Bold-28" d="M 2413 -844 
L 1484 -844 
Q 1006 -72 778 623 
Q 550 1319 550 2003 
Q 550 2688 779 3389 
Q 1009 4091 1484 4856 
L 2413 4856 
Q 2013 4116 1813 3408 
Q 1613 2700 1613 2009 
Q 1613 1319 1811 609 
Q 2009 -100 2413 -844 
z
" transform="scale(0.015625)"/>
      <path id="DejaVuSans-Bold-29" d="M 513 -844 
Q 913 -100 1113 609 
Q 1313 1319 1313 2009 
Q 1313 2700 1113 3408 
Q 913 4116 513 4856 
L 1441 4856 
Q 1916 4091 2145 3389 
Q 2375 2688 2375 2003 
Q 2375 1319 2147 623 
Q 1919 -72 1441 -844 
L 513 -844 
z
" transform="scale(0.015625)"/>
     </defs>
     <use xlink:href="#DejaVuSans-Bold-28"/>
     <use xlink:href="#DejaVuSans-Bold-52" transform="translate(45.703125 0)"/>
     <use xlink:href="#DejaVuSans-Bold-6f" transform="translate(122.705078 0)"/>
     <use xlink:href="#DejaVuSans-Bold-75" transform="translate(191.40625 0)"/>
     <use xlink:href="#DejaVuSans-Bold-74" transform="translate(262.597656 0)"/>
     <use xlink:href="#DejaVuSans-Bold-65" transform="translate(310.400391 0)"/>
     <use xlink:href="#DejaVuSans-Bold-72" transform="translate(378.222656 0)"/>
     <use xlink:href="#DejaVuSans-Bold-29" transform="translate(427.539062 0)"/>
    </g>
   </g>
   <g id="text_8">
    <!-- Layout -->
    <g transform="translate(551.657109 355.574109) scale(0.09 -0.09)">
     <use xlink:href="#DejaVuSans-Bold-4c"/>
     <use xlink:href="#DejaVuSans-Bold-61" transform="translate(63.720703 0)"/>
     <use xlink:href="#DejaVuSans-Bold-79" transform="translate(128.076172 0)"/>
     <use xlink:href="#DejaVuSans-Bold-6f" transform="translate(193.261719 0)"/>
     <use xlink:href="#DejaVuSans-Bold-75" transform="translate(261.962891 0)"/>
     <use xlink:href="#DejaVuSans-Bold-74" transform="translate(333.154297 0)"/>
    </g>
    <!-- Component -->
    <g transform="translate(539.793984 365.722453) scale(0.09 -0.09)">
     <use xlink:href="#DejaVuSans-Bold-43"/>
     <use xlink:href="#DejaVuSans-Bold-6f" transform="translate(73.388672 0)"/>
     <use xlink:href="#DejaVuSans-Bold-6d" transform="translate(142.089844 0)"/>
     <use xlink:href="#DejaVuSans-Bold-70" transform="translate(246.289062 0)"/>
     <use xlink:href="#DejaVuSans-Bold-6f" transform="translate(317.871094 0)"/>
     <use xlink:href="#DejaVuSans-Bold-6e" transform="translate(386.572266 0)"/>
     <use xlink:href="#DejaVuSans-Bold-65" transform="translate(457.763672 0)"/>
     <use xlink:href="#DejaVuSans-Bold-6e" transform="translate(525.585938 0)"/>
     <use xlink:href="#DejaVuSans-Bold-74" transform="translate(596.777344 0)"/>
    </g>
   </g>
   <g id="text_9">
    <!-- Theme -->
    <g transform="translate(902.733047 355.644422) scale(0.09 -0.09)">
     <use xlink:href="#DejaVuSans-Bold-54"/>
     <use xlink:href="#DejaVuSans-Bold-68" transform="translate(68.212891 0)"/>
     <use xlink:href="#DejaVuSans-Bold-65" transform="translate(139.404297 0)"/>
     <use xlink:href="#DejaVuSans-Bold-6d" transform="translate(207.226562 0)"/>
     <use xlink:href="#DejaVuSans-Bold-65" transform="translate(311.425781 0)"/>
    </g>
    <!-- Provider -->
    <g transform="translate(898.2225 365.722453) scale(0.09 -0.09)">
     <defs>
      <path id="DejaVuSans-Bold-50" d="M 588 4666 
L 2584 4666 
Q 3475 4666 3951 4270 
Q 4428 3875 4428 3144 
Q 4428 2409 3951 2014 
Q 3475 1619 2584 1619 
L 1791 1619 
L 1791 0 
L 588 0 
L 588 4666 
z
M 1791 3794 
L 1791 2491 
L 2456 2491 
Q 2806 2491 2997 2661 
Q 3188 2831 3188 3144 
Q 3188 3456 2997 3625 
Q 2806 3794 2456 3794 
L 1791 3794 
z
" transform="scale(0.015625)"/>
      <path id="DejaVuSans-Bold-64" d="M 2919 2988 
L 2919 4863 
L 4044 4863 
L 4044 0 
L 2919 0 
L 2919 506 
Q 2688 197 2409 53 
Q 2131 -91 1766 -91 
Q 1119 -91 703 423 
Q 288 938 288 1747 
Q 288 2556 703 3070 
Q 1119 3584 1766 3584 
Q 2128 3584 2408 3439 
Q 2688 3294 2919 2988 
z
M 2181 722 
Q 2541 722 2730 984 
Q 2919 1247 2919 1747 
Q 2919 2247 2730 2509 
Q 2541 2772 2181 2772 
Q 1825 2772 1636 2509 
Q 1447 2247 1447 1747 
Q 1447 1247 1636 984 
Q 1825 722 2181 722 
z
" transform="scale(0.015625)"/>
     </defs>
     <use xlink:href="#DejaVuSans-Bold-50"/>
     <use xlink:href="#DejaVuSans-Bold-72" transform="translate(73.291016 0)"/>
     <use xlink:href="#DejaVuSans-Bold-6f" transform="translate(122.607422 0)"/>
     <use xlink:href="#DejaVuSans-Bold-76" transform="translate(191.308594 0)"/>
     <use xlink:href="#DejaVuSans-Bold-69" transform="translate(256.494141 0)"/>
     <use xlink:href="#DejaVuSans-Bold-64" transform="translate(290.771484 0)"/>
     <use xlink:href="#DejaVuSans-Bold-65" transform="translate(362.353516 0)"/>
     <use xlink:href="#DejaVuSans-Bold-72" transform="translate(430.175781 0)"/>
    </g>
   </g>
   <g id="text_10">
    <!-- Dashboard -->
    <g transform="translate(123.205625 461.197125) scale(0.08 -0.08)">
     <use xlink:href="#DejaVuSans-Bold-44"/>
     <use xlink:href="#DejaVuSans-Bold-61" transform="translate(83.007812 0)"/>
     <use xlink:href="#DejaVuSans-Bold-73" transform="translate(150.488281 0)"/>
     <use xlink:href="#DejaVuSans-Bold-68" transform="translate(210.009766 0)"/>
     <use xlink:href="#DejaVuSans-Bold-62" transform="translate(281.201172 0)"/>
     <use xlink:href="#DejaVuSans-Bold-6f" transform="translate(352.783203 0)"/>
     <use xlink:href="#DejaVuSans-Bold-61" transform="translate(421.484375 0)"/>
     <use xlink:href="#DejaVuSans-Bold-72" transform="translate(488.964844 0)"/>
     <use xlink:href="#DejaVuSans-Bold-64" transform="translate(538.28125 0)"/>
    </g>
    <!-- Page -->
    <g transform="translate(136.4975 470.155375) scale(0.08 -0.08)">
     <use xlink:href="#DejaVuSans-Bold-50"/>
     <use xlink:href="#DejaVuSans-Bold-61" transform="translate(70.666016 0)"/>
     <use xlink:href="#DejaVuSans-Bold-67" transform="translate(138.146484 0)"/>
     <use xlink:href="#DejaVuSans-Bold-65" transform="translate(209.728516 0)"/>
    </g>
   </g>
   <g id="text_11">
    <!-- Reports -->
    <g transform="translate(340.530625 461.197125) scale(0.08 -0.08)">
     <use xlink:href="#DejaVuSans-Bold-52"/>
     <use xlink:href="#DejaVuSans-Bold-65" transform="translate(77.001953 0)"/>
     <use xlink:href="#DejaVuSans-Bold-70" transform="translate(144.824219 0)"/>
     <use xlink:href="#DejaVuSans-Bold-6f" transform="translate(216.40625 0)"/>
     <use xlink:href="#DejaVuSans-Bold-72" transform="translate(285.107422 0)"/>
     <use xlink:href="#DejaVuSans-Bold-74" transform="translate(334.423828 0)"/>
     <use xlink:href="#DejaVuSans-Bold-73" transform="translate(382.226562 0)"/>
    </g>
    <!-- Page -->
    <g transform="translate(347.0975 470.155375) scale(0.08 -0.08)">
     <use xlink:href="#DejaVuSans-Bold-50"/>
     <use xlink:href="#DejaVuSans-Bold-61" transform="translate(70.666016 0)"/>
     <use xlink:href="#DejaVuSans-Bold-67" transform="translate(138.146484 0)"/>
     <use xlink:href="#DejaVuSans-Bold-65" transform="translate(209.728516 0)"/>
    </g>
   </g>
   <g id="text_12">
    <!-- Settings -->
    <g transform="translate(549.92 461.165875) scale(0.08 -0.08)">
     <use xlink:href="#DejaVuSans-Bold-53"/>
     <use xlink:href="#DejaVuSans-Bold-65" transform="translate(72.021484 0)"/>
     <use xlink:href="#DejaVuSans-Bold-74" transform="translate(139.84375 0)"/>
     <use xlink:href="#DejaVuSans-Bold-74" transform="translate(187.646484 0)"/>
     <use xlink:href="#DejaVuSans-Bold-69" transform="translate(235.449219 0)"/>
     <use xlink:href="#DejaVuSans-Bold-6e" transform="translate(269.726562 0)"/>
     <use xlink:href="#DejaVuSans-Bold-67" transform="translate(340.917969 0)"/>
     <use xlink:href="#DejaVuSans-Bold-73" transform="translate(412.5 0)"/>
    </g>
    <!-- Page -->
    <g transform="translate(557.6975 470.186625) scale(0.08 -0.08)">
     <use xlink:href="#DejaVuSans-Bold-50"/>
     <use xlink:href="#DejaVuSans-Bold-61" transform="translate(70.666016 0)"/>
     <use xlink:href="#DejaVuSans-Bold-67" transform="translate(138.146484 0)"/>
     <use xlink:href="#DejaVuSans-Bold-65" transform="translate(209.728516 0)"/>
    </g>
   </g>
   <g id="text_13">
    <!-- Admin -->
    <g transform="translate(765.054375 461.197125) scale(0.08 -0.08)">
     <use xlink:href="#DejaVuSans-Bold-41"/>
     <use xlink:href="#DejaVuSans-Bold-64" transform="translate(77.392578 0)"/>
     <use xlink:href="#DejaVuSans-Bold-6d" transform="translate(148.974609 0)"/>
     <use xlink:href="#DejaVuSans-Bold-69" transform="translate(253.173828 0)"/>
     <use xlink:href="#DejaVuSans-Bold-6e" transform="translate(287.451172 0)"/>
    </g>
    <!-- Page -->
    <g transform="translate(768.2975 470.155375) scale(0.08 -0.08)">
     <use xlink:href="#DejaVuSans-Bold-50"/>
     <use xlink:href="#DejaVuSans-Bold-61" transform="translate(70.666016 0)"/>
     <use xlink:href="#DejaVuSans-Bold-67" transform="translate(138.146484 0)"/>
     <use xlink:href="#DejaVuSans-Bold-65" transform="translate(209.728516 0)"/>
    </g>
   </g>
   <g id="text_14">
    <!-- Profile -->
    <g transform="translate(975.151875 461.197125) scale(0.08 -0.08)">
     <defs>
      <path id="DejaVuSans-Bold-66" d="M 2841 4863 
L 2841 4128 
L 2222 4128 
Q 1984 4128 1890 4042 
Q 1797 3956 1797 3744 
L 1797 3500 
L 2753 3500 
L 2753 2700 
L 1797 2700 
L 1797 0 
L 678 0 
L 678 2700 
L 122 2700 
L 122 3500 
L 678 3500 
L 678 3744 
Q 678 4316 997 4589 
Q 1316 4863 1984 4863 
L 2841 4863 
z
" transform="scale(0.015625)"/>
     </defs>
     <use xlink:href="#DejaVuSans-Bold-50"/>
     <use xlink:href="#DejaVuSans-Bold-72" transform="translate(73.291016 0)"/>
     <use xlink:href="#DejaVuSans-Bold-6f" transform="translate(122.607422 0)"/>
     <use xlink:href="#DejaVuSans-Bold-66" transform="translate(191.308594 0)"/>
     <use xlink:href="#DejaVuSans-Bold-69" transform="translate(234.814453 0)"/>
     <use xlink:href="#DejaVuSans-Bold-6c" transform="translate(269.091797 0)"/>
     <use xlink:href="#DejaVuSans-Bold-65" transform="translate(303.369141 0)"/>
    </g>
    <!-- Page -->
    <g transform="translate(978.8975 470.155375) scale(0.08 -0.08)">
     <use xlink:href="#DejaVuSans-Bold-50"/>
     <use xlink:href="#DejaVuSans-Bold-61" transform="translate(70.666016 0)"/>
     <use xlink:href="#DejaVuSans-Bold-67" transform="translate(138.146484 0)"/>
     <use xlink:href="#DejaVuSans-Bold-65" transform="translate(209.728516 0)"/>
    </g>
   </g>
   <g id="text_15">
    <!-- Header -->
    <g transform="translate(63.129844 570.731563) scale(0.07 -0.07)">
     <use xlink:href="#DejaVuSans-Bold-48"/>
     <use xlink:href="#DejaVuSans-Bold-65" transform="translate(83.691406 0)"/>
     <use xlink:href="#DejaVuSans-Bold-61" transform="translate(151.513672 0)"/>
     <use xlink:href="#DejaVuSans-Bold-64" transform="translate(218.994141 0)"/>
     <use xlink:href="#DejaVuSans-Bold-65" transform="translate(290.576172 0)"/>
     <use xlink:href="#DejaVuSans-Bold-72" transform="translate(358.398438 0)"/>
    </g>
   </g>
   <g id="text_16">
    <!-- Sidebar -->
    <g transform="translate(202.607266 570.731563) scale(0.07 -0.07)">
     <use xlink:href="#DejaVuSans-Bold-53"/>
     <use xlink:href="#DejaVuSans-Bold-69" transform="translate(72.021484 0)"/>
     <use xlink:href="#DejaVuSans-Bold-64" transform="translate(106.298828 0)"/>
     <use xlink:href="#DejaVuSans-Bold-65" transform="translate(177.880859 0)"/>
     <use xlink:href="#DejaVuSans-Bold-62" transform="translate(245.703125 0)"/>
     <use xlink:href="#DejaVuSans-Bold-61" transform="translate(317.285156 0)"/>
     <use xlink:href="#DejaVuSans-Bold-72" transform="translate(384.765625 0)"/>
    </g>
   </g>
   <g id="text_17">
    <!-- DataTable -->
    <g transform="translate(338.519609 570.731563) scale(0.07 -0.07)">
     <use xlink:href="#DejaVuSans-Bold-44"/>
     <use xlink:href="#DejaVuSans-Bold-61" transform="translate(83.007812 0)"/>
     <use xlink:href="#DejaVuSans-Bold-74" transform="translate(150.488281 0)"/>
     <use xlink:href="#DejaVuSans-Bold-61" transform="translate(198.291016 0)"/>
     <use xlink:href="#DejaVuSans-Bold-54" transform="translate(265.771484 0)"/>
     <use xlink:href="#DejaVuSans-Bold-61" transform="translate(321.109375 0)"/>
     <use xlink:href="#DejaVuSans-Bold-62" transform="translate(388.589844 0)"/>
     <use xlink:href="#DejaVuSans-Bold-6c" transform="translate(460.171875 0)"/>
     <use xlink:href="#DejaVuSans-Bold-65" transform="translate(494.449219 0)"/>
    </g>
   </g>
   <g id="text_18">
    <!-- Charts -->
    <g transform="translate(485.695938 570.731563) scale(0.07 -0.07)">
     <use xlink:href="#DejaVuSans-Bold-43"/>
     <use xlink:href="#DejaVuSans-Bold-68" transform="translate(73.388672 0)"/>
     <use xlink:href="#DejaVuSans-Bold-61" transform="translate(144.580078 0)"/>
     <use xlink:href="#DejaVuSans-Bold-72" transform="translate(212.060547 0)"/>
     <use xlink:href="#DejaVuSans-Bold-74" transform="translate(261.376953 0)"/>
     <use xlink:href="#DejaVuSans-Bold-73" transform="translate(309.179688 0)"/>
    </g>
   </g>
   <g id="text_19">
    <!-- Forms -->
    <g transform="translate(626.888359 570.731563) scale(0.07 -0.07)">
     <defs>
      <path id="DejaVuSans-Bold-46" d="M 588 4666 
L 3834 4666 
L 3834 3756 
L 1791 3756 
L 1791 2888 
L 3713 2888 
L 3713 1978 
L 1791 1978 
L 1791 0 
L 588 0 
L 588 4666 
z
" transform="scale(0.015625)"/>
     </defs>
     <use xlink:href="#DejaVuSans-Bold-46"/>
     <use xlink:href="#DejaVuSans-Bold-6f" transform="translate(64.310547 0)"/>
     <use xlink:href="#DejaVuSans-Bold-72" transform="translate(133.011719 0)"/>
     <use xlink:href="#DejaVuSans-Bold-6d" transform="translate(182.328125 0)"/>
     <use xlink:href="#DejaVuSans-Bold-73" transform="translate(286.527344 0)"/>
    </g>
   </g>
   <g id="text_20">
    <!-- Modals -->
    <g transform="translate(765.362266 570.731563) scale(0.07 -0.07)">
     <use xlink:href="#DejaVuSans-Bold-4d"/>
     <use xlink:href="#DejaVuSans-Bold-6f" transform="translate(99.511719 0)"/>
     <use xlink:href="#DejaVuSans-Bold-64" transform="translate(168.212891 0)"/>
     <use xlink:href="#DejaVuSans-Bold-61" transform="translate(239.794922 0)"/>
     <use xlink:href="#DejaVuSans-Bold-6c" transform="translate(307.275391 0)"/>
     <use xlink:href="#DejaVuSans-Bold-73" transform="translate(341.552734 0)"/>
    </g>
   </g>
   <g id="text_21">
    <!-- Buttons -->
    <g transform="translate(904.315781 570.731563) scale(0.07 -0.07)">
     <defs>
      <path id="DejaVuSans-Bold-42" d="M 2456 2859 
Q 2741 2859 2887 2984 
Q 3034 3109 3034 3353 
Q 3034 3594 2887 3720 
Q 2741 3847 2456 3847 
L 1791 3847 
L 1791 2859 
L 2456 2859 
z
M 2497 819 
Q 2859 819 3042 972 
Q 3225 1125 3225 1434 
Q 3225 1738 3044 1889 
Q 2863 2041 2497 2041 
L 1791 2041 
L 1791 819 
L 2497 819 
z
M 3616 2497 
Q 4003 2384 4215 2081 
Q 4428 1778 4428 1338 
Q 4428 663 3972 331 
Q 3516 0 2584 0 
L 588 0 
L 588 4666 
L 2394 4666 
Q 3366 4666 3802 4372 
Q 4238 4078 4238 3431 
Q 4238 3091 4078 2852 
Q 3919 2613 3616 2497 
z
" transform="scale(0.015625)"/>
     </defs>
     <use xlink:href="#DejaVuSans-Bold-42"/>
     <use xlink:href="#DejaVuSans-Bold-75" transform="translate(76.220703 0)"/>
     <use xlink:href="#DejaVuSans-Bold-74" transform="translate(147.412109 0)"/>
     <use xlink:href="#DejaVuSans-Bold-74" transform="translate(195.214844 0)"/>
     <use xlink:href="#DejaVuSans-Bold-6f" transform="translate(243.017578 0)"/>
     <use xlink:href="#DejaVuSans-Bold-6e" transform="translate(311.71875 0)"/>
     <use xlink:href="#DejaVuSans-Bold-73" transform="translate(382.910156 0)"/>
    </g>
   </g>
   <g id="text_22">
    <!-- Footer -->
    <g transform="translate(1047.367031 570.731563) scale(0.07 -0.07)">
     <use xlink:href="#DejaVuSans-Bold-46"/>
     <use xlink:href="#DejaVuSans-Bold-6f" transform="translate(64.310547 0)"/>
     <use xlink:href="#DejaVuSans-Bold-6f" transform="translate(133.011719 0)"/>
     <use xlink:href="#DejaVuSans-Bold-74" transform="translate(201.712891 0)"/>
     <use xlink:href="#DejaVuSans-Bold-65" transform="translate(249.515625 0)"/>
     <use xlink:href="#DejaVuSans-Bold-72" transform="translate(317.337891 0)"/>
    </g>
   </g>
   <g id="text_23">
    <!-- State Management &amp; Data Flow -->
    <g transform="translate(461.10375 639) scale(0.12 -0.12)">
     <defs>
      <path id="DejaVuSans-Bold-77" d="M 225 3500 
L 1313 3500 
L 1900 1088 
L 2491 3500 
L 3425 3500 
L 4013 1113 
L 4603 3500 
L 5691 3500 
L 4769 0 
L 3547 0 
L 2956 2406 
L 2369 0 
L 1147 0 
L 225 3500 
z
" transform="scale(0.015625)"/>
     </defs>
     <use xlink:href="#DejaVuSans-Bold-53"/>
     <use xlink:href="#DejaVuSans-Bold-74" transform="translate(72.021484 0)"/>
     <use xlink:href="#DejaVuSans-Bold-61" transform="translate(119.824219 0)"/>
     <use xlink:href="#DejaVuSans-Bold-74" transform="translate(187.304688 0)"/>
     <use xlink:href="#DejaVuSans-Bold-65" transform="translate(235.107422 0)"/>
     <use xlink:href="#DejaVuSans-Bold-20" transform="translate(302.929688 0)"/>
     <use xlink:href="#DejaVuSans-Bold-4d" transform="translate(337.744141 0)"/>
     <use xlink:href="#DejaVuSans-Bold-61" transform="translate(437.255859 0)"/>
     <use xlink:href="#DejaVuSans-Bold-6e" transform="translate(504.736328 0)"/>
     <use xlink:href="#DejaVuSans-Bold-61" transform="translate(575.927734 0)"/>
     <use xlink:href="#DejaVuSans-Bold-67" transform="translate(643.408203 0)"/>
     <use xlink:href="#DejaVuSans-Bold-65" transform="translate(714.990234 0)"/>
     <use xlink:href="#DejaVuSans-Bold-6d" transform="translate(782.8125 0)"/>
     <use xlink:href="#DejaVuSans-Bold-65" transform="translate(887.011719 0)"/>
     <use xlink:href="#DejaVuSans-Bold-6e" transform="translate(954.833984 0)"/>
     <use xlink:href="#DejaVuSans-Bold-74" transform="translate(1026.025391 0)"/>
     <use xlink:href="#DejaVuSans-Bold-20" transform="translate(1073.828125 0)"/>
     <use xlink:href="#DejaVuSans-Bold-26" transform="translate(1108.642578 0)"/>
     <use xlink:href="#DejaVuSans-Bold-20" transform="translate(1195.849609 0)"/>
     <use xlink:href="#DejaVuSans-Bold-44" transform="translate(1230.664062 0)"/>
     <use xlink:href="#DejaVuSans-Bold-61" transform="translate(1313.671875 0)"/>
     <use xlink:href="#DejaVuSans-Bold-74" transform="translate(1381.152344 0)"/>
     <use xlink:href="#DejaVuSans-Bold-61" transform="translate(1428.955078 0)"/>
     <use xlink:href="#DejaVuSans-Bold-20" transform="translate(1496.435547 0)"/>
     <use xlink:href="#DejaVuSans-Bold-46" transform="translate(1531.25 0)"/>
     <use xlink:href="#DejaVuSans-Bold-6c" transform="translate(1599.560547 0)"/>
     <use xlink:href="#DejaVuSans-Bold-6f" transform="translate(1633.837891 0)"/>
     <use xlink:href="#DejaVuSans-Bold-77" transform="translate(1702.539062 0)"/>
    </g>
   </g>
   <g id="text_24">
    <!-- React Query -->
    <g style="fill: #ffffff" transform="translate(190.090625 706.865875) scale(0.08 -0.08)">
     <defs>
      <path id="DejaVuSans-Bold-51" d="M 2847 -84 
L 2753 -84 
Q 1600 -84 959 553 
Q 319 1191 319 2328 
Q 319 3463 958 4106 
Q 1597 4750 2719 4750 
Q 3853 4750 4486 4112 
Q 5119 3475 5119 2328 
Q 5119 1541 4783 972 
Q 4447 403 3816 116 
L 4756 -934 
L 3609 -934 
L 2847 -84 
z
M 2719 3878 
Q 2169 3878 1866 3472 
Q 1563 3066 1563 2328 
Q 1563 1578 1859 1179 
Q 2156 781 2719 781 
Q 3272 781 3575 1187 
Q 3878 1594 3878 2328 
Q 3878 3066 3575 3472 
Q 3272 3878 2719 3878 
z
" transform="scale(0.015625)"/>
     </defs>
     <use xlink:href="#DejaVuSans-Bold-52"/>
     <use xlink:href="#DejaVuSans-Bold-65" transform="translate(77.001953 0)"/>
     <use xlink:href="#DejaVuSans-Bold-61" transform="translate(144.824219 0)"/>
     <use xlink:href="#DejaVuSans-Bold-63" transform="translate(212.304688 0)"/>
     <use xlink:href="#DejaVuSans-Bold-74" transform="translate(271.582031 0)"/>
     <use xlink:href="#DejaVuSans-Bold-20" transform="translate(319.384766 0)"/>
     <use xlink:href="#DejaVuSans-Bold-51" transform="translate(354.199219 0)"/>
     <use xlink:href="#DejaVuSans-Bold-75" transform="translate(439.208984 0)"/>
     <use xlink:href="#DejaVuSans-Bold-65" transform="translate(510.400391 0)"/>
     <use xlink:href="#DejaVuSans-Bold-72" transform="translate(578.222656 0)"/>
     <use xlink:href="#DejaVuSans-Bold-79" transform="translate(627.539062 0)"/>
    </g>
    <!-- Cache -->
    <g style="fill: #ffffff" transform="translate(204.233125 715.886625) scale(0.08 -0.08)">
     <use xlink:href="#DejaVuSans-Bold-43"/>
     <use xlink:href="#DejaVuSans-Bold-61" transform="translate(73.388672 0)"/>
     <use xlink:href="#DejaVuSans-Bold-63" transform="translate(140.869141 0)"/>
     <use xlink:href="#DejaVuSans-Bold-68" transform="translate(200.146484 0)"/>
     <use xlink:href="#DejaVuSans-Bold-65" transform="translate(271.337891 0)"/>
    </g>
   </g>
   <g id="text_25">
    <!-- Context API -->
    <g style="fill: #ffffff" transform="translate(401.84375 706.928375) scale(0.08 -0.08)">
     <defs>
      <path id="DejaVuSans-Bold-49" d="M 588 4666 
L 1791 4666 
L 1791 0 
L 588 0 
L 588 4666 
z
" transform="scale(0.015625)"/>
     </defs>
     <use xlink:href="#DejaVuSans-Bold-43"/>
     <use xlink:href="#DejaVuSans-Bold-6f" transform="translate(73.388672 0)"/>
     <use xlink:href="#DejaVuSans-Bold-6e" transform="translate(142.089844 0)"/>
     <use xlink:href="#DejaVuSans-Bold-74" transform="translate(213.28125 0)"/>
     <use xlink:href="#DejaVuSans-Bold-65" transform="translate(261.083984 0)"/>
     <use xlink:href="#DejaVuSans-Bold-78" transform="translate(328.90625 0)"/>
     <use xlink:href="#DejaVuSans-Bold-74" transform="translate(393.408203 0)"/>
     <use xlink:href="#DejaVuSans-Bold-20" transform="translate(441.210938 0)"/>
     <use xlink:href="#DejaVuSans-Bold-41" transform="translate(476.025391 0)"/>
     <use xlink:href="#DejaVuSans-Bold-50" transform="translate(553.417969 0)"/>
     <use xlink:href="#DejaVuSans-Bold-49" transform="translate(626.708984 0)"/>
    </g>
    <!-- Global State -->
    <g style="fill: #ffffff" transform="translate(400.554375 715.886625) scale(0.08 -0.08)">
     <defs>
      <path id="DejaVuSans-Bold-47" d="M 4781 347 
Q 4331 128 3847 18 
Q 3363 -91 2847 -91 
Q 1681 -91 1000 561 
Q 319 1213 319 2328 
Q 319 3456 1012 4103 
Q 1706 4750 2913 4750 
Q 3378 4750 3804 4662 
Q 4231 4575 4609 4403 
L 4609 3438 
Q 4219 3659 3833 3768 
Q 3447 3878 3059 3878 
Q 2341 3878 1952 3476 
Q 1563 3075 1563 2328 
Q 1563 1588 1938 1184 
Q 2313 781 3003 781 
Q 3191 781 3352 804 
Q 3513 828 3641 878 
L 3641 1784 
L 2906 1784 
L 2906 2591 
L 4781 2591 
L 4781 347 
z
" transform="scale(0.015625)"/>
     </defs>
     <use xlink:href="#DejaVuSans-Bold-47"/>
     <use xlink:href="#DejaVuSans-Bold-6c" transform="translate(82.080078 0)"/>
     <use xlink:href="#DejaVuSans-Bold-6f" transform="translate(116.357422 0)"/>
     <use xlink:href="#DejaVuSans-Bold-62" transform="translate(185.058594 0)"/>
     <use xlink:href="#DejaVuSans-Bold-61" transform="translate(256.640625 0)"/>
     <use xlink:href="#DejaVuSans-Bold-6c" transform="translate(324.121094 0)"/>
     <use xlink:href="#DejaVuSans-Bold-20" transform="translate(358.398438 0)"/>
     <use xlink:href="#DejaVuSans-Bold-53" transform="translate(393.212891 0)"/>
     <use xlink:href="#DejaVuSans-Bold-74" transform="translate(465.234375 0)"/>
     <use xlink:href="#DejaVuSans-Bold-61" transform="translate(513.037109 0)"/>
     <use xlink:href="#DejaVuSans-Bold-74" transform="translate(580.517578 0)"/>
     <use xlink:href="#DejaVuSans-Bold-65" transform="translate(628.320312 0)"/>
    </g>
   </g>
   <g id="text_26">
    <!-- React Hook -->
    <g style="fill: #ffffff" transform="translate(613.328125 706.928375) scale(0.08 -0.08)">
     <use xlink:href="#DejaVuSans-Bold-52"/>
     <use xlink:href="#DejaVuSans-Bold-65" transform="translate(77.001953 0)"/>
     <use xlink:href="#DejaVuSans-Bold-61" transform="translate(144.824219 0)"/>
     <use xlink:href="#DejaVuSans-Bold-63" transform="translate(212.304688 0)"/>
     <use xlink:href="#DejaVuSans-Bold-74" transform="translate(271.582031 0)"/>
     <use xlink:href="#DejaVuSans-Bold-20" transform="translate(319.384766 0)"/>
     <use xlink:href="#DejaVuSans-Bold-48" transform="translate(354.199219 0)"/>
     <use xlink:href="#DejaVuSans-Bold-6f" transform="translate(437.890625 0)"/>
     <use xlink:href="#DejaVuSans-Bold-6f" transform="translate(506.591797 0)"/>
     <use xlink:href="#DejaVuSans-Bold-6b" transform="translate(575.292969 0)"/>
    </g>
    <!-- Form State -->
    <g style="fill: #ffffff" transform="translate(614.029375 715.886625) scale(0.08 -0.08)">
     <use xlink:href="#DejaVuSans-Bold-46"/>
     <use xlink:href="#DejaVuSans-Bold-6f" transform="translate(64.310547 0)"/>
     <use xlink:href="#DejaVuSans-Bold-72" transform="translate(133.011719 0)"/>
     <use xlink:href="#DejaVuSans-Bold-6d" transform="translate(182.328125 0)"/>
     <use xlink:href="#DejaVuSans-Bold-20" transform="translate(286.527344 0)"/>
     <use xlink:href="#DejaVuSans-Bold-53" transform="translate(321.341797 0)"/>
     <use xlink:href="#DejaVuSans-Bold-74" transform="translate(393.363281 0)"/>
     <use xlink:href="#DejaVuSans-Bold-61" transform="translate(441.166016 0)"/>
     <use xlink:href="#DejaVuSans-Bold-74" transform="translate(508.646484 0)"/>
     <use xlink:href="#DejaVuSans-Bold-65" transform="translate(556.449219 0)"/>
    </g>
   </g>
   <g id="text_27">
    <!-- Local Component -->
    <g style="fill: #ffffff" transform="translate(810.685625 706.928375) scale(0.08 -0.08)">
     <use xlink:href="#DejaVuSans-Bold-4c"/>
     <use xlink:href="#DejaVuSans-Bold-6f" transform="translate(63.720703 0)"/>
     <use xlink:href="#DejaVuSans-Bold-63" transform="translate(132.421875 0)"/>
     <use xlink:href="#DejaVuSans-Bold-61" transform="translate(191.699219 0)"/>
     <use xlink:href="#DejaVuSans-Bold-6c" transform="translate(259.179688 0)"/>
     <use xlink:href="#DejaVuSans-Bold-20" transform="translate(293.457031 0)"/>
     <use xlink:href="#DejaVuSans-Bold-43" transform="translate(328.271484 0)"/>
     <use xlink:href="#DejaVuSans-Bold-6f" transform="translate(401.660156 0)"/>
     <use xlink:href="#DejaVuSans-Bold-6d" transform="translate(470.361328 0)"/>
     <use xlink:href="#DejaVuSans-Bold-70" transform="translate(574.560547 0)"/>
     <use xlink:href="#DejaVuSans-Bold-6f" transform="translate(646.142578 0)"/>
     <use xlink:href="#DejaVuSans-Bold-6e" transform="translate(714.84375 0)"/>
     <use xlink:href="#DejaVuSans-Bold-65" transform="translate(786.035156 0)"/>
     <use xlink:href="#DejaVuSans-Bold-6e" transform="translate(853.857422 0)"/>
     <use xlink:href="#DejaVuSans-Bold-74" transform="translate(925.048828 0)"/>
    </g>
    <!-- State -->
    <g style="fill: #ffffff" transform="translate(837.483125 715.886625) scale(0.08 -0.08)">
     <use xlink:href="#DejaVuSans-Bold-53"/>
     <use xlink:href="#DejaVuSans-Bold-74" transform="translate(72.021484 0)"/>
     <use xlink:href="#DejaVuSans-Bold-61" transform="translate(119.824219 0)"/>
     <use xlink:href="#DejaVuSans-Bold-74" transform="translate(187.304688 0)"/>
     <use xlink:href="#DejaVuSans-Bold-65" transform="translate(235.107422 0)"/>
    </g>
   </g>
   <g id="text_28">
    <!-- API Integration Layer (Axios + React Query) -->
    <g style="fill: #ffffff" transform="translate(444.847656 789.140313) scale(0.1 -0.1)">
     <defs>
      <path id="DejaVuSans-Bold-2b" d="M 3053 4013 
L 3053 2375 
L 4684 2375 
L 4684 1638 
L 3053 1638 
L 3053 0 
L 2309 0 
L 2309 1638 
L 678 1638 
L 678 2375 
L 2309 2375 
L 2309 4013 
L 3053 4013 
z
" transform="scale(0.015625)"/>
     </defs>
     <use xlink:href="#DejaVuSans-Bold-41"/>
     <use xlink:href="#DejaVuSans-Bold-50" transform="translate(77.392578 0)"/>
     <use xlink:href="#DejaVuSans-Bold-49" transform="translate(150.683594 0)"/>
     <use xlink:href="#DejaVuSans-Bold-20" transform="translate(187.890625 0)"/>
     <use xlink:href="#DejaVuSans-Bold-49" transform="translate(222.705078 0)"/>
     <use xlink:href="#DejaVuSans-Bold-6e" transform="translate(259.912109 0)"/>
     <use xlink:href="#DejaVuSans-Bold-74" transform="translate(331.103516 0)"/>
     <use xlink:href="#DejaVuSans-Bold-65" transform="translate(378.90625 0)"/>
     <use xlink:href="#DejaVuSans-Bold-67" transform="translate(446.728516 0)"/>
     <use xlink:href="#DejaVuSans-Bold-72" transform="translate(518.310547 0)"/>
     <use xlink:href="#DejaVuSans-Bold-61" transform="translate(567.626953 0)"/>
     <use xlink:href="#DejaVuSans-Bold-74" transform="translate(635.107422 0)"/>
     <use xlink:href="#DejaVuSans-Bold-69" transform="translate(682.910156 0)"/>
     <use xlink:href="#DejaVuSans-Bold-6f" transform="translate(717.1875 0)"/>
     <use xlink:href="#DejaVuSans-Bold-6e" transform="translate(785.888672 0)"/>
     <use xlink:href="#DejaVuSans-Bold-20" transform="translate(857.080078 0)"/>
     <use xlink:href="#DejaVuSans-Bold-4c" transform="translate(891.894531 0)"/>
     <use xlink:href="#DejaVuSans-Bold-61" transform="translate(955.615234 0)"/>
     <use xlink:href="#DejaVuSans-Bold-79" transform="translate(1019.970703 0)"/>
     <use xlink:href="#DejaVuSans-Bold-65" transform="translate(1085.15625 0)"/>
     <use xlink:href="#DejaVuSans-Bold-72" transform="translate(1152.978516 0)"/>
     <use xlink:href="#DejaVuSans-Bold-20" transform="translate(1202.294922 0)"/>
     <use xlink:href="#DejaVuSans-Bold-28" transform="translate(1237.109375 0)"/>
     <use xlink:href="#DejaVuSans-Bold-41" transform="translate(1282.8125 0)"/>
     <use xlink:href="#DejaVuSans-Bold-78" transform="translate(1360.205078 0)"/>
     <use xlink:href="#DejaVuSans-Bold-69" transform="translate(1424.707031 0)"/>
     <use xlink:href="#DejaVuSans-Bold-6f" transform="translate(1458.984375 0)"/>
     <use xlink:href="#DejaVuSans-Bold-73" transform="translate(1527.685547 0)"/>
     <use xlink:href="#DejaVuSans-Bold-20" transform="translate(1587.207031 0)"/>
     <use xlink:href="#DejaVuSans-Bold-2b" transform="translate(1622.021484 0)"/>
     <use xlink:href="#DejaVuSans-Bold-20" transform="translate(1705.810547 0)"/>
     <use xlink:href="#DejaVuSans-Bold-52" transform="translate(1740.625 0)"/>
     <use xlink:href="#DejaVuSans-Bold-65" transform="translate(1817.626953 0)"/>
     <use xlink:href="#DejaVuSans-Bold-61" transform="translate(1885.449219 0)"/>
     <use xlink:href="#DejaVuSans-Bold-63" transform="translate(1952.929688 0)"/>
     <use xlink:href="#DejaVuSans-Bold-74" transform="translate(2012.207031 0)"/>
     <use xlink:href="#DejaVuSans-Bold-20" transform="translate(2060.009766 0)"/>
     <use xlink:href="#DejaVuSans-Bold-51" transform="translate(2094.824219 0)"/>
     <use xlink:href="#DejaVuSans-Bold-75" transform="translate(2179.833984 0)"/>
     <use xlink:href="#DejaVuSans-Bold-65" transform="translate(2251.025391 0)"/>
     <use xlink:href="#DejaVuSans-Bold-72" transform="translate(2318.847656 0)"/>
     <use xlink:href="#DejaVuSans-Bold-79" transform="translate(2368.164062 0)"/>
     <use xlink:href="#DejaVuSans-Bold-29" transform="translate(2433.349609 0)"/>
    </g>
   </g>
   <g id="patch_27">
    <path d="M 568.8 388.277512 
Q 568.8 396.810489 568.8 403.666414 
" style="fill: none; stroke: #0000ff; stroke-width: 1.5; stroke-linecap: round"/>
    <path d="M 570.8 399.666414 
L 568.8 403.666414 
L 566.8 399.666414 
" style="fill: none; stroke: #0000ff; stroke-width: 1.5; stroke-linecap: round"/>
   </g>
   <g id="patch_28">
    <path d="M 568.8 486.560511 
Q 568.8 509.130441 568.8 530.023319 
" style="fill: none; stroke: #008000; stroke-width: 1.5; stroke-linecap: round"/>
    <path d="M 570.8 526.023319 
L 568.8 530.023319 
L 566.8 526.023319 
" style="fill: none; stroke: #008000; stroke-width: 1.5; stroke-linecap: round"/>
   </g>
   <g id="patch_29">
    <path d="M 568.8 586.517991 
Q 568.8 617.939379 568.8 649.360767 
" style="fill: none; stroke: #ff0000; stroke-width: 1.5; stroke-linecap: round"/>
    <path d="M 566.8 590.517991 
L 568.8 586.517991 
L 570.8 590.517991 
" style="fill: none; stroke: #ff0000; stroke-width: 1.5; stroke-linecap: round"/>
    <path d="M 570.8 645.360767 
L 568.8 649.360767 
L 566.8 645.360767 
" style="fill: none; stroke: #ff0000; stroke-width: 1.5; stroke-linecap: round"/>
   </g>
   <g id="patch_30">
    <path d="M 568.8 734.494437 
Q 568.8 744.297882 568.8 754.101326 
" style="fill: none; stroke: #800080; stroke-width: 2; stroke-linecap: round"/>
    <path d="M 566.8 738.494437 
L 568.8 734.494437 
L 570.8 738.494437 
" style="fill: none; stroke: #800080; stroke-width: 2; stroke-linecap: round"/>
    <path d="M 570.8 750.101326 
L 568.8 754.101326 
L 566.8 750.101326 
" style="fill: none; stroke: #800080; stroke-width: 2; stroke-linecap: round"/>
   </g>
  </g>
 </g>
 <defs>
  <clipPath id="pa9e14b5dc5">
   <rect x="7.2" y="7.2" width="1123.2" height="842.4"/>
  </clipPath>
 </defs>
</svg>
